<svg width="14" height="14" viewBox="0 0 14 14" fill="none" xmlns="http://www.w3.org/2000/svg">
<mask id="path-1-inside-1_328_3588" fill="white">
<path d="M9.3335 3.35425C9.57266 3.35425 9.771 3.15591 9.771 2.91675V1.16675C9.771 0.927581 9.57266 0.729248 9.3335 0.729248C9.09433 0.729248 8.896 0.927581 8.896 1.16675V2.91675C8.896 3.15591 9.09433 3.35425 9.3335 3.35425Z"/>
</mask>
<path d="M9.3335 3.35425C9.57266 3.35425 9.771 3.15591 9.771 2.91675V1.16675C9.771 0.927581 9.57266 0.729248 9.3335 0.729248C9.09433 0.729248 8.896 0.927581 8.896 1.16675V2.91675C8.896 3.15591 9.09433 3.35425 9.3335 3.35425Z" fill="#808080"/>
<path d="M9.3335 1.85425C8.74424 1.85425 8.271 2.32749 8.271 2.91675H11.271C11.271 3.98434 10.4011 4.85425 9.3335 4.85425V1.85425ZM8.271 2.91675V1.16675H11.271V2.91675H8.271ZM8.271 1.16675C8.271 1.75601 8.74424 2.22925 9.3335 2.22925V-0.770752C10.4011 -0.770752 11.271 0.0991542 11.271 1.16675H8.271ZM9.3335 2.22925C9.92276 2.22925 10.396 1.75601 10.396 1.16675H7.396C7.396 0.0991542 8.2659 -0.770752 9.3335 -0.770752V2.22925ZM10.396 1.16675V2.91675H7.396V1.16675H10.396ZM10.396 2.91675C10.396 2.32749 9.92276 1.85425 9.3335 1.85425V4.85425C8.2659 4.85425 7.396 3.98434 7.396 2.91675H10.396Z" fill="#808080" mask="url(#path-1-inside-1_328_3588)"/>
<mask id="path-3-inside-2_328_3588" fill="white">
<path d="M4.6665 3.35425C4.90567 3.35425 5.104 3.15591 5.104 2.91675V1.16675C5.104 0.927581 4.90567 0.729248 4.6665 0.729248C4.42734 0.729248 4.229 0.927581 4.229 1.16675V2.91675C4.229 3.15591 4.42734 3.35425 4.6665 3.35425Z"/>
</mask>
<path d="M4.6665 3.35425C4.90567 3.35425 5.104 3.15591 5.104 2.91675V1.16675C5.104 0.927581 4.90567 0.729248 4.6665 0.729248C4.42734 0.729248 4.229 0.927581 4.229 1.16675V2.91675C4.229 3.15591 4.42734 3.35425 4.6665 3.35425Z" fill="#808080"/>
<path d="M4.6665 1.85425C4.07724 1.85425 3.604 2.32749 3.604 2.91675H6.604C6.604 3.98434 5.7341 4.85425 4.6665 4.85425V1.85425ZM3.604 2.91675V1.16675H6.604V2.91675H3.604ZM3.604 1.16675C3.604 1.75601 4.07724 2.22925 4.6665 2.22925V-0.770752C5.7341 -0.770752 6.604 0.0991542 6.604 1.16675H3.604ZM4.6665 2.22925C5.25576 2.22925 5.729 1.75601 5.729 1.16675H2.729C2.729 0.0991542 3.59891 -0.770752 4.6665 -0.770752V2.22925ZM5.729 1.16675V2.91675H2.729V1.16675H5.729ZM5.729 2.91675C5.729 2.32749 5.25576 1.85425 4.6665 1.85425V4.85425C3.59891 4.85425 2.729 3.98434 2.729 2.91675H5.729Z" fill="#808080" mask="url(#path-3-inside-2_328_3588)"/>
<path d="M9.10514 7.85051L9.08309 7.87502L9.0897 7.88236L9.09443 7.88762L9.13867 7.88025M9.10514 7.85051L9.19641 7.81248M9.10514 7.85051L9.13647 7.8157L9.17336 7.77471M9.10514 7.85051L9.17336 7.77471M9.13867 7.88025L9.1452 7.87502L9.20151 7.82997M9.13867 7.88025L9.12748 7.88919L9.11444 7.89963M9.13867 7.88025L9.16999 7.87503L9.17004 7.87502L9.20829 7.86864M9.20151 7.82997C9.20036 7.82567 9.19917 7.82148 9.19794 7.81742C9.19744 7.81575 9.19693 7.81411 9.19641 7.81248M9.20151 7.82997C9.20389 7.83891 9.20608 7.84836 9.20799 7.85831M9.20151 7.82997L9.20427 7.82776C9.2084 7.83711 9.21257 7.84769 9.21651 7.85952L9.20558 7.82672L9.21315 7.82066C9.20998 7.81669 9.20691 7.81291 9.20398 7.80933C9.20026 7.8048 9.19677 7.80059 9.19357 7.79678L9.17926 7.76816L9.45583 7.46086C9.50833 7.51919 9.54917 7.58335 9.57833 7.65335C9.6075 7.72335 9.625 7.79919 9.625 7.87502L9.20799 7.85831M9.19641 7.81248C9.19606 7.81138 9.19571 7.81028 9.19536 7.8092C9.19227 7.80328 9.18933 7.79813 9.18668 7.79375C9.18491 7.7911 9.18325 7.78865 9.18169 7.7864C9.18156 7.78621 9.18143 7.78601 9.18129 7.78582C9.17836 7.78159 9.17569 7.77787 9.17336 7.77471M9.19641 7.81248L9.17336 7.77471M9.20799 7.85831C9.20804 7.85953 9.20809 7.86086 9.20814 7.86231C9.2082 7.86423 9.20825 7.86635 9.20829 7.86864M9.20799 7.85831C9.20823 7.85957 9.20847 7.86084 9.2087 7.86212C9.20908 7.86419 9.20944 7.86628 9.2098 7.86839L9.20829 7.86864M9.20799 7.85831C9.20786 7.85528 9.20771 7.85296 9.20761 7.85142C9.20735 7.84763 9.20717 7.84631 9.20739 7.84835L9.20896 7.86072L9.20914 7.86198L9.21097 7.87502L9.21246 7.88563L9.20803 7.88626M9.20799 7.85831L9.11444 7.89963M9.11444 7.89963L9.10909 7.90391L9.17329 7.97525C9.18426 7.96335 9.19167 7.95124 9.1969 7.93855C9.20164 7.92707 9.20675 7.90974 9.20803 7.88626M9.11444 7.89963L9.20803 7.88626M9.20829 7.86864C9.20832 7.87063 9.20833 7.87276 9.20833 7.87502C9.20833 7.87891 9.20823 7.88266 9.20803 7.88626M8.9947 7.71323C8.98989 7.71433 8.98587 7.71549 8.98264 7.71653C8.98021 7.71765 8.97772 7.71886 8.97519 7.72015C8.97501 7.72024 8.97482 7.72034 8.97464 7.72043C8.96772 7.72399 8.96171 7.72755 8.95684 7.73072C8.95603 7.73125 8.95527 7.73175 8.95457 7.73222L9.00233 7.78529L9.03739 7.82425L9.04127 7.82855L9.04167 7.829L9.04396 7.83154L9.05479 7.82179L9.06616 7.81156L9.08936 7.79069L9.1419 7.7434C9.13306 7.73525 9.12411 7.72907 9.1149 7.72428C9.1117 7.72262 9.10847 7.72113 9.1052 7.71979C9.10498 7.71969 9.10475 7.7196 9.10452 7.7195C9.09124 7.71412 9.07044 7.70835 9.04167 7.70835C9.02162 7.70835 9.00598 7.71065 8.9947 7.71323ZM9.05894 7.86976L9.05546 7.87121L9.05894 7.86976ZM9.11446 8.02462C9.12566 8.01826 9.13753 8.00994 9.14958 7.99904L9.07885 7.93204L9.0766 7.9299L9.06609 7.93831L9.04167 7.95785L9.01768 7.97703L8.98698 8.0016L8.96131 8.02213C8.96523 8.02453 8.9697 8.02707 8.97463 8.0296C8.97482 8.0297 8.97501 8.02979 8.97519 8.02989C8.97855 8.0316 8.98183 8.03316 8.98499 8.03457C8.98818 8.03571 8.9913 8.03673 8.99437 8.03766C9.0122 8.04303 9.02805 8.04493 9.04167 8.04491C9.05113 8.04489 9.05951 8.04394 9.06673 8.04258C9.07691 8.04066 9.08984 8.03694 9.10428 8.02996C9.1076 8.02836 9.11099 8.02658 9.11446 8.02462ZM8.89836 7.96258L8.94073 7.92445L8.9209 7.92728L8.88602 7.94181C8.88804 7.94664 8.89049 7.9513 8.8931 7.9554C8.89568 7.95947 8.89771 7.96186 8.89836 7.96258ZM8.88602 7.94181L8.9209 7.92728L8.88276 7.93273C8.88407 7.93693 8.88525 7.93996 8.88602 7.94181ZM8.88019 7.92333L8.95602 7.91069L8.99565 7.87502L9.00745 7.8644L8.99437 7.852L8.91137 7.77337C8.89617 7.78941 8.875 7.82415 8.875 7.87502C8.875 7.88892 8.8761 7.90069 8.87764 7.91037C8.87841 7.91522 8.87929 7.91953 8.88019 7.92333ZM9.18908 7.79149C9.18583 7.78301 9.18249 7.77525 9.17919 7.76823L9.17407 7.77393L9.1771 7.77744L9.18908 7.79149Z" fill="#808080" stroke="#808080" stroke-width="1.5"/>
<path d="M7.00016 8.45826C7.076 8.45826 7.15183 8.44077 7.22183 8.4116C7.29766 8.38243 7.356 8.34159 7.41433 8.28909C7.51933 8.17825 7.5835 8.03243 7.5835 7.87493C7.5835 7.79909 7.566 7.72326 7.53683 7.65326C7.50766 7.58326 7.46683 7.5191 7.41433 7.46076C7.356 7.40826 7.29766 7.36742 7.22183 7.33825C7.01183 7.24492 6.74933 7.29743 6.586 7.46076C6.481 7.5716 6.41683 7.72326 6.41683 7.87493C6.41683 7.90993 6.42266 7.95077 6.4285 7.9916C6.43433 8.0266 6.446 8.0616 6.4635 8.0966C6.47516 8.1316 6.49266 8.16659 6.51599 8.20159C6.53349 8.23076 6.56266 8.25992 6.586 8.28909C6.69683 8.39409 6.8485 8.45826 7.00016 8.45826Z" fill="#808080"/>
<path d="M4.95817 8.45826C5.034 8.45826 5.10984 8.44077 5.17984 8.4116C5.25567 8.38243 5.314 8.34159 5.37234 8.28909C5.39567 8.25992 5.419 8.23076 5.44234 8.20159C5.46567 8.16659 5.48317 8.1316 5.49484 8.0966C5.51234 8.0616 5.524 8.0266 5.52984 7.9916C5.53567 7.95077 5.5415 7.90993 5.5415 7.87493C5.5415 7.72326 5.47734 7.5716 5.37234 7.46076C5.314 7.40826 5.25567 7.36742 5.17984 7.33825C4.964 7.24492 4.70734 7.29743 4.544 7.46076C4.439 7.5716 4.37484 7.72326 4.37484 7.87493C4.37484 7.90993 4.38067 7.95077 4.3865 7.9916C4.39234 8.0266 4.404 8.0616 4.4215 8.0966C4.43317 8.1316 4.45067 8.16659 4.474 8.20159C4.4915 8.23076 4.52067 8.25992 4.544 8.28909C4.65484 8.39409 4.8065 8.45826 4.95817 8.45826Z" fill="#808080"/>
<path d="M9.04167 10.4999C9.1175 10.4999 9.19333 10.4825 9.26333 10.4533C9.33333 10.4241 9.3975 10.3833 9.45583 10.3308C9.56083 10.2199 9.625 10.0683 9.625 9.91661C9.625 9.84078 9.6075 9.76494 9.57833 9.69494C9.54917 9.61911 9.50833 9.55495 9.45583 9.50245C9.24 9.28662 8.84333 9.28662 8.6275 9.50245C8.5225 9.61328 8.45833 9.76495 8.45833 9.91661C8.45833 10.0683 8.5225 10.2199 8.6275 10.3308C8.73833 10.4358 8.89 10.4999 9.04167 10.4999Z" fill="#808080"/>
<path d="M7.00016 10.4999C7.15183 10.4999 7.3035 10.4358 7.41433 10.3308C7.51933 10.2199 7.5835 10.0683 7.5835 9.91661C7.5835 9.84078 7.566 9.76494 7.53683 9.69494C7.50766 9.61911 7.46683 9.55495 7.41433 9.50245C7.1985 9.28662 6.80183 9.28662 6.586 9.50245C6.5335 9.55495 6.49266 9.61911 6.4635 9.69494C6.43433 9.76494 6.41683 9.84078 6.41683 9.91661C6.41683 10.0683 6.481 10.2199 6.586 10.3308C6.69683 10.4358 6.8485 10.4999 7.00016 10.4999Z" fill="#808080"/>
<path d="M4.95817 10.4999C5.10984 10.4999 5.2615 10.4358 5.37234 10.3308C5.42484 10.2783 5.46567 10.2141 5.49484 10.1383C5.524 10.0683 5.5415 9.99245 5.5415 9.91662C5.5415 9.84078 5.524 9.76495 5.49484 9.69495C5.46567 9.61911 5.42484 9.55495 5.37234 9.50245C5.23817 9.36829 5.034 9.30411 4.84734 9.34494C4.8065 9.35078 4.7715 9.36244 4.7365 9.37994C4.7015 9.39161 4.6665 9.40912 4.6315 9.43246C4.60234 9.44996 4.57317 9.47912 4.544 9.50245C4.439 9.61329 4.37484 9.76495 4.37484 9.91662C4.37484 10.0683 4.439 10.2199 4.544 10.3308C4.65484 10.4358 4.8065 10.4999 4.95817 10.4999Z" fill="#808080"/>
<path d="M2.04183 5.73999H11.9585C12.1977 5.73999 12.396 5.54166 12.396 5.30249C12.396 5.06332 12.1977 4.86499 11.9585 4.86499H2.04183C1.80266 4.86499 1.60433 5.06332 1.60433 5.30249C1.60433 5.54166 1.80266 5.73999 2.04183 5.73999Z" fill="#808080"/>
<path d="M4.66667 13.2709H9.33333C11.4625 13.2709 12.6875 12.0459 12.6875 9.91675V4.95841C12.6875 2.82925 11.4625 1.60425 9.33333 1.60425H4.66667C2.5375 1.60425 1.3125 2.82925 1.3125 4.95841V9.91675C1.3125 12.0459 2.5375 13.2709 4.66667 13.2709ZM9.33333 2.47925C11.0017 2.47925 11.8125 3.29008 11.8125 4.95841V9.91675C11.8125 11.5851 11.0017 12.3959 9.33333 12.3959H4.66667C2.99833 12.3959 2.1875 11.5851 2.1875 9.91675V4.95841C2.1875 3.29008 2.99833 2.47925 4.66667 2.47925H9.33333Z" fill="#808080"/>
</svg>
