<svg width="20" height="20" viewBox="0 0 20 20" fill="none" xmlns="http://www.w3.org/2000/svg">
<path d="M14.3666 18.9584H5.63327C3.29994 18.9584 1.81661 17.5667 1.68327 15.2417L1.24994 8.36675C1.18327 7.32508 1.54161 6.32508 2.25827 5.56675C2.96661 4.80841 3.96661 4.37508 4.99994 4.37508C5.26661 4.37508 5.52494 4.21675 5.64994 3.96675L6.24994 2.77508C6.74161 1.80008 7.97494 1.04175 9.04994 1.04175H10.9583C12.0333 1.04175 13.2583 1.80008 13.7499 2.76675L14.3499 3.98342C14.4749 4.21675 14.7249 4.37508 14.9999 4.37508C16.0333 4.37508 17.0333 4.80841 17.7416 5.56675C18.4583 6.33342 18.8166 7.32508 18.7499 8.36675L18.3166 15.2501C18.1666 17.6084 16.7249 18.9584 14.3666 18.9584ZM9.04994 2.29175C8.43327 2.29175 7.64994 2.77508 7.36661 3.33341L6.76661 4.53341C6.41661 5.20842 5.74161 5.62508 4.99994 5.62508C4.29994 5.62508 3.64994 5.90841 3.16661 6.41675C2.69161 6.92508 2.44994 7.59175 2.49994 8.28341L2.93327 15.1667C3.03327 16.8501 3.94161 17.7084 5.63327 17.7084H14.3666C16.0499 17.7084 16.9583 16.8501 17.0666 15.1667L17.4999 8.28341C17.5416 7.59175 17.3083 6.92508 16.8333 6.41675C16.3499 5.90841 15.6999 5.62508 14.9999 5.62508C14.2583 5.62508 13.5833 5.20842 13.2333 4.55008L12.6249 3.33341C12.3499 2.78341 11.5666 2.30008 10.9499 2.30008H9.04994V2.29175Z" fill="#292D32"/>
<path d="M11.25 7.29175H8.75C8.40833 7.29175 8.125 7.00841 8.125 6.66675C8.125 6.32508 8.40833 6.04175 8.75 6.04175H11.25C11.5917 6.04175 11.875 6.32508 11.875 6.66675C11.875 7.00841 11.5917 7.29175 11.25 7.29175Z" fill="#292D32"/>
<path d="M9.99996 15.6249C8.15829 15.6249 6.66663 14.1333 6.66663 12.2916C6.66663 10.4499 8.15829 8.95825 9.99996 8.95825C11.8416 8.95825 13.3333 10.4499 13.3333 12.2916C13.3333 14.1333 11.8416 15.6249 9.99996 15.6249ZM9.99996 10.2083C8.84996 10.2083 7.91663 11.1416 7.91663 12.2916C7.91663 13.4416 8.84996 14.3749 9.99996 14.3749C11.15 14.3749 12.0833 13.4416 12.0833 12.2916C12.0833 11.1416 11.15 10.2083 9.99996 10.2083Z" fill="#292D32"/>
</svg>
