<svg width="18" height="18" viewBox="0 0 18 18" fill="none" xmlns="http://www.w3.org/2000/svg">
<mask id="path-1-inside-1_589_2716" fill="white">
<path d="M13.8225 17.0246C15.5775 17.0246 17.0625 15.5396 17.0625 13.7846V9.16461C17.1 6.97461 16.29 4.91211 14.775 3.36711C13.26 1.82961 11.2275 0.974609 9.0375 0.974609C4.5675 0.974609 0.937502 4.61211 0.937502 9.07461V13.6946C0.937502 15.4796 2.3925 16.9346 4.1775 16.9346C5.9325 16.9346 7.4175 15.4496 7.4175 13.6946V11.5871C7.4175 10.4996 6.5625 9.64461 5.475 9.64461C4.3875 9.64461 3.5325 10.4996 3.5325 11.5871V13.8596C3.5325 14.1671 3.7875 14.4221 4.095 14.4221C4.4025 14.4221 4.6575 14.1671 4.6575 13.8596V11.5871C4.6575 11.0771 5.07 10.7696 5.475 10.7696C5.985 10.7696 6.2925 11.1821 6.2925 11.5871V13.6946C6.2925 14.8421 5.325 15.8096 4.1775 15.8096C3.03 15.8096 2.0625 14.8421 2.0625 13.6946V9.07461C2.0625 5.22711 5.19 2.09961 9.0375 2.09961C10.92 2.09961 12.6675 2.82711 13.9725 4.15461C15.2775 5.48211 15.975 7.25961 15.9375 9.14961V13.7846C15.9375 14.9321 14.97 15.8996 13.8225 15.8996C12.675 15.8996 11.7075 14.9321 11.7075 13.7846V11.6771C11.7075 11.1671 12.12 10.8596 12.525 10.8596C13.035 10.8596 13.3425 11.2721 13.3425 11.6771V13.8671C13.3425 14.1746 13.5975 14.4296 13.905 14.4296C14.2125 14.4296 14.4675 14.1746 14.4675 13.8671V11.6771C14.4675 10.5896 13.6125 9.73461 12.525 9.73461C11.4375 9.73461 10.5825 10.5896 10.5825 11.6771V13.7846C10.5825 15.5396 12.0675 17.0246 13.8225 17.0246Z"/>
</mask>
<path d="M13.8225 17.0246C15.5775 17.0246 17.0625 15.5396 17.0625 13.7846V9.16461C17.1 6.97461 16.29 4.91211 14.775 3.36711C13.26 1.82961 11.2275 0.974609 9.0375 0.974609C4.5675 0.974609 0.937502 4.61211 0.937502 9.07461V13.6946C0.937502 15.4796 2.3925 16.9346 4.1775 16.9346C5.9325 16.9346 7.4175 15.4496 7.4175 13.6946V11.5871C7.4175 10.4996 6.5625 9.64461 5.475 9.64461C4.3875 9.64461 3.5325 10.4996 3.5325 11.5871V13.8596C3.5325 14.1671 3.7875 14.4221 4.095 14.4221C4.4025 14.4221 4.6575 14.1671 4.6575 13.8596V11.5871C4.6575 11.0771 5.07 10.7696 5.475 10.7696C5.985 10.7696 6.2925 11.1821 6.2925 11.5871V13.6946C6.2925 14.8421 5.325 15.8096 4.1775 15.8096C3.03 15.8096 2.0625 14.8421 2.0625 13.6946V9.07461C2.0625 5.22711 5.19 2.09961 9.0375 2.09961C10.92 2.09961 12.6675 2.82711 13.9725 4.15461C15.2775 5.48211 15.975 7.25961 15.9375 9.14961V13.7846C15.9375 14.9321 14.97 15.8996 13.8225 15.8996C12.675 15.8996 11.7075 14.9321 11.7075 13.7846V11.6771C11.7075 11.1671 12.12 10.8596 12.525 10.8596C13.035 10.8596 13.3425 11.2721 13.3425 11.6771V13.8671C13.3425 14.1746 13.5975 14.4296 13.905 14.4296C14.2125 14.4296 14.4675 14.1746 14.4675 13.8671V11.6771C14.4675 10.5896 13.6125 9.73461 12.525 9.73461C11.4375 9.73461 10.5825 10.5896 10.5825 11.6771V13.7846C10.5825 15.5396 12.0675 17.0246 13.8225 17.0246Z" fill="#292D32"/>
<path d="M17.0625 9.16461H15.5625V9.15177L15.5627 9.13893L17.0625 9.16461ZM14.775 3.36711L15.8435 2.31429L15.846 2.3169L14.775 3.36711ZM15.9375 9.14961H14.4375V9.13473L14.4378 9.11985L15.9375 9.14961ZM13.8225 15.5246C14.7491 15.5246 15.5625 14.7112 15.5625 13.7846H18.5625C18.5625 16.368 16.4059 18.5246 13.8225 18.5246V15.5246ZM15.5625 13.7846V9.16461H18.5625V13.7846H15.5625ZM15.5627 9.13893C15.5935 7.34214 14.932 5.66964 13.704 4.41732L15.846 2.3169C17.648 4.15458 18.6065 6.60708 18.5623 9.19029L15.5627 9.13893ZM13.7066 4.41992C12.4742 3.16929 10.8269 2.47461 9.0375 2.47461V-0.525391C11.6281 -0.525391 14.0458 0.489928 15.8435 2.3143L13.7066 4.41992ZM9.0375 2.47461C5.39683 2.47461 2.4375 5.43963 2.4375 9.07461H-0.562498C-0.562498 3.78459 3.73817 -0.525391 9.0375 -0.525391V2.47461ZM2.4375 9.07461V13.6946H-0.562498V9.07461H2.4375ZM2.4375 13.6946C2.4375 14.6512 3.22093 15.4346 4.1775 15.4346V18.4346C1.56407 18.4346 -0.562498 16.308 -0.562498 13.6946H2.4375ZM4.1775 15.4346C5.10407 15.4346 5.9175 14.6212 5.9175 13.6946H8.9175C8.9175 16.278 6.76093 18.4346 4.1775 18.4346V15.4346ZM5.9175 13.6946V11.5871H8.9175V13.6946H5.9175ZM5.9175 11.5871C5.9175 11.4459 5.86516 11.3405 5.7934 11.2687C5.72165 11.1969 5.61618 11.1446 5.475 11.1446V8.14461C7.39093 8.14461 8.9175 9.67118 8.9175 11.5871H5.9175ZM5.475 11.1446C5.33382 11.1446 5.22836 11.1969 5.1566 11.2687C5.08484 11.3405 5.0325 11.4459 5.0325 11.5871H2.0325C2.0325 9.67118 3.55907 8.14461 5.475 8.14461V11.1446ZM5.0325 11.5871V13.8596H2.0325V11.5871H5.0325ZM5.0325 13.8596C5.0325 13.3387 4.61593 12.9221 4.095 12.9221V15.9221C2.95907 15.9221 2.0325 14.9955 2.0325 13.8596H5.0325ZM4.095 12.9221C3.57407 12.9221 3.1575 13.3387 3.1575 13.8596H6.1575C6.1575 14.9955 5.23093 15.9221 4.095 15.9221V12.9221ZM3.1575 13.8596V11.5871H6.1575V13.8596H3.1575ZM3.1575 11.5871C3.1575 10.1255 4.37036 9.26961 5.475 9.26961V12.2696C5.64058 12.2696 5.79913 12.2107 5.92674 12.094C6.07419 11.9591 6.1575 11.7658 6.1575 11.5871H3.1575ZM5.475 9.26961C6.9366 9.26961 7.7925 10.4825 7.7925 11.5871H4.7925C4.7925 11.7527 4.85143 11.9112 4.96815 12.0388C5.10302 12.1863 5.29629 12.2696 5.475 12.2696V9.26961ZM7.7925 11.5871V13.6946H4.7925V11.5871H7.7925ZM7.7925 13.6946C7.7925 15.6705 6.15343 17.3096 4.1775 17.3096V14.3096C4.49657 14.3096 4.7925 14.0137 4.7925 13.6946H7.7925ZM4.1775 17.3096C2.20157 17.3096 0.562502 15.6705 0.562502 13.6946H3.5625C3.5625 14.0137 3.85843 14.3096 4.1775 14.3096V17.3096ZM0.562502 13.6946V9.07461H3.5625V13.6946H0.562502ZM0.562502 9.07461C0.562502 4.39868 4.36157 0.599609 9.0375 0.599609V3.59961C6.01843 3.59961 3.5625 6.05554 3.5625 9.07461H0.562502ZM9.0375 0.599609C11.317 0.599609 13.4515 1.48495 15.0422 3.10305L12.9028 5.20617C11.8835 4.16927 10.523 3.59961 9.0375 3.59961V0.599609ZM15.0422 3.10305C16.6361 4.7245 17.4825 6.89432 17.4372 9.17937L14.4378 9.11985C14.4675 7.6249 13.9189 6.23972 12.9028 5.20617L15.0422 3.10305ZM17.4375 9.14961V13.7846H14.4375V9.14961H17.4375ZM17.4375 13.7846C17.4375 15.7605 15.7984 17.3996 13.8225 17.3996V14.3996C14.1416 14.3996 14.4375 14.1037 14.4375 13.7846H17.4375ZM13.8225 17.3996C11.8466 17.3996 10.2075 15.7605 10.2075 13.7846H13.2075C13.2075 14.1037 13.5034 14.3996 13.8225 14.3996V17.3996ZM10.2075 13.7846V11.6771H13.2075V13.7846H10.2075ZM10.2075 11.6771C10.2075 10.2155 11.4204 9.35961 12.525 9.35961V12.3596C12.6906 12.3596 12.8491 12.3007 12.9767 12.184C13.1242 12.0491 13.2075 11.8558 13.2075 11.6771H10.2075ZM12.525 9.35961C13.9866 9.35961 14.8425 10.5725 14.8425 11.6771H11.8425C11.8425 11.8427 11.9014 12.0012 12.0182 12.1288C12.153 12.2763 12.3463 12.3596 12.525 12.3596V9.35961ZM14.8425 11.6771V13.8671H11.8425V11.6771H14.8425ZM14.8425 13.8671C14.8425 13.3462 14.4259 12.9296 13.905 12.9296V15.9296C12.7691 15.9296 11.8425 15.003 11.8425 13.8671H14.8425ZM13.905 12.9296C13.3841 12.9296 12.9675 13.3462 12.9675 13.8671H15.9675C15.9675 15.003 15.0409 15.9296 13.905 15.9296V12.9296ZM12.9675 13.8671V11.6771H15.9675V13.8671H12.9675ZM12.9675 11.6771C12.9675 11.5359 12.9152 11.4305 12.8434 11.3587C12.7716 11.2869 12.6662 11.2346 12.525 11.2346V8.23461C14.4409 8.23461 15.9675 9.76118 15.9675 11.6771H12.9675ZM12.525 11.2346C12.3838 11.2346 12.2784 11.2869 12.2066 11.3587C12.1348 11.4305 12.0825 11.5359 12.0825 11.6771H9.0825C9.0825 9.76118 10.6091 8.23461 12.525 8.23461V11.2346ZM12.0825 11.6771V13.7846H9.0825V11.6771H12.0825ZM12.0825 13.7846C12.0825 14.7112 12.8959 15.5246 13.8225 15.5246V18.5246C11.2391 18.5246 9.0825 16.368 9.0825 13.7846H12.0825Z" fill="#0C5137" mask="url(#path-1-inside-1_589_2716)"/>
</svg>
