<svg width="161" height="107" viewBox="0 0 161 107" fill="none" xmlns="http://www.w3.org/2000/svg">
<path d="M87.1132 84.1558V93.487H85.5559V94.5067H87.1132V100.751H116.244V95.0614H114.087V93.824H116.244V91.968H117.204V91.1147H116.065V84.1558H87.1132Z" fill="#F5F5F5"/>
<path d="M108.511 84.1835V100.64H116.244V94.959H114.087V93.824L116.244 93.8624V92.0064L117.221 92.0086L117.204 91.0486L116.065 91.0208V84.1558L108.511 84.1835Z" fill="#E0E0E0"/>
<path d="M109.061 94.3658C109.061 94.4234 103.792 94.4682 97.2937 94.4682C90.7956 94.4682 85.522 94.4234 85.522 94.3658C85.522 94.3082 90.7913 94.2612 97.2937 94.2612C103.796 94.2612 109.061 94.3082 109.061 94.3658Z" fill="#E0E0E0"/>
<path d="M109.061 93.4187C109.061 93.4742 103.792 93.5211 97.2937 93.5211C90.7956 93.5211 85.522 93.4742 85.522 93.4187C85.522 93.3633 90.7913 93.3142 97.2937 93.3142C103.796 93.3142 109.061 93.3611 109.061 93.4187Z" fill="#E0E0E0"/>
<path d="M110.58 90.8672C110.58 90.9248 105.311 90.9696 98.8104 90.9696C92.3101 90.9696 87.0408 90.9248 87.0408 90.8672C87.0408 90.8096 92.3101 90.7627 98.8104 90.7627C105.311 90.7627 110.58 90.8096 110.58 90.8672Z" fill="#E0E0E0"/>
<path d="M110.719 97.8175C110.719 97.8751 105.449 97.922 98.949 97.922C92.4488 97.922 87.1794 97.8751 87.1794 97.8175C87.1794 97.7599 92.4466 97.7065 98.949 97.7065C105.451 97.7065 110.719 97.762 110.719 97.8175Z" fill="#E0E0E0"/>
<path d="M38.0036 56.1544L26.686 54.7126L24.9329 68.4745L36.2505 69.9163L38.0036 56.1544Z" fill="white"/>
<path d="M38.0041 56.1552L26.6865 54.7134L25.382 64.9538L36.6996 66.3956L38.0041 56.1552Z" fill="#EBEBEB"/>
<path d="M32.3912 67.0208C32.3912 67.04 30.9213 66.8715 29.1165 66.6411C27.3117 66.4107 25.8504 66.2144 25.8525 66.1867C25.8547 66.159 27.3203 66.336 29.1272 66.5643C30.9341 66.7926 32.3933 66.9995 32.3912 67.0208Z" fill="#E0E0E0"/>
<path d="M28.6045 67.2532C28.6045 67.2724 27.9645 67.2084 27.1795 67.1103C26.7038 67.0646 26.2309 66.9934 25.7629 66.897C26.2402 66.9187 26.7159 66.9665 27.188 67.0399C27.6637 67.0856 28.1365 67.1568 28.6045 67.2532Z" fill="#E0E0E0"/>
<path d="M36.2525 69.9158C36.2511 69.8938 36.2511 69.8717 36.2525 69.8496C36.2525 69.8027 36.2653 69.7387 36.2739 69.6555C36.2952 69.4848 36.3251 69.2288 36.3656 68.9088C36.4467 68.256 36.5661 67.3024 36.7155 66.0928C37.0184 63.6758 37.4515 60.239 37.9635 56.1494L37.9933 56.1878L26.6867 54.7499L26.7315 54.7158C26.0915 59.8059 25.4749 64.5291 24.9715 68.4779L24.9437 68.4416L33.1485 69.5083L35.4419 69.8091L36.0477 69.8902L36.2611 69.92L36.0477 69.8966L35.4483 69.824L33.1613 69.5467L24.9309 68.5142H24.8989V68.4822C25.3981 64.544 25.9997 59.808 26.6461 54.72V54.6816H26.6845L37.9912 56.128H38.0253V56.1622C37.4963 60.2603 37.0525 63.7035 36.7453 66.1227C36.5896 67.328 36.4637 68.2774 36.3805 68.9302C36.3379 69.2523 36.3037 69.4998 36.2824 69.6683L36.2547 69.8582C36.2568 69.8944 36.2525 69.9158 36.2525 69.9158Z" fill="#E0E0E0"/>
<path d="M21.5187 49.5811L10.2019 51.0288L11.9623 64.7897L23.2791 63.342L21.5187 49.5811Z" fill="#F5F5F5"/>
<path d="M21.5202 49.5796L10.2034 51.0273L11.5133 61.2671L22.8301 59.8194L21.5202 49.5796Z" fill="#E0E0E0"/>
<path d="M18.8168 61.5081C18.8168 61.5273 17.3576 61.7321 15.5528 61.9647C13.748 62.1972 12.2824 62.3657 12.2803 62.3444C12.2781 62.3231 13.7373 62.1183 15.5443 61.8879C17.3512 61.6575 18.8147 61.4868 18.8168 61.5081Z" fill="#E0E0E0"/>
<path d="M15.2201 62.6836C14.7529 62.7804 14.2807 62.8516 13.8057 62.8969C13.3336 62.9703 12.8579 63.018 12.3806 63.0399C12.8481 62.9445 13.3202 62.8733 13.795 62.8265C14.2671 62.7532 14.7428 62.7055 15.2201 62.6836Z" fill="#E0E0E0"/>
<path d="M23.2819 63.3409C23.2819 63.3409 23.2819 63.3174 23.2712 63.2747C23.2605 63.2321 23.2563 63.1659 23.2435 63.0806C23.2221 62.9099 23.188 62.6539 23.1453 62.3361C23.06 61.6833 22.932 60.7297 22.7763 59.5222L21.4963 49.583L21.5347 49.6129L10.228 51.0657L10.2621 51.023C10.9021 56.111 11.5144 60.8363 12.0179 64.7851L11.9816 64.7574L20.1693 63.7227L22.4733 63.4369L23.0792 63.3643L23.2925 63.3409L23.0792 63.3707L22.4797 63.4497L20.1949 63.7505L11.9709 64.8171H11.9389V64.7851C11.4312 60.847 10.8232 56.1131 10.1704 51.0251V50.9867H10.2088L21.5155 49.5425H21.5496V49.5766C22.068 53.6769 22.5032 57.1201 22.8083 59.5414C22.9576 60.7467 23.0771 61.6982 23.1581 62.351C23.1987 62.6731 23.2285 62.9206 23.2499 63.0913C23.2499 63.1723 23.2669 63.2342 23.2712 63.279L23.2819 63.3409Z" fill="#E0E0E0"/>
<path d="M32.0312 47.9035L20.9263 45.2866L17.7442 58.7898L28.8491 61.4067L32.0312 47.9035Z" fill="white"/>
<path d="M32.0307 47.9018L20.9258 45.2849L18.5579 55.3329L29.6628 57.9498L32.0307 47.9018Z" fill="#EBEBEB"/>
<path d="M25.3129 58.1227C25.3129 58.1419 23.8686 57.8219 22.0979 57.4037C20.3273 56.9856 18.8979 56.6315 18.8979 56.6101C18.8979 56.5888 20.3443 56.9109 22.115 57.3291C23.8857 57.7472 25.3193 58.1013 25.3129 58.1227Z" fill="#E0E0E0"/>
<path d="M21.5241 57.9583C21.0537 57.8845 20.5873 57.787 20.1267 57.6661C19.6591 57.569 19.1969 57.4473 18.7422 57.3013C19.2131 57.3753 19.6795 57.475 20.1395 57.5999C20.6072 57.6942 21.0694 57.8139 21.5241 57.9583Z" fill="#E0E0E0"/>
<path d="M28.8521 61.4058L28.8649 61.3397C28.8649 61.2949 28.8883 61.2331 28.9075 61.1499C28.9459 60.9813 29.0035 60.736 29.0761 60.416C29.2254 59.776 29.443 58.8394 29.7161 57.6533C30.2707 55.281 31.0579 51.9082 31.9966 47.8933L32.0222 47.936L20.9203 45.3226L20.9651 45.2949C19.7875 50.2869 18.691 54.9312 17.7779 58.7968L17.7545 58.7584L25.8035 60.6784L28.0521 61.216L28.6473 61.3611L28.8606 61.4122L28.6601 61.3696L28.0627 61.2266L25.8163 60.7061L17.7395 58.8202H17.7075V58.7883L20.8819 45.2843V45.2458H20.9203L32.0243 47.8656H32.0563V47.8997C31.1027 51.9189 30.3006 55.296 29.7374 57.6725C29.4558 58.8544 29.2318 59.7845 29.0803 60.4245C29.0035 60.7402 28.9459 60.9835 28.9054 61.1499C28.8841 61.2288 28.8691 61.2906 28.8585 61.3333L28.8521 61.4058Z" fill="#E0E0E0"/>
<path d="M141.148 55.4351L129.403 59.9297L134.869 74.2135L146.614 69.7189L141.148 55.4351Z" fill="white"/>
<path d="M141.147 55.4354L129.402 59.9299L133.469 70.5596L145.215 66.065L141.147 55.4354Z" fill="#EBEBEB"/>
<path d="M141.355 68.9066C141.355 68.9301 139.862 69.5274 137.978 70.2464C136.095 70.9653 134.578 71.5264 134.565 71.505C134.552 71.4837 136.058 70.8842 137.942 70.1653C139.826 69.4464 141.347 68.8896 141.355 68.9066Z" fill="#E0E0E0"/>
<path d="M137.797 71.1104C136.835 71.5388 135.851 71.9155 134.849 72.2389C135.324 72.0117 135.811 71.8102 136.308 71.6352C136.795 71.4343 137.292 71.2591 137.797 71.1104Z" fill="#E0E0E0"/>
<path d="M146.614 69.7131C146.614 69.7131 146.614 69.6896 146.586 69.6448L146.508 69.4464C146.439 69.2694 146.339 69.0198 146.207 68.672C145.946 67.9958 145.567 67.008 145.08 65.7558C135.525 59.8678 136.995 57.4208 141.112 55.4432L141.161 55.4646L129.428 59.9638L129.454 59.9104C131.472 65.1926 133.351 70.1056 134.913 74.2038L134.868 74.1846L143.401 70.9419C144.428 70.5515 145.234 70.2464 145.786 70.0395L146.416 69.8027L146.629 69.7216L146.416 69.807L145.78 70.0395L143.41 70.9568L134.877 74.2422L134.842 74.255L134.83 74.2208L129.364 59.9467L129.349 59.9062L129.388 59.8912L141.134 55.4112L141.168 55.3984L141.181 55.4326C142.802 59.6992 144.167 63.2662 145.121 65.7814C145.597 67.0336 145.974 68.0214 146.228 68.6976L146.516 69.4678L146.591 69.664L146.614 69.7131Z" fill="#E0E0E0"/>
<path d="M149.505 100.864C149.505 100.894 118.608 100.92 80.5042 100.92C42.4007 100.92 11.4951 100.894 11.4951 100.864C11.4951 100.834 42.3858 100.809 80.5042 100.809C118.623 100.809 149.505 100.832 149.505 100.864Z" fill="#263238"/>
<path d="M152.408 26.5226L125.198 30.0661C124.452 30.1634 123.925 30.8474 124.023 31.594L124.954 38.7421C125.051 39.4887 125.735 40.0151 126.481 39.9179L153.691 36.3744C154.437 36.2771 154.964 35.5931 154.866 34.8465L153.935 27.6984C153.838 26.9518 153.154 26.4254 152.408 26.5226Z" fill="#FAFAFA"/>
<path d="M124.956 38.739C124.956 38.739 124.956 38.8073 125.001 38.9331C125.056 39.1222 125.151 39.297 125.281 39.4451C125.491 39.6868 125.779 39.8469 126.096 39.8974C126.298 39.9203 126.502 39.9117 126.701 39.8718L127.393 39.7801L135.664 38.6878L147.932 37.0814L151.48 36.6185L153.311 36.3795C153.464 36.3561 153.622 36.3433 153.771 36.3134C153.922 36.2856 154.066 36.2314 154.198 36.1534C154.463 35.994 154.664 35.7474 154.768 35.4558C154.82 35.311 154.845 35.1576 154.842 35.0035C154.842 34.8521 154.81 34.6921 154.791 34.5342C154.751 34.2164 154.708 33.8942 154.667 33.5785C154.582 32.9385 154.499 32.2985 154.413 31.6478C154.244 30.3479 154.073 29.0324 153.899 27.7012C153.857 27.3768 153.696 27.0797 153.447 26.867C153.199 26.6543 152.88 26.5411 152.553 26.5491C151.903 26.6195 151.243 26.7156 150.597 26.7966L146.757 27.2958L139.504 28.2366L127.233 29.8259L125.953 29.9923L125.336 30.0713C125.138 30.0847 124.945 30.1361 124.767 30.2227C124.597 30.3079 124.448 30.4279 124.328 30.575C124.209 30.7221 124.122 30.8929 124.073 31.0761C123.973 31.4345 124.073 31.7971 124.112 32.1427C124.291 33.5315 124.442 34.7262 124.568 35.7033C124.694 36.6803 124.781 37.4377 124.854 37.9539C124.886 38.2099 124.909 38.4062 124.927 38.5385C124.944 38.6707 124.948 38.739 124.948 38.739C124.948 38.739 124.935 38.6707 124.918 38.5406C124.901 38.4105 124.871 38.2121 124.837 37.9561C124.769 37.4398 124.666 36.6761 124.536 35.7076C124.406 34.739 124.248 33.5358 124.065 32.1491C124.043 31.9763 124.02 31.7993 123.996 31.6201C123.97 31.4344 123.979 31.2453 124.024 31.0633C124.074 30.8729 124.164 30.6952 124.287 30.5419C124.411 30.3886 124.566 30.2631 124.741 30.1737C124.926 30.085 125.125 30.0315 125.33 30.0158L125.944 29.9348L127.224 29.7683L139.501 28.1598L146.755 27.2126L150.595 26.7134C151.235 26.6324 151.892 26.5364 152.56 26.4638C152.908 26.4551 153.247 26.5757 153.511 26.8022C153.775 27.0288 153.946 27.3452 153.991 27.6905C154.166 29.0217 154.337 30.3372 154.505 31.6372C154.591 32.2857 154.674 32.9257 154.757 33.5571C154.8 33.8772 154.84 34.1971 154.881 34.5129C154.9 34.6707 154.928 34.8265 154.934 34.9929C154.936 35.1564 154.908 35.319 154.853 35.4729C154.773 35.704 154.633 35.9099 154.448 36.0698C154.263 36.2297 154.039 36.338 153.799 36.3838C153.641 36.4137 153.49 36.4265 153.334 36.4499L151.489 36.6931L147.943 37.1539L135.672 38.7433L127.397 39.8099L126.706 39.8974C126.504 39.9373 126.297 39.9445 126.093 39.9187C125.772 39.8669 125.479 39.702 125.268 39.4537C125.138 39.3032 125.045 39.1252 124.995 38.9331C124.98 38.8851 124.969 38.8359 124.963 38.7859L124.956 38.739Z" fill="#263238"/>
<path d="M153.058 36.0517L151.878 26.989L147.234 27.5937L148.415 36.6564L153.058 36.0517Z" fill="#0C5137"/>
<path d="M146.482 36.9064L145.301 27.8438L140.658 28.4485L141.838 37.5112L146.482 36.9064Z" fill="#0C5137"/>
<path d="M139.905 37.7634L138.725 28.7007L134.081 29.3054L135.262 38.3681L139.905 37.7634Z" fill="#0C5137"/>
<path d="M133.329 38.6203L132.148 29.5576L127.505 30.1623L128.685 39.225L133.329 38.6203Z" fill="#0C5137"/>
<g opacity="0.5">
<path d="M153.058 36.0517L151.878 26.989L147.234 27.5937L148.415 36.6564L153.058 36.0517Z" fill="black"/>
</g>
<g opacity="0.6">
<path d="M146.482 36.9064L145.301 27.8438L140.658 28.4485L141.838 37.5112L146.482 36.9064Z" fill="black"/>
</g>
<g opacity="0.7">
<path d="M139.905 37.7634L138.725 28.7007L134.082 29.3054L135.262 38.3681L139.905 37.7634Z" fill="black"/>
</g>
<g opacity="0.8">
<path d="M133.329 38.6203L132.148 29.5576L127.505 30.1623L128.685 39.225L133.329 38.6203Z" fill="black"/>
</g>
<path d="M124.954 37.4804L121.725 31.2212C121.549 30.88 121.516 30.483 121.633 30.1174C121.749 29.7518 122.007 29.4475 122.348 29.2714L146.584 16.7679C146.753 16.6806 146.937 16.6274 147.126 16.6114C147.316 16.5953 147.506 16.6167 147.687 16.6744C147.868 16.7321 148.036 16.8248 148.181 16.9474C148.326 17.07 148.445 17.2199 148.532 17.3887L151.753 23.6479C151.841 23.8168 151.894 24.0012 151.91 24.1907C151.926 24.3801 151.904 24.5709 151.846 24.752C151.788 24.9331 151.695 25.101 151.573 25.2461C151.45 25.3912 151.299 25.5107 151.13 25.5978L126.902 38.1012C126.734 38.1885 126.549 38.2417 126.36 38.2578C126.171 38.2738 125.981 38.2524 125.8 38.1947C125.619 38.137 125.451 38.0443 125.306 37.9217C125.161 37.7992 125.041 37.6492 124.954 37.4804Z" fill="#FAFAFA"/>
<path d="M124.954 37.4804C124.965 37.4939 124.974 37.5082 124.982 37.5231C125.001 37.5508 125.023 37.5956 125.063 37.649C125.176 37.8086 125.321 37.9424 125.49 38.0415C125.762 38.2088 126.083 38.2788 126.401 38.2399C126.601 38.2144 126.795 38.1499 126.97 38.05L127.589 37.7279L134.985 33.8986L145.957 28.226L149.129 26.5898L150.768 25.7364C151.053 25.6217 151.312 25.4504 151.529 25.233C151.681 25.0606 151.787 24.8539 151.841 24.6308C151.894 24.4077 151.892 24.175 151.834 23.953C151.789 23.8045 151.727 23.6615 151.651 23.5263L151.209 22.673L150.318 20.945L148.496 17.4143C148.346 17.1232 148.1 16.8935 147.799 16.7649C147.499 16.6364 147.162 16.617 146.849 16.7103C146.695 16.7629 146.546 16.83 146.405 16.9108L145.966 17.137L145.091 17.5892L141.663 19.3535L135.177 22.6964L124.197 28.3519L123.054 28.9407L122.503 29.2266C122.321 29.3062 122.154 29.4174 122.01 29.5551C121.811 29.7527 121.674 30.0053 121.618 30.2807C121.562 30.5561 121.59 30.8419 121.697 31.1018C121.765 31.2639 121.857 31.4196 121.934 31.5754L123.57 34.7626C124.016 35.6372 124.363 36.3156 124.6 36.7786C124.718 37.009 124.814 37.1839 124.867 37.3034C124.92 37.4228 124.954 37.4847 124.954 37.4847C124.954 37.4847 124.92 37.425 124.858 37.3076L124.585 36.7871C124.346 36.3263 123.992 35.65 123.54 34.7775L121.887 31.5946C121.808 31.4367 121.72 31.2852 121.646 31.1167C121.537 30.847 121.51 30.5515 121.567 30.2665C121.625 29.9816 121.764 29.7195 121.968 29.5124C122.116 29.3717 122.287 29.257 122.473 29.1732L123.024 28.8895L124.165 28.2986L135.139 22.626L141.62 19.2788L145.048 17.5103L145.923 17.058L146.362 16.8319C146.508 16.7463 146.662 16.6748 146.821 16.6186C147.153 16.5214 147.509 16.5428 147.827 16.679C148.146 16.8152 148.407 17.0578 148.566 17.3652L150.392 20.9066L151.284 22.6346L151.723 23.4879C151.804 23.6284 151.868 23.7781 151.913 23.9338C151.956 24.0913 151.972 24.2551 151.96 24.418C151.937 24.7442 151.807 25.0537 151.591 25.2991C151.485 25.4198 151.36 25.5215 151.22 25.5999C151.081 25.6788 150.943 25.745 150.806 25.8132L149.166 26.6666L145.993 28.2964L135.013 33.9519L127.606 37.7599L126.987 38.0778C126.807 38.1778 126.61 38.2423 126.405 38.2676C126.082 38.3015 125.757 38.2264 125.481 38.0543C125.311 37.9525 125.166 37.8149 125.055 37.6511C125.025 37.6103 124.999 37.5675 124.976 37.5231C124.968 37.5092 124.961 37.495 124.954 37.4804Z" fill="#263238"/>
<path d="M150.509 25.4735L146.318 17.3516L142.157 19.4985L146.347 27.6205L150.509 25.4735Z" fill="#0C5137"/>
<path d="M144.614 28.5143L140.424 20.3923L136.262 22.5393L140.453 30.6613L144.614 28.5143Z" fill="#0C5137"/>
<path d="M138.722 31.5561L134.532 23.4341L130.371 25.5811L134.561 33.703L138.722 31.5561Z" fill="#0C5137"/>
<path d="M132.83 34.5959L128.639 26.4739L124.478 28.6209L128.668 36.7428L132.83 34.5959Z" fill="#0C5137"/>
<g opacity="0.1">
<path d="M150.509 25.4735L146.318 17.3516L142.157 19.4985L146.347 27.6205L150.509 25.4735Z" fill="black"/>
</g>
<g opacity="0.2">
<path d="M144.614 28.5143L140.424 20.3923L136.262 22.5393L140.453 30.6613L144.614 28.5143Z" fill="black"/>
</g>
<g opacity="0.3">
<path d="M138.722 31.5561L134.532 23.4341L130.371 25.5811L134.561 33.703L138.722 31.5561Z" fill="black"/>
</g>
<g opacity="0.4">
<path d="M132.829 34.5959L128.639 26.4739L124.478 28.6209L128.668 36.7428L132.829 34.5959Z" fill="black"/>
</g>
<path d="M125.695 37.346L120.321 32.9407C120.169 32.8168 120.043 32.6641 119.95 32.4914C119.857 32.3187 119.799 32.1294 119.779 31.9342C119.759 31.7391 119.778 31.542 119.834 31.3541C119.891 31.1663 119.983 30.9914 120.107 30.8394L137.338 9.81325C137.462 9.66124 137.615 9.53515 137.788 9.44216C137.96 9.34918 138.15 9.29112 138.345 9.27131C138.54 9.2515 138.737 9.27032 138.925 9.3267C139.113 9.38309 139.288 9.47592 139.44 9.59991L144.816 14.0052C144.968 14.1292 145.094 14.2819 145.187 14.4546C145.28 14.6273 145.338 14.8166 145.358 15.0117C145.377 15.2069 145.359 15.404 145.302 15.5918C145.246 15.7797 145.153 15.9546 145.029 16.1066L127.805 37.1284C127.681 37.282 127.528 37.4095 127.355 37.5037C127.181 37.5978 126.991 37.6567 126.795 37.6769C126.599 37.6971 126.401 37.6783 126.212 37.6215C126.023 37.5647 125.847 37.4711 125.695 37.346Z" fill="#FAFAFA"/>
<path d="M125.695 37.346L125.737 37.3737C125.765 37.3908 125.804 37.4249 125.861 37.4569C126.028 37.5594 126.214 37.6269 126.407 37.6553C126.723 37.704 127.046 37.6502 127.329 37.5017C127.677 37.3396 127.913 36.9535 128.231 36.5801L133.494 30.1375L141.3 20.5887L143.559 17.8303L144.726 16.4052C144.941 16.185 145.113 15.9268 145.234 15.6436C145.333 15.3526 145.339 15.0379 145.251 14.7433C145.157 14.4459 144.973 14.185 144.724 13.9967C144.477 13.7961 144.229 13.5935 143.982 13.3887L142.484 12.1599L139.416 9.64253C139.164 9.43802 138.851 9.32253 138.527 9.31399C138.201 9.30843 137.883 9.41291 137.624 9.61053C137.498 9.71164 137.385 9.82769 137.287 9.95613L136.974 10.338C136.76 10.594 136.558 10.8457 136.351 11.0996L133.9 14.0799L129.279 19.714L121.46 29.2521L120.643 30.2463L120.242 30.7199C120.108 30.8659 119.998 31.0323 119.916 31.2127C119.768 31.5652 119.763 31.9613 119.901 32.3177C119.966 32.4861 120.063 32.6403 120.186 32.7721C120.311 32.8971 120.444 33.014 120.583 33.122L123.357 35.394C124.114 36.0191 124.701 36.5055 125.102 36.834L125.554 37.2116C125.656 37.2948 125.705 37.3417 125.705 37.3417L125.548 37.218L125.087 36.8511L123.331 35.4239L120.558 33.1625C120.416 33.0535 120.282 32.9359 120.154 32.8105C120.027 32.6734 119.926 32.5134 119.858 32.3391C119.714 31.9706 119.719 31.5607 119.871 31.1956C119.954 31.0103 120.066 30.8395 120.204 30.69L120.596 30.21L121.409 29.2159L129.223 19.6649L133.833 14.0265L136.276 11.0399L136.899 10.2783C137.004 10.1524 137.112 10.0244 137.21 9.89639C137.313 9.7629 137.431 9.6419 137.562 9.53586C137.838 9.32766 138.176 9.21807 138.521 9.22464C138.867 9.23122 139.2 9.35359 139.468 9.57213L142.537 12.0937L144.041 13.3247L144.782 13.9327C145.044 14.13 145.238 14.4045 145.336 14.7177C145.43 15.0297 145.424 15.3634 145.317 15.6713C145.265 15.8249 145.189 15.969 145.091 16.098C144.995 16.2239 144.895 16.3391 144.797 16.4607C144.404 16.9414 144.015 17.4164 143.63 17.8857C142.857 18.8244 142.104 19.7431 141.368 20.642L133.541 30.1801L128.257 36.6057L127.815 37.1433C127.649 37.3493 127.43 37.5073 127.182 37.601C126.935 37.6947 126.666 37.7208 126.405 37.6767C126.209 37.645 126.023 37.5723 125.857 37.4633C125.8 37.4276 125.746 37.3884 125.695 37.346Z" fill="#263238"/>
<path d="M144.435 16.2073L137.366 10.415L134.398 14.0371L141.467 19.8294L144.435 16.2073Z" fill="#0C5137"/>
<path d="M140.231 21.336L133.161 15.5437L130.194 19.1658L137.263 24.9581L140.231 21.336Z" fill="#0C5137"/>
<path d="M136.027 26.4666L128.958 20.6743L125.99 24.2964L133.059 30.0887L136.027 26.4666Z" fill="#0C5137"/>
<path d="M131.824 31.5965L124.755 25.8042L121.787 29.4263L128.856 35.2186L131.824 31.5965Z" fill="#0C5137"/>
<g opacity="0.5">
<path d="M144.435 16.2073L137.366 10.415L134.398 14.0371L141.467 19.8294L144.435 16.2073Z" fill="white"/>
</g>
<g opacity="0.6">
<path d="M140.231 21.336L133.161 15.5437L130.194 19.1658L137.263 24.9581L140.231 21.336Z" fill="white"/>
</g>
<g opacity="0.7">
<path d="M136.027 26.4666L128.958 20.6743L125.99 24.2964L133.059 30.0887L136.027 26.4666Z" fill="white"/>
</g>
<g opacity="0.8">
<path d="M131.824 31.5965L124.755 25.8042L121.787 29.4263L128.856 35.2186L131.824 31.5965Z" fill="white"/>
</g>
<path d="M126.003 7.31792L117.927 33.4879C117.701 34.2208 118.111 34.9983 118.844 35.2245L125.683 37.335C126.416 37.5611 127.194 37.1504 127.42 36.4174L135.496 10.2475C135.722 9.51457 135.311 8.73708 134.578 8.51091L127.739 6.40039C127.006 6.17422 126.229 6.58501 126.003 7.31792Z" fill="#FAFAFA"/>
<path d="M125.688 37.3333C125.753 37.3503 125.818 37.3638 125.884 37.3738C126.138 37.4118 126.398 37.3783 126.634 37.2769C126.87 37.1755 127.073 37.0103 127.22 36.7999C127.331 36.6305 127.412 36.4428 127.459 36.2453L127.672 35.5775L130.117 27.6074L133.752 15.7866C134.093 14.6759 134.444 13.5381 134.804 12.3733L135.348 10.609C135.393 10.4618 135.444 10.3103 135.482 10.1631C135.517 10.0151 135.529 9.86249 135.516 9.71087C135.483 9.40459 135.348 9.11838 135.132 8.89807C135.025 8.78743 134.899 8.69709 134.759 8.63141C134.614 8.56972 134.465 8.51839 134.313 8.47781L133.394 8.19407L131.533 7.62021L127.732 6.44687C127.419 6.35079 127.081 6.37202 126.783 6.50661C126.484 6.63772 126.244 6.87486 126.111 7.17221C126.047 7.31727 126.004 7.48154 125.953 7.63727L125.808 8.10661C125.712 8.42234 125.613 8.74661 125.517 9.04741C125.132 10.2975 124.752 11.5285 124.376 12.7402L122.221 19.7183L118.565 31.5327L118.183 32.7637C118.121 32.9642 118.059 33.1605 118 33.3567C117.929 33.542 117.895 33.7389 117.897 33.937C117.902 34.1264 117.946 34.3128 118.028 34.484C118.109 34.6552 118.225 34.8075 118.369 34.9311C118.644 35.185 119.009 35.2405 119.346 35.3578L122.772 36.4245L124.935 37.0986L125.496 37.2778L125.688 37.3397L125.494 37.2863L124.931 37.1157L122.761 36.4543L119.327 35.4133L118.817 35.2554C118.539 35.1656 118.296 34.9921 118.121 34.7587C117.946 34.5254 117.848 34.2435 117.84 33.9519C117.836 33.7475 117.871 33.5442 117.942 33.3525C118.004 33.1583 118.064 32.9599 118.125 32.7594C118.247 32.3605 118.375 31.9487 118.503 31.5285C119.54 28.1599 120.777 24.1471 122.147 19.697C122.832 17.4719 123.553 15.1381 124.299 12.7167C124.673 11.5071 125.052 10.2741 125.436 9.02607C125.535 8.71247 125.631 8.39887 125.727 8.08314L125.874 7.61167C125.918 7.45031 125.972 7.2915 126.034 7.13594C126.176 6.82015 126.43 6.56794 126.746 6.42767C127.064 6.28435 127.424 6.26161 127.757 6.36367L131.559 7.53701L133.419 8.10661L134.337 8.39034C134.492 8.43281 134.645 8.48628 134.793 8.55034C134.941 8.62106 135.076 8.71627 135.192 8.83194C135.42 9.0675 135.563 9.3723 135.597 9.69807C135.612 9.85827 135.6 10.0198 135.561 10.1759C135.521 10.3338 135.472 10.4767 135.427 10.6261C135.243 11.2213 135.062 11.8079 134.881 12.3903C134.522 13.5551 134.171 14.6929 133.827 15.8037L130.17 27.6181L127.698 35.5818C127.625 35.8165 127.557 36.0383 127.484 36.2474C127.452 36.3519 127.42 36.4607 127.384 36.5482L127.318 36.6847C127.29 36.7253 127.267 36.7679 127.239 36.8085C127.052 37.0747 126.777 37.2666 126.463 37.3503C126.272 37.4039 126.071 37.4141 125.876 37.3802C125.826 37.3725 125.777 37.361 125.729 37.3461L125.688 37.3333Z" fill="#263238"/>
<path d="M134.958 10.6612L126.225 7.96631L124.844 12.4408L133.577 15.1357L134.958 10.6612Z" fill="#0C5137"/>
<path d="M133.002 16.9984L124.269 14.3035L122.888 18.7779L131.621 21.4728L133.002 16.9984Z" fill="#0C5137"/>
<path d="M131.047 23.336L122.314 20.6411L120.933 25.1156L129.666 27.8105L131.047 23.336Z" fill="#0C5137"/>
<path d="M129.091 29.6704L120.36 26.9761L118.979 31.4505L127.71 34.1448L129.091 29.6704Z" fill="#0C5137"/>
<g opacity="0.2">
<path d="M133.002 16.9984L124.269 14.3035L122.888 18.7779L131.621 21.4728L133.002 16.9984Z" fill="white"/>
</g>
<g opacity="0.3">
<path d="M131.047 23.336L122.314 20.6411L120.933 25.1156L129.666 27.8105L131.047 23.336Z" fill="white"/>
</g>
<g opacity="0.4">
<path d="M129.091 29.6704L120.36 26.9761L118.979 31.4505L127.71 34.1448L129.091 29.6704Z" fill="white"/>
</g>
<g opacity="0.1">
<path d="M134.958 10.6612L126.225 7.96631L124.844 12.4408L133.577 15.1357L134.958 10.6612Z" fill="white"/>
</g>
<path d="M126.695 35.9018C126.587 36.0908 126.425 36.2434 126.23 36.3401C126.035 36.4368 125.815 36.4734 125.599 36.4451C125.383 36.4168 125.18 36.325 125.017 36.1813C124.853 36.0375 124.736 35.8484 124.68 35.6379C124.624 35.4274 124.632 35.205 124.703 34.999C124.773 34.793 124.904 34.6126 125.077 34.4809C125.251 34.3491 125.459 34.2719 125.677 34.259C125.894 34.2461 126.11 34.2981 126.298 34.4085C126.548 34.555 126.729 34.794 126.804 35.0736C126.878 35.3532 126.839 35.6508 126.695 35.9018Z" fill="#455A64"/>
<path d="M126.695 35.9018C126.695 35.9018 126.74 35.8143 126.785 35.6479C126.847 35.4127 126.829 35.1634 126.734 34.9396C126.665 34.7747 126.556 34.6296 126.416 34.5178C126.277 34.4059 126.112 34.3309 125.936 34.2996C125.729 34.263 125.516 34.2882 125.323 34.3722C125.116 34.4615 124.942 34.6143 124.827 34.8087C124.712 35.0031 124.662 35.2289 124.683 35.4538C124.705 35.6626 124.788 35.8602 124.922 36.0212C125.035 36.1587 125.181 36.2657 125.346 36.3324C125.511 36.3991 125.691 36.4234 125.867 36.4031C126.109 36.3754 126.334 36.2681 126.507 36.098C126.629 35.9786 126.676 35.8847 126.682 35.8847C126.689 35.8847 126.682 35.9082 126.652 35.9487C126.618 36.0072 126.577 36.0615 126.531 36.1108C126.358 36.2981 126.125 36.4188 125.872 36.4522C125.697 36.4745 125.52 36.4569 125.353 36.401C125.161 36.3334 124.991 36.2155 124.86 36.0596C124.714 35.8879 124.624 35.6759 124.6 35.4516C124.579 35.2106 124.635 34.9691 124.761 34.7625C124.887 34.5559 125.076 34.3952 125.3 34.3039C125.438 34.2443 125.587 34.2129 125.737 34.2115C125.887 34.2101 126.036 34.2387 126.175 34.2958C126.315 34.3528 126.441 34.4371 126.547 34.5436C126.653 34.6502 126.737 34.7768 126.793 34.9162C126.889 35.1521 126.899 35.414 126.821 35.6564C126.802 35.7223 126.775 35.7855 126.74 35.8442C126.712 35.8826 126.699 35.9039 126.695 35.9018Z" fill="#263238"/>
<path d="M120.485 14.3743H48.1182V62.6196H120.485V14.3743Z" fill="#FAFAFA"/>
<path d="M120.487 62.6196C120.487 62.257 120.47 43.7802 120.442 14.3743L120.487 14.417L48.1244 14.4298L48.1799 14.3743C48.1799 31.554 48.1799 47.8954 48.1799 62.6196L48.1287 62.5684L120.498 62.6196L48.1287 62.6687H48.0732V62.6196C48.0732 47.8996 48.0732 31.554 48.0732 14.3743V14.3188H48.1351H120.498H120.54V14.3636C120.504 43.7802 120.487 62.257 120.487 62.6196Z" fill="#263238"/>
<path d="M86.6397 35.3578C86.6397 35.3578 86.6397 35.3024 86.6397 35.2021C86.6397 35.1018 86.6397 34.9482 86.6397 34.7584C86.6397 34.3658 86.6397 33.8005 86.6269 33.0816C86.6269 31.6373 86.6141 29.5765 86.6035 27.0912L86.6504 27.136H76.0264C76.0136 27.136 76.131 27.0314 76.0819 27.0805V29.2778C76.0819 30.0003 76.0819 30.7114 76.0819 31.4112C76.0819 32.7957 76.0819 34.1184 76.0819 35.3536L76.0328 35.3024L83.6936 35.328L85.8717 35.3408H86.452H86.6035H86.6568H86.4627H85.8931L83.7256 35.3536L76.02 35.4133H75.9709V35.3642C75.9709 34.129 75.9709 32.8042 75.9709 31.4218C75.9709 30.7285 75.9709 30.0202 75.9709 29.2885V27.0933L76.0264 27.0378H86.6504H86.6867V27.0933C86.676 29.5914 86.6696 31.6608 86.6632 33.1114C86.6632 33.8282 86.6632 34.3914 86.6504 34.7797C86.6504 34.9653 86.6504 35.1104 86.6504 35.2064C86.6504 35.3024 86.6397 35.3578 86.6397 35.3578Z" fill="#263238"/>
<path d="M109.037 54.9333H52.0049V18.575H109.037V54.9333ZM52.2182 54.72H108.824V18.7883H52.2182V54.72Z" fill="#263238"/>
<path d="M108.931 18.6814H52.1116V20.5225H108.931V18.6814Z" fill="#263238"/>
<path d="M54.1745 28.5291H52.1116V54.8267H54.1745V28.5291Z" fill="#263238"/>
<path d="M54.1745 18.6814H52.1116V22.1481H54.1745V18.6814Z" fill="#263238"/>
<path d="M57.1805 27.5498L53.4109 22.0031L54.0744 21.553L57.844 27.0996L57.1805 27.5498ZM53.7074 22.0607L57.2466 27.2532L57.5581 27.0399L54.0296 21.8474L53.7074 22.0607Z" fill="#263238"/>
<path d="M59.6465 40.7467H54.6865V35.4133H59.6423L59.6465 40.7467ZM54.8999 40.5333H59.4289V35.6267H54.8999V40.5333Z" fill="#263238"/>
<path d="M108.931 52.7444H52.1116V54.8265H108.931V52.7444Z" fill="#263238"/>
<path d="M57.1698 39.5625C56.8887 39.563 56.6138 39.48 56.3798 39.3241C56.1459 39.1683 55.9635 38.9465 55.8556 38.6869C55.7477 38.4274 55.7193 38.1416 55.7739 37.8659C55.8284 37.5901 55.9636 37.3368 56.1622 37.1378C56.3608 36.9389 56.614 36.8034 56.8897 36.7484C57.1653 36.6934 57.4511 36.7214 57.7109 36.8289C57.9706 36.9364 58.1926 37.1185 58.3488 37.3522C58.505 37.5859 58.5884 37.8606 58.5884 38.1417C58.5879 38.518 58.4383 38.8788 58.1724 39.145C57.9066 39.4113 57.546 39.5614 57.1698 39.5625ZM57.1698 36.9343C56.9309 36.9339 56.6972 37.0043 56.4984 37.1367C56.2995 37.2692 56.1444 37.4576 56.0527 37.6782C55.961 37.8988 55.9368 38.1416 55.9831 38.376C56.0295 38.6104 56.1443 38.8257 56.3131 38.9948C56.4818 39.1639 56.697 39.2791 56.9313 39.3259C57.1656 39.3726 57.4085 39.3488 57.6292 39.2575C57.85 39.1662 58.0387 39.0114 58.1715 38.8128C58.3042 38.6142 58.3751 38.3806 58.3751 38.1417C58.3745 37.822 58.2474 37.5156 58.0216 37.2893C57.7957 37.0631 57.4895 36.9354 57.1698 36.9343Z" fill="#263238"/>
<path d="M91.2115 25.6H72.0115V20.416H91.2115V25.6ZM72.2248 25.3867H90.9981V20.6293H72.2248V25.3867Z" fill="#263238"/>
<path d="M78.4902 24.9342L76.2332 23.0505L78.1169 20.7998L80.3676 22.6835L78.4902 24.9342ZM76.5382 23.0249L78.4582 24.6355L80.0689 22.7155L78.1489 21.1049L76.5382 23.0249Z" fill="#263238"/>
<path d="M81.4877 24.9342L79.2371 23.0505L81.1208 20.7998L83.3736 22.6835L81.4877 24.9342ZM79.5379 23.0249L81.4579 24.6355L83.0685 22.7155L81.1485 21.1049L79.5379 23.0249Z" fill="#263238"/>
<path d="M84.4872 24.9342L82.2344 23.0505L84.1266 20.7998L86.3794 22.6835L84.4872 24.9342ZM82.5352 23.0249L84.4552 24.6355L86.0658 22.7155L84.1458 21.1049L82.5352 23.0249Z" fill="#263238"/>
<path d="M94.2664 24.6272C93.9183 24.6272 93.578 24.524 93.2885 24.3306C92.9991 24.1372 92.7735 23.8623 92.6403 23.5407C92.5071 23.2191 92.4723 22.8652 92.5402 22.5238C92.6081 22.1824 92.7757 21.8688 93.0218 21.6227C93.268 21.3765 93.5816 21.2089 93.923 21.141C94.2644 21.0731 94.6183 21.1079 94.9399 21.2412C95.2615 21.3744 95.5363 21.5999 95.7297 21.8894C95.9231 22.1788 96.0264 22.5191 96.0264 22.8672C96.0258 23.3338 95.8402 23.7811 95.5102 24.1111C95.1803 24.441 94.733 24.6266 94.2664 24.6272ZM94.2664 21.3205C93.9604 21.3205 93.6614 21.4112 93.4071 21.5812C93.1527 21.7511 92.9545 21.9927 92.8374 22.2753C92.7204 22.5579 92.6897 22.8689 92.7494 23.1689C92.8091 23.4689 92.9564 23.7445 93.1727 23.9608C93.389 24.1771 93.6646 24.3244 93.9646 24.3841C94.2646 24.4438 94.5756 24.4132 94.8582 24.2961C95.1408 24.179 95.3824 23.9808 95.5524 23.7265C95.7223 23.4721 95.813 23.1731 95.813 22.8672C95.8125 22.4572 95.6493 22.0641 95.3594 21.7741C95.0695 21.4842 94.6764 21.3211 94.2664 21.3205Z" fill="#263238"/>
<path d="M70.7911 25.0581H62.5586V20.416H70.7911V25.0581ZM62.7719 24.8448H70.5778V20.6293H62.7719V24.8448Z" fill="#263238"/>
<path d="M107.141 35.7823H102.388V23.5413H107.141V35.7823ZM102.601 35.569H106.928V23.7546H102.601V35.569Z" fill="#263238"/>
<path d="M108.931 18.6814H107.034V52.7443H108.931V18.6814Z" fill="#263238"/>
<path d="M100.152 33.1819H99.8066C99.4237 33.1813 99.0567 33.029 98.7859 32.7582C98.5152 32.4875 98.3629 32.1205 98.3623 31.7376V28.9643C98.3629 28.5814 98.5152 28.2144 98.7859 27.9437C99.0567 27.6729 99.4237 27.5206 99.8066 27.52H100.152C100.535 27.5206 100.902 27.6729 101.173 27.9437C101.444 28.2144 101.596 28.5814 101.596 28.9643V31.7376C101.596 32.1205 101.444 32.4875 101.173 32.7582C100.902 33.029 100.535 33.1813 100.152 33.1819ZM99.8066 27.7334C99.4803 27.7339 99.1675 27.8638 98.9368 28.0945C98.7061 28.3252 98.5762 28.638 98.5756 28.9643V31.7376C98.5762 32.0639 98.7061 32.3767 98.9368 32.6074C99.1675 32.8381 99.4803 32.968 99.8066 32.9686H100.152C100.478 32.968 100.791 32.8381 101.022 32.6074C101.253 32.3767 101.383 32.0639 101.383 31.7376V28.9643C101.383 28.638 101.253 28.3252 101.022 28.0945C100.791 27.8638 100.478 27.7339 100.152 27.7334H99.8066Z" fill="#263238"/>
<path d="M77.8993 41.6534C77.8993 41.6832 72.5126 41.7088 65.8694 41.7088C59.2262 41.7088 53.8374 41.6832 53.8374 41.6534C53.8374 41.6235 59.2219 41.5979 65.8694 41.5979C72.5169 41.5979 77.8993 41.6235 77.8993 41.6534Z" fill="#263238"/>
<path d="M77.7266 46.1206C77.6932 45.8989 77.6797 45.6747 77.6861 45.4507C77.6754 45.0368 77.6711 44.463 77.6711 43.8315C77.6711 43.2 77.6711 42.6261 77.6861 42.2123C77.6796 41.9875 77.6932 41.7626 77.7266 41.5403C77.7572 41.7629 77.77 41.9876 77.765 42.2123C77.765 42.6261 77.7821 43.1979 77.7821 43.8315C77.7821 44.4651 77.7821 45.0368 77.765 45.4507C77.7699 45.6746 77.7571 45.8986 77.7266 46.1206Z" fill="#263238"/>
<path d="M60.3505 52.9941H54.0679V41.5466H60.3505V52.9941ZM54.2812 52.7808H60.1372V41.76H54.2812V52.7808Z" fill="#263238"/>
<path d="M116.067 18.6814C116.067 18.7113 113.701 18.7369 110.783 18.7369C107.864 18.7369 105.498 18.7113 105.498 18.6814C105.498 18.6516 107.862 18.626 110.783 18.626C113.703 18.626 116.067 18.6494 116.067 18.6814Z" fill="#263238"/>
<path d="M115.981 58.208C115.952 58.208 115.926 49.1029 115.926 37.8752C115.926 26.6475 115.952 17.5403 115.981 17.5403C116.011 17.5403 116.037 26.6432 116.037 37.8752C116.037 49.1072 116.011 58.208 115.981 58.208Z" fill="#263238"/>
<path d="M118.096 54.9097C118.096 54.9417 115.975 54.9673 113.362 54.9673C110.748 54.9673 108.626 54.9417 108.626 54.9097C108.626 54.8777 110.746 54.8542 113.362 54.8542C115.977 54.8542 118.096 54.8799 118.096 54.9097Z" fill="#263238"/>
<path d="M108.794 58.0393C108.739 57.336 108.721 56.6304 108.739 55.9252C108.721 55.22 108.739 54.5143 108.794 53.811C108.85 54.5143 108.869 55.22 108.85 55.9252C108.869 56.6304 108.85 57.3361 108.794 58.0393Z" fill="#263238"/>
<path d="M52.5681 57.1946C52.5681 57.1626 66.6481 57.1392 84.0198 57.1392C101.392 57.1392 115.474 57.1626 115.474 57.1946C115.474 57.2266 101.394 57.2501 84.0198 57.2501C66.646 57.2501 52.5681 57.2245 52.5681 57.1946Z" fill="#263238"/>
<path d="M52.3165 58.208C52.2603 57.6467 52.2418 57.0822 52.261 56.5184C52.2418 55.9539 52.2603 55.3887 52.3165 54.8267C52.3714 55.3888 52.3899 55.9539 52.372 56.5184C52.3899 57.0822 52.3714 57.6466 52.3165 58.208Z" fill="#263238"/>
<path d="M57.8141 27.0934C57.7693 27.1486 57.7177 27.1981 57.6605 27.2406C57.5581 27.3302 57.4002 27.4539 57.1997 27.5926C56.6714 27.9542 56.0908 28.2326 55.4781 28.4182C54.8647 28.5975 54.231 28.6986 53.5922 28.719C53.3469 28.719 53.1506 28.719 53.0141 28.719C52.9424 28.7235 52.8705 28.7171 52.8008 28.6998C52.8008 28.6806 53.1016 28.6763 53.5858 28.64C54.2151 28.5952 54.8379 28.4844 55.444 28.3094C56.0453 28.1248 56.6192 27.8608 57.1506 27.5243C57.5645 27.264 57.8013 27.0763 57.8141 27.0934Z" fill="#263238"/>
<path d="M81.14 51.7375L77.3704 46.1909L78.0338 45.7407L81.8013 51.2874L81.14 51.7375ZM77.6669 46.2485L81.1954 51.441L81.5069 51.2277L77.9762 46.0373L77.6669 46.2485Z" fill="#263238"/>
<path d="M81.7799 51.2767C81.7358 51.3326 81.6841 51.3821 81.6263 51.4239C81.4798 51.5502 81.3259 51.6677 81.1655 51.7759C80.6379 52.1391 80.0571 52.4184 79.4439 52.6036C78.83 52.7809 78.1966 52.8819 77.5581 52.9044C77.3127 52.9044 77.1165 52.9044 76.9799 52.9044C76.9082 52.908 76.8362 52.9008 76.7666 52.8831C76.7666 52.866 77.0674 52.8596 77.5517 52.8234C78.1809 52.7794 78.8037 52.6693 79.4098 52.4948C80.0112 52.3097 80.5852 52.0449 81.1165 51.7076C81.5218 51.4516 81.7586 51.2618 81.7799 51.2767Z" fill="#263238"/>
<path d="M76.0198 25.2606C75.99 25.2606 75.9644 24.2217 75.9644 22.9417C75.9644 21.6617 75.99 20.6206 76.0198 20.6206C76.0497 20.6206 76.0753 21.6595 76.0753 22.9417C76.0753 24.2238 76.0454 25.2606 76.0198 25.2606Z" fill="#263238"/>
<path d="M86.4732 25.4634C86.4433 25.4634 86.4177 24.4138 86.4177 23.1167C86.4177 21.8196 86.4433 20.77 86.4732 20.77C86.5031 20.77 86.5308 21.8196 86.5308 23.1167C86.5308 24.4138 86.4967 25.4634 86.4732 25.4634Z" fill="#263238"/>
<path d="M102.384 43.1317C102.378 43.0927 102.378 43.0533 102.384 43.0143C102.384 42.9247 102.401 42.8138 102.413 42.6794C102.448 42.3743 102.492 41.9583 102.548 41.4506L102.761 39.6309C102.789 39.461 102.801 39.2888 102.795 39.1167C102.789 39.0332 102.759 38.953 102.711 38.8849C102.662 38.8168 102.595 38.7635 102.518 38.7306C102.344 38.665 102.165 38.6136 101.983 38.577L101.409 38.4383L97.4513 37.4613L96.2545 37.1519L95.9303 37.0623C95.8915 37.0553 95.8541 37.0423 95.8193 37.0239C95.8583 37.0243 95.8971 37.0301 95.9345 37.041L96.2631 37.1093L97.4684 37.3845L101.434 38.3317L102.006 38.4703C102.198 38.5072 102.385 38.5615 102.567 38.6325C102.66 38.6767 102.74 38.7426 102.802 38.8245C102.858 38.9076 102.892 39.0038 102.9 39.1039C102.907 39.2847 102.894 39.4657 102.861 39.6437C102.774 40.3242 102.693 40.9386 102.625 41.4613C102.556 41.9839 102.497 42.3807 102.454 42.6837C102.436 42.8173 102.418 42.9283 102.403 43.0165C102.402 43.0556 102.395 43.0943 102.384 43.1317Z" fill="#263238"/>
<path d="M98.2428 36.6143C98.0249 36.6833 97.8015 36.734 97.5751 36.7657C97.1484 36.8447 96.5831 36.9471 95.9452 37.0537L95.9793 36.9641L95.9985 36.9876C96.4081 37.4975 96.7729 37.9625 97.0332 38.3039C97.1823 38.4809 97.3165 38.6699 97.4343 38.8692C97.2662 38.7099 97.1114 38.5373 96.9713 38.3529C96.6961 38.0244 96.3313 37.5657 95.9047 37.0559L95.8876 37.0324L95.8279 36.9599L95.9217 36.9428C96.5617 36.8383 97.1377 36.7487 97.5559 36.6889C97.7825 36.6455 98.0122 36.6205 98.2428 36.6143Z" fill="#263238"/>
<path d="M73.0204 40.9983H60.3313V32.593H73.0204V40.9983ZM60.5446 40.785H72.807V32.8064H60.5446V40.785Z" fill="#263238"/>
<path d="M63.909 40.8574C63.8791 40.8574 63.8535 39.0526 63.8535 36.8275C63.8535 34.6025 63.8791 32.7998 63.909 32.7998C63.9389 32.7998 63.9644 34.6025 63.9644 36.8275C63.9644 39.0526 63.941 40.8574 63.909 40.8574Z" fill="#263238"/>
<path d="M69.6434 40.8297C69.6135 40.8297 69.5879 39.0313 69.5879 36.8147C69.5879 34.5982 69.6135 32.7998 69.6434 32.7998C69.6732 32.7998 69.6988 34.5961 69.6988 36.8147C69.6988 39.0334 69.6754 40.8297 69.6434 40.8297Z" fill="#263238"/>
<path d="M80.6834 30.72C80.6834 30.72 79.99 40.881 80.854 42.5258H91.4802L91.0535 31.1936L80.6834 30.72Z" fill="#E0E0E0"/>
<path d="M80.6833 30.72C80.758 34.9482 81.11 38.7712 81.8802 42.0117L93.8396 42.1013C93.8396 42.1013 92.6599 32.384 92.6599 30.72H80.6833Z" fill="#0C5137"/>
<path d="M91.333 34.5407C91.2916 34.5993 91.2437 34.653 91.1901 34.7007C90.9916 34.8836 90.7536 35.0182 90.4946 35.0941C90.2356 35.1699 89.9625 35.185 89.6968 35.138C89.2607 35.056 88.8698 34.8169 88.5981 34.466C88.5199 34.3662 88.4566 34.2556 88.4104 34.1375C88.3577 34.0095 88.3494 33.8675 88.3869 33.7343C88.4094 33.6632 88.4493 33.5989 88.5029 33.5471C88.5565 33.4953 88.6223 33.4577 88.6941 33.4378C88.7721 33.421 88.8534 33.4316 88.9245 33.4676C88.9937 33.5078 89.0483 33.5691 89.0802 33.6426C89.1283 33.7887 89.1394 33.9445 89.1126 34.096C89.0858 34.2475 89.0219 34.39 88.9266 34.5108C88.7517 34.7746 88.5217 34.9973 88.2525 35.1636C87.9662 35.3477 87.64 35.4606 87.3012 35.4929C86.9623 35.5252 86.6207 35.4759 86.3048 35.3492C86.1335 35.2818 85.9803 35.1753 85.8573 35.0383C85.7344 34.9013 85.6451 34.7375 85.5965 34.5599C85.5621 34.3704 85.5906 34.1749 85.6776 34.0031C85.7185 33.9135 85.7776 33.8333 85.851 33.7676C85.9244 33.7019 86.0106 33.652 86.1042 33.6212C86.1998 33.593 86.3007 33.5884 86.3984 33.6077C86.4961 33.627 86.5877 33.6697 86.6653 33.7322C86.817 33.8511 86.925 34.0169 86.9725 34.2036C87.0188 34.3879 87.0023 34.5823 86.9256 34.7562C86.8533 34.9231 86.7456 35.0724 86.6098 35.1935C86.3481 35.4145 86.0317 35.5609 85.6938 35.6172C85.3559 35.6735 85.0091 35.6377 84.6898 35.5135C84.3901 35.4074 84.1227 35.2259 83.9133 34.9866C83.7214 34.7575 83.5829 34.4886 83.508 34.1994C83.4354 33.931 83.4216 33.6501 83.4674 33.3759C83.4872 33.2454 83.5253 33.1182 83.5805 32.9983C83.6306 32.8737 83.728 32.7739 83.8514 32.721C83.9131 32.699 83.9796 32.6946 84.0436 32.7081C84.1076 32.7217 84.1666 32.7527 84.2141 32.7978C84.2985 32.8798 84.3609 32.9818 84.3954 33.0943C84.4475 33.2972 84.4475 33.51 84.3954 33.713C84.322 34.0395 84.1526 34.3367 83.909 34.5663C83.7578 34.7093 83.5793 34.8203 83.3842 34.8927C83.3159 34.9202 83.2441 34.9382 83.1709 34.946C83.1709 34.946 83.2434 34.9268 83.3714 34.8714C83.5592 34.7921 83.7301 34.6777 83.8749 34.5343C84.1076 34.3099 84.2693 34.0221 84.34 33.7066C84.3839 33.5143 84.3788 33.314 84.325 33.1242C84.2943 33.0236 84.2385 32.9326 84.1629 32.8596C84.1253 32.8245 84.0787 32.8003 84.0283 32.7898C83.9779 32.7793 83.9256 32.7828 83.877 32.7999C83.7743 32.8483 83.6936 32.9336 83.6509 33.0388C83.6016 33.1525 83.5678 33.2724 83.5506 33.3951C83.5097 33.6576 83.5243 33.9258 83.5933 34.1823C83.6672 34.4572 83.8013 34.7123 83.9858 34.929C84.1842 35.1549 84.4367 35.3267 84.7197 35.4282C85.0208 35.5437 85.3474 35.5766 85.6655 35.5233C85.9837 35.47 86.2817 35.3326 86.5288 35.1252C86.6529 35.0142 86.7512 34.8773 86.8168 34.7242C86.884 34.5726 86.899 34.403 86.8594 34.242C86.8177 34.0789 86.7232 33.9342 86.5906 33.8303C86.5271 33.7787 86.452 33.7431 86.3718 33.7268C86.2915 33.7105 86.2085 33.7138 86.1298 33.7364C85.9759 33.8019 85.8493 33.9186 85.7716 34.0667C85.6938 34.2149 85.6696 34.3853 85.7032 34.5492C85.7472 34.7093 85.828 34.8568 85.9391 34.9802C86.0502 35.1035 86.1886 35.1992 86.3432 35.2596C86.7871 35.4291 87.2754 35.4431 87.7283 35.2994C88.1812 35.1557 88.5721 34.8626 88.837 34.4682C88.9211 34.3533 88.9813 34.2227 89.0141 34.0842C89.0453 33.9539 89.0372 33.8173 88.9906 33.6916C88.9696 33.6362 88.9294 33.5901 88.8774 33.5615C88.8254 33.533 88.765 33.5239 88.7069 33.5359C88.6497 33.5522 88.5974 33.5824 88.5547 33.6237C88.5119 33.665 88.4799 33.7161 88.4616 33.7727C88.4414 33.8894 88.4484 34.0093 88.482 34.1229C88.5157 34.2365 88.5751 34.3408 88.6557 34.4276C88.8782 34.7282 89.1933 34.9474 89.5525 35.0515C89.9118 35.1556 90.2952 35.1387 90.644 35.0036C90.9041 34.9003 91.1391 34.7425 91.333 34.5407Z" fill="#263238"/>
<path d="M92.5788 38.577C92.3797 38.731 92.1552 38.8487 91.9153 38.9248C91.6356 39.0204 91.3426 39.0715 91.0471 39.0762C90.6544 39.0871 90.2639 39.0144 89.9015 38.8629C89.6825 38.783 89.4852 38.653 89.3255 38.4832C89.2826 38.433 89.2505 38.3745 89.231 38.3114C89.2116 38.2483 89.2052 38.1819 89.2124 38.1162C89.2204 38.046 89.247 37.9792 89.2894 37.9226C89.3317 37.866 89.3884 37.8216 89.4535 37.7941C89.5267 37.7742 89.6046 37.7806 89.6736 37.8121C89.7426 37.8437 89.7983 37.8985 89.8311 37.9669C89.8653 38.0328 89.8832 38.106 89.8832 38.1802C89.8832 38.2545 89.8653 38.3277 89.8311 38.3936C89.7691 38.5224 89.6804 38.6366 89.5708 38.7285C89.4662 38.8288 89.3493 38.9155 89.2231 38.9866C88.9576 39.138 88.6638 39.2334 88.36 39.2668C88.0562 39.3001 87.7487 39.2709 87.4567 39.1808C87.1451 39.088 86.8614 38.9194 86.6311 38.6901C86.5094 38.5687 86.4143 38.4235 86.3516 38.2634C86.2825 38.0995 86.2756 37.9159 86.3324 37.7472C86.3586 37.661 86.4036 37.5817 86.464 37.5149C86.5245 37.4481 86.5991 37.3956 86.6823 37.3611C86.7677 37.3305 86.8596 37.3231 86.9488 37.3396C87.038 37.3561 87.1212 37.3959 87.19 37.4549C87.3252 37.5647 87.4137 37.7218 87.4375 37.8944C87.4569 38.0595 87.4341 38.2268 87.3713 38.3808C87.2485 38.6632 87.0589 38.9115 86.8188 39.1043C86.5788 39.2972 86.2954 39.4289 85.9932 39.488C85.7208 39.5392 85.4406 39.5308 85.1718 39.4634C84.903 39.396 84.6519 39.2712 84.4359 39.0976C84.2345 38.9445 84.0854 38.7329 84.0092 38.4917C83.9728 38.3752 83.9626 38.2521 83.9793 38.1312C84.0002 38.0113 84.0657 37.9038 84.1628 37.8304C84.2554 37.7693 84.3653 37.7399 84.476 37.7464C84.5868 37.753 84.6924 37.7951 84.7772 37.8666C84.8552 37.9244 84.918 38.0002 84.9604 38.0875C85.0027 38.1748 85.0233 38.271 85.0204 38.368C85.0115 38.5182 84.97 38.6646 84.899 38.7972C84.8279 38.9298 84.7288 39.0454 84.6087 39.136C84.4625 39.2511 84.3036 39.3492 84.1351 39.4283L84.0028 39.488L83.958 39.505C84.0112 39.4693 84.0668 39.4372 84.1244 39.409C84.286 39.3221 84.4388 39.22 84.5809 39.104C84.6929 39.0155 84.7846 38.904 84.8497 38.777C84.9149 38.65 84.952 38.5106 84.9585 38.368C84.9609 38.2821 84.9428 38.1968 84.9057 38.1193C84.8686 38.0418 84.8136 37.9742 84.7452 37.9221C84.6718 37.862 84.5811 37.8269 84.4863 37.8219C84.3915 37.8169 84.2976 37.8423 84.2183 37.8944C84.1377 37.9558 84.0842 38.046 84.0689 38.1461C84.0554 38.2538 84.0663 38.3632 84.1009 38.4661C84.1761 38.6911 84.3201 38.8866 84.5127 39.025C84.728 39.1983 84.9803 39.3196 85.2501 39.3794C85.5199 39.4392 85.7999 39.436 86.0682 39.3699C86.3366 39.3039 86.5861 39.1768 86.7973 38.9986C87.0085 38.8203 87.1757 38.5958 87.286 38.3424C87.3415 38.2075 87.3621 38.0607 87.3457 37.9157C87.3244 37.7699 87.2481 37.6379 87.1324 37.5466C87.0789 37.5 87.0139 37.4685 86.9442 37.4554C86.8744 37.4423 86.8024 37.448 86.7356 37.472C86.6677 37.5004 86.6069 37.5434 86.5575 37.598C86.5081 37.6525 86.4713 37.7173 86.4497 37.7877C86.4028 37.9323 86.4089 38.0888 86.4668 38.2293C86.5263 38.3715 86.6133 38.5006 86.7228 38.609C86.9406 38.8252 87.2079 38.9849 87.5015 39.0741C87.7796 39.1603 88.0724 39.1887 88.3618 39.1576C88.6513 39.1264 88.9313 39.0363 89.1847 38.8928C89.3039 38.8267 89.4143 38.7457 89.5132 38.6517C89.6146 38.5688 89.6974 38.4656 89.7564 38.3488C89.7837 38.296 89.798 38.2375 89.798 38.1781C89.798 38.1187 89.7837 38.0602 89.7564 38.0075C89.7352 37.9582 89.6972 37.918 89.6491 37.8942C89.6011 37.8703 89.5461 37.8644 89.494 37.8773C89.4443 37.8988 89.4012 37.9329 89.369 37.9764C89.3368 38.0198 89.3166 38.071 89.3105 38.1248C89.3048 38.1787 89.3102 38.2332 89.3263 38.2849C89.3425 38.3366 89.369 38.3845 89.4044 38.4256C89.5545 38.5843 89.7382 38.7075 89.942 38.7861C90.2935 38.9405 90.6738 39.0183 91.0577 39.0144C91.3472 39.0151 91.635 38.9712 91.9111 38.8843C92.1427 38.8027 92.3662 38.6999 92.5788 38.577Z" fill="#263238"/>
<path d="M40.9583 8.90431L14.5103 11.9224L17.5283 38.3705L43.9764 35.3524L40.9583 8.90431Z" fill="white"/>
<path d="M43.9752 35.3557C43.9752 35.3557 43.9752 35.313 43.9581 35.2298C43.941 35.1466 43.9325 35.0165 43.9133 34.865C43.8749 34.5407 43.8194 34.065 43.7469 33.4442C43.6018 32.2026 43.3906 30.3829 43.1197 28.0682L40.9117 8.913L40.965 8.95567L14.5117 11.9786L14.5586 11.9167C15.6616 21.6021 16.692 30.6901 17.5688 38.3701L17.5154 38.3274L36.677 36.1663L42.0573 35.5669L43.4781 35.409L43.8429 35.3706L43.9688 35.3599L43.8493 35.3749L43.4888 35.4197L42.0786 35.5861L36.7133 36.2111L17.5325 38.4191H17.4856V38.3701C16.6066 30.6901 15.5656 21.6085 14.4626 11.9167V11.8613H14.5181L40.9714 8.85327H41.0205V8.90234C41.9165 16.8405 42.6632 23.4581 43.1858 28.1023L43.7853 33.4719C43.8536 34.0885 43.9048 34.5621 43.941 34.8842L43.9794 35.2447C43.973 35.3151 43.9752 35.3557 43.9752 35.3557Z" fill="#263238"/>
<path d="M39.7492 10.4251L16.0332 13.1313L18.7395 36.8473L42.4554 34.141L39.7492 10.4251Z" fill="#EBEBEB"/>
<path d="M42.4543 34.1441C42.4543 34.1441 42.4543 34.1057 42.4394 34.0331C42.4244 33.9606 42.4159 33.8475 42.3988 33.7046C42.3647 33.4145 42.3135 32.9878 42.2474 32.4246C42.1172 31.3089 41.9274 29.679 41.6842 27.6033C41.2063 23.4539 40.5215 17.5318 39.7002 10.4278L39.7535 10.4705L16.0415 13.1883L16.0906 13.1286C17.0783 21.8134 18.0106 29.9521 18.7871 36.8449L18.7338 36.8022L35.9135 34.8673L40.737 34.3297L42.017 34.1889L42.3455 34.1547H42.4586L42.3519 34.1697L42.0276 34.2102L40.7647 34.3595L35.954 34.9206L18.7423 36.9067H18.6954V36.8598C17.9082 29.967 16.978 21.8283 15.9839 13.1435V13.0902H16.0394L39.7535 10.3809H39.8026V10.4278C40.6047 17.5467 41.2724 23.4817 41.7418 27.6374L42.2772 32.4523C42.3391 33.0049 42.386 33.4294 42.4159 33.7174C42.4308 33.8603 42.4436 33.967 42.45 34.0417C42.4564 34.1163 42.4543 34.1441 42.4543 34.1441Z" fill="#263238"/>
<path d="M32.3593 27.6821C32.3487 27.6821 33.2596 32.6827 33.2596 32.6827L32.3615 32.7851L30.8105 27.9467L32.3593 27.6821Z" fill="#455A64"/>
<path d="M37.5986 26.9951C37.5879 26.9951 38.4967 31.9978 38.4967 31.9978L37.5986 32.1002L36.0498 27.2533L37.5986 26.9951Z" fill="#455A64"/>
<path d="M22.4221 28.6379L22.4243 33.9201L23.316 33.8177L23.9368 28.6422L22.4221 28.6379Z" fill="#455A64"/>
<path d="M38.4733 16.5097C38.644 18.338 39.2904 24.1598 37.9357 27.0462L31.796 27.827L21.8674 28.9577C21.8674 28.9577 19.2434 25.2692 19.0728 21.5892L23.9794 19.49C23.9794 19.49 24.7005 17.3566 25.5496 17.299C26.149 17.2564 35.1218 16.1918 37.7266 15.9081C37.8154 15.8969 37.9056 15.9036 37.9917 15.928C38.0779 15.9524 38.1582 15.994 38.2279 16.0501C38.2976 16.1063 38.3553 16.1759 38.3974 16.2549C38.4396 16.3339 38.4654 16.4205 38.4733 16.5097Z" fill="#0C5137"/>
<path d="M36.9631 16C36.9631 16 36.9631 16.0128 36.9631 16.0363C36.9631 16.0597 36.9396 16.096 36.9204 16.1429C36.8799 16.2325 36.8159 16.3563 36.7263 16.5312C36.5492 16.8661 36.2761 17.3397 35.9284 17.9179C35.8392 18.0714 35.7341 18.2152 35.6148 18.3467C35.479 18.4912 35.3159 18.6072 35.1348 18.688C34.7657 18.8395 34.3775 19.0016 33.9679 19.1808C33.5583 19.36 33.1316 19.5499 32.6985 19.7653C32.4852 19.872 32.2719 19.9787 32.0585 20.1152C31.9519 20.1792 31.8452 20.2475 31.7471 20.3285C31.6489 20.3948 31.5742 20.4903 31.5337 20.6016C31.4538 20.8391 31.389 21.0813 31.3396 21.3269C31.2884 21.5723 31.2393 21.8133 31.1967 22.0523C31.1071 22.528 31.026 22.9888 30.9535 23.4304C30.8127 24.3072 30.6868 25.1008 30.5801 25.7771L30.3348 27.3557C30.3071 27.5328 30.2836 27.6757 30.2665 27.7824C30.261 27.8331 30.2503 27.8832 30.2345 27.9317C30.2298 27.8814 30.2298 27.8306 30.2345 27.7803C30.2473 27.6693 30.2644 27.5264 30.2836 27.3536C30.3305 26.9803 30.4009 26.4384 30.4969 25.7685C30.5929 25.0987 30.7103 24.3051 30.8489 23.4219C30.9193 22.9803 30.9961 22.5195 31.0836 22.0416C31.1263 21.8005 31.1775 21.5595 31.2287 21.312C31.2778 21.0589 31.3441 20.8095 31.4271 20.5653C31.4759 20.4363 31.5639 20.3259 31.6788 20.2496C31.7833 20.1728 31.8921 20.1024 31.9988 20.0363C32.2121 19.9083 32.4361 19.7931 32.6559 19.6864C33.0825 19.4731 33.5092 19.2789 33.9359 19.1019C34.3625 18.9248 34.7401 18.7669 35.1071 18.6197C35.2777 18.5462 35.4315 18.4388 35.5593 18.304C35.6749 18.1732 35.7758 18.0301 35.8601 17.8773C36.2164 17.3035 36.5001 16.8363 36.6879 16.5099C36.7839 16.3477 36.8543 16.2197 36.9012 16.1323C36.9186 16.0868 36.9393 16.0425 36.9631 16Z" fill="#263238"/>
<path d="M31.794 27.8271C31.7936 27.7771 31.7972 27.7272 31.8046 27.6777C31.8174 27.5689 31.8324 27.4281 31.8537 27.2511C31.9028 26.8692 31.9732 26.3401 32.067 25.6916C32.1609 25.0431 32.2676 24.2495 32.3998 23.3812C32.4638 22.9545 32.5364 22.4916 32.6132 22.0201C32.6516 21.7855 32.6942 21.5444 32.7412 21.3012C32.7668 21.1796 32.7902 21.0601 32.8265 20.9321L32.8564 20.8361C32.8709 20.8019 32.8919 20.7707 32.9182 20.7444C32.9648 20.6965 33.0163 20.6536 33.0718 20.6164C33.4938 20.3547 33.9345 20.1244 34.3902 19.9273C34.8169 19.7289 35.2436 19.5455 35.651 19.3727C36.0585 19.1999 36.4382 19.0356 36.7902 18.8692C37.1422 18.7028 37.33 18.3935 37.4921 18.1119C37.7316 17.6467 37.9404 17.1664 38.1172 16.674C38.179 16.5097 38.226 16.3753 38.2644 16.2729C38.2802 16.2257 38.2987 16.1794 38.3198 16.1343C38.3149 16.1846 38.3034 16.2341 38.2857 16.2815C38.2601 16.3753 38.2153 16.5119 38.1577 16.6889C37.9951 17.1892 37.7962 17.6769 37.5625 18.1481C37.4833 18.3055 37.3913 18.4561 37.2873 18.5983C37.2305 18.6782 37.163 18.7499 37.0868 18.8116C37.0069 18.8696 36.9211 18.9189 36.8308 18.9588C36.4766 19.1295 36.0948 19.2937 35.6916 19.4729C35.2884 19.6521 34.8617 19.8399 34.4201 20.0297C33.9777 20.2256 33.5499 20.453 33.1401 20.7103C33.091 20.7435 33.0453 20.7813 33.0036 20.8233C32.9844 20.8401 32.9698 20.8614 32.9609 20.8852L32.9353 20.9684C32.9033 21.0815 32.8798 21.2073 32.8542 21.3268C32.8073 21.5679 32.7646 21.8068 32.7241 22.0415C32.6473 22.5137 32.5762 22.9666 32.5108 23.4004C32.3764 24.2537 32.2569 25.0452 32.1545 25.7044C32.0521 26.3636 31.9732 26.8777 31.9156 27.2575C31.8857 27.4324 31.8644 27.5732 31.8452 27.6841C31.833 27.7334 31.8159 27.7813 31.794 27.8271Z" fill="#263238"/>
<path d="M23.6083 28.7594C23.5828 28.722 23.5614 28.6819 23.5443 28.64L23.3737 28.2837C23.2307 27.9744 23.0259 27.5242 22.7806 26.9674C22.5353 26.4106 22.2366 25.7472 21.9635 24.9792C21.9289 24.8687 21.9365 24.7494 21.9849 24.6442C22.0396 24.5428 22.1206 24.458 22.2195 24.3989C22.4128 24.2778 22.6322 24.2047 22.8595 24.1856L24.2099 24.032L28.9502 23.5072L30.3881 23.36L30.7785 23.3258C30.8246 23.3221 30.871 23.3221 30.9171 23.3258C30.8734 23.3396 30.8284 23.3489 30.7827 23.3536L30.3923 23.409L28.9587 23.5904L24.2227 24.145L22.8723 24.2986C22.6644 24.313 22.4628 24.3758 22.2835 24.4821C22.2014 24.5303 22.1337 24.5995 22.0873 24.6826C22.0485 24.7648 22.0424 24.8586 22.0702 24.945C22.3326 25.6981 22.6291 26.3658 22.8617 26.929C23.0942 27.4922 23.2883 27.9338 23.4227 28.2602L23.5721 28.6229C23.5899 28.6667 23.6021 28.7125 23.6083 28.7594Z" fill="#263238"/>
<path d="M22.8445 27.0571C22.8445 27.0273 24.5511 26.8075 26.6504 26.5686C28.7496 26.3297 30.4669 26.1569 30.469 26.1889C30.4711 26.2209 28.7623 26.4385 26.6631 26.6795C24.5639 26.9206 22.8487 27.0934 22.8445 27.0571Z" fill="#263238"/>
<path d="M19.0728 21.5892C19.1244 21.5425 19.1855 21.5076 19.252 21.4868C19.4275 21.4148 19.6132 21.3709 19.8024 21.3567C20.0877 21.3257 20.3756 21.3846 20.6258 21.5252C20.7723 21.6183 20.8939 21.7457 20.98 21.8964C21.0726 22.049 21.1511 22.2096 21.2146 22.3764C21.4514 23.0612 21.6413 23.6735 21.7928 24.1236C21.8825 24.3632 21.9538 24.6092 22.0061 24.8596C21.8947 24.6309 21.8006 24.3941 21.7245 24.1513C21.5602 23.7119 21.3469 23.0847 21.1144 22.4169C21.0578 22.2563 20.9864 22.1013 20.901 21.954C20.8272 21.8168 20.7219 21.6991 20.5938 21.6105C20.3626 21.4768 20.0965 21.4158 19.8301 21.4356C19.5718 21.4522 19.3171 21.5039 19.0728 21.5892Z" fill="#263238"/>
<path d="M26.6654 23.8784C26.6316 23.8105 26.6058 23.7389 26.5886 23.6651C26.5438 23.5243 26.484 23.3216 26.4136 23.0699C26.2707 22.5685 26.083 21.8709 25.8803 21.1008C25.7972 20.7407 25.6614 20.395 25.4771 20.0747C25.3214 19.818 25.0926 19.6137 24.82 19.488C24.6368 19.4032 24.4342 19.3693 24.2334 19.3899C24.0926 19.4069 24.02 19.4411 24.02 19.4325C24.02 19.424 24.035 19.4176 24.0712 19.4005C24.1224 19.375 24.177 19.3571 24.2334 19.3472C24.4434 19.3077 24.6604 19.3323 24.8563 19.4176C25.1498 19.5386 25.3977 19.7491 25.5646 20.0192C25.7619 20.3456 25.9059 20.7013 25.9912 21.0731C26.2046 21.8432 26.371 22.5429 26.4947 23.0507C26.5544 23.3045 26.6035 23.5115 26.6334 23.6544C26.6551 23.7271 26.6659 23.8026 26.6654 23.8784Z" fill="#263238"/>
<path d="M28.6154 19.7377C28.5066 19.7312 28.3984 19.7588 28.306 19.8166C28.2592 19.844 28.2225 19.8858 28.2013 19.9358C28.1802 19.9858 28.1758 20.0412 28.1887 20.0939C28.198 20.1602 28.2279 20.2219 28.2742 20.2701C28.3206 20.3184 28.381 20.3508 28.4468 20.3627C28.5112 20.3731 28.5771 20.3612 28.6337 20.329C28.6904 20.2968 28.7343 20.2462 28.7583 20.1857C28.7828 20.1363 28.7938 20.0813 28.7905 20.0263C28.7871 19.9713 28.7694 19.9181 28.7391 19.8721C28.6666 19.7909 28.5703 19.7349 28.4639 19.7121C28.4639 19.7121 28.4959 19.6929 28.5599 19.6971C28.6532 19.7073 28.7393 19.7522 28.801 19.823C28.845 19.8789 28.8732 19.9456 28.8826 20.0162C28.892 20.0868 28.8822 20.1586 28.8543 20.2241C28.8226 20.3039 28.7676 20.3723 28.6964 20.4203C28.6169 20.4697 28.5222 20.4886 28.4298 20.4737C28.3428 20.4558 28.2637 20.4112 28.2032 20.3462C28.1428 20.2812 28.1042 20.199 28.0927 20.111C28.0771 20.0335 28.0908 19.9529 28.1311 19.8849C28.1643 19.8283 28.2122 19.7819 28.2698 19.7505C28.3491 19.7025 28.4426 19.6836 28.5343 19.6971C28.5898 19.7099 28.6196 19.7334 28.6154 19.7377Z" fill="#263238"/>
<path d="M33.3066 19.4239C33.2874 19.4239 33.2383 19.3023 33.0932 19.2746H33.0826C33.0054 19.2517 32.9224 19.2585 32.85 19.2938C32.7977 19.3117 32.7518 19.3444 32.7177 19.388C32.6836 19.4315 32.6629 19.484 32.658 19.5391C32.6751 19.65 32.6986 19.7162 32.6858 19.7247C32.673 19.7332 32.6175 19.6735 32.5791 19.5604C32.5721 19.4841 32.5902 19.4077 32.6306 19.3426C32.6711 19.2775 32.7316 19.2274 32.8031 19.1999C32.8527 19.1788 32.906 19.168 32.9599 19.168C33.0138 19.168 33.0671 19.1788 33.1167 19.1999C33.1577 19.2101 33.1958 19.2294 33.2283 19.2564C33.2608 19.2833 33.2868 19.3173 33.3044 19.3556C33.3194 19.3876 33.3151 19.4132 33.3066 19.4239Z" fill="#263238"/>
<g opacity="0.3">
<path d="M30.93 23.3215C30.9538 22.3585 31.1347 21.4059 31.4655 20.5012C31.1412 20.7316 30.9898 21.1263 30.8255 21.489C30.6612 21.8516 30.4543 22.2356 30.0831 22.3743C29.7119 22.513 29.3386 22.3743 28.9631 22.3935C28.4916 22.4063 28.0372 22.6303 27.5679 22.5898C27.1519 22.5347 26.7715 22.3262 26.5012 22.0052C26.2348 21.6867 26.0091 21.3363 25.8292 20.962C25.9508 21.5466 26.0639 22.1951 25.761 22.7114C25.4175 23.3002 24.673 23.4922 24.001 23.6138C23.329 23.7354 22.5866 23.889 22.1919 24.4436C22.471 24.3332 22.7638 24.2615 23.0623 24.2303L30.93 23.3215Z" fill="black"/>
</g>
<path d="M20.7943 9.9253L19.5703 8.55005L12.3132 15.0091L13.5372 16.3843L20.7943 9.9253Z" fill="#E0E0E0"/>
<path d="M81.2104 69.1713L86.3113 63.5052L90.3283 63.1895L90.9385 67.5351L87.6894 68.9879L84.1417 72.7233L81.9891 73.214L81.2104 69.1713Z" fill="#EFBE9D"/>
<path d="M90.6669 40.8919L82.6709 78.6399L126.736 87.9741L134.732 50.2261L90.6669 40.8919Z" fill="white"/>
<path d="M126.732 87.968L134.68 50.208L134.717 50.2635L90.6526 40.9408L90.7187 40.8982C87.8153 54.5942 85.0803 67.503 82.7187 78.6454L82.6803 78.5878L126.734 87.9744L82.659 78.6923H82.6121V78.6432C84.9715 67.5008 87.7022 54.592 90.6014 40.896L90.6121 40.8406H90.6654L134.736 50.176H134.783L134.772 50.223C129.932 72.96 126.815 87.584 126.732 87.968Z" fill="#263238"/>
<path d="M92.2839 43.1011L85.0447 77.2761L125.122 85.7655L132.361 51.5905L92.2839 43.1011Z" fill="#EBEBEB"/>
<path d="M125.117 85.76C125.117 85.76 125.159 85.5467 125.245 85.1307C125.33 84.7147 125.458 84.1024 125.627 83.3046C125.961 81.7046 126.454 79.3622 127.081 76.3755C128.34 70.4022 130.139 61.8688 132.308 51.5755L132.344 51.631L92.2697 43.1531L92.3359 43.1104C89.7076 55.5051 87.2308 67.1894 85.0932 77.2843L85.0548 77.2246L114.032 83.3878L122.211 85.1328L124.374 85.5958L124.931 85.7174L125.121 85.76L124.935 85.7238L124.383 85.6107L122.226 85.1584L114.053 83.4411L85.0399 77.3206H84.9929V77.2715C87.1263 67.1766 89.6031 55.4923 92.2249 43.0955L92.2356 43.04L92.2911 43.0528L132.361 51.5478H132.406V51.5926C130.215 61.8902 128.398 70.4363 127.126 76.4096C126.486 79.3963 125.989 81.7302 125.65 83.3259C125.479 84.1195 125.347 84.7275 125.26 85.1392C125.172 85.551 125.117 85.76 125.117 85.76Z" fill="#263238"/>
<path d="M104.873 74.4429L103.826 77.9202L104.125 77.9821L105.959 74.6711L104.873 74.4429Z" fill="#263238"/>
<path d="M117.946 77.2097L117.494 80.8129L117.196 80.751L116.861 76.9814L117.946 77.2097Z" fill="#263238"/>
<path d="M120.654 72.2818L103.935 68.7402L102.818 74.0121L119.537 77.5536L120.654 72.2818Z" fill="#263238"/>
<path d="M111.632 73.0261V72.9813C111.632 72.9493 111.644 72.9088 111.653 72.8597C111.676 72.7445 111.706 72.5909 111.743 72.3925C111.826 71.9829 111.943 71.3984 112.088 70.6667L112.116 70.7093L104.18 69.0453L104.244 69.0027V69.0176V69.0368V69.0731L104.227 69.1499L104.195 69.3013L104.131 69.6021C104.088 69.8027 104.048 70.0011 104.005 70.1973C103.922 70.5899 103.841 70.976 103.76 71.3493L103.719 71.2853L109.379 72.5099L111.045 72.8789L111.495 72.9813L111.615 73.0091L111.655 73.0219L111.506 72.9984L111.064 72.9109L109.404 72.576L103.696 71.392L103.642 71.3813L103.655 71.328L103.898 70.176C103.939 69.9797 103.982 69.7813 104.024 69.5808C104.043 69.4805 104.065 69.3803 104.086 69.2779L104.118 69.1264L104.135 69.0517V69.0133V68.9941V68.9792C104.267 68.8939 104.174 68.9557 104.203 68.9365L112.146 70.6432H112.18V70.6773C112.016 71.4155 111.883 72.0021 111.792 72.416C111.747 72.608 111.713 72.7595 111.687 72.8704C111.672 72.9234 111.653 72.9754 111.632 73.0261Z" fill="#455A64"/>
<path d="M111.107 75.503C111.107 75.503 111.107 75.4859 111.107 75.4582L111.128 75.3366C111.152 75.2214 111.182 75.0678 111.22 74.8694C111.301 74.4598 111.418 73.8753 111.566 73.1435L111.591 73.1862L103.64 71.5222L103.706 71.4795V71.4945V71.5137V71.5499L103.691 71.6267L103.657 71.7782C103.636 71.8785 103.615 71.9809 103.595 72.079L103.467 72.6742C103.384 73.0667 103.303 73.4529 103.222 73.8262L103.182 73.7622L108.841 74.9867L110.507 75.3558L110.958 75.4582L111.077 75.4859L111.118 75.4987L110.968 75.4753L110.527 75.3878L108.867 75.0529L103.158 73.8689H103.107L103.113 73.8134L103.357 72.6614C103.397 72.4651 103.44 72.2667 103.482 72.0662L103.546 71.7633L103.578 71.6118L103.593 71.5371V71.4987V71.4795V71.4667L103.659 71.4241L111.602 73.1307H111.636V73.1649C111.472 73.903 111.339 74.4897 111.248 74.9035C111.203 75.0955 111.169 75.247 111.143 75.3579C111.134 75.4069 111.122 75.4553 111.107 75.503Z" fill="#455A64"/>
<path d="M119.843 74.7649V74.7201C119.843 74.6881 119.856 74.6476 119.864 74.5985C119.888 74.4833 119.918 74.3297 119.956 74.1313C120.037 73.7217 120.154 73.1393 120.302 72.4054L120.327 72.4481L112.376 70.7841L112.442 70.7414V70.7564V70.7756V70.814L112.428 70.8886L112.393 71.0401C112.372 71.1425 112.351 71.2534 112.332 71.343L112.204 71.9382C112.12 72.3308 112.038 72.714 111.958 73.0881L111.918 73.0241L117.577 74.2486L119.244 74.6177L119.694 74.7201L119.813 74.7478L119.854 74.7606C119.803 74.7577 119.753 74.7499 119.704 74.7372L119.263 74.6497L117.603 74.3148L111.894 73.1308L111.843 73.1201V73.0668L112.086 71.9148C112.127 71.7185 112.169 71.5201 112.212 71.3196L112.276 71.0188L112.308 70.8652L112.323 70.7905V70.7521V70.7329V70.718L112.389 70.6753L120.332 72.382H120.366V72.4161C120.201 73.1542 120.069 73.7409 119.977 74.1548C119.933 74.3468 119.898 74.4982 119.873 74.6092C119.866 74.6617 119.856 74.7137 119.843 74.7649Z" fill="#455A64"/>
<path d="M119.327 77.2417V77.1969C119.327 77.1649 119.34 77.1244 119.348 77.0753C119.372 76.9601 119.401 76.8065 119.44 76.6081C119.521 76.1985 119.638 75.6161 119.785 74.8822L119.811 74.9249L111.86 73.2609L111.926 73.2182V73.2332V73.2524V73.2908L111.911 73.3654L111.879 73.5169L111.815 73.8198L111.687 74.4129L111.444 75.5649L111.401 75.5009L117.061 76.7254L118.729 77.0945L119.18 77.1969L119.297 77.2246L119.337 77.2374C119.287 77.2346 119.237 77.2267 119.188 77.214L118.747 77.1265L117.068 76.8001L111.361 75.6161L111.308 75.6054L111.318 75.5521L111.561 74.4001C111.602 74.2038 111.645 74.0054 111.687 73.8049L111.751 73.5041L111.783 73.3505L111.798 73.2758V73.2374V73.2182V73.2033L111.864 73.1606L119.807 74.8673H119.843V74.9014C119.679 75.6396 119.547 76.2262 119.455 76.6401C119.41 76.8321 119.376 76.9836 119.35 77.0945C119.345 77.144 119.338 77.1932 119.327 77.2417Z" fill="#455A64"/>
<path d="M104.18 68.99C104.157 69.0114 104.084 68.973 104.018 68.9026C103.952 68.8322 103.915 68.7575 103.937 68.7362C103.958 68.7148 104.031 68.7554 104.099 68.8258C104.167 68.8962 104.203 68.9708 104.18 68.99Z" fill="#455A64"/>
<path d="M103.135 73.8136C103.15 73.8392 103.09 73.9074 102.998 73.9629C102.906 74.0184 102.821 74.044 102.806 74.0184C102.791 73.9928 102.849 73.9245 102.94 73.869C103.032 73.8136 103.113 73.7837 103.135 73.8136Z" fill="#455A64"/>
<path d="M119.54 77.5489C119.54 77.5788 115.781 76.8087 111.156 75.8295C106.531 74.8503 102.789 74.0332 102.795 74.0012C102.802 73.9692 106.554 74.7415 111.179 75.7207C115.804 76.6999 119.54 77.5191 119.54 77.5489Z" fill="#455A64"/>
<path d="M107.623 73.5362C107.604 73.5362 107.623 73.4381 107.538 73.3506C107.514 73.3276 107.485 73.3105 107.454 73.3005C107.423 73.2905 107.389 73.2879 107.357 73.293C107.318 73.3015 107.283 73.3203 107.255 73.3474C107.227 73.3745 107.207 73.4088 107.197 73.4466C107.187 73.4864 107.19 73.5282 107.205 73.5663C107.22 73.6044 107.246 73.6371 107.28 73.6599C107.308 73.678 107.339 73.6893 107.372 73.693C107.405 73.6967 107.438 73.6927 107.47 73.6813C107.585 73.6365 107.606 73.5405 107.623 73.5469C107.64 73.5533 107.634 73.5725 107.623 73.613C107.614 73.643 107.599 73.6709 107.579 73.6951C107.558 73.7192 107.534 73.7392 107.506 73.7538C107.464 73.7779 107.416 73.7906 107.367 73.7906C107.319 73.7906 107.271 73.7779 107.229 73.7538C107.175 73.723 107.133 73.676 107.107 73.6196C107.082 73.5632 107.076 73.5003 107.088 73.4399C107.101 73.3795 107.133 73.3247 107.179 73.2833C107.225 73.242 107.282 73.2162 107.344 73.2098C107.392 73.204 107.441 73.2107 107.486 73.2294C107.531 73.2481 107.57 73.2781 107.6 73.3165C107.639 73.3666 107.658 73.4301 107.651 73.4935C107.642 73.5191 107.63 73.5383 107.623 73.5362Z" fill="#455A64"/>
<path d="M108.146 71.0593C108.129 71.0593 108.146 70.9612 108.063 70.8737C108.039 70.8504 108.01 70.8331 107.978 70.8231C107.946 70.8131 107.912 70.8107 107.879 70.8161C107.841 70.8249 107.807 70.8439 107.779 70.871C107.751 70.898 107.731 70.9322 107.721 70.9697C107.714 71.0079 107.718 71.0474 107.733 71.0834C107.748 71.1194 107.773 71.1503 107.805 71.1724C107.832 71.1904 107.864 71.2018 107.897 71.2055C107.93 71.2092 107.963 71.2052 107.994 71.1937C108.11 71.1489 108.131 71.0529 108.146 71.0593C108.161 71.0657 108.159 71.0849 108.146 71.1254C108.137 71.1555 108.121 71.1834 108.101 71.2075C108.081 71.2317 108.056 71.2516 108.029 71.2662C107.986 71.2904 107.939 71.3031 107.89 71.3031C107.841 71.3031 107.793 71.2904 107.751 71.2662C107.698 71.2354 107.655 71.1885 107.63 71.1321C107.605 71.0757 107.598 71.0128 107.611 70.9524C107.624 70.8919 107.655 70.8371 107.701 70.7958C107.747 70.7544 107.805 70.7287 107.866 70.7222C107.915 70.7164 107.964 70.7232 108.008 70.7419C108.053 70.7606 108.093 70.7906 108.122 70.8289C108.161 70.8795 108.179 70.9426 108.174 71.006C108.167 71.0401 108.154 71.0614 108.146 71.0593Z" fill="#455A64"/>
<path d="M115.932 75.3067C115.915 75.3067 115.932 75.2086 115.849 75.1211C115.825 75.0978 115.796 75.0805 115.764 75.0705C115.733 75.0605 115.699 75.0581 115.666 75.0635C115.627 75.0709 115.592 75.0894 115.564 75.1167C115.536 75.144 115.516 75.1789 115.508 75.2171C115.497 75.2569 115.499 75.2991 115.514 75.3375C115.529 75.3759 115.556 75.4085 115.591 75.4304C115.619 75.4485 115.651 75.4598 115.684 75.4635C115.716 75.4672 115.75 75.4632 115.781 75.4518C115.894 75.407 115.915 75.311 115.932 75.3174C115.95 75.3238 115.932 75.343 115.932 75.3835C115.912 75.4433 115.87 75.4935 115.815 75.5243C115.772 75.5478 115.724 75.5602 115.675 75.5602C115.627 75.5602 115.578 75.5478 115.536 75.5243C115.483 75.4927 115.442 75.4456 115.418 75.3895C115.394 75.3334 115.387 75.2712 115.4 75.2114C115.413 75.1516 115.444 75.0972 115.489 75.0558C115.533 75.0144 115.59 74.988 115.651 74.9803C115.699 74.9745 115.748 74.9812 115.793 74.9999C115.838 75.0186 115.877 75.0486 115.907 75.087C115.927 75.1116 115.942 75.1399 115.95 75.1703C115.959 75.2007 115.962 75.2326 115.958 75.264C115.954 75.279 115.939 75.3067 115.932 75.3067Z" fill="#455A64"/>
<path d="M116.457 72.8193C116.438 72.8193 116.457 72.7212 116.372 72.6337C116.348 72.6107 116.32 72.5936 116.288 72.5836C116.257 72.5736 116.223 72.571 116.191 72.5761C116.152 72.5833 116.117 72.6017 116.088 72.629C116.06 72.6563 116.041 72.6914 116.033 72.7297C116.024 72.768 116.028 72.8079 116.043 72.8441C116.058 72.8803 116.083 72.9111 116.116 72.9324C116.144 72.9505 116.175 72.9618 116.208 72.9655C116.241 72.9692 116.275 72.9652 116.306 72.9537C116.419 72.9089 116.44 72.8129 116.457 72.8193C116.474 72.8257 116.468 72.8449 116.457 72.8854C116.437 72.9458 116.394 72.9961 116.338 73.0263C116.296 73.0504 116.248 73.0631 116.199 73.0631C116.151 73.0631 116.103 73.0504 116.061 73.0263C116.008 72.9946 115.967 72.9475 115.943 72.8914C115.918 72.8354 115.912 72.7731 115.925 72.7133C115.938 72.6535 115.968 72.5991 116.013 72.5577C116.058 72.5163 116.115 72.49 116.176 72.4823C116.224 72.4764 116.273 72.4832 116.318 72.5019C116.363 72.5206 116.402 72.5506 116.432 72.5889C116.471 72.639 116.49 72.7026 116.483 72.766C116.479 72.8023 116.464 72.8215 116.457 72.8193Z" fill="#455A64"/>
<path d="M120.664 72.2646C120.664 72.2966 120.6 72.3371 120.513 72.3755C120.425 72.4139 120.348 72.4374 120.331 72.4118C120.314 72.3862 120.37 72.3158 120.468 72.2731C120.566 72.2304 120.658 72.2368 120.664 72.2646Z" fill="#455A64"/>
<path d="M119.583 77.5575C119.559 77.5767 119.482 77.5191 119.412 77.4295C119.342 77.3399 119.305 77.2503 119.331 77.2311C119.357 77.2119 119.431 77.2717 119.502 77.3613C119.572 77.4509 119.606 77.5405 119.583 77.5575Z" fill="#455A64"/>
<path d="M86.211 73.9387L85.5081 77.219L125.555 85.8004L126.258 82.5202L86.211 73.9387Z" fill="#E0E0E0"/>
<path d="M97.6585 62.7202C97.8375 60.1403 97.2883 57.562 96.0734 55.2791C94.051 51.4605 91.5422 51.0893 91.5422 51.0893C91.5422 51.0893 94.5502 50.6093 96.754 54.7159C98.0659 57.1708 98.3895 60.0344 97.6585 62.7202Z" fill="#455A64"/>
<path d="M99.6253 49.8475C99.5869 49.7387 98.181 57.7963 98.181 57.7963L97.6221 63.6694C97.6221 63.6694 98.9725 59.5201 99.3181 57.3206C99.6637 55.1211 99.973 50.8395 99.6253 49.8475Z" fill="#455A64"/>
<path d="M102.601 50.479C102.601 50.479 101.234 50.9846 99.6338 56.7681C98.4093 61.2011 97.8546 62.8801 97.6733 63.4283C97.6446 63.5058 97.6274 63.587 97.6221 63.6694C97.6221 63.6694 99.9474 59.8059 100.846 57.6427C101.744 55.4795 101.818 52.1067 102.601 50.479Z" fill="#455A64"/>
<path d="M97.6436 64.9346C97.6073 65.0797 98.5268 63.1106 101.622 61.1074C104.502 59.2429 105.592 59.3751 105.592 59.3751C105.592 59.3751 103.047 59.1959 101.023 60.6253C99.2351 61.8861 98.0191 63.4605 97.6436 64.9346Z" fill="#455A64"/>
<path d="M96.8755 67.2002C96.8115 66.1228 96.7176 65.0284 96.3144 64.0279C95.9112 63.0274 95.1539 62.1186 94.1299 61.7815C95.5592 63.3772 96.4936 65.0668 96.8755 67.2002Z" fill="#455A64"/>
<path d="M97.7288 63.1744C97.7288 63.1744 98.0936 59.1083 95.508 57.2715C94.068 56.2475 91.6189 56.1877 91.6189 56.1877C91.6189 56.1877 94.5032 57.1861 95.4589 58.1077C96.4146 59.0293 97.7288 63.1744 97.7288 63.1744Z" fill="#455A64"/>
<path d="M95.2628 74.7478C95.2604 74.7315 95.2604 74.715 95.2628 74.6987C95.2713 74.6589 95.2798 74.6099 95.2884 74.5515C95.3161 74.4129 95.3524 74.2251 95.3972 73.9862C95.4996 73.4891 95.6425 72.7851 95.8238 71.919L97.251 65.103C97.3214 64.7702 97.3918 64.4417 97.4644 64.1174L97.5668 63.6353C97.5881 63.5542 97.5945 63.4774 97.6244 63.3921C97.6542 63.3067 97.6948 63.2449 97.7246 63.1787C97.8484 62.8865 97.9508 62.5878 98.0745 62.3019C98.1982 62.0161 98.3177 61.743 98.4329 61.4721C98.6654 60.9302 98.898 60.4225 99.0921 59.9339C99.2862 59.4454 99.4697 58.9974 99.6382 58.5857C99.8068 58.1739 99.9369 57.7921 100.065 57.4593C100.193 57.1265 100.278 56.8427 100.372 56.6059C100.466 56.3691 100.521 56.1985 100.57 56.0683L100.62 55.9275C100.625 55.911 100.632 55.8952 100.641 55.8806C100.64 55.8974 100.636 55.9139 100.63 55.9297L100.592 56.0747C100.556 56.2006 100.492 56.3841 100.413 56.6209C100.334 56.8577 100.236 57.1478 100.122 57.4742C100.009 57.8006 99.8857 58.1953 99.715 58.607C99.5444 59.0187 99.3737 59.4774 99.1817 59.9638C98.9897 60.4502 98.755 60.9622 98.5417 61.5062C98.4244 61.7771 98.307 62.0545 98.1854 62.3382C98.0638 62.6219 97.9721 62.9185 97.8377 63.215C97.8078 63.2897 97.7673 63.3686 97.7396 63.4283C97.7118 63.4881 97.7054 63.582 97.6862 63.6566C97.6521 63.8166 97.6201 63.9766 97.586 64.1387C97.5177 64.463 97.4473 64.7915 97.3726 65.1243C96.803 67.7782 96.2889 70.1825 95.9134 71.9318C95.7236 72.7958 95.57 73.4977 95.459 73.9947C95.4057 74.2294 95.363 74.4214 95.331 74.5537L95.2948 74.6987C95.2713 74.7329 95.2649 74.75 95.2628 74.7478Z" fill="#263238"/>
<path d="M98.2195 63.7974C98.1623 63.9666 98.091 64.1308 98.0062 64.288C97.8632 64.5867 97.6776 65.0027 97.4942 65.4742C97.3107 65.9456 97.1656 66.3766 97.0675 66.6923C97.0209 66.8658 96.9595 67.0349 96.884 67.1979C96.9003 67.018 96.9368 66.8405 96.9928 66.6688C97.1034 66.2499 97.2373 65.8376 97.3939 65.4336C97.5516 65.0289 97.7339 64.6342 97.94 64.2518C98.0132 64.0889 98.1072 63.9362 98.2195 63.7974Z" fill="#263238"/>
<path d="M96.7135 76.4011C97.4345 75.9744 97.7289 75.0592 97.6777 74.2229C97.6265 73.3867 97.3001 72.6016 97.0591 71.8016L94.8404 71.3323C94.2943 71.9723 93.6756 72.5525 93.2916 73.2949C92.9076 74.0373 92.8009 75.0016 93.2916 75.6757L96.7135 76.4011Z" fill="#0C5137"/>
<path d="M99.4334 53.2375C99.4395 53.2721 99.4395 53.3075 99.4334 53.3421C99.4334 53.421 99.4185 53.5191 99.4078 53.6343C99.3801 53.8903 99.3353 54.2573 99.2755 54.701C99.1539 55.6077 98.9619 56.8578 98.723 58.2338C98.4841 59.6098 98.2409 60.8493 98.0403 61.7432C97.9422 62.1912 97.8526 62.5495 97.7865 62.797C97.7566 62.9101 97.7289 63.0103 97.7075 63.0807C97.6997 63.1146 97.6882 63.1475 97.6734 63.1789C97.6719 63.1443 97.6762 63.1097 97.6862 63.0765C97.7011 62.9976 97.7225 62.9015 97.7459 62.7885C97.8014 62.5197 97.8739 62.1613 97.9593 61.7218C98.1406 60.8258 98.371 59.5885 98.5993 58.2103C98.8275 56.8322 99.0409 55.5885 99.1817 54.6839C99.2499 54.2573 99.3075 53.8839 99.3481 53.6173C99.3673 53.4999 99.3843 53.4039 99.3971 53.325C99.4068 53.2949 99.4189 53.2657 99.4334 53.2375Z" fill="#263238"/>
<path d="M96.9586 56.2349C96.9987 56.3021 97.0309 56.3736 97.0546 56.4482C97.1101 56.5869 97.1826 56.7917 97.2679 57.0455C97.6923 58.374 97.9264 59.7559 97.9634 61.1501C97.9634 61.4167 97.9634 61.6322 97.9634 61.7901C97.9666 61.8675 97.9594 61.945 97.9421 62.0205C97.925 62.0205 97.9207 61.6919 97.8887 61.1671C97.8096 59.784 97.5778 58.4139 97.1975 57.0818C97.0461 56.5527 96.9415 56.2413 96.9586 56.2349Z" fill="#263238"/>
<path d="M95.4185 57.5488C95.4895 57.5861 95.5543 57.6344 95.6105 57.6918C95.7737 57.8364 95.9256 57.9933 96.0649 58.1611C96.2713 58.4086 96.4622 58.6687 96.6366 58.9398C96.8466 59.2773 97.0149 59.6391 97.1379 60.0171C97.3671 60.6952 97.5503 61.388 97.6862 62.0907C97.7417 62.3595 97.7779 62.5792 97.8014 62.7307C97.8188 62.8084 97.8267 62.8879 97.8249 62.9675C97.7932 62.8945 97.771 62.8178 97.7587 62.7392C97.7182 62.5664 97.6691 62.3552 97.6094 62.0992C97.4814 61.568 97.3043 60.832 97.0334 60.0448C96.9135 59.6719 96.751 59.3139 96.5491 58.9782C96.3816 58.7067 96.1993 58.4446 96.003 58.1931C95.8345 57.9798 95.6873 57.8155 95.5763 57.7046C95.5195 57.6571 95.4667 57.605 95.4185 57.5488Z" fill="#263238"/>
<path d="M126.341 53.9822L125.525 53.8093L122.637 67.4439L123.453 67.6167L126.341 53.9822Z" fill="#263238"/>
<path d="M125.496 53.939L108.998 50.4443L106.16 63.8409L122.658 67.3356L125.496 53.939Z" fill="white"/>
<path d="M122.911 67.7099L105.786 64.0832L108.756 50.0608L125.88 53.6875L122.911 67.7099ZM106.546 63.5883L122.418 66.9504L125.121 54.1867L109.249 50.8267L106.546 63.5883Z" fill="#455A64"/>
<path d="M122.867 55.2609L110.686 52.6804L108.676 62.1659L120.858 64.7464L122.867 55.2609Z" fill="#E0E0E0"/>
<path d="M66.5161 69.0093L69.4067 78.2722L79.0345 69.7389L82.6611 72.8343C82.6611 72.8343 74.4905 85.8221 70.5267 88.2669C66.1299 90.9805 60.899 87.4135 60.2377 84.7959C59.5763 82.1783 56.0947 70.4429 56.0947 70.4429L66.5161 69.0093Z" fill="#EFBE9D"/>
<path d="M69.6351 78.1099C69.6457 78.1291 69.3812 78.2763 69.01 78.5835C68.7932 78.7654 68.5907 78.9637 68.4041 79.1765C67.9479 79.6975 67.5966 80.3016 67.3695 80.9557C67.2773 81.2229 67.206 81.4968 67.1561 81.7749C67.0708 82.2507 67.0729 82.5536 67.0516 82.5536C67.0377 82.4834 67.0327 82.4117 67.0367 82.3403C67.0307 82.2572 67.0307 82.1738 67.0367 82.0907C67.0367 81.9947 67.0473 81.8773 67.0687 81.7621C67.1098 81.4775 67.1755 81.197 67.2649 80.9237C67.487 80.2518 67.8467 79.6335 68.3209 79.1083C68.5167 78.895 68.7309 78.6994 68.9609 78.5237C69.0548 78.4448 69.1508 78.3872 69.2297 78.3317C69.2985 78.2845 69.3697 78.2411 69.4431 78.2016C69.5026 78.1624 69.5672 78.1316 69.6351 78.1099Z" fill="#5C8A79"/>
<path d="M59.2798 78.2018L69.4067 75.469C69.4067 75.469 67.235 69.0455 65.5454 64.4034C64.0521 60.3095 61.5497 58.605 60.2483 57.6791C59.7228 57.302 59.1125 57.0602 58.4713 56.9751C56.0755 56.6551 49.5219 55.7932 46.2707 55.5223C42.2494 55.1874 33.8505 57.4018 33.8505 57.4018C33.8505 57.4018 26.4862 61.485 24.003 63.1468C23.394 63.5495 22.9287 64.1352 22.6739 64.8194C22.2153 66.0546 21.6307 68.1772 20.931 70.9228C20.4851 72.6679 19.011 78.445 19.011 78.445L27.6489 78.1783C29.3897 83.4647 31.0025 88.205 31.0025 88.205L30.3027 100.868H62.3368C62.3368 100.868 59.3801 81.2802 59.3801 80.8258C59.3801 80.6594 59.3395 79.5394 59.2798 78.2018Z" fill="#0C5137"/>
<g opacity="0.3">
<path d="M49.3171 67.9211C48.6771 67.1126 47.5763 66.7819 46.5566 66.8843C45.5368 66.9867 44.5897 67.4688 43.7406 68.0448C41.1209 69.8219 39.2606 72.5014 37.6179 75.2043C34.7506 79.9166 32.3418 84.893 30.4243 90.0651L30.4904 91.3878C32.6387 91.1168 34.0382 89.3056 34.9704 87.3536C35.9027 85.4016 36.3038 83.2342 37.1251 81.2331C38.7267 77.3889 41.7823 74.3333 45.6264 72.7318C46.9065 72.864 48.2803 72.4523 49.1166 71.4752C49.9529 70.4982 50.1129 68.9302 49.3171 67.9211Z" fill="black"/>
</g>
<path d="M59.3801 79.8785C59.3311 79.8785 59.0452 77.0774 58.7401 73.615C58.4351 70.1526 58.226 67.3387 58.2729 67.3345C58.3199 67.3302 58.6079 70.1334 58.9129 73.6001C59.218 77.0667 59.4249 79.8742 59.3801 79.8785Z" fill="#263238"/>
<path d="M25.3491 67.3345C25.4069 67.4717 25.4498 67.6148 25.4771 67.7611C25.5518 68.0769 25.6478 68.4801 25.7609 68.9622C25.9934 69.9777 26.3027 71.3814 26.6334 72.9366C26.9641 74.4918 27.2563 75.8998 27.459 76.9217C27.5507 77.4081 27.6275 77.8155 27.6894 78.1334C27.7246 78.281 27.7446 78.4319 27.7491 78.5835C27.694 78.4455 27.6518 78.3027 27.6233 78.1569C27.5486 77.8411 27.4526 77.4379 27.3395 76.9558C27.107 75.9403 26.7977 74.5366 26.4649 72.9814C26.1321 71.4262 25.8441 70.0182 25.6414 68.9963C25.5497 68.5099 25.4707 68.1025 25.411 67.7825C25.376 67.6355 25.3553 67.4854 25.3491 67.3345Z" fill="#263238"/>
<path d="M57.8334 57.0967C57.8846 57.1095 57.5923 58.2337 57.3918 59.6567C57.1912 61.0796 57.1486 62.2295 57.0974 62.2167C57.0525 61.9654 57.041 61.7093 57.0632 61.4551C57.0802 60.841 57.1329 60.2284 57.2211 59.6204C57.3073 59.0113 57.4298 58.4079 57.588 57.8135C57.6388 57.565 57.7213 57.3241 57.8334 57.0967Z" fill="#263238"/>
<path d="M44.0201 62.974L46.9342 57.0966L46.0297 54.5366C46.0297 54.5366 50.4009 52.2668 48.9076 47.6353C48.1865 45.3996 46.3262 40.9153 44.5961 36.8769C43.6985 34.7822 42.0451 33.1023 39.965 32.1713C37.885 31.2404 35.5306 31.1267 33.3705 31.8529L32.9268 32.0001C28.2228 33.8945 27.203 38.9462 29.2254 43.5969L35.1412 60.8769L44.0201 62.974Z" fill="#EFBE9D"/>
<path d="M46.0296 54.5195C46.0296 54.5195 43.1944 55.7377 39.4419 54.8331C39.4419 54.8331 41.9806 57.6747 46.4414 55.7121L46.0296 54.5195Z" fill="#5C8A79"/>
<path d="M44.8414 41.4338C44.9003 41.6051 44.8903 41.7926 44.8134 41.9566C44.7366 42.1206 44.5989 42.2484 44.4296 42.3127C44.3481 42.3475 44.2604 42.3656 44.1718 42.3661C44.0831 42.3665 43.9953 42.3492 43.9134 42.3152C43.8316 42.2812 43.7573 42.2312 43.695 42.1682C43.6327 42.1051 43.5837 42.0302 43.5507 41.9479C43.4911 41.7769 43.5006 41.5894 43.5771 41.4253C43.6535 41.2612 43.791 41.1333 43.9603 41.069C44.042 41.0339 44.1298 41.0155 44.2187 41.0149C44.3076 41.0143 44.3957 41.0315 44.4778 41.0655C44.5599 41.0995 44.6344 41.1496 44.6968 41.2129C44.7593 41.2761 44.8084 41.3512 44.8414 41.4338Z" fill="#263238"/>
<path d="M44.3443 39.1894C44.2931 39.3025 43.668 39.0998 42.9597 39.3409C42.2515 39.5819 41.8525 40.1089 41.7459 40.0491C41.6947 40.0235 41.7267 39.8358 41.8973 39.599C42.133 39.2836 42.4599 39.0482 42.8339 38.9249C43.202 38.8007 43.6 38.7962 43.9709 38.9121C44.2461 39.0059 44.372 39.1361 44.3443 39.1894Z" fill="#263238"/>
<path d="M38.6867 43.2791C38.7461 43.4501 38.7363 43.6375 38.6594 43.8013C38.5825 43.9651 38.4445 44.0924 38.275 44.1559C38.1935 44.191 38.1058 44.2093 38.0171 44.2099C37.9283 44.2105 37.8404 44.1932 37.7585 44.1592C37.6765 44.1252 37.6022 44.0751 37.54 44.0119C37.4777 43.9486 37.4288 43.8736 37.3961 43.7911C37.3372 43.6198 37.3472 43.4323 37.424 43.2683C37.5009 43.1042 37.6385 42.9765 37.8078 42.9121C37.8895 42.8774 37.9773 42.8594 38.066 42.8591C38.1548 42.8589 38.2427 42.8763 38.3246 42.9105C38.4065 42.9447 38.4807 42.9949 38.5429 43.0582C38.6051 43.1215 38.654 43.1966 38.6867 43.2791Z" fill="#263238"/>
<path d="M37.4601 41.2887C37.4196 41.406 36.7774 41.2738 36.099 41.5895C35.4206 41.9052 35.0814 42.4748 34.9705 42.4258C34.9172 42.4044 34.9257 42.2124 35.0708 41.9628C35.2696 41.6242 35.5674 41.3547 35.9241 41.1906C36.2772 41.0273 36.6729 40.9795 37.0548 41.054C37.3406 41.118 37.4814 41.2332 37.4601 41.2887Z" fill="#263238"/>
<path d="M41.7737 46.3211C41.7588 46.2806 42.1726 46.0566 42.8553 45.7259C43.0302 45.6449 43.1902 45.5531 43.1796 45.4187C43.1314 45.2261 43.0258 45.0527 42.8766 44.9217L41.8868 43.7334C40.4852 42.0267 39.4036 40.5889 39.474 40.5334C39.5444 40.4779 40.7369 41.8134 42.1385 43.5329C42.482 43.9595 42.8084 44.3606 43.1177 44.7467C43.2564 44.9302 43.4526 45.1243 43.4505 45.4251C43.4453 45.4982 43.4233 45.5691 43.3863 45.6324C43.3493 45.6957 43.2983 45.7496 43.2372 45.7899C43.1454 45.8508 43.0465 45.9003 42.9428 45.9371C42.2345 46.2059 41.7908 46.3595 41.7737 46.3211Z" fill="#263238"/>
<path d="M36.4978 38.8267C36.4978 39.04 35.7533 39.1894 34.9554 39.5691C34.1575 39.9488 33.5602 40.4011 33.3938 40.2646C33.3149 40.1984 33.3725 39.9787 33.5794 39.7014C33.8645 39.3509 34.2258 39.07 34.6357 38.88C35.0457 38.69 35.4935 38.5959 35.9453 38.6048C36.2909 38.6134 36.4957 38.7158 36.4978 38.8267Z" fill="#263238"/>
<path d="M43.4994 37.2823C43.429 37.4956 42.885 37.4828 42.2962 37.6727C41.7074 37.8625 41.2466 38.1441 41.0759 38.014C40.9991 37.95 41.0226 37.7623 41.189 37.5361C41.4196 37.2559 41.7282 37.0504 42.0757 36.9456C42.4231 36.8408 42.7939 36.8414 43.141 36.9473C43.4055 37.0412 43.5292 37.1841 43.4994 37.2823Z" fill="#263238"/>
<path d="M30.7444 46.8779C30.6548 46.8779 27.2607 47.0059 28.4212 50.1249C29.5817 53.2438 32.4745 51.4347 32.4468 51.343C32.4191 51.2513 30.7444 46.8779 30.7444 46.8779Z" fill="#EFBE9D"/>
<path d="M31.0537 50.5174C31.0367 50.5174 31.0132 50.575 30.9385 50.6518C30.8301 50.7554 30.6853 50.8122 30.5353 50.8097C30.1599 50.8097 29.682 50.383 29.4687 49.8369C29.3601 49.5721 29.3127 49.2862 29.33 49.0006C29.3237 48.8923 29.3434 48.784 29.3876 48.6849C29.4318 48.5858 29.4991 48.4987 29.5839 48.431C29.6402 48.3917 29.7085 48.3732 29.7769 48.3787C29.8454 48.3841 29.9099 48.4132 29.9593 48.4609C30.034 48.5334 30.0383 48.6038 30.0575 48.6017C30.0767 48.5995 30.1044 48.5249 30.0319 48.4054C29.9856 48.3345 29.9163 48.2817 29.8356 48.2561C29.7811 48.239 29.7238 48.2331 29.667 48.2386C29.6102 48.2441 29.5551 48.2609 29.5049 48.2881C29.3861 48.3611 29.288 48.4634 29.22 48.5851C29.1521 48.7069 29.1165 48.8441 29.1167 48.9835C29.0858 49.3028 29.1326 49.6249 29.2532 49.9222C29.5071 50.543 30.0468 51.0123 30.546 50.9739C30.639 50.9677 30.7293 50.9404 30.8102 50.8942C30.8911 50.848 30.9605 50.7841 31.0132 50.7073C31.0772 50.5942 31.0665 50.5174 31.0537 50.5174Z" fill="#5C8A79"/>
<path d="M39.8536 47.5116C39.9666 47.4668 40.2269 48.2348 41.0696 48.5591C41.9122 48.8834 42.7016 48.525 42.7442 48.6295C42.7698 48.6743 42.612 48.8428 42.2685 48.9666C41.8196 49.1245 41.3294 49.1192 40.884 48.9516C40.4572 48.7899 40.1099 48.4686 39.9154 48.0556C39.7768 47.7442 39.8002 47.5244 39.8536 47.5116Z" fill="#263238"/>
<path d="M45.7266 30.0438C45.5844 29.7587 45.3734 29.5135 45.1127 29.3302C44.852 29.147 44.5498 29.0315 44.2333 28.9942C44.1722 28.8193 44.0944 28.6507 44.0008 28.4908C43.429 27.5222 42.1405 26.9974 41.0952 27.4241C40.8726 27.0492 40.5518 26.7421 40.1676 26.536C39.7833 26.3299 39.3501 26.2326 38.9146 26.2545C38.4791 26.2765 38.0578 26.4168 37.6962 26.6605C37.3347 26.9042 37.0464 27.242 36.8626 27.6374C36.3525 27.4323 35.7941 27.3786 35.2542 27.4826C34.7143 27.5867 34.2158 27.8441 33.8184 28.2241C33.7163 28.3153 33.6423 28.4337 33.605 28.5654C33.5962 28.6097 33.5962 28.6553 33.6049 28.6996C33.6137 28.7439 33.6312 28.786 33.6562 28.8236C33.432 28.6392 33.1664 28.5118 32.8822 28.4524C32.598 28.3929 32.3036 28.4032 32.0242 28.4822C31.8349 28.5394 31.6572 28.6296 31.4994 28.7489C31.0144 28.9602 30.6315 29.353 30.4328 29.8433C29.7262 29.853 29.0478 30.1216 28.526 30.5982C28.0042 31.0747 27.6754 31.7261 27.6018 32.4289C27.0976 32.6393 26.6675 32.9952 26.3666 33.4512C26.0656 33.9072 25.9074 34.4426 25.9122 34.9889C25.5888 35.1279 25.3077 35.3496 25.0971 35.6317C24.8865 35.9139 24.7539 36.2464 24.7126 36.5961C24.6713 36.9457 24.7227 37.3 24.8618 37.6234C25.0009 37.9469 25.2226 38.228 25.5048 38.4385C25.5048 38.4385 23.4653 39.6822 24.7005 41.4614C25.3405 42.3702 26.6205 41.7409 26.6205 41.7409L30.4605 47.5414C30.4434 47.582 31.1197 48.1814 31.4461 47.8956C31.7725 47.6097 31.8578 47.1425 31.9581 46.7201C32.0754 46.2358 32.2418 45.7494 32.2013 45.2524C32.1608 44.7553 31.845 44.2348 31.348 44.158C31.8322 43.7953 31.988 43.1212 31.909 42.5217C31.8301 41.9222 31.5272 41.3782 31.237 40.847L29.957 38.5004C30.5233 38.2862 31.0203 37.9214 31.3943 37.4455C31.7684 36.9695 32.0054 36.4004 32.0797 35.7996C33.108 36.1537 34.3645 35.3601 34.4818 34.2764C34.8732 34.7671 35.4363 35.0909 36.0572 35.1824C36.6782 35.2738 37.3107 35.1262 37.8269 34.7692C37.9208 35.4646 39.2968 35.678 39.9965 35.6332C40.6962 35.5884 41.349 34.8673 41.349 34.8673C41.8197 34.9646 42.3041 34.9747 42.7784 34.8972L42.8488 34.878C43.7682 34.6646 44.3677 33.566 44.5362 32.638C44.7732 32.5836 44.9963 32.4804 45.1912 32.335C45.5219 32.0666 45.7541 31.6959 45.851 31.2811C45.9479 30.8663 45.9042 30.431 45.7266 30.0438Z" fill="#263238"/>
<path d="M40.7176 28.3457C40.7638 28.3742 40.8061 28.4086 40.8434 28.4481C40.9548 28.557 41.049 28.6822 41.1229 28.8193C41.2427 29.0358 41.3194 29.2734 41.349 29.519C41.3892 29.8464 41.3467 30.1787 41.2253 30.4854C41.0687 30.8561 40.7851 31.1586 40.4253 31.3388C40.0103 31.5465 39.5366 31.6053 39.0834 31.5052C38.8385 31.4517 38.6078 31.3462 38.4072 31.1958C38.3001 31.12 38.2069 31.0262 38.132 30.9185C38.05 30.8062 38.0012 30.6732 37.9912 30.5345C37.9888 30.4616 38.0021 30.3891 38.0301 30.3218C38.058 30.2545 38.1 30.1939 38.1533 30.1441C38.2611 30.049 38.3934 29.9862 38.5352 29.9628C38.6766 29.9351 38.8223 29.9395 38.9618 29.9756C39.1013 30.0057 39.2343 30.0607 39.3544 30.1377C39.588 30.2872 39.777 30.4968 39.9016 30.7446C40.0262 30.9923 40.0819 31.269 40.0626 31.5457C40.0359 31.7997 39.9587 32.0459 39.8356 32.2697C39.7125 32.4935 39.546 32.6905 39.3458 32.8492C38.9866 33.138 38.5534 33.3198 38.0957 33.374C37.7023 33.4215 37.3038 33.4042 36.916 33.3228C36.3607 33.1971 35.8233 33.0029 35.316 32.7446C35.1346 32.6572 34.9981 32.5846 34.9042 32.5313C34.8557 32.5079 34.8087 32.4815 34.7634 32.4524C34.8152 32.4669 34.8652 32.4869 34.9128 32.5121L35.3394 32.702C35.8491 32.9419 36.3845 33.123 36.9352 33.2417C37.3147 33.3156 37.7037 33.3278 38.0872 33.278C38.5264 33.2236 38.9413 33.0461 39.284 32.766C39.4722 32.615 39.6289 32.4284 39.7449 32.2168C39.861 32.0052 39.9341 31.7728 39.9602 31.5329C39.9767 31.276 39.9241 31.0194 39.8078 30.7898C39.6915 30.5602 39.5158 30.366 39.2989 30.2273C39.1903 30.1565 39.0695 30.1066 38.9426 30.0801C38.8192 30.0482 38.6903 30.0439 38.565 30.0673C38.4445 30.0865 38.332 30.1398 38.2408 30.2209C38.198 30.2595 38.1641 30.307 38.1416 30.3601C38.1192 30.4132 38.1086 30.4705 38.1106 30.5281C38.1275 30.6454 38.1694 30.7578 38.2334 30.8575C38.2975 30.9572 38.3822 31.0421 38.4818 31.1062C38.6714 31.2494 38.8897 31.3499 39.1218 31.4006C39.553 31.4998 40.0051 31.4471 40.4018 31.2513C40.7463 31.0813 41.0187 30.7938 41.1698 30.4406C41.2756 30.1821 41.3242 29.9037 41.3125 29.6246C41.3007 29.3455 41.2287 29.0723 41.1016 28.8236C40.9992 28.6453 40.8696 28.4841 40.7176 28.3457Z" fill="#455A64"/>
<path d="M20.0584 78.4023C20.0584 78.4023 18.036 85.7239 17.5902 87.5116C17.1443 89.2993 17.14 93.4529 18.1534 94.6817C19.1667 95.9105 22.5118 96.6935 22.5118 96.6935C22.5118 96.6935 29.076 93.4935 31.3118 89.5767C33.5475 85.6599 39.6574 75.0273 39.6574 75.0273L37.7224 69.7153L27.5443 79.4327L27.651 78.1676L20.0584 78.4023Z" fill="#EFBE9D"/>
<path d="M41.3149 52.9623C41.3987 52.9194 41.4902 52.8935 41.584 52.8862C41.6779 52.8789 41.7723 52.8902 41.8618 52.9196C41.9512 52.9489 42.034 52.9957 42.1053 53.0573C42.1765 53.1188 42.2349 53.1938 42.277 53.2781L48.1351 64.9431L46.6418 65.6109L40.9949 53.9095C40.9138 53.7412 40.9019 53.5477 40.9617 53.3707C41.0215 53.1936 41.1483 53.047 41.3149 52.9623Z" fill="#455A64"/>
<path d="M37.4067 70.0502L42.883 64.4033H48.131L51.4867 68.8407C51.4867 68.8407 49.8931 69.1372 49.3235 68.2817L48.5811 67.2257C48.5811 67.2257 49.3235 68.8513 48.9246 69.6513C48.9246 69.6513 48.1374 71.5052 48.0115 71.7036C47.7726 72.0769 47.5849 72.3159 46.9065 72.2028C46.2281 72.0897 45.1593 71.5329 45.2723 71.1361C45.3079 71.0202 45.3747 70.9163 45.4654 70.8358C45.5561 70.7553 45.6672 70.7012 45.7865 70.6796L44.1886 70.4513C44.1886 70.4513 42.5801 73.3654 41.6115 74.0502C41.0122 74.469 40.3555 74.7988 39.6617 75.0295L37.4067 70.0502Z" fill="#EFBE9D"/>
<path d="M27.749 79.262C27.7618 79.2897 27.3074 79.5009 26.6098 79.902C25.7047 80.4327 24.8537 81.0508 24.069 81.7473C23.2846 82.4487 22.5701 83.2246 21.9357 84.0641C21.4514 84.7041 21.1911 85.1308 21.1655 85.1308C21.2043 85.0195 21.2566 84.9135 21.3213 84.815C21.4788 84.5351 21.6511 84.2638 21.8375 84.0022C23.0545 82.2571 24.6614 80.8196 26.5309 79.8038C26.8893 79.614 27.1879 79.471 27.397 79.3772C27.5088 79.3237 27.6272 79.2849 27.749 79.262Z" fill="#5C8A79"/>
<path d="M44.0754 66.0438C44.3264 65.9716 44.5848 65.9279 44.8456 65.9136C45.3213 65.8539 45.9826 65.7856 46.7122 65.7216C46.8965 65.6992 47.0827 65.6992 47.2669 65.7216C47.4435 65.7494 47.6113 65.8173 47.7576 65.92C47.9968 66.0927 48.1883 66.3232 48.3144 66.5899C48.44 66.8222 48.5231 67.075 48.5597 67.3366C48.532 67.3472 48.4317 67.0614 48.2056 66.6475C48.0758 66.4101 47.8925 66.2063 47.6701 66.0523C47.5416 65.9674 47.3959 65.912 47.2434 65.8902C47.0726 65.8711 46.9002 65.8711 46.7293 65.8902C45.9997 65.9542 45.3384 66.0032 44.8584 66.031C44.5987 66.0645 44.3361 66.0688 44.0754 66.0438Z" fill="#5C8A79"/>
<path d="M48.2568 71.4198C48.2269 71.4198 48.2781 71.0209 48.244 70.3851C48.2231 70.014 48.1724 69.6452 48.0925 69.2822C48.0029 68.8833 47.8792 68.4054 47.4738 68.1729C47.2727 68.0661 47.0571 67.9892 46.8338 67.9446L46.1938 67.7974C45.8293 67.7141 45.4593 67.657 45.0866 67.6267C44.7437 67.616 44.4004 67.6245 44.0583 67.6523C44.1417 67.6071 44.2329 67.5781 44.3272 67.567C44.5793 67.5177 44.8362 67.497 45.093 67.5051C45.4723 67.5184 45.8498 67.5634 46.2216 67.6395C46.4349 67.6801 46.6482 67.727 46.8744 67.7782C47.1177 67.8228 47.3524 67.9056 47.5698 68.0235C47.7891 68.1573 47.9607 68.3565 48.0605 68.5931C48.1498 68.8034 48.2149 69.0231 48.2546 69.2481C48.3289 69.6205 48.3682 69.999 48.3719 70.3787C48.3749 70.6341 48.3593 70.8894 48.325 71.1425C48.3183 71.2382 48.2952 71.332 48.2568 71.4198Z" fill="#5C8A79"/>
<path d="M46.3666 69.5232C46.4114 69.5232 46.4456 69.9797 46.4498 70.5749V70.6773L46.3432 70.6581C46.2856 70.6468 46.227 70.6411 46.1683 70.6411C45.8943 70.6506 45.6346 70.7652 45.4429 70.9611C45.2957 71.1147 45.2488 71.2491 45.2296 71.2405C45.2104 71.232 45.2168 71.0805 45.3576 70.8821C45.4539 70.7556 45.5776 70.6526 45.7195 70.5809C45.8615 70.5092 46.0178 70.4707 46.1768 70.4683C46.2485 70.4684 46.32 70.4763 46.3901 70.4917L46.2856 70.5749C46.277 69.9733 46.3133 69.5232 46.3666 69.5232Z" fill="#5C8A79"/>
<path d="M46.3667 69.6983C46.3667 69.7473 45.8846 69.6769 45.3001 69.6471C44.7155 69.6172 44.2334 69.6343 44.2334 69.5852C44.2334 69.5361 44.7049 69.4423 45.3001 69.4743C45.8953 69.5063 46.3667 69.6535 46.3667 69.6983Z" fill="#5C8A79"/>
<path d="M44.3208 69.4252C44.3656 69.4252 44.3208 69.9436 44.084 70.5238C43.8472 71.1041 43.5016 71.4902 43.4653 71.4625C43.429 71.4348 43.6914 71.0145 43.924 70.4556C44.1565 69.8966 44.2696 69.4166 44.3208 69.4252Z" fill="#5C8A79"/>
<path d="M78.6973 70.046C78.6973 70.046 82.3069 65.3527 82.7015 65.1393C83.0962 64.926 88.1223 64.2007 88.1223 64.2007C88.1223 64.2007 87.909 65.7879 86.4562 66.2551C85.4279 66.5858 84.2226 66.8439 84.2226 66.8439C84.2226 66.8439 84.6237 69.9201 83.8834 71.1532C83.2727 72.0954 82.5802 72.982 81.8141 73.8028L78.6973 70.046Z" fill="#EFBE9D"/>
<path d="M83.2051 71.8678C83.5275 71.4874 83.7822 71.0544 83.9581 70.5878C84.1309 70.0731 84.23 69.5366 84.2525 68.9942C84.2697 68.6737 84.2697 68.3526 84.2525 68.0321C84.2391 67.8643 84.2149 67.6975 84.18 67.5329C84.1366 67.3532 84.1308 67.1666 84.1629 66.9846C84.1827 66.9367 84.2117 66.8932 84.2483 66.8566C84.2849 66.82 84.3284 66.791 84.3763 66.7713C84.4578 66.7315 84.5427 66.6994 84.6301 66.6753C84.7966 66.6287 84.9653 66.591 85.1357 66.5622C85.4517 66.5124 85.7639 66.4411 86.0701 66.3489C86.5925 66.2061 87.0679 65.9279 87.4483 65.5425C87.6929 65.2721 87.8789 64.9539 87.9944 64.6081C88.0797 64.3627 88.1075 64.2198 88.1181 64.2219C88.1196 64.2573 88.1153 64.2926 88.1053 64.3265C88.0887 64.4261 88.0651 64.5245 88.0349 64.6209C87.9329 64.981 87.7522 65.314 87.5059 65.5958C87.1228 66.0018 86.637 66.2967 86.1 66.4491C85.7908 66.5482 85.475 66.6251 85.1549 66.6795C84.9889 66.7089 84.8244 66.7466 84.6621 66.7926C84.5804 66.8145 84.5011 66.8445 84.4253 66.8822C84.3554 66.9084 84.2982 66.9603 84.2653 67.0273C84.2408 67.1921 84.248 67.3601 84.2867 67.5222C84.3226 67.6917 84.3469 67.8635 84.3592 68.0363C84.3775 68.3604 84.3775 68.6851 84.3592 69.0091C84.3319 69.5606 84.2227 70.1049 84.0349 70.6241C83.9027 70.9671 83.7177 71.2874 83.4867 71.5734C83.4244 71.6527 83.3567 71.7275 83.284 71.7974C83.2605 71.8239 83.2341 71.8475 83.2051 71.8678Z" fill="#5C8A79"/>
<path d="M55.6595 100.919H80.0605C80.3396 100.919 80.6097 100.821 80.8238 100.642C81.0378 100.463 81.1822 100.215 81.2317 99.9402L84.2547 83.2597C84.2859 83.0881 84.2791 82.9118 84.2347 82.7431C84.1902 82.5745 84.1093 82.4176 83.9976 82.2837C83.8858 82.1498 83.7461 82.0421 83.5881 81.9682C83.4301 81.8943 83.2579 81.8559 83.0835 81.856H58.6824C58.4031 81.8559 58.1327 81.954 57.9183 82.1329C57.7038 82.3118 57.559 82.5604 57.5091 82.8352L54.4883 99.5157C54.457 99.6873 54.4638 99.8636 54.5083 100.032C54.5527 100.201 54.6336 100.358 54.7454 100.492C54.8571 100.626 54.9969 100.733 55.1548 100.807C55.3128 100.881 55.4851 100.919 55.6595 100.919Z" fill="#263238"/>
<path d="M56.8989 100.917H41.2275V100.755C41.2275 100.375 41.3783 100.011 41.6467 99.7429C41.9152 99.4744 42.2793 99.3236 42.6589 99.3236H56.8989V100.917Z" fill="#263238"/>
<path d="M58.9384 81.856C58.9149 81.856 58.0488 86.1226 57.0034 91.377C55.9581 96.6314 55.1282 100.907 55.1496 100.907C55.1709 100.907 56.0392 96.6506 57.0866 91.3856C58.1341 86.1205 58.9533 81.8602 58.9384 81.856Z" fill="#455A64"/>
<path d="M70.1811 91.6585C70.2258 91.4934 70.319 91.3455 70.4487 91.2341C70.5785 91.1226 70.7387 91.0527 70.9086 91.0334H70.8382C71.0156 90.9998 71.1991 91.0245 71.3613 91.1038C71.5235 91.1831 71.6557 91.3128 71.7381 91.4734C71.8205 91.6341 71.8487 91.8171 71.8184 91.9951C71.7882 92.1731 71.7012 92.3365 71.5704 92.461C71.4396 92.5854 71.272 92.6642 71.0927 92.6855C70.9134 92.7068 70.732 92.6695 70.5757 92.5792C70.4194 92.4889 70.2964 92.3504 70.2253 92.1845C70.1542 92.0185 70.1387 91.834 70.1811 91.6585Z" fill="#455A64"/>
</svg>
