<svg width="20" height="20" viewBox="0 0 20 20" fill="none" xmlns="http://www.w3.org/2000/svg">
<mask id="path-1-inside-1_328_3526" fill="white">
<path d="M10.8917 18.9584C11.2917 18.9584 11.6916 18.8584 12.0583 18.6584C12.8 18.2417 13.2417 17.5 13.2417 16.6583V12.2C13.2417 11.775 13.5167 11.15 13.775 10.825L16.9417 7.50003C17.4667 6.97503 17.875 6.05835 17.875 5.38335V3.45004C17.875 2.10837 16.8583 1.05835 15.5667 1.05835H4.45001C3.17501 1.05835 2.14166 2.0917 2.14166 3.3667V5.2167C2.14166 6.0917 2.66665 7.10001 3.16665 7.59168C3.40831 7.83335 3.80831 7.83335 4.04998 7.59168C4.29164 7.35001 4.29164 6.95002 4.04998 6.70835C3.74164 6.40002 3.39166 5.70837 3.39166 5.2167V3.3667C3.39166 2.78337 3.86668 2.30835 4.45001 2.30835H15.5667C16.1583 2.30835 16.625 2.80837 16.625 3.45004V5.38335C16.625 5.69168 16.375 6.30004 16.05 6.62504L12.8416 10C12.4166 10.525 12 11.4084 12 12.2V16.6583C12 17.2084 11.625 17.475 11.4583 17.5667C11.1 17.7667 10.675 17.7584 10.3416 17.5584L9.175 16.8084C8.93333 16.6667 8.69999 16.2083 8.69999 15.9C8.69999 15.5583 8.41666 15.275 8.07499 15.275C7.73333 15.275 7.44999 15.5583 7.44999 15.9C7.44999 16.65 7.91667 17.5084 8.50834 17.8667L9.66664 18.6167C10.0416 18.8417 10.4667 18.9584 10.8917 18.9584Z"/>
</mask>
<path d="M10.8917 18.9584C11.2917 18.9584 11.6916 18.8584 12.0583 18.6584C12.8 18.2417 13.2417 17.5 13.2417 16.6583V12.2C13.2417 11.775 13.5167 11.15 13.775 10.825L16.9417 7.50003C17.4667 6.97503 17.875 6.05835 17.875 5.38335V3.45004C17.875 2.10837 16.8583 1.05835 15.5667 1.05835H4.45001C3.17501 1.05835 2.14166 2.0917 2.14166 3.3667V5.2167C2.14166 6.0917 2.66665 7.10001 3.16665 7.59168C3.40831 7.83335 3.80831 7.83335 4.04998 7.59168C4.29164 7.35001 4.29164 6.95002 4.04998 6.70835C3.74164 6.40002 3.39166 5.70837 3.39166 5.2167V3.3667C3.39166 2.78337 3.86668 2.30835 4.45001 2.30835H15.5667C16.1583 2.30835 16.625 2.80837 16.625 3.45004V5.38335C16.625 5.69168 16.375 6.30004 16.05 6.62504L12.8416 10C12.4166 10.525 12 11.4084 12 12.2V16.6583C12 17.2084 11.625 17.475 11.4583 17.5667C11.1 17.7667 10.675 17.7584 10.3416 17.5584L9.175 16.8084C8.93333 16.6667 8.69999 16.2083 8.69999 15.9C8.69999 15.5583 8.41666 15.275 8.07499 15.275C7.73333 15.275 7.44999 15.5583 7.44999 15.9C7.44999 16.65 7.91667 17.5084 8.50834 17.8667L9.66664 18.6167C10.0416 18.8417 10.4667 18.9584 10.8917 18.9584Z" fill="#292D32"/>
<path d="M12.0583 18.6584L12.793 19.9661L12.7848 19.9707L12.7766 19.9752L12.0583 18.6584ZM13.775 10.825L12.6008 9.89165L12.6425 9.83912L12.6888 9.79053L13.775 10.825ZM16.9417 7.50003L15.8555 6.46554L15.8681 6.4523L15.881 6.43936L16.9417 7.50003ZM3.16665 7.59168L4.21839 6.52211L4.22731 6.53102L3.16665 7.59168ZM16.05 6.62504L14.9628 5.59155L14.9759 5.5778L14.9893 5.56438L16.05 6.62504ZM12.8416 10L11.6758 9.05623L11.7133 9.00982L11.7545 8.96654L12.8416 10ZM11.4583 17.5667L10.7273 16.2569L10.7354 16.2524L11.4583 17.5667ZM10.3416 17.5584L9.56989 18.8446L9.55 18.8327L9.53049 18.8201L10.3416 17.5584ZM9.175 16.8084L9.93358 15.5143L9.96019 15.5299L9.98615 15.5466L9.175 16.8084ZM8.50834 17.8667L9.28539 16.5837L9.30468 16.5953L9.32361 16.6076L8.50834 17.8667ZM9.66664 18.6167L8.89489 19.9029L8.8729 19.8897L8.85137 19.8758L9.66664 18.6167ZM10.8917 17.4584C11.0401 17.4584 11.1931 17.4216 11.34 17.3415L12.7766 19.9752C12.1901 20.2951 11.5433 20.4584 10.8917 20.4584V17.4584ZM11.3236 17.3506C11.6039 17.1931 11.7417 16.9449 11.7417 16.6583H14.7417C14.7417 18.0551 13.996 19.2903 12.793 19.9661L11.3236 17.3506ZM11.7417 16.6583V12.2H14.7417V16.6583H11.7417ZM11.7417 12.2C11.7417 11.7139 11.8858 11.2468 12.0208 10.9129C12.1617 10.5641 12.3614 10.1928 12.6008 9.89165L14.9492 11.7584C14.9493 11.7584 14.9476 11.7605 14.9443 11.7651C14.941 11.7696 14.9366 11.776 14.9312 11.7842C14.9202 11.801 14.9067 11.823 14.8915 11.85C14.8607 11.905 14.8294 11.9698 14.8022 12.0371C14.7747 12.1052 14.7566 12.1628 14.7467 12.2038C14.7356 12.2499 14.7417 12.246 14.7417 12.2H11.7417ZM12.6888 9.79053L15.8555 6.46554L18.0279 8.53451L14.8612 11.8595L12.6888 9.79053ZM15.881 6.43936C15.9871 6.33332 16.1243 6.13782 16.2334 5.89118C16.3459 5.63692 16.375 5.44993 16.375 5.38335H19.375C19.375 5.99177 19.2 6.60062 18.977 7.10469C18.7507 7.61639 18.4213 8.14173 18.0023 8.56069L15.881 6.43936ZM16.375 5.38335V3.45004H19.375V5.38335H16.375ZM16.375 3.45004C16.375 2.88762 15.9815 2.55835 15.5667 2.55835V-0.44165C17.7351 -0.44165 19.375 1.32913 19.375 3.45004H16.375ZM15.5667 2.55835H4.45001V-0.44165H15.5667V2.55835ZM4.45001 2.55835C4.00344 2.55835 3.64166 2.92013 3.64166 3.3667H0.641663C0.641663 1.26327 2.34658 -0.44165 4.45001 -0.44165V2.55835ZM3.64166 3.3667V5.2167H0.641663V3.3667H3.64166ZM3.64166 5.2167C3.64166 5.37585 3.696 5.6299 3.83036 5.92319C3.96462 6.21627 4.1242 6.42956 4.21836 6.52214L2.11494 8.66122C1.70909 8.26213 1.35618 7.72544 1.10295 7.17269C0.849819 6.62015 0.641663 5.93255 0.641663 5.2167H3.64166ZM4.22731 6.53102C3.88319 6.1869 3.33344 6.1869 2.98932 6.53102L5.11064 8.65234C4.28318 9.47979 2.93344 9.47979 2.10599 8.65234L4.22731 6.53102ZM2.98932 6.53102C2.6452 6.87514 2.6452 7.42489 2.98932 7.76901L5.11064 5.64769C5.93809 6.47514 5.93809 7.82489 5.11064 8.65234L2.98932 6.53102ZM2.98932 7.76901C2.67362 7.45331 2.41832 7.03894 2.2434 6.66018C2.07244 6.28999 1.89166 5.76788 1.89166 5.2167H4.89166C4.89166 5.171 4.88506 5.17027 4.89891 5.22135C4.9114 5.26743 4.93374 5.33038 4.96699 5.40237C4.99995 5.47375 5.03673 5.53905 5.07051 5.59044C5.10713 5.64616 5.12424 5.66129 5.11064 5.64769L2.98932 7.76901ZM1.89166 5.2167V3.3667H4.89166V5.2167H1.89166ZM1.89166 3.3667C1.89166 1.95494 3.03825 0.80835 4.45001 0.80835V3.80835C4.69511 3.80835 4.89166 3.61179 4.89166 3.3667H1.89166ZM4.45001 0.80835H15.5667V3.80835H4.45001V0.80835ZM15.5667 0.80835C17.089 0.80835 18.125 2.086 18.125 3.45004H15.125C15.125 3.49612 15.1437 3.57867 15.2187 3.65946C15.2965 3.74318 15.4234 3.80835 15.5667 3.80835V0.80835ZM18.125 3.45004V5.38335H15.125V3.45004H18.125ZM18.125 5.38335C18.125 5.84488 17.9672 6.29968 17.8293 6.60886C17.6794 6.94506 17.4439 7.35249 17.1107 7.6857L14.9893 5.56438C14.9775 5.57617 14.9891 5.56678 15.0152 5.52614C15.0397 5.48804 15.066 5.43956 15.0894 5.38703C15.1132 5.3337 15.127 5.29199 15.1328 5.27024C15.1356 5.26007 15.1345 5.26193 15.1324 5.27534C15.1306 5.28673 15.125 5.32466 15.125 5.38335H18.125ZM17.1372 7.65852L13.9288 11.0335L11.7545 8.96654L14.9628 5.59155L17.1372 7.65852ZM14.0075 10.9438C13.8935 11.0847 13.7559 11.308 13.6503 11.5668C13.543 11.8297 13.5 12.0522 13.5 12.2H10.5C10.5 10.9714 11.1018 9.7653 11.6758 9.05623L14.0075 10.9438ZM13.5 12.2V16.6583H10.5V12.2H13.5ZM13.5 16.6583C13.5 18.0208 12.5378 18.6849 12.1812 18.881L10.7354 16.2524C10.7083 16.2673 10.6597 16.2968 10.609 16.3617C10.5804 16.3984 10.5508 16.4471 10.5292 16.5065C10.507 16.5676 10.5 16.6214 10.5 16.6583H13.5ZM12.1894 18.8765C11.3719 19.3327 10.3734 19.3267 9.56989 18.8446L11.1134 16.2721C10.9765 16.19 10.8281 16.2006 10.7273 16.2569L12.1894 18.8765ZM9.53049 18.8201L8.36385 18.0701L9.98615 15.5466L11.1528 16.2966L9.53049 18.8201ZM8.41642 18.1024C7.94156 17.824 7.65928 17.3851 7.51511 17.1069C7.36023 16.8081 7.19999 16.3749 7.19999 15.9H10.2C10.2 15.7991 10.1829 15.7413 10.181 15.7347C10.1774 15.7223 10.1762 15.7218 10.1786 15.7265C10.1815 15.732 10.1769 15.7209 10.1559 15.6955C10.1415 15.678 10.0726 15.5958 9.93358 15.5143L8.41642 18.1024ZM7.19999 15.9C7.19999 16.3868 7.58823 16.775 8.07499 16.775V13.775C9.24508 13.775 10.2 14.7299 10.2 15.9H7.19999ZM8.07499 16.775C8.56175 16.775 8.94999 16.3868 8.94999 15.9H5.94999C5.94999 14.7299 6.9049 13.775 8.07499 13.775V16.775ZM8.94999 15.9C8.94999 15.982 8.98183 16.1409 9.07724 16.3177C9.1214 16.3995 9.16964 16.4668 9.21363 16.5162C9.25882 16.5669 9.28648 16.5843 9.28539 16.5837L7.73129 19.1497C7.15176 18.7988 6.72029 18.2669 6.43734 17.7428C6.15149 17.2133 5.94999 16.568 5.94999 15.9H8.94999ZM9.32361 16.6076L10.4819 17.3576L8.85137 19.8758L7.69307 19.1258L9.32361 16.6076ZM10.4384 17.3305C10.5816 17.4164 10.74 17.4584 10.8917 17.4584V20.4584C10.1933 20.4584 9.50171 20.267 8.89489 19.9029L10.4384 17.3305Z" fill="#0C5137" mask="url(#path-1-inside-1_328_3526)"/>
<mask id="path-3-inside-2_328_3526" fill="white">
<path d="M6.60823 14.3917C8.42489 14.3917 9.8999 12.9167 9.8999 11.1C9.8999 9.28336 8.42489 7.80835 6.60823 7.80835C4.79156 7.80835 3.31655 9.28336 3.31655 11.1C3.31655 12.9167 4.79156 14.3917 6.60823 14.3917ZM6.60823 9.05835C7.73323 9.05835 8.6499 9.97503 8.6499 11.1C8.6499 12.225 7.73323 13.1417 6.60823 13.1417C5.48323 13.1417 4.56655 12.225 4.56655 11.1C4.56655 9.97503 5.48323 9.05835 6.60823 9.05835Z"/>
</mask>
<path d="M6.60823 14.3917C8.42489 14.3917 9.8999 12.9167 9.8999 11.1C9.8999 9.28336 8.42489 7.80835 6.60823 7.80835C4.79156 7.80835 3.31655 9.28336 3.31655 11.1C3.31655 12.9167 4.79156 14.3917 6.60823 14.3917ZM6.60823 9.05835C7.73323 9.05835 8.6499 9.97503 8.6499 11.1C8.6499 12.225 7.73323 13.1417 6.60823 13.1417C5.48323 13.1417 4.56655 12.225 4.56655 11.1C4.56655 9.97503 5.48323 9.05835 6.60823 9.05835Z" fill="#292D32"/>
<path d="M6.60823 12.8917C7.59648 12.8917 8.3999 12.0883 8.3999 11.1H11.3999C11.3999 13.7451 9.2533 15.8917 6.60823 15.8917V12.8917ZM8.3999 11.1C8.3999 10.1118 7.59647 9.30835 6.60823 9.30835V6.30835C9.25332 6.30835 11.3999 8.45493 11.3999 11.1H8.3999ZM6.60823 9.30835C5.61999 9.30835 4.81655 10.1118 4.81655 11.1H1.81655C1.81655 8.45493 3.96313 6.30835 6.60823 6.30835V9.30835ZM4.81655 11.1C4.81655 12.0883 5.61997 12.8917 6.60823 12.8917V15.8917C3.96315 15.8917 1.81655 13.7451 1.81655 11.1H4.81655ZM6.60823 7.55835C8.56165 7.55835 10.1499 9.1466 10.1499 11.1H7.1499C7.1499 10.8035 6.9048 10.5583 6.60823 10.5583V7.55835ZM10.1499 11.1C10.1499 13.0535 8.56163 14.6417 6.60823 14.6417V11.6417C6.90482 11.6417 7.1499 11.3966 7.1499 11.1H10.1499ZM6.60823 14.6417C4.65482 14.6417 3.06655 13.0535 3.06655 11.1H6.06655C6.06655 11.3966 6.31163 11.6417 6.60823 11.6417V14.6417ZM3.06655 11.1C3.06655 9.1466 4.6548 7.55835 6.60823 7.55835V10.5583C6.31165 10.5583 6.06655 10.8035 6.06655 11.1H3.06655Z" fill="#0C5137" mask="url(#path-3-inside-2_328_3526)"/>
<path d="M3.88337 14.7082L3.53036 14.3552L3.88337 14.7082Z" fill="#292D32" stroke="#0C5137" stroke-width="1.5"/>
</svg>
