<svg width="20" height="20" viewBox="0 0 20 20" fill="none" xmlns="http://www.w3.org/2000/svg">
<path d="M12.5 18.9584H7.49996C2.97496 18.9584 1.04163 17.0251 1.04163 12.5001V7.50008C1.04163 2.97508 2.97496 1.04175 7.49996 1.04175H12.5C17.025 1.04175 18.9583 2.97508 18.9583 7.50008V12.5001C18.9583 17.0251 17.025 18.9584 12.5 18.9584ZM7.49996 2.29175C3.65829 2.29175 2.29163 3.65841 2.29163 7.50008V12.5001C2.29163 16.3417 3.65829 17.7084 7.49996 17.7084H12.5C16.3416 17.7084 17.7083 16.3417 17.7083 12.5001V7.50008C17.7083 3.65841 16.3416 2.29175 12.5 2.29175H7.49996Z" fill="#292D32"/>
<path d="M7.50004 8.95833C6.23337 8.95833 5.20837 7.93333 5.20837 6.66667C5.20837 5.4 6.23337 4.375 7.50004 4.375C8.76671 4.375 9.79171 5.4 9.79171 6.66667C9.79171 7.93333 8.76671 8.95833 7.50004 8.95833ZM7.50004 5.625C6.92504 5.625 6.45837 6.09167 6.45837 6.66667C6.45837 7.24167 6.92504 7.70833 7.50004 7.70833C8.07504 7.70833 8.54171 7.24167 8.54171 6.66667C8.54171 6.09167 8.07504 5.625 7.50004 5.625Z" fill="#292D32"/>
<path d="M2.22497 16.4166C2.02497 16.4166 1.82497 16.3166 1.70831 16.1416C1.51664 15.8582 1.59164 15.4666 1.88331 15.2749L5.99164 12.5166C6.89164 11.9082 8.13331 11.9832 8.94997 12.6749L9.22497 12.9166C9.64164 13.2749 10.35 13.2749 10.7583 12.9166L14.225 9.94155C15.1083 9.18322 16.5 9.18322 17.3916 9.94155L18.75 11.1082C19.0083 11.3332 19.0416 11.7249 18.8166 11.9916C18.5916 12.2499 18.2 12.2832 17.9333 12.0582L16.575 10.8916C16.1583 10.5332 15.45 10.5332 15.0333 10.8916L11.5666 13.8666C10.6833 14.6249 9.29164 14.6249 8.39997 13.8666L8.12497 13.6249C7.74164 13.2999 7.10831 13.2666 6.68331 13.5582L2.57497 16.3166C2.46664 16.3832 2.34164 16.4166 2.22497 16.4166Z" fill="#292D32"/>
</svg>
