<svg width="16" height="17" viewBox="0 0 16 17" fill="none" xmlns="http://www.w3.org/2000/svg">
<path d="M12 7.66671C11.7267 7.66671 11.5 7.44004 11.5 7.16671V5.83337C11.5 3.73337 10.9067 2.33337 8 2.33337C5.09333 2.33337 4.5 3.73337 4.5 5.83337V7.16671C4.5 7.44004 4.27333 7.66671 4 7.66671C3.72667 7.66671 3.5 7.44004 3.5 7.16671V5.83337C3.5 3.90004 3.96667 1.33337 8 1.33337C12.0333 1.33337 12.5 3.90004 12.5 5.83337V7.16671C12.5 7.44004 12.2733 7.66671 12 7.66671Z" fill="#292D32"/>
<path d="M7.99998 13.3333C6.80665 13.3333 5.83331 12.36 5.83331 11.1667C5.83331 9.97333 6.80665 9 7.99998 9C9.19331 9 10.1666 9.97333 10.1666 11.1667C10.1666 12.36 9.19331 13.3333 7.99998 13.3333ZM7.99998 10C7.35998 10 6.83331 10.5267 6.83331 11.1667C6.83331 11.8067 7.35998 12.3333 7.99998 12.3333C8.63998 12.3333 9.16665 11.8067 9.16665 11.1667C9.16665 10.5267 8.63998 10 7.99998 10Z" fill="#292D32"/>
<path d="M11.3333 15.6666H4.66665C1.72665 15.6666 0.833313 14.7733 0.833313 11.8333V10.5C0.833313 7.55996 1.72665 6.66663 4.66665 6.66663H11.3333C14.2733 6.66663 15.1666 7.55996 15.1666 10.5V11.8333C15.1666 14.7733 14.2733 15.6666 11.3333 15.6666ZM4.66665 7.66663C2.27998 7.66663 1.83331 8.11996 1.83331 10.5V11.8333C1.83331 14.2133 2.27998 14.6666 4.66665 14.6666H11.3333C13.72 14.6666 14.1666 14.2133 14.1666 11.8333V10.5C14.1666 8.11996 13.72 7.66663 11.3333 7.66663H4.66665Z" fill="#292D32"/>
</svg>
