<?xml version="1.0" encoding="utf-8"?>
<!-- Generator: Adobe Illustrator 23.1.0, SVG Export Plug-In . SVG Version: 6.00 Build 0)  -->
<svg version="1.1" id="Layer_1" xmlns="http://www.w3.org/2000/svg" xmlns:xlink="http://www.w3.org/1999/xlink" x="0px" y="0px"
	 viewBox="0 0 1280 1024" style="enable-background:new 0 0 1280 1024;" xml:space="preserve">
<style type="text/css">
	.st0{fill:#FFFFFF;}
</style>
<g>
	<path class="st0" d="M244.83,759.86c11.2-0.21,22.43-0.57,33.67-1.09c11.24-0.52,16.99-0.78,17.23-0.78
		c31.97,0,57.42,9.63,76.36,28.88c18.93,19.25,28.4,44.93,28.4,77.02c0,17.19-2.8,33.41-8.4,48.68
		c-5.6,15.27-13.68,28.6-24.22,39.98c-9.73,10.56-21.12,18.51-34.16,23.84c-13.04,5.33-27.62,8-43.73,8
		c-16.44,0-27.25-1.66-32.44-4.97c-5.19-3.31-7.79-9.68-7.79-19.1c0-0.72,0.39-12.99,1.17-36.8c0.3-9.15,1.51-29.43,1.16-70.5
		C251.87,830.64,250.44,799.01,244.83,759.86z M275.49,785.02c-0.57,21.95-0.98,41.64-1.23,59.08c-0.25,17.45-0.37,32.64-0.37,45.58
		c0,11.39,0.1,22.49,0.31,33.31c0.2,10.82,0.55,21.35,1.04,31.6c3.84,1.24,7.71,2.17,11.59,2.79c3.88,0.62,7.79,0.93,11.71,0.93
		c22.81,0,41.23-8.08,55.26-24.22c14.02-16.15,21.04-37.32,21.04-63.51c0-25.98-6.95-47.1-20.85-63.35
		c-13.9-16.25-31.97-24.38-54.21-24.38c-4.5,0-8.75,0.18-12.76,0.54C283.01,783.75,279.17,784.29,275.49,785.02z"/>
	<path class="st0" d="M498.49,942.66c1.8,2.8,3.13,5.41,3.99,7.84c0.86,2.43,1.29,4.79,1.29,7.07c0,5.59-3.29,10.17-9.87,13.74
		c-6.58,3.57-15.19,5.36-25.82,5.36c-19.54,0-34.86-6.76-45.94-20.26c-11.08-13.51-16.62-32.17-16.62-55.98
		c0-24.02,5.58-43.66,16.74-58.93c11.16-15.27,25.49-22.9,42.99-22.9c13.49,0,24.57,4.87,33.24,14.6c8.67,9.73,13,22.15,13,37.27
		c0,11.91-3.6,20.4-10.79,25.47c-7.2,5.07-19.42,7.61-36.68,7.61c-6.46,0-12.9-0.28-19.32-0.85c-6.42-0.57-12.78-1.42-19.07-2.56
		v2.17c0,16.15,3.76,28.94,11.28,38.35c7.52,9.42,17.74,14.13,30.66,14.13c6.05,0,11.65-1.01,16.8-3.03
		C489.53,949.72,494.23,946.7,498.49,942.66z M427.1,881.63c5.4,1.14,11.35,1.99,17.85,2.56c6.5,0.57,13.51,0.85,21.04,0.85
		c10.22,0,17.05-1.19,20.48-3.57c3.43-2.38,5.15-6.68,5.15-12.89c0-9.42-2.58-16.87-7.73-22.36c-5.15-5.49-12.19-8.23-21.1-8.23
		c-9.49,0-17.38,3.83-23.67,11.49C432.82,857.15,428.81,867.87,427.1,881.63z"/>
	<path class="st0" d="M595.63,849.27c-3.19-2.49-6.3-4.27-9.32-5.36c-3.03-1.09-6.38-1.63-10.06-1.63
		c-12.43,0-22.77,5.64-31.03,16.92c-8.26,11.29-12.39,25.57-12.39,42.86c0,15.63,3.66,28.03,10.98,37.19
		c7.32,9.16,17.23,13.74,29.75,13.74c5.4,0,10.3-0.93,14.72-2.8c4.42-1.86,8.54-4.76,12.39-8.7c1.47,2.59,2.59,5.07,3.37,7.45
		c0.78,2.38,1.16,4.66,1.16,6.83c0,6.52-2.99,11.7-8.95,15.53c-5.97,3.83-14.07,5.74-24.29,5.74c-17.91,0-32.46-6.49-43.67-19.49
		c-11.2-12.99-16.8-29.89-16.8-50.7c0-25.26,6.79-46.48,20.36-63.67c13.57-17.18,30.05-25.78,49.43-25.78
		c7.11,0,12.41,1.3,15.89,3.88c3.47,2.59,5.21,6.52,5.21,11.8c0,2.69-0.53,5.31-1.59,7.84C599.72,843.5,598,846.27,595.63,849.27z"
		/>
	<path class="st0" d="M668.92,978.76c-18.97,0-34.43-7.4-46.37-22.21c-11.94-14.8-17.91-33.8-17.91-56.99
		c0-24.64,6.38-44.64,19.14-60.02c12.76-15.37,29.32-23.06,49.68-23.06c18.4,0,33.55,7.3,45.45,21.89
		c11.9,14.6,17.85,33.07,17.85,55.44c0,9.01-1.12,17.91-3.37,26.71c-2.25,8.8-5.3,16.3-9.14,22.52
		c-7.28,11.9-15.52,20.83-24.72,26.79C690.33,975.78,680.12,978.76,668.92,978.76z M670.39,956.4c13.25,0,24.1-5.61,32.57-16.85
		c8.46-11.23,12.7-25.65,12.7-43.24c0-17.18-4.15-31.19-12.45-42c-8.3-10.82-19.07-16.23-32.32-16.23
		c-13.49,0-24.39,5.62-32.69,16.85c-8.3,11.23-12.45,26.12-12.45,44.64c0,16.46,4.21,30.04,12.63,40.76
		C646.8,951.05,657.47,956.4,670.39,956.4z"/>
	<path class="st0" d="M769.74,857.02c6.13-10.87,11.98-18.97,17.54-24.3c5.56-5.33,11.04-8,16.44-8c4.58,0,8.48,1.84,11.71,5.51
		c3.23,3.67,4.85,8.2,4.85,13.59c0,3.52-0.92,6.96-2.76,10.33c-1.84,3.37-4.6,6.7-8.28,10.02c-1.31-4.55-2.92-7.92-4.85-10.09
		c-1.92-2.17-4.23-3.26-6.93-3.26c-4.01,0-8.22,2.51-12.63,7.53c-4.42,5.02-8.75,12.24-13,21.66c-0.41,4.66-0.74,9.39-0.98,14.21
		c-0.25,4.81-0.37,9.5-0.37,14.05c0,15.53,0.68,28.47,2.02,38.82c1.35,10.35,3.45,18.84,6.32,25.47c-3.27,2.17-6.48,3.83-9.63,4.97
		c-3.15,1.14-6.24,1.71-9.26,1.71c-4.01,0-6.77-1.27-8.28-3.81c-1.51-2.53-2.27-7.63-2.27-15.29c0-2.8,0.43-13.53,1.29-32.22
		c0.86-18.68,1.29-36.05,1.29-52.1c0-13.15-0.41-23.24-1.23-30.28c-0.82-7.04-2.17-13.25-4.05-18.63c1.64-0.72,3.25-1.27,4.85-1.63
		c1.59-0.36,3.25-0.54,4.97-0.54c4.74,0,8.26,1.42,10.55,4.27c2.29,2.85,3.43,7.22,3.43,13.12c0,1.35-0.06,3.18-0.18,5.51
		C770.17,849.95,769.98,853.09,769.74,857.02z"/>
	<path class="st0" d="M861.16,971.68c-3.43,2.38-6.71,4.14-9.81,5.28c-3.11,1.14-6.09,1.71-8.95,1.71c-4.01,0-6.73-1.37-8.16-4.12
		c-1.43-2.74-2.15-8.25-2.15-16.54c0-4.76,0.37-15.42,1.1-31.99c0.74-16.56,1.1-30.8,1.1-42.7c0-12.94-0.49-23.45-1.47-31.52
		c-0.98-8.08-2.58-14.96-4.78-20.65c3.02-2.28,6.13-4.01,9.32-5.2c3.19-1.19,6.34-1.78,9.44-1.78c3.76,0,6.34,1.16,7.73,3.49
		c1.39,2.33,2.08,6.65,2.08,12.97c0,1.66-0.37,10.72-1.1,27.17c-0.74,16.46-1.1,32.09-1.1,46.89c0,13.87,0.55,25.36,1.66,34.47
		C857.17,958.27,858.87,965.78,861.16,971.68z M860.18,776.8c0,5.9-1.64,10.82-4.91,14.75c-3.27,3.94-7.4,5.9-12.39,5.9
		c-4.34,0-7.77-1.55-10.3-4.66c-2.53-3.11-3.8-7.3-3.8-12.58c0-5.8,1.63-10.74,4.91-14.83c3.27-4.09,7.24-6.13,11.9-6.13
		c4.25,0,7.75,1.66,10.49,4.97C858.81,767.54,860.18,771.73,860.18,776.8z"/>
	<path class="st0" d="M880.18,977.06c-1.47-1.76-2.6-3.6-3.37-5.51c-0.78-1.92-1.17-4.01-1.17-6.29c0-3.31,8.16-18.27,24.47-44.88
		c16.31-26.6,30.93-51.92,43.85-75.93c-2.37-0.1-5.56-0.21-9.57-0.31c-6.46-0.21-10.63-0.31-12.51-0.31
		c-9.16,0-17.05,0.52-23.67,1.55c-6.62,1.04-11.45,2.54-14.47,4.5c-0.9-3.11-1.59-5.92-2.08-8.46c-0.49-2.54-0.74-4.68-0.74-6.45
		c0-4.55,1.12-7.76,3.37-9.63c2.25-1.86,6.32-2.8,12.2-2.8c4.74,0,12.24,0.16,22.51,0.47c10.26,0.31,18.17,0.47,23.73,0.47
		c7.44,0,12.9-0.18,16.38-0.54c3.47-0.36,6.56-0.9,9.26-1.63c1.47,2.17,2.55,4.24,3.25,6.21c0.69,1.97,1.04,3.88,1.04,5.74
		c0,4.87-8.28,20.73-24.84,47.59c-16.56,26.86-30.81,51.32-42.75,73.37c1.06,0,2.62,0.05,4.66,0.16c4.5,0.31,7.4,0.47,8.71,0.47
		h5.52c12.92,0,22.83-0.44,29.75-1.32c6.91-0.88,12.45-2.35,16.62-4.43c0.74,2.38,1.31,4.69,1.72,6.91
		c0.41,2.23,0.61,4.17,0.61,5.82c0,5.07-1.66,8.77-4.97,11.1c-3.31,2.33-8.69,3.49-16.13,3.49c-0.33,0-5.91-0.21-16.74-0.62
		c-10.84-0.41-21.49-0.62-31.95-0.62c-4.17,0-8.1,0.16-11.78,0.47C887.41,975.98,883.77,976.44,880.18,977.06z"/>
	<path class="st0" d="M1074.29,944.22c1.8,2.8,3.13,5.41,3.99,7.84c0.86,2.43,1.29,4.79,1.29,7.07c0,5.59-3.29,10.17-9.87,13.74
		c-6.58,3.57-15.19,5.36-25.82,5.36c-19.54,0-34.86-6.76-45.94-20.26c-11.08-13.51-16.62-32.17-16.62-55.98
		c0-24.02,5.58-43.66,16.74-58.93c11.16-15.27,25.49-22.9,42.99-22.9c13.49,0,24.57,4.87,33.24,14.6c8.67,9.73,13,22.15,13,37.27
		c0,11.91-3.6,20.4-10.79,25.47c-7.2,5.07-19.42,7.61-36.68,7.61c-6.46,0-12.9-0.28-19.32-0.85c-6.42-0.57-12.78-1.42-19.07-2.56
		v2.17c0,16.15,3.76,28.94,11.28,38.35c7.52,9.42,17.74,14.13,30.66,14.13c6.05,0,11.65-1.01,16.8-3.03
		C1065.34,951.29,1070.04,948.26,1074.29,944.22z M1002.91,883.2c5.4,1.14,11.35,1.99,17.85,2.56c6.5,0.57,13.51,0.85,21.04,0.85
		c10.22,0,17.05-1.19,20.48-3.57c3.44-2.38,5.15-6.68,5.15-12.89c0-9.42-2.58-16.87-7.73-22.36c-5.15-5.49-12.19-8.23-21.1-8.23
		c-9.49,0-17.38,3.83-23.67,11.49C1008.63,858.72,1004.62,869.43,1002.91,883.2z"/>
</g>
<g>
	<g>
		<path class="st0" d="M964.34,627.32c2.83-16.24,3.83-32.21,8.53-47c13.38-42.16,40.39-71.04,84.98-80.96
			c11.62-2.58,16.29,1.42,13.97,12.89c-9.67,47.78-36.68,80.02-84.54,93.13c-3.95,1.08-6.37,2.6-6.53,6.87
			c-0.12,3.05-0.47,6.09-0.54,9.15c-0.04,1.97,0.24,3.94,0.45,7.04c12.21,0,24.12-0.18,36.01,0.07c7.36,0.15,14.75,0.64,22.04,1.59
			c5.9,0.76,9.91,4.25,9.83,10.68c-0.26,23.16-3.7,45.62-15.92,65.86c-11.96,19.82-31.31,26.88-52.84,28.45
			c-11.29,0.82-22.95-0.11-34.15-1.99c-29.19-4.89-45.45-23.95-50.75-51.84c-2.91-15.33-2.58-31.3-3.38-47
			c-0.34-6.69,3.33-9.3,10.13-8.97c18.56,0.92,37.15,1.4,55.73,2.03C960.09,627.4,962.82,627.32,964.34,627.32z M1035.6,642.13
			c-45.07,0-87.25,0-130.22,0c-1.36,17.11,1.87,34.36,9.31,50.82c6.05,13.37,16.39,22.57,30.84,24.85
			c12.45,1.96,25.41,2.9,37.92,1.82c19.93-1.72,35.61-11.71,41.92-31.49C1029.95,673.75,1032.04,658.58,1035.6,642.13z
			 M1056.46,515.62c-29.96,2.59-65.92,40.2-71.27,73.98C1007.55,590.7,1048,557.14,1056.46,515.62z"/>
		<path class="st0" d="M975.34,538.28c-1,11.11-3.47,33.58-9.16,50.64c-1.17,3.5-3.18,8.89-7.74,10.46
			c-3.76,1.29-8.43-0.17-13.63-4.35c-15.62-12.56-23.51-29.8-27.19-48.92c-5.64-29.31,2.56-55.29,20.8-78.41
			c4.06-5.15,9.6-4.63,13.88,1.12c15.67,21.09,21.55,47.94,21.55,47.94C974.62,521.83,975.44,529.21,975.34,538.28z M945.44,483.69
			c-25.36,27.11-17.43,78.33,9.31,98.07C963.26,547.87,967.12,514.84,945.44,483.69z"/>
		<path class="st0" d="M951.14,642.13h19.19c-2.67-16.26-5.35-32.51-8.02-48.77c-3.72,0-7.44,0-11.17,0V642.13z"/>
	</g>
	<g>
		<path class="st0" d="M879.86,357.1c18.71-7.3,36.83-15.15,55.49-21.38c11.6-3.87,24.03-4.62,35.9,0.54
			c8.89,3.86,14.78,11.23,13.59,18.26c-0.46,2.7-2.97,6.4-5.3,7.08c-2.35,0.69-7.2-1-8.24-3.03c-5.42-10.62-14.4-11.01-24.2-9.61
			c-31.11,4.46-56.87,19.92-80.07,39.99c-36.64,31.69-58.94,71.47-65.53,119.73c-0.03,0.25-0.1,0.5-0.12,0.75
			c-0.31,6.62-1.99,13.55-0.55,19.77c1.77,7.62,10.56,4.61,15.97,6.99c20.68,9.11,27.35,25.94,27.76,46.76
			c0.48,24.27-8.85,41.85-29.84,55.46c5.56,24.38,10.59,49.14,28.02,71.19c5.15-14.65,6.26-28.07,5.23-41.67
			c-0.73-9.63-2.78-19.17-3.18-28.8c-0.14-3.25,2.94-6.66,4.62-9.95c0.19-0.37,0.85-0.53,1.32-0.72
			c28.53-11.83,36.53-32.26,26.45-65.12c-4.61-15.02-9.96-29.92-13.02-45.27c-4.65-23.36,2.02-45.63,11.62-66.57
			c7.49-16.32,17.27-31.61,26.24-47.23c2.36-4.11,5.24-9.43,11.18-5.36c5.73,3.93,3.53,9.1,0.76,14.14
			c-8.8,16.02-17.9,31.91-25.99,48.29c-13.28,26.88-12.88,54.33-1.98,82.02c6.06,15.39,11.69,30.92,10.33,48.01
			c-1.66,20.73-11.82,35.92-29.75,45.9c-4.16,2.31-4.76,4.42-4.8,9.26c-0.17,20.8-1.41,41.6-2.56,62.39
			c-0.16,2.9-1.59,5.94-3.1,8.52c-5.57,9.53-16.62,11.61-23,2.92c-8.17-11.13-15.4-23.29-20.94-35.93
			c-5.86-13.36-9.25-27.8-13.89-42.27c-8.32,0.48-17.18,1.6-26,1.39c-58.35-1.34-116.69-3.16-175.04-4.41
			c-26.23-0.56-52.49-0.12-78.73-0.2c-12.07-0.04-20.23,4.95-24.04,16.92c-5.01,15.71-10.44,31.3-15.97,46.83
			c-1.86,5.22-3.76,10.81-7.19,14.96c-2.72,3.29-7.98,6.58-11.78,6.23c-3.25-0.3-7.89-5.36-8.67-9.01
			c-2.2-10.37-4.35-21.21-3.59-31.64c1.78-24.29,5.3-48.46,8.07-72.68c0.66-5.74,3.45-9.39,9.49-8.09c6.26,1.35,6.15,6,5.06,11.41
			c-5.94,29.45-9.85,59.11-6.86,89.57c2.03-6.59,3.89-13.25,6.14-19.77c4.3-12.48,9.11-24.78,13.17-37.33
			c5.19-16.04,17.17-22.37,32.64-22.44c38.99-0.19,77.99-0.09,116.98,0.61c46.38,0.83,92.74,2.52,139.12,3.56
			c8.32,0.19,16.67-0.97,25.46-1.54c-3.78-26.54-7.46-52.41-11.33-79.54c-2.55,0-5.74,0-8.94,0c-64.24,0.08-128.48,0.64-192.71-0.03
			c-20.51-0.21-40.99-3.57-61.47-5.7c-7.94-0.83-11.58-5.92-13.13-13.58c-10.61-52.38-32-99.54-68.77-138.94
			c-18-19.29-37.91-30.15-59.68-33.59c0,5.14-0.37,10.26,0.18,15.27c0.22,2,2.26,3.99,3.85,5.62c4.21,4.34,9.56,7.88,12.75,12.84
			c7.51,11.68,1.53,23.95-12.1,26.24c-1.73,0.29-3.51,0.29-5.73,0.47c0,94.89,0,189.62,0,284.49c12.36,2.11,24.86,3.92,37.21,6.47
			c6.41,1.33,12.62,3.77,18.79,6.06c5.27,1.96,7.96,6.12,5.68,11.48c-2.31,5.42-6.94,4.86-11.68,2.79
			c-25.68-11.23-52.78-12.24-80.15-10.75c-20.99,1.15-41.28,5.55-60.29,14.82c-4.31,2.1-8.24,2.07-10.43-2.41
			c-2.15-4.41-0.79-8.97,3.64-11.15c6.35-3.13,12.92-6.4,19.77-7.83c20.07-4.19,40.33-7.5,61.68-11.37c0-1.59,0-4.82,0-8.06
			c0.15-93.05,0.3-186.1,0.43-279.15c0-1.75,0.43-4.01-0.46-5.18c-5.82-7.66-11.86-15.17-18.11-22.49
			c-0.79-0.93-3.31-0.99-4.82-0.61c-5.15,1.29-10.12,3.34-15.31,4.33c-2.8,0.53-5.89-0.5-8.86-0.82c0.44-3.2-0.2-7.31,1.57-9.38
			c2.66-3.11,6.85-5.07,10.65-6.99c3.11-1.58,6.6-2.39,9.86-3.53c-2.68-17.31,4.56-24.91,26.25-27.55c0-48.01,0-96.07,0-143.76
			c-14.95-1.93-29.65-3.1-44.02-5.96c-8.02-1.6-15.7-5.58-23.14-9.29c-7.47-3.72-9.06-10.5-7-18.25c9-33.85,18.01-67.7,27.07-101.54
			c4.85-18.13,8.4-21.11,26.95-23.47c23.23-2.96,46.22-1.52,69.15,2.93c9.9,1.92,15.7,7.42,18.35,16.99
			c9.63,34.72,19.43,69.4,29.1,104.11c2.25,8.08,0.39,13.16-5.42,14.24c-7.56,1.4-9.41-4.26-10.93-9.86
			c-8.86-32.56-17.69-65.12-26.55-97.79c-28.54,12.84-56.89,11.6-85.99,1.02c-5.91,22.23-11.76,44.21-17.58,66.21
			c-2.27,8.59-3.93,17.39-6.86,25.74c-2.24,6.39,0,9.15,5.7,10.3c11.44,2.31,22.84,5.41,34.4,6.33c17.7,1.41,35.56,2.66,53.12-2.25
			c5.41-1.51,9.8,0.88,11.14,6.51c1.41,5.93-1.36,10.27-7.37,11.22c-7.75,1.22-15.63,1.6-24,2.39c0,48.35,0,96.89,0,145.77
			c40.73,6.26,68.39,31.63,91.41,63.34c25.45,35.06,42.17,74.03,50.62,116.53c0.44,2.21,1.11,4.38,1.93,7.53
			c86.53,6.85,173.34,4.13,258.54,4.23c3.35-19.36,5.37-38.08,9.97-56.14c10.53-41.37,34.78-74.25,66.9-101.59
			c3.88-3.3,4.63-6.07,4-10.95c-2.13-16.4-2.75-33.02-5.36-49.32c-2.83-17.67-10.98-33.24-22.92-46.7
			c-7.53-8.49-16.98-11.09-27.68-7.98c-6.55,1.9-13.16,4.19-19.12,7.45c-46.77,25.58-97.28,31.6-149.46,29.07
			c-32.35-1.57-64.49-4.68-95.59-14.54c-3.14-1-6.25-2.07-9.25-3.07c-6.11,10.16-11.49,20.79-18.43,30.28
			c-17.31,23.66-39.51,40.86-68.42,48.28c-1.71,0.44-3.49,0.68-5.25,0.81c-4.62,0.34-9.09-0.28-10.2-5.67
			c-1.21-5.9,3.66-6.02,7.58-7.21c35.31-10.7,60.58-33.24,77.32-65.81c2.71-5.28,2.94-8.99-2.53-13.58
			c-4.99-4.19-8.71-10.62-11.26-16.77c-2.48-5.96-2.12-12.93,4.07-17.24c6.08-4.24,12.57-3.3,18.59,0.64
			c8.8,5.76,11.98,14.6,11.36,24.4c-0.42,6.62,2.08,8.5,7.92,10.09c44.14,11.97,89.04,15.46,134.6,13.71
			c37.29-1.43,72.07-10.77,104.77-28.93c8.69-4.82,18.84-8.19,28.68-9.48c18.93-2.47,31.52,8.83,41.73,23.19
			c13.81,19.41,20.24,41.37,22.16,64.85C878.42,339.35,879.2,348.93,879.86,357.1z M810.8,622.01
			c16.51-10.11,22.91-31.77,16.58-52.37c-3.8-12.36-14.32-20.51-26.76-19.97C803.97,573.5,807.31,597.25,810.8,622.01z
			 M345.66,52.76c19.03,7.14,38.05,9.33,57.05,2.4c0-0.8,0-1.6,0-2.4C383.7,52.76,364.68,52.76,345.66,52.76z M353.53,366.61
			c4,0.58,7.62,1.1,11.69,1.68c0-4.24,0.04-7.74-0.02-11.24c-0.02-0.97-0.33-1.93-0.5-2.84C352.14,354.24,351,355.44,353.53,366.61z
			 M520.67,254.97c2.04-9.29,1.08-11.01-6.94-13.64C516.48,246.72,518.57,250.84,520.67,254.97z"/>
	</g>
</g>
</svg>
