<svg width="16" height="16" viewBox="0 0 16 16" fill="none" xmlns="http://www.w3.org/2000/svg">
<g clip-path="url(#clip0_589_2622)">
<mask id="path-1-inside-1_589_2622" fill="white">
<path d="M5.57 15.7029H5.6675C8.9975 15.7029 10.6025 14.3904 10.88 11.4504C10.91 11.1429 10.685 10.8654 10.37 10.8354C10.07 10.8054 9.785 11.0379 9.755 11.3454C9.5375 13.7004 8.4275 14.5779 5.66 14.5779H5.5625C2.51 14.5779 1.43 13.4979 1.43 10.4454V5.55535C1.43 2.50285 2.51 1.42285 5.5625 1.42285H5.66C8.4425 1.42285 9.5525 2.31535 9.755 4.71535C9.7925 5.02285 10.055 5.25535 10.37 5.22535C10.685 5.20285 10.91 4.92535 10.8875 4.61785C10.6325 1.63285 9.02 0.297852 5.6675 0.297852H5.57C1.8875 0.297852 0.3125 1.87285 0.3125 5.55535V10.4454C0.3125 14.1279 1.8875 15.7029 5.57 15.7029Z"/>
</mask>
<path d="M5.57 15.7029H5.6675C8.9975 15.7029 10.6025 14.3904 10.88 11.4504C10.91 11.1429 10.685 10.8654 10.37 10.8354C10.07 10.8054 9.785 11.0379 9.755 11.3454C9.5375 13.7004 8.4275 14.5779 5.66 14.5779H5.5625C2.51 14.5779 1.43 13.4979 1.43 10.4454V5.55535C1.43 2.50285 2.51 1.42285 5.5625 1.42285H5.66C8.4425 1.42285 9.5525 2.31535 9.755 4.71535C9.7925 5.02285 10.055 5.25535 10.37 5.22535C10.685 5.20285 10.91 4.92535 10.8875 4.61785C10.6325 1.63285 9.02 0.297852 5.6675 0.297852H5.57C1.8875 0.297852 0.3125 1.87285 0.3125 5.55535V10.4454C0.3125 14.1279 1.8875 15.7029 5.57 15.7029Z" fill="#292D32"/>
<path d="M10.88 11.4504L9.38663 11.3094L9.38709 11.3047L10.88 11.4504ZM10.37 10.8354L10.2278 12.3286L10.2207 12.3279L10.37 10.8354ZM9.755 11.3454L8.26134 11.2074L8.26209 11.1997L9.755 11.3454ZM9.755 4.71535L8.26603 4.89693L8.26266 4.86925L8.26031 4.84147L9.755 4.71535ZM10.37 5.22535L10.2278 3.73211L10.2454 3.73043L10.2631 3.72916L10.37 5.22535ZM10.8875 4.61785L12.3821 4.49018L12.3828 4.49928L12.3835 4.50839L10.8875 4.61785ZM5.57 14.2029H5.6675V17.2029H5.57V14.2029ZM5.6675 14.2029C7.16899 14.2029 7.99894 13.9015 8.4699 13.5171C8.90759 13.1598 9.27083 12.5363 9.38664 11.3094L12.3734 11.5913C12.2117 13.3044 11.6337 14.8071 10.367 15.8411C9.13356 16.8479 7.49601 17.2029 5.6675 17.2029V14.2029ZM9.38709 11.3047C9.33662 11.822 9.7157 12.2798 10.2278 12.3286L10.5122 9.34211C11.6543 9.45088 12.4834 10.4637 12.3729 11.596L9.38709 11.3047ZM10.2207 12.3279C10.7545 12.3813 11.1981 12.0013 11.2479 11.491L8.26209 11.1997C8.37188 10.0744 9.38547 9.22942 10.5193 9.3428L10.2207 12.3279ZM11.2486 11.4833C11.1222 12.8522 10.705 14.1442 9.59333 15.022C8.53728 15.8558 7.14226 16.0779 5.66 16.0779V13.0779C6.94524 13.0779 7.48897 12.8611 7.73417 12.6675C7.92377 12.5178 8.17029 12.1935 8.26136 11.2074L11.2486 11.4833ZM5.66 16.0779H5.5625V13.0779H5.66V16.0779ZM5.5625 16.0779C3.93235 16.0779 2.37935 15.8054 1.2909 14.717C0.202458 13.6285 -0.0699997 12.0755 -0.0699997 10.4454H2.93C2.93 11.8677 3.19754 12.3809 3.41222 12.5956C3.6269 12.8103 4.14015 13.0779 5.5625 13.0779V16.0779ZM-0.0699997 10.4454V5.55535H2.93V10.4454H-0.0699997ZM-0.0699997 5.55535C-0.0699997 3.9252 0.202458 2.3722 1.2909 1.28375C2.37935 0.19531 3.93235 -0.0771483 5.5625 -0.0771483V2.92285C4.14015 2.92285 3.6269 3.19039 3.41222 3.40507C3.19754 3.61976 2.93 4.133 2.93 5.55535H-0.0699997ZM5.5625 -0.0771483H5.66V2.92285H5.5625V-0.0771483ZM5.66 -0.0771483C7.15093 -0.0771483 8.55614 0.148814 9.61492 1.0001C10.7257 1.89323 11.1328 3.20365 11.2497 4.58924L8.26031 4.84147C8.17472 3.82705 7.92553 3.49122 7.73508 3.3381C7.49261 3.14314 6.95157 2.92285 5.66 2.92285V-0.0771483ZM11.244 4.53377C11.1916 4.10444 10.7907 3.67849 10.2278 3.73211L10.5122 6.7186C9.31926 6.83221 8.39339 5.94126 8.26603 4.89693L11.244 4.53377ZM10.2631 3.72916C9.70831 3.76879 9.35663 4.25071 9.3915 4.72731L12.3835 4.50839C12.4634 5.59999 11.6617 6.63691 10.4769 6.72154L10.2631 3.72916ZM9.39294 4.74553C9.28606 3.49435 8.92192 2.85759 8.48266 2.49402C8.01149 2.10406 7.17841 1.79785 5.6675 1.79785V-1.20215C7.5091 -1.20215 9.15851 -0.840852 10.3955 0.182928C11.6643 1.23312 12.2339 2.75635 12.3821 4.49018L9.39294 4.74553ZM5.6675 1.79785H5.57V-1.20215H5.6675V1.79785ZM5.57 1.79785C3.90132 1.79785 3.06682 2.16048 2.62097 2.60632C2.17513 3.05217 1.8125 3.88667 1.8125 5.55535H-1.1875C-1.1875 3.54153 -0.762628 1.74728 0.499653 0.485004C1.76193 -0.777276 3.55618 -1.20215 5.57 -1.20215V1.79785ZM1.8125 5.55535V10.4454H-1.1875V5.55535H1.8125ZM1.8125 10.4454C1.8125 12.114 2.17513 12.9485 2.62097 13.3944C3.06682 13.8402 3.90132 14.2029 5.57 14.2029V17.2029C3.55618 17.2029 1.76193 16.778 0.499653 15.5157C-0.762628 14.2534 -1.1875 12.4592 -1.1875 10.4454H1.8125Z" fill="#0C5137" mask="url(#path-1-inside-1_589_2622)"/>
<mask id="path-3-inside-2_589_2622" fill="white">
<path d="M5.75 8.5625H14.285C14.5925 8.5625 14.8475 8.3075 14.8475 8C14.8475 7.6925 14.5925 7.4375 14.285 7.4375H5.75C5.4425 7.4375 5.1875 7.6925 5.1875 8C5.1875 8.3075 5.4425 8.5625 5.75 8.5625Z"/>
</mask>
<path d="M5.75 8.5625H14.285C14.5925 8.5625 14.8475 8.3075 14.8475 8C14.8475 7.6925 14.5925 7.4375 14.285 7.4375H5.75C5.4425 7.4375 5.1875 7.6925 5.1875 8C5.1875 8.3075 5.4425 8.5625 5.75 8.5625Z" fill="#292D32"/>
<path d="M5.75 7.0625H14.285V10.0625H5.75V7.0625ZM14.285 7.0625C13.7641 7.0625 13.3475 7.47907 13.3475 8H16.3475C16.3475 9.13593 15.4209 10.0625 14.285 10.0625V7.0625ZM13.3475 8C13.3475 8.52093 13.7641 8.9375 14.285 8.9375V5.9375C15.4209 5.9375 16.3475 6.86407 16.3475 8H13.3475ZM14.285 8.9375H5.75V5.9375H14.285V8.9375ZM5.75 8.9375C6.27093 8.9375 6.6875 8.52093 6.6875 8H3.6875C3.6875 6.86407 4.61407 5.9375 5.75 5.9375V8.9375ZM6.6875 8C6.6875 7.47907 6.27093 7.0625 5.75 7.0625V10.0625C4.61407 10.0625 3.6875 9.13593 3.6875 8H6.6875Z" fill="#0C5137" mask="url(#path-3-inside-2_589_2622)"/>
<mask id="path-5-inside-3_589_2622" fill="white">
<path d="M12.6125 11.0749C12.755 11.0749 12.8975 11.0224 13.01 10.9099L15.5225 8.39738C15.74 8.17988 15.74 7.81988 15.5225 7.60238L13.01 5.08988C12.7925 4.87238 12.4325 4.87238 12.215 5.08988C11.9975 5.30738 11.9975 5.66738 12.215 5.88488L14.33 7.99988L12.215 10.1149C11.9975 10.3324 11.9975 10.6924 12.215 10.9099C12.32 11.0224 12.47 11.0749 12.6125 11.0749Z"/>
</mask>
<path d="M12.6125 11.0749C12.755 11.0749 12.8975 11.0224 13.01 10.9099L15.5225 8.39738C15.74 8.17988 15.74 7.81988 15.5225 7.60238L13.01 5.08988C12.7925 4.87238 12.4325 4.87238 12.215 5.08988C11.9975 5.30738 11.9975 5.66738 12.215 5.88488L14.33 7.99988L12.215 10.1149C11.9975 10.3324 11.9975 10.6924 12.215 10.9099C12.32 11.0224 12.47 11.0749 12.6125 11.0749Z" fill="#292D32"/>
<path d="M13.01 10.9099L14.0707 11.9705H14.0707L13.01 10.9099ZM15.5225 8.39738L14.4618 7.33672L15.5225 8.39738ZM15.5225 7.60238L14.4618 8.66304L15.5225 7.60238ZM13.01 5.08988L14.0707 4.02922H14.0707L13.01 5.08988ZM12.215 5.88488L11.1543 6.94554L12.215 5.88488ZM14.33 7.99988L15.3907 6.93922L16.4513 7.99988L15.3907 9.06054L14.33 7.99988ZM12.215 10.1149L11.1543 9.05422L12.215 10.1149ZM12.215 10.9099L13.2757 9.84922L13.2939 9.8675L13.3116 9.88641L12.215 10.9099ZM12.6125 9.57488C12.3786 9.57488 12.133 9.66559 11.9493 9.84922L14.0707 11.9705C13.662 12.3792 13.1314 12.5749 12.6125 12.5749V9.57488ZM11.9493 9.84922L14.4618 7.33672L16.5832 9.45804L14.0707 11.9705L11.9493 9.84922ZM14.4618 7.33672C14.0936 7.70501 14.0936 8.29476 14.4618 8.66304L16.5832 6.54172C17.3864 7.34501 17.3864 8.65476 16.5832 9.45804L14.4618 7.33672ZM14.4618 8.66304L11.9493 6.15054L14.0707 4.02922L16.5832 6.54172L14.4618 8.66304ZM11.9493 6.15054C12.3176 6.51883 12.9074 6.51883 13.2757 6.15054L11.1543 4.02922C11.9576 3.22594 13.2674 3.22594 14.0707 4.02922L11.9493 6.15054ZM13.2757 6.15054C13.6439 5.78226 13.6439 5.19251 13.2757 4.82422L11.1543 6.94554C10.3511 6.14226 10.3511 4.83251 11.1543 4.02922L13.2757 6.15054ZM13.2757 4.82422L15.3907 6.93922L13.2693 9.06054L11.1543 6.94554L13.2757 4.82422ZM15.3907 9.06054L13.2757 11.1755L11.1543 9.05422L13.2693 6.93922L15.3907 9.06054ZM13.2757 11.1755C13.6439 10.8073 13.6439 10.2175 13.2757 9.84922L11.1543 11.9705C10.3511 11.1673 10.3511 9.85751 11.1543 9.05422L13.2757 11.1755ZM13.3116 9.88641C13.0873 9.64613 12.8139 9.57488 12.6125 9.57488V12.5749C12.1261 12.5749 11.5527 12.3986 11.1184 11.9334L13.3116 9.88641Z" fill="#0C5137" mask="url(#path-5-inside-3_589_2622)"/>
</g>
<defs>
<clipPath id="clip0_589_2622">
<rect width="16" height="16" fill="white"/>
</clipPath>
</defs>
</svg>
