<svg width="21" height="20" viewBox="0 0 21 20" fill="none" xmlns="http://www.w3.org/2000/svg">
<path d="M8.825 18.9833C8.325 18.9833 7.85 18.7333 7.525 18.2917L6.52501 16.9583C6.52501 16.9667 6.48334 16.9417 6.46667 16.9417H6.15835C3.30835 16.9417 1.54167 16.1667 1.54167 12.325V8.99167C1.54167 5.48334 3.68335 4.56667 5.48335 4.40834C5.68335 4.38334 5.91668 4.375 6.15835 4.375H11.4917C14.5083 4.375 16.1083 5.97501 16.1083 8.99167V12.325C16.1083 12.5667 16.1 12.8 16.0667 13.025C15.9167 14.8 15 16.9417 11.4917 16.9417H11.1583L10.125 18.2917C9.79999 18.7333 9.325 18.9833 8.825 18.9833ZM6.15835 5.625C5.96668 5.625 5.78334 5.63333 5.60834 5.65C3.67501 5.81667 2.79167 6.87501 2.79167 8.99167V12.325C2.79167 15.1833 3.67501 15.6917 6.15835 15.6917H6.49167C6.86667 15.6917 7.29167 15.9 7.525 16.2L8.52501 17.5417C8.70834 17.7917 8.94168 17.7917 9.12501 17.5417L10.125 16.2083C10.3667 15.8833 10.75 15.6917 11.1583 15.6917H11.4917C13.6083 15.6917 14.6667 14.8 14.825 12.9C14.85 12.7 14.8583 12.5167 14.8583 12.325V8.99167C14.8583 6.66667 13.8167 5.625 11.4917 5.625H6.15835Z" fill="#292D32"/>
<path d="M8.8252 11.8251C8.35853 11.8251 7.99187 11.4501 7.99187 10.9918C7.99187 10.5334 8.36687 10.1584 8.8252 10.1584C9.28353 10.1584 9.65853 10.5334 9.65853 10.9918C9.65853 11.4501 9.29187 11.8251 8.8252 11.8251Z" fill="#292D32"/>
<path d="M11.4916 11.8251C11.0249 11.8251 10.6583 11.4501 10.6583 10.9918C10.6583 10.5334 11.0333 10.1584 11.4916 10.1584C11.9499 10.1584 12.3249 10.5334 12.3249 10.9918C12.3249 11.4501 11.9499 11.8251 11.4916 11.8251Z" fill="#292D32"/>
<path d="M6.16651 11.8251C5.69984 11.8251 5.33318 11.4501 5.33318 10.9918C5.33318 10.5334 5.70818 10.1584 6.16651 10.1584C6.62484 10.1584 6.99984 10.5334 6.99984 10.9918C6.99984 11.4501 6.62484 11.8251 6.16651 11.8251Z" fill="#292D32"/>
<path d="M15.4501 13.5751C15.2835 13.5751 15.1168 13.5084 15.0001 13.3834C14.8668 13.2501 14.8085 13.0584 14.8335 12.8751C14.8585 12.7001 14.8668 12.5168 14.8668 12.3251V8.99176C14.8668 6.66676 13.8251 5.62508 11.5001 5.62508H6.16677C5.97511 5.62508 5.7918 5.63341 5.6168 5.65008C5.43346 5.67508 5.24178 5.6084 5.10845 5.4834C4.97512 5.35007 4.90011 5.16676 4.91677 4.98342C5.06677 3.18342 5.99177 1.04175 9.50011 1.04175H14.8335C17.8501 1.04175 19.4501 2.64176 19.4501 5.65842V8.99176C19.4501 12.5001 17.3085 13.4168 15.5085 13.5751C15.4835 13.5751 15.4668 13.5751 15.4501 13.5751ZM6.26679 4.37508H11.4918C14.5085 4.37508 16.1085 5.97509 16.1085 8.99176V12.2168C17.5251 11.8668 18.1918 10.8251 18.1918 8.99176V5.65842C18.1918 3.33342 17.1501 2.29175 14.8251 2.29175H9.49179C7.65846 2.29175 6.62513 2.95841 6.26679 4.37508Z" fill="#292D32"/>
</svg>
