<svg width="375" height="331" viewBox="0 0 375 331" fill="none" xmlns="http://www.w3.org/2000/svg">
<g clip-path="url(#clip0_33_468)">
<path d="M220.136 164.161C220.136 164.161 204.319 195.861 188.249 217.742C181.856 226.452 175.424 233.603 169.932 236.587C164.557 239.507 160.007 244.035 156.242 249.068C146.494 262.081 141.992 278.373 141.992 278.373L100.902 216.103C100.902 216.103 102.305 155.236 107.238 145.054C114.429 130.215 117.902 100.237 120.664 94.2688C122.714 89.8417 128.566 66.9712 129.126 65.2897C129.371 64.5665 131.317 63.456 133.847 63.4576C135.876 63.4576 139.322 65.4221 140.189 69.4603C144.584 89.8665 139.296 103.328 139.363 103.926C140.913 119.61 136.254 131.253 139.529 134.336C139.649 134.449 139.875 134.396 140.189 134.191C145.855 130.55 181.011 79.205 185.342 78.0961C189.905 76.9277 220.136 164.161 220.136 164.161Z" fill="#FFB27D"/>
<path d="M154.353 266.05C154.353 266.05 153.793 293.72 152.191 330.988H48.5565C72.2388 280.382 92.8348 237.789 92.8348 237.789C92.8348 237.789 151.849 239.594 154.353 266.05Z" fill="#F99746"/>
<path d="M256.07 56.8774L243.348 75.5624L230.862 93.8998C230.101 94.82 229.22 95.1394 228.267 95.0484C225.27 94.7637 221.564 90.4342 218.674 88.0378L218.382 87.7961C216.551 86.2706 215.397 84.081 215.172 81.7059C214.948 79.3307 215.671 76.9631 217.184 75.1205L236.268 52.0117L241.929 45.1584C243.452 43.3247 245.638 42.1695 248.009 41.945C250.38 41.7205 252.743 42.445 254.583 43.9602L254.877 44.2018C256.706 45.7286 257.859 47.9184 258.082 50.2932C258.306 52.6681 257.582 55.0351 256.07 56.8774Z" fill="#FFB27D"/>
<path d="M243.336 75.5623L230.851 93.8997C230.089 94.8199 229.209 95.1393 228.255 95.0483L236.257 52.0183C236.275 52.2533 237.635 71.5622 243.336 75.5623Z" fill="#EFA26F"/>
<path d="M188.25 217.742C181.856 226.452 175.424 233.603 169.932 236.587C164.557 239.507 160.007 244.035 156.242 249.068C151.912 247.045 146.975 244.674 142.151 242.323C136.275 239.464 136.049 231.106 141.805 228.009C141.861 227.98 141.916 227.948 141.97 227.917C147.363 224.827 152.888 213.912 152.888 213.912L188.25 217.742Z" fill="#EFA26F"/>
<path d="M128.841 66.2365L125.511 79.7015C125.511 79.7015 128.423 80.8931 130.291 79.968C132.16 79.0428 133.685 66.9613 128.841 66.2365Z" fill="#FFC197"/>
<path d="M224.584 40.8289H152.994C145.923 40.8289 140.191 46.5706 140.191 53.6535V211.281C140.191 218.363 145.923 224.105 152.994 224.105H224.584C231.655 224.105 237.387 218.363 237.387 211.281V53.6535C237.387 46.5706 231.655 40.8289 224.584 40.8289Z" fill="#0C5137"/>
<path d="M232.569 54.8665V208.839C232.569 214.063 228.333 218.336 223.152 218.336H154.418C149.243 218.336 145 214.063 145 208.839V54.8665C145 49.6433 149.235 45.3701 154.418 45.3701H223.158C228.333 45.3701 232.569 49.6499 232.569 54.8665Z" fill="#E7EEEB"/>
<path d="M223.158 45.3701L155.269 218.336H154.418C149.243 218.336 145 214.063 145 208.839V54.8665C145 49.6433 149.235 45.3701 154.418 45.3701H223.158Z" fill="#E7EEEB"/>
<path d="M203.155 41.903H174.424C172.074 41.903 170.17 43.8109 170.17 46.1646V46.8365C170.17 49.1901 172.074 51.0981 174.424 51.0981H203.155C205.505 51.0981 207.41 49.1901 207.41 46.8365V46.1646C207.41 43.8109 205.505 41.903 203.155 41.903Z" fill="#0C5137"/>
<path d="M249.727 127.435L247.83 128.157L235.07 133.014C234.774 133.128 234.472 133.224 234.165 133.302C232.093 133.834 229.899 133.585 227.999 132.602C226.099 131.618 224.626 129.97 223.86 127.97L223.674 127.473C222.862 125.314 222.936 122.922 223.879 120.817C224.823 118.713 226.559 117.068 228.71 116.242L240.605 111.716L241.469 111.385L243.368 110.662C245.525 109.847 247.916 109.922 250.018 110.87C252.12 111.818 253.761 113.562 254.583 115.719L254.771 116.216C255.579 118.374 255.502 120.765 254.557 122.867C253.612 124.968 251.876 126.611 249.727 127.435Z" fill="#FFB27D"/>
<path d="M239.364 127.733C237.236 128.542 233.38 129.975 231.318 130.273C230.735 130.356 229.666 130.038 228.657 128.939C228.055 128.277 227.48 127.341 227.052 126.04C226.845 125.439 226.699 124.82 226.616 124.19C226.536 123.456 226.56 122.715 226.687 121.988C226.752 121.649 226.896 121.33 227.108 121.057C227.319 120.784 227.592 120.565 227.903 120.418C227.903 120.418 227.903 120.418 227.913 120.418C230.106 119.37 233.061 118.091 235.652 117.379C237.443 116.883 239.255 117.675 239.822 119.246L240.09 119.979L241.459 123.736C242.026 125.292 241.104 127.076 239.364 127.733Z" fill="#FFD3B6"/>
<path d="M239.364 127.733C237.236 128.542 233.38 129.975 231.318 130.273C230.735 130.356 229.666 130.038 228.657 128.939C228.551 128.688 228.452 128.425 228.359 128.142C228.15 127.542 228.004 126.922 227.923 126.291C227.843 125.558 227.866 124.817 227.993 124.09C228.058 123.751 228.203 123.433 228.414 123.16C228.626 122.888 228.899 122.669 229.21 122.521C229.21 122.521 229.21 122.521 229.22 122.521C231.413 121.472 234.367 120.194 236.959 119.481C237.486 119.322 238.042 119.285 238.585 119.371C239.128 119.457 239.646 119.664 240.098 119.978L241.468 123.734C242.026 125.292 241.104 127.076 239.364 127.733Z" fill="#FFC197"/>
<path d="M243.938 145.41L234.096 148.093C232.654 148.481 231.118 148.283 229.822 147.54C228.526 146.798 227.576 145.572 227.18 144.131L226.876 143.015C226.488 141.57 226.688 140.029 227.431 138.731C228.174 137.433 229.4 136.482 230.841 136.086L240.681 133.403C242.124 133.015 243.662 133.215 244.958 133.959C246.254 134.703 247.203 135.932 247.597 137.375L247.9 138.49C248.285 139.934 248.085 141.472 247.342 142.768C246.6 144.064 245.376 145.014 243.938 145.41Z" fill="#FFB27D"/>
<path d="M238.616 144.927C236.809 145.41 233.542 146.262 231.829 146.357C231.206 146.391 229.959 145.86 229.146 144.223C228.72 143.334 228.474 142.369 228.422 141.383C228.41 140.813 228.484 140.245 228.642 139.697C228.726 139.435 228.87 139.196 229.063 139.001C229.257 138.805 229.493 138.658 229.754 138.571H229.764C231.639 137.909 234.157 137.117 236.336 136.734C237.84 136.471 239.267 137.196 239.619 138.439L239.873 139.326L240.632 141.992C240.982 143.22 240.093 144.533 238.616 144.927Z" fill="#FFD3B6"/>
<path d="M238.616 144.927C236.809 145.41 233.542 146.262 231.829 146.357C231.206 146.391 229.959 145.86 229.146 144.223C229.03 143.779 228.962 143.322 228.946 142.863C228.934 142.293 229.008 141.724 229.166 141.176C229.25 140.914 229.394 140.675 229.588 140.48C229.781 140.284 230.018 140.136 230.279 140.049C232.154 139.387 234.674 138.593 236.852 138.214C238.097 137.996 239.292 138.456 239.865 139.324L240.623 141.991C240.982 143.22 240.093 144.533 238.616 144.927Z" fill="#FFC197"/>
<path d="M82.7466 258.782C82.7466 258.782 102.999 278.214 116.652 285.716L126.99 278.371V289.206C126.99 289.206 147.312 292.808 153.732 289.206V259.66L96.6348 230.985L82.7466 258.782Z" fill="#ED7D2B"/>
<path d="M158.046 286.855C150.18 288.471 133.227 282.282 133.227 282.282L135.957 255.825L116.791 277.802C107.044 274.161 91.794 264.684 82.7351 258.782C78.2247 255.843 75.2474 253.793 75.2474 253.793C88.032 233.185 100.891 213.907 100.891 213.907C104.666 221.472 113.599 228.039 123.284 233.294C139.378 242.026 157.544 247.126 157.544 247.126C157.549 262.854 158.046 286.855 158.046 286.855Z" fill="#F5F5DC"/>
<path d="M249.416 108.55L249.205 108.623L236.305 111.933C230.633 113.394 224.766 110.319 223.269 105.102L222.502 102.445C221.063 97.4348 224.154 92.1968 229.427 90.4987L233.686 89.4031L242.327 87.1805C247.999 85.7208 253.864 88.7957 255.361 94.0123L256.129 96.6851C257.547 101.617 254.556 106.779 249.416 108.55Z" fill="#FFB27D"/>
<path d="M243.513 104.942L237.235 107.772H237.195C236.946 107.842 236.693 107.897 236.437 107.937C236.333 107.954 236.225 107.966 236.12 107.977C236.076 107.981 236.031 107.981 235.987 107.977C235.824 107.972 235.664 107.926 235.523 107.843C235.381 107.761 235.262 107.645 235.177 107.505C235.091 107.365 235.041 107.207 235.031 107.043C235.022 106.879 235.053 106.716 235.122 106.567C235.736 105.234 235.862 103.727 235.477 102.31L235.327 101.763C235.328 101.757 235.328 101.752 235.327 101.746L234.841 99.962C234.471 98.5915 233.675 97.3744 232.569 96.4865C232.44 96.3822 232.308 96.2829 232.173 96.1902C230.933 95.3296 231.249 93.3767 232.7 92.9795L232.739 92.968L239.617 91.9253C241.317 91.4636 242.955 92.7743 243.417 94.4773L243.969 96.508L245.145 100.837C245.608 102.552 245.205 104.48 243.513 104.942Z" fill="#FFD3B6"/>
<path d="M243.513 104.942L237.235 107.772H237.195C237.048 107.8 236.589 107.878 235.987 107.971C235.824 107.965 235.664 107.919 235.523 107.837C235.381 107.754 235.262 107.638 235.177 107.498C235.091 107.359 235.041 107.2 235.031 107.036C235.022 106.873 235.053 106.709 235.122 106.56C235.736 105.228 235.862 103.72 235.477 102.304L235.327 101.756C235.328 101.751 235.328 101.745 235.327 101.739L234.841 99.962C234.471 98.5915 233.675 97.3744 232.569 96.4865C232.805 96.141 233.157 95.8915 233.56 95.7831L233.6 95.7715L240.478 94.7306C241.91 94.34 243.295 95.2088 243.976 96.508L245.152 100.837C245.608 102.552 245.205 104.48 243.513 104.942Z" fill="#FFC197"/>
<path d="M140.189 175.761C140.189 175.761 137.381 151.153 134.78 146.355C132.18 141.557 129.989 131.945 133.98 124.805C137.972 117.665 139.355 103.934 139.355 103.934C140.905 119.618 136.246 131.261 139.52 134.345C139.641 134.457 139.867 134.404 140.181 134.199L140.189 175.761Z" fill="#EFA26F"/>
<path d="M203.05 84.165H105.312C101.919 84.165 99.1692 86.92 99.1692 90.3183V129.53C99.1692 132.929 101.919 135.684 105.312 135.684H203.05C206.442 135.684 209.192 132.929 209.192 129.53V90.3183C209.192 86.92 206.442 84.165 203.05 84.165Z" fill="#8FAFA3"/>
<path d="M203.734 60.0781H165.478C162.64 60.0781 160.339 62.3825 160.339 65.2252V72.4939C160.339 75.3366 162.64 77.641 165.478 77.641H203.734C206.571 77.641 208.872 75.3366 208.872 72.4939V65.2252C208.872 62.3825 206.571 60.0781 203.734 60.0781Z" fill="#B4C9C1"/>
<path d="M202.055 184.744H157.952C154.553 184.744 151.798 187.504 151.798 190.909V200.247C151.798 203.652 154.553 206.412 157.952 206.412H202.055C205.454 206.412 208.209 203.652 208.209 200.247V190.909C208.209 187.504 205.454 184.744 202.055 184.744Z" fill="#B4C9C1"/>
<path d="M177.532 144.662H219.198C221.154 144.662 223.029 145.44 224.412 146.825C225.795 148.21 226.572 150.089 226.572 152.048V168.38C226.572 170.338 225.795 172.217 224.413 173.602C223.03 174.987 221.155 175.765 219.2 175.766H177.532C176.563 175.766 175.604 175.576 174.709 175.205C173.814 174.834 173.001 174.29 172.316 173.604C171.631 172.918 171.088 172.103 170.717 171.207C170.347 170.311 170.156 169.35 170.156 168.38V152.048C170.156 151.078 170.347 150.117 170.717 149.221C171.088 148.325 171.631 147.51 172.316 146.824C173.001 146.138 173.814 145.594 174.709 145.223C175.604 144.852 176.563 144.661 177.532 144.662Z" fill="#F99746"/>
<path d="M336.995 331H260.985C257.34 328.552 238.411 315.618 230.585 305.976C228.933 303.932 222.854 286.323 218.193 272.026C215.281 263.089 212.907 255.453 212.515 253.7C212.376 253.089 212.284 251.879 212.227 250.241V250.224C212.029 244.377 212.3 233.102 212.579 224.145V224.104V223.986C212.593 223.592 212.604 223.205 212.617 222.828V222.814C212.617 222.776 212.617 222.736 212.617 222.698C212.669 221.143 212.718 219.676 212.764 218.342C212.882 215.009 212.981 212.502 213.022 211.521L213.039 211.064C213.159 210.996 216.816 209.041 221.703 212.568C222.882 213.42 223.973 215.479 224.967 218.165C225.603 219.88 226.2 221.849 226.755 223.925C228.89 231.907 230.421 241.45 231.239 244.005C232.561 248.142 248.091 266.293 249.069 267.421C249.084 267.441 249.101 267.46 249.116 267.478V238.793L237.385 207.348L232.569 194.439L230.149 187.952C227.586 183.62 225.306 179.127 223.322 174.502C221.959 171.287 220.71 167.837 219.937 164.557C219.751 163.775 219.594 163.003 219.469 162.24C219.011 159.467 218.973 156.896 219.616 154.802C220.751 151.073 223.309 150.372 225.273 150.448C225.476 150.448 225.673 150.473 225.863 150.494C226.054 150.517 226.242 150.553 226.428 150.603C226.77 150.694 227.099 150.831 227.404 151.01C227.913 151.309 228.349 151.717 228.68 152.205C228.68 152.205 230.332 154.375 232.564 157.291C234.028 159.211 235.738 161.453 237.38 163.615C240.305 167.466 243.021 171.062 243.767 172.112C247.804 177.803 258.672 196.351 258.672 196.351L271.393 196.885C273.409 196.97 275.327 197.774 276.801 199.153C281.325 203.385 291.077 212.542 292.274 213.904C292.274 214.351 299.852 218.002 305.707 221.252C309.896 223.024 317.851 229.307 317.851 229.307C319.503 230.765 320.755 232.216 321.392 233.61C324.119 239.556 331.518 291.273 335.055 316.84C336.2 325.059 336.937 330.575 336.995 331Z" fill="#FFB27D"/>
<path d="M258.677 196.357C258.677 196.357 270.462 215.628 272.021 216.495C273.581 217.363 279.648 218.579 280.342 216.495C281.036 214.412 258.677 196.357 258.677 196.357Z" fill="#EFA26F"/>
<path d="M317.915 229.366L317.856 229.313C317.856 229.313 309.901 223.024 305.712 221.259C300.336 218.28 293.509 214.953 292.427 214.083C293.675 215.512 302.451 225.462 305.83 226.207C308.795 226.862 315.531 228.708 317.915 229.366Z" fill="#EFA26F"/>
<path d="M249.117 267.47V238.793C249.117 238.793 255.918 250.188 256.438 256.439C256.958 262.69 253.613 272.805 249.117 267.47Z" fill="#EFA26F"/>
<path d="M224.442 162.238C223.451 160.53 221.666 157.438 221.053 155.701C220.888 155.204 220.903 154.231 221.504 153.187C221.949 152.439 222.559 151.804 223.289 151.332C223.677 151.056 224.098 150.829 224.541 150.655C225.055 150.467 225.597 150.367 226.144 150.358C226.419 150.37 226.688 150.449 226.927 150.588C227.165 150.727 227.367 150.922 227.513 151.156C228.693 152.879 230.187 155.224 231.203 157.347C231.905 158.814 231.683 160.507 230.659 161.25L230.18 161.601L227.731 163.392C226.719 164.141 225.252 163.635 224.442 162.238Z" fill="#FFD3B6"/>
<path d="M224.442 162.238C223.451 160.53 221.666 157.439 221.053 155.701C220.888 155.204 220.903 154.231 221.504 153.187C222.039 152.747 222.635 152.388 223.274 152.123C223.788 151.935 224.33 151.835 224.877 151.826C225.152 151.838 225.421 151.917 225.66 152.056C225.898 152.195 226.099 152.39 226.246 152.624C227.427 154.347 228.921 156.692 229.935 158.814C230.387 159.754 230.458 160.785 230.18 161.599L227.731 163.39C226.719 164.141 225.252 163.635 224.442 162.238Z" fill="#FFC197"/>
<path d="M290.82 60.3214H274.886C270.677 60.3214 267.265 63.7395 267.265 67.9559V81.1032C267.265 85.3197 270.677 88.7378 274.886 88.7378H290.82C295.029 88.7378 298.441 85.3197 298.441 81.1032V67.9559C298.441 63.7395 295.029 60.3214 290.82 60.3214Z" fill="#E7EEEB"/>
<path d="M274.574 74.2962C275.44 76.5818 282.863 82.5861 282.863 82.5861C282.863 82.5861 285.283 80.6167 287.524 78.495C289.201 76.926 290.769 75.2727 291.14 74.2962C292.019 72.0239 291.084 68.7735 287.836 68.2224C284.588 67.6713 282.858 71.059 282.858 71.059C282.858 71.059 281.113 67.6713 277.868 68.2224C277.346 68.3065 276.842 68.4836 276.381 68.7453C274.361 69.8757 273.852 72.4228 274.574 74.2962Z" fill="#F99746"/>
<path d="M34.5874 162.743H82.3203C84.1536 162.748 85.9102 163.48 87.2067 164.778C88.5031 166.076 89.234 167.836 89.2396 169.672V190.656C89.2348 192.343 88.5638 193.959 87.3732 195.152C86.1826 196.344 84.5692 197.016 82.8854 197.021H81.6578L83.9576 206.753L69.5193 197.021H34.1826C32.3517 197.014 30.5977 196.283 29.3029 194.986C28.008 193.689 27.2773 191.932 27.2699 190.098V170.079C27.2756 168.137 28.0481 166.275 29.419 164.9C30.7899 163.526 32.6478 162.75 34.5874 162.743Z" fill="#E7EEEB"/>
<path d="M33.307 177.969H83.087C83.4135 177.967 83.7262 177.837 83.9571 177.606C84.1879 177.374 84.3182 177.061 84.3195 176.734C84.3182 176.407 84.1879 176.094 83.9571 175.863C83.7262 175.631 83.4135 175.501 83.087 175.5H33.307C32.9804 175.5 32.6674 175.631 32.4364 175.862C32.2055 176.093 32.0753 176.407 32.0745 176.734C32.0753 177.061 32.2055 177.375 32.4364 177.606C32.6674 177.838 32.9804 177.968 33.307 177.969Z" fill="#E7EEEB"/>
<path d="M33.307 183.495H83.087C83.4136 183.494 83.7266 183.364 83.9575 183.132C84.1885 182.901 84.3186 182.587 84.3195 182.26C84.3182 181.933 84.1879 181.62 83.9571 181.389C83.7262 181.157 83.4135 181.027 83.087 181.026H33.307C32.9804 181.027 32.6674 181.157 32.4364 181.388C32.2055 181.62 32.0753 181.933 32.0745 182.26C32.0749 182.588 32.2049 182.901 32.4359 183.133C32.667 183.364 32.9802 183.494 33.307 183.495Z" fill="#E7EEEB"/>
<path d="M33.307 189.022H83.087C83.4135 189.021 83.7262 188.891 83.9571 188.659C84.1879 188.428 84.3182 188.115 84.3195 187.788C84.3186 187.461 84.1885 187.147 83.9575 186.916C83.7266 186.684 83.4136 186.554 83.087 186.553H33.307C32.9802 186.554 32.667 186.684 32.4359 186.915C32.2049 187.147 32.0749 187.461 32.0745 187.788C32.0753 188.115 32.2055 188.429 32.4364 188.66C32.6674 188.891 32.9804 189.022 33.307 189.022Z" fill="#E7EEEB"/>
<path d="M60.4225 169.384H81.5521C81.9409 169.383 82.3136 169.228 82.5886 168.953C82.8635 168.678 83.0184 168.304 83.0192 167.915C83.0179 167.525 82.8629 167.152 82.5881 166.877C82.3132 166.602 81.9408 166.446 81.5521 166.445H60.4225C60.0337 166.446 59.6613 166.602 59.3865 166.877C59.1116 167.152 58.9566 167.525 58.9553 167.915C58.9562 168.304 59.111 168.678 59.386 168.953C59.6609 169.228 60.0336 169.383 60.4225 169.384Z" fill="#E7EEEB"/>
<path d="M42.265 169.386H54.9785C55.619 169.386 56.1383 168.866 56.1383 168.224V167.609C56.1383 166.967 55.619 166.447 54.9785 166.447H42.265C41.6245 166.447 41.1052 166.967 41.1052 167.609V168.224C41.1052 168.866 41.6245 169.386 42.265 169.386Z" fill="#E7EEEB"/>
<path d="M274.432 173.381L304.455 183.213L286.471 165.656L284.646 169.945L276.917 169.983L274.432 173.381Z" fill="#B4C9C1"/>
<path d="M304.455 183.213L281.154 165.459L256.26 159.762L304.455 183.213Z" fill="white"/>
<path d="M286.471 165.656L304.455 183.213L292.469 158.615L286.471 165.656Z" fill="white"/>
<path d="M97.3948 61.3426L69.3326 65.3526L87.9543 52.6389L88.9026 56.7152L95.7261 57.9531L97.3948 61.3426Z" fill="#B4C9C1"/>
<path d="M69.3326 65.3527L92.6845 53.2927L115.574 52.1392L69.3326 65.3527Z" fill="white"/>
<path d="M87.9543 52.639L69.3326 65.3527L83.7479 45.4811L87.9543 52.639Z" fill="white"/>
<path d="M141.453 107.981C141.461 111.505 140.299 114.932 138.149 117.722C137.46 118.616 136.68 119.436 135.819 120.166C133.048 122.517 129.558 123.85 125.928 123.944C122.297 124.038 118.744 122.887 115.855 120.683C112.966 118.478 110.916 115.351 110.042 111.82C109.169 108.289 109.526 104.565 111.053 101.265C112.58 97.964 115.187 95.2847 118.441 93.6702C121.696 92.0556 125.403 91.6025 128.949 92.3859C132.496 93.1692 135.669 95.1421 137.944 97.9779C140.218 100.814 141.458 104.343 141.458 107.981H141.453Z" fill="white"/>
<path d="M131.917 115.529L131.793 115.395C131.61 115.254 131.426 115.166 130.689 115.039C130.314 114.976 129.794 114.902 129.055 114.806C129.055 114.806 128.89 114.787 128.813 114.781L128.628 114.764C128.416 114.653 128.362 113.771 128.363 112.848C128.363 112.778 128.363 112.709 128.363 112.639C128.363 112.288 128.378 111.943 128.391 111.631C128.391 111.612 128.391 111.593 128.391 111.573C128.847 111.612 129.15 111.608 129.15 111.608C129.999 111.54 130.529 109.26 130.719 107.416C130.98 106.744 131.122 106.032 131.139 105.311C131.167 104.679 130.974 104.057 130.594 103.552C130.427 103.34 130.225 103.159 129.997 103.015C129.944 102.963 129.89 102.915 129.832 102.868C129.042 101.989 125.83 98.6959 123.719 100.601C123.664 100.41 122.979 98.2722 119.655 98.9723C119.861 98.9508 121.335 98.8068 121.761 99.4092C121.703 99.3844 120.416 98.8118 119.613 99.3116C119.238 99.54 119.005 100.015 118.873 100.515V100.525C118.873 100.525 118.873 100.525 118.873 100.533C118.872 100.538 118.872 100.543 118.873 100.548C118.858 100.616 118.842 100.684 118.827 100.751C118.827 100.761 118.827 100.771 118.827 100.783C118.737 101.197 118.723 101.625 118.787 102.044C118.911 102.565 119.828 104.118 120.439 104.118C120.679 104.109 120.915 104.053 121.133 103.952C121.032 104.248 120.95 104.55 120.885 104.856C120.223 107.906 122.244 110.223 123.288 109.647C123.958 109.281 124.466 110.456 124.466 110.456C124.367 112.682 123.757 114.135 123.309 114.498C123.144 114.516 122.797 114.559 122.359 114.629C122.359 114.629 120.818 114.794 119.645 115.309L119.617 115.32C119.381 115.413 119.158 115.538 118.956 115.691C118.873 115.754 118.8 115.829 118.741 115.915C118.714 115.945 118.691 115.979 118.672 116.015C118.28 116.764 117.885 117.887 117.515 119.205C119.963 121.026 122.954 121.965 126.001 121.869C129.049 121.773 131.975 120.648 134.304 118.677C133.444 116.869 132.456 115.938 131.917 115.529Z" fill="#0C5137"/>
<path d="M170.48 97.1038H152.371C151.74 97.1038 151.229 97.6158 151.229 98.2474V98.7935C151.229 99.4251 151.74 99.9371 152.371 99.9371H170.48C171.111 99.9371 171.622 99.4251 171.622 98.7935V98.2474C171.622 97.6158 171.111 97.1038 170.48 97.1038Z" fill="white"/>
<path d="M170.698 110.119H152.148C151.904 110.117 151.67 110.02 151.497 109.847C151.325 109.674 151.227 109.44 151.226 109.195C151.227 108.951 151.324 108.716 151.497 108.543C151.67 108.37 151.904 108.273 152.148 108.272H170.697C170.941 108.273 171.175 108.37 171.348 108.543C171.52 108.716 171.618 108.951 171.619 109.195C171.618 109.44 171.521 109.674 171.348 109.847C171.176 110.02 170.942 110.117 170.698 110.119Z" fill="white"/>
<path d="M162.487 112.641H151.933C151.543 112.641 151.228 112.957 151.228 113.348V113.781C151.228 114.172 151.543 114.488 151.933 114.488H162.487C162.877 114.488 163.193 114.172 163.193 113.781V113.348C163.193 112.957 162.877 112.641 162.487 112.641Z" fill="white"/>
<path d="M183.997 112.641H166.943C166.454 112.641 166.057 113.038 166.057 113.528V113.601C166.057 114.091 166.454 114.488 166.943 114.488H183.997C184.486 114.488 184.882 114.091 184.882 113.601V113.528C184.882 113.038 184.486 112.641 183.997 112.641Z" fill="white"/>
<path d="M199.929 110.119H175.609C175.364 110.118 175.13 110.02 174.958 109.847C174.785 109.674 174.688 109.44 174.687 109.195C174.688 108.951 174.785 108.716 174.958 108.543C175.13 108.37 175.364 108.273 175.609 108.272H199.929C200.173 108.273 200.407 108.37 200.58 108.543C200.752 108.716 200.85 108.951 200.851 109.195C200.849 109.44 200.752 109.674 200.579 109.847C200.407 110.02 200.173 110.117 199.929 110.119Z" fill="white"/>
<path d="M170.698 118.859H152.148C151.904 118.858 151.67 118.76 151.497 118.587C151.324 118.414 151.227 118.18 151.226 117.935C151.226 117.69 151.323 117.455 151.496 117.281C151.669 117.107 151.903 117.009 152.148 117.009H170.697C170.941 117.009 171.175 117.107 171.348 117.28C171.52 117.453 171.618 117.687 171.619 117.932C171.619 118.177 171.522 118.412 171.35 118.586C171.177 118.759 170.943 118.858 170.698 118.859Z" fill="white"/>
<path d="M199.929 118.859H175.609C175.364 118.858 175.13 118.76 174.958 118.587C174.785 118.414 174.688 118.18 174.687 117.935C174.687 117.69 174.784 117.455 174.957 117.281C175.129 117.107 175.364 117.009 175.609 117.009H199.929C200.173 117.009 200.407 117.107 200.58 117.28C200.752 117.453 200.85 117.687 200.851 117.932C200.851 118.177 200.754 118.412 200.581 118.586C200.408 118.76 200.173 118.858 199.929 118.859Z" fill="white"/>
<path d="M188.13 97.1038H175.125C174.584 97.1038 174.146 97.5424 174.146 98.0835V98.9574C174.146 99.4985 174.584 99.9371 175.125 99.9371H188.13C188.671 99.9371 189.109 99.4985 189.109 98.9574V98.0835C189.109 97.5424 188.671 97.1038 188.13 97.1038Z" fill="white"/>
<path d="M171.733 188.885H158.857C158.409 188.885 158.046 189.249 158.046 189.698V190.087C158.046 190.535 158.409 190.899 158.857 190.899H171.733C172.181 190.899 172.544 190.535 172.544 190.087V189.698C172.544 189.249 172.181 188.885 171.733 188.885Z" fill="#8FAFA3"/>
<path d="M171.888 196.055H158.7C158.525 196.055 158.357 195.985 158.233 195.861C158.109 195.737 158.039 195.568 158.039 195.393C158.039 195.217 158.109 195.049 158.233 194.924C158.357 194.8 158.525 194.731 158.7 194.731H171.888C172.063 194.731 172.231 194.8 172.355 194.924C172.479 195.049 172.549 195.217 172.549 195.393C172.549 195.568 172.479 195.737 172.355 195.861C172.231 195.985 172.063 196.055 171.888 196.055Z" fill="#8FAFA3"/>
<path d="M166.051 197.85H158.548C158.271 197.85 158.046 198.076 158.046 198.353V198.66C158.046 198.938 158.271 199.163 158.548 199.163H166.051C166.328 199.163 166.553 198.938 166.553 198.66V198.353C166.553 198.076 166.328 197.85 166.051 197.85Z" fill="#8FAFA3"/>
<path d="M181.342 197.85H169.218C168.87 197.85 168.589 198.133 168.589 198.481V198.532C168.589 198.88 168.87 199.163 169.218 199.163H181.342C181.689 199.163 181.971 198.88 181.971 198.532V198.481C181.971 198.133 181.689 197.85 181.342 197.85Z" fill="#8FAFA3"/>
<path d="M192.669 196.055H175.377C175.202 196.055 175.034 195.985 174.91 195.861C174.786 195.737 174.717 195.568 174.717 195.393C174.717 195.217 174.786 195.049 174.91 194.924C175.034 194.8 175.202 194.731 175.377 194.731H192.669C192.844 194.731 193.012 194.8 193.136 194.924C193.26 195.049 193.33 195.217 193.33 195.393C193.33 195.568 193.26 195.737 193.136 195.861C193.012 195.985 192.844 196.055 192.669 196.055Z" fill="#8FAFA3"/>
<path d="M171.888 202.269H158.7C158.525 202.269 158.357 202.199 158.233 202.075C158.109 201.951 158.039 201.783 158.039 201.607C158.039 201.432 158.109 201.263 158.233 201.139C158.357 201.015 158.525 200.945 158.7 200.945H171.888C172.063 200.945 172.231 201.015 172.355 201.139C172.479 201.263 172.549 201.432 172.549 201.607C172.549 201.783 172.479 201.951 172.355 202.075C172.231 202.199 172.063 202.269 171.888 202.269Z" fill="#8FAFA3"/>
<path d="M192.669 202.269H175.377C175.202 202.269 175.034 202.199 174.91 202.075C174.786 201.951 174.717 201.783 174.717 201.607C174.717 201.432 174.786 201.263 174.91 201.139C175.034 201.015 175.202 200.945 175.377 200.945H192.669C192.844 200.945 193.012 201.015 193.136 201.139C193.26 201.263 193.33 201.432 193.33 201.607C193.33 201.783 193.26 201.951 193.136 202.075C193.012 202.199 192.844 202.269 192.669 202.269Z" fill="#8FAFA3"/>
<path d="M184.281 188.885H175.035C174.651 188.885 174.34 189.197 174.34 189.582V190.203C174.34 190.587 174.651 190.899 175.035 190.899H184.281C184.665 190.899 184.977 190.587 184.977 190.203V189.582C184.977 189.197 184.665 188.885 184.281 188.885Z" fill="#8FAFA3"/>
<path d="M180.273 63.4659H167.397C166.949 63.4659 166.586 63.8298 166.586 64.2785V64.6675C166.586 65.1163 166.949 65.4801 167.397 65.4801H180.273C180.721 65.4801 181.084 65.1163 181.084 64.6675V64.2785C181.084 63.8298 180.721 63.4659 180.273 63.4659Z" fill="#8FAFA3"/>
<path d="M180.43 70.6354H167.242C167.067 70.6354 166.899 70.5657 166.775 70.4415C166.651 70.3174 166.581 70.149 166.581 69.9734C166.581 69.7978 166.651 69.6294 166.775 69.5053C166.899 69.3811 167.067 69.3114 167.242 69.3114H180.43C180.605 69.3114 180.773 69.3811 180.897 69.5053C181.021 69.6294 181.091 69.7978 181.091 69.9734C181.091 70.149 181.021 70.3174 180.897 70.4415C180.773 70.5657 180.605 70.6354 180.43 70.6354Z" fill="#8FAFA3"/>
<path d="M174.591 72.4294H167.088C166.811 72.4294 166.586 72.6547 166.586 72.9326V73.2387C166.586 73.5166 166.811 73.7419 167.088 73.7419H174.591C174.868 73.7419 175.093 73.5166 175.093 73.2387V72.9326C175.093 72.6547 174.868 72.4294 174.591 72.4294Z" fill="#8FAFA3"/>
<path d="M189.882 72.4294H177.758C177.41 72.4294 177.129 72.7118 177.129 73.06V73.1113C177.129 73.4595 177.41 73.7419 177.758 73.7419H189.882C190.229 73.7419 190.511 73.4595 190.511 73.1113V73.06C190.511 72.7118 190.229 72.4294 189.882 72.4294Z" fill="#8FAFA3"/>
<path d="M201.217 70.6354H183.919C183.744 70.6354 183.576 70.5657 183.452 70.4415C183.328 70.3174 183.258 70.149 183.258 69.9734C183.258 69.7978 183.328 69.6294 183.452 69.5053C183.576 69.3811 183.744 69.3114 183.919 69.3114H201.217C201.393 69.3114 201.561 69.3811 201.685 69.5053C201.809 69.6294 201.878 69.7978 201.878 69.9734C201.878 70.149 201.809 70.3174 201.685 70.4415C201.561 70.5657 201.393 70.6354 201.217 70.6354Z" fill="#8FAFA3"/>
<path d="M192.823 63.4659H183.577C183.193 63.4659 182.882 63.7779 182.882 64.1627V64.7833C182.882 65.1681 183.193 65.4801 183.577 65.4801H192.823C193.207 65.4801 193.518 65.1681 193.518 64.7833V64.1627C193.518 63.7779 193.207 63.4659 192.823 63.4659Z" fill="#8FAFA3"/>
<path d="M191.653 150.363H177.558C177.067 150.363 176.669 150.762 176.669 151.254V151.677C176.669 152.169 177.067 152.568 177.558 152.568H191.653C192.144 152.568 192.542 152.169 192.542 151.677V151.254C192.542 150.762 192.144 150.363 191.653 150.363Z" fill="#ED7D2B"/>
<path d="M191.825 158.218H177.386C177.196 158.217 177.014 158.141 176.88 158.006C176.745 157.871 176.67 157.689 176.669 157.498C176.67 157.308 176.746 157.126 176.88 156.991C177.015 156.857 177.197 156.781 177.386 156.78H191.825C192.015 156.781 192.197 156.857 192.331 156.991C192.465 157.126 192.541 157.308 192.542 157.498C192.541 157.689 192.466 157.871 192.331 158.006C192.197 158.141 192.015 158.217 191.825 158.218Z" fill="#ED7D2B"/>
<path d="M185.433 160.177H177.22C176.916 160.177 176.669 160.424 176.669 160.729V161.065C176.669 161.369 176.916 161.616 177.22 161.616H185.433C185.736 161.616 185.983 161.369 185.983 161.065V160.729C185.983 160.424 185.736 160.177 185.433 160.177Z" fill="#ED7D2B"/>
<path d="M202.174 160.177H188.9C188.52 160.177 188.211 160.486 188.211 160.868V160.924C188.211 161.305 188.52 161.614 188.9 161.614H202.174C202.554 161.614 202.863 161.305 202.863 160.924V160.868C202.863 160.486 202.554 160.177 202.174 160.177Z" fill="#ED7D2B"/>
<path d="M214.575 158.218H195.645C195.454 158.217 195.272 158.141 195.138 158.006C195.004 157.871 194.928 157.689 194.928 157.498C194.928 157.308 195.004 157.126 195.139 156.991C195.273 156.857 195.455 156.781 195.645 156.78H214.575C214.765 156.781 214.947 156.857 215.081 156.991C215.216 157.126 215.291 157.308 215.292 157.498C215.292 157.689 215.216 157.871 215.082 158.006C214.948 158.141 214.765 158.217 214.575 158.218Z" fill="#ED7D2B"/>
<path d="M191.825 165.015H177.386C177.196 165.015 177.014 164.939 176.88 164.804C176.746 164.67 176.67 164.487 176.669 164.297C176.67 164.107 176.746 163.924 176.88 163.789C177.014 163.655 177.196 163.579 177.386 163.579H191.825C192.015 163.579 192.197 163.655 192.331 163.789C192.466 163.924 192.541 164.107 192.542 164.297C192.541 164.487 192.466 164.67 192.331 164.804C192.197 164.939 192.015 165.015 191.825 165.015Z" fill="#ED7D2B"/>
<path d="M214.575 165.015H195.645C195.455 165.015 195.272 164.939 195.138 164.804C195.004 164.67 194.928 164.487 194.928 164.297C194.928 164.107 195.004 163.924 195.138 163.789C195.272 163.655 195.455 163.579 195.645 163.579H214.575C214.765 163.579 214.947 163.655 215.082 163.789C215.216 163.924 215.292 164.107 215.292 164.297C215.292 164.487 215.216 164.67 215.082 164.804C214.947 164.939 214.765 165.015 214.575 165.015Z" fill="#ED7D2B"/>
<path d="M191.825 168.557H177.386C177.196 168.556 177.014 168.481 176.88 168.346C176.746 168.211 176.67 168.029 176.669 167.839C176.67 167.648 176.746 167.466 176.88 167.331C177.014 167.196 177.196 167.121 177.386 167.12H191.825C192.015 167.121 192.197 167.196 192.331 167.331C192.466 167.466 192.541 167.648 192.542 167.839C192.541 168.029 192.466 168.211 192.331 168.346C192.197 168.481 192.015 168.556 191.825 168.557Z" fill="#ED7D2B"/>
<path d="M214.575 168.557H195.645C195.455 168.556 195.272 168.481 195.138 168.346C195.004 168.211 194.928 168.029 194.928 167.839C194.928 167.648 195.004 167.466 195.138 167.331C195.272 167.196 195.455 167.121 195.645 167.12H214.575C214.765 167.121 214.947 167.196 215.082 167.331C215.216 167.466 215.292 167.648 215.292 167.839C215.292 168.029 215.216 168.211 215.082 168.346C214.947 168.481 214.765 168.556 214.575 168.557Z" fill="#ED7D2B"/>
<path d="M205.392 150.363H195.27C194.849 150.363 194.508 150.705 194.508 151.126V151.805C194.508 152.226 194.849 152.568 195.27 152.568H205.392C205.813 152.568 206.154 152.226 206.154 151.805V151.126C206.154 150.705 205.813 150.363 205.392 150.363Z" fill="#ED7D2B"/>
<path d="M158.261 55.0023L157.281 55.7073L156.29 55.0106C156.401 54.8533 156.547 54.7249 156.718 54.6359C156.888 54.547 157.078 54.5002 157.27 54.4994C157.462 54.4986 157.652 54.5438 157.823 54.6313C157.994 54.7188 158.142 54.846 158.254 55.0023H158.261Z" fill="white"/>
<path d="M157.284 52.783C156.817 52.7829 156.356 52.8957 155.942 53.1118C155.527 53.3278 155.17 53.6408 154.902 54.0242L155.523 54.4611C155.72 54.1783 155.983 53.9471 156.288 53.7871C156.593 53.627 156.932 53.5428 157.276 53.5415C157.62 53.5402 157.96 53.6219 158.266 53.7796C158.573 53.9374 158.836 54.1666 159.036 54.4479L159.655 54.0027C159.385 53.6252 159.03 53.3176 158.617 53.1054C158.205 52.8933 157.748 52.7828 157.284 52.783Z" fill="white"/>
<path d="M157.284 49.5209C156.295 49.5207 155.321 49.7591 154.443 50.216C153.565 50.6729 152.81 51.3348 152.242 52.1457L152.865 52.5826C153.362 51.8751 154.02 51.2971 154.786 50.8971C155.551 50.497 156.402 50.2866 157.265 50.2833C158.129 50.2801 158.98 50.4841 159.749 50.8784C160.517 51.2727 161.18 51.8458 161.682 52.5495L162.299 52.1043C161.729 51.3047 160.976 50.6531 160.104 50.2037C159.232 49.7543 158.265 49.5202 157.284 49.5209Z" fill="white"/>
<path d="M157.284 51.3051C156.58 51.3049 155.887 51.4737 155.261 51.7973C154.636 52.121 154.097 52.5901 153.689 53.1653L154.311 53.6022C154.647 53.1296 155.091 52.744 155.606 52.4773C156.121 52.2105 156.692 52.0702 157.271 52.0679C157.851 52.0656 158.422 52.2015 158.939 52.4642C159.456 52.727 159.903 53.1091 160.244 53.579L160.86 53.1371C160.452 52.5697 159.914 52.1076 159.293 51.789C158.671 51.4704 157.983 51.3046 157.284 51.3051Z" fill="white"/>
<path d="M151.784 158.943C151.784 160.09 152.097 161.216 152.691 162.197C153.285 163.178 154.136 163.977 155.152 164.508C156.168 165.038 157.31 165.278 158.453 165.204C159.596 165.129 160.696 164.741 161.635 164.083C161.686 164.049 161.735 164.01 161.787 163.974C162.643 163.335 163.322 162.487 163.76 161.51C164.197 160.534 164.377 159.462 164.284 158.396C164.191 157.33 163.827 156.306 163.227 155.421C162.627 154.535 161.811 153.818 160.856 153.338C159.901 152.858 158.84 152.631 157.773 152.677C156.706 152.724 155.668 153.043 154.759 153.605C153.85 154.167 153.099 154.952 152.579 155.886C152.058 156.821 151.784 157.873 151.784 158.943Z" fill="white"/>
<path d="M159.748 162.966L159.171 162.455L159.028 162.481C158.921 162.406 158.811 162.336 158.697 162.271C158.735 162.038 158.766 161.821 158.793 161.629C158.846 161.251 158.879 160.87 158.89 160.489C159.196 160.474 159.403 160.441 159.403 160.441C159.981 160.307 160.009 158.329 159.875 157.296C159.986 157.3 160.096 157.279 160.197 157.235C160.635 157.041 160.66 156.378 160.66 156.378C160.588 156.51 160.479 156.619 160.346 156.69C160.346 156.69 161.078 155.686 160.229 154.999C159.379 154.312 158.519 154.761 158.026 154.791C156.946 154.857 156.247 154.921 155.895 155.633C155.543 156.345 155.684 158.264 156.351 158.974C156.363 159.041 156.374 159.105 156.382 159.171C156.414 159.401 156.505 159.619 156.647 159.802C156.528 160.477 156.254 161.115 155.847 161.665C155.626 161.843 155.432 162.052 155.272 162.286H155.261C154.901 162.832 154.628 163.431 154.453 164.062C154.453 164.062 154.453 164.062 154.453 164.072C154.809 164.323 155.192 164.534 155.594 164.701L155.674 164.734H155.692L155.822 164.785C155.928 164.826 156.034 164.865 156.141 164.899C156.249 164.934 156.368 164.969 156.482 164.999L156.647 165.037C156.693 165.048 156.739 165.058 156.787 165.066H156.807L156.901 165.085L157.123 165.123H157.174L157.296 165.139L157.47 165.159C157.534 165.159 157.6 165.171 157.666 165.174C157.732 165.177 157.79 165.174 157.853 165.184H158.049H158.261H158.33H158.434H158.426C158.492 165.184 158.557 165.176 158.623 165.169C159.449 165.091 160.251 164.848 160.982 164.454C160.646 163.9 160.23 163.399 159.748 162.966Z" fill="#8FAFA3"/>
<path d="M213.258 195.399C213.258 196.649 213.628 197.87 214.321 198.909C215.014 199.947 215.999 200.757 217.152 201.235C218.304 201.712 219.572 201.837 220.796 201.593C222.019 201.349 223.142 200.747 224.024 199.863C224.905 198.979 225.505 197.853 225.747 196.627C225.99 195.402 225.864 194.132 225.386 192.978C224.908 191.824 224.099 190.838 223.061 190.145C222.023 189.452 220.804 189.082 219.556 189.084C218.728 189.08 217.907 189.241 217.14 189.557C216.374 189.873 215.678 190.338 215.092 190.926C214.507 191.513 214.043 192.211 213.728 192.979C213.414 193.746 213.254 194.569 213.258 195.399Z" fill="white"/>
<path d="M222.785 198.977C222.777 198.96 222.766 198.944 222.754 198.929C222.725 198.89 222.691 198.855 222.653 198.825C222.557 198.756 222.453 198.7 222.342 198.66H222.329C221.922 198.5 221.497 198.393 221.063 198.342C220.858 198.31 220.697 198.29 220.621 198.282C220.409 198.117 220.125 197.435 220.079 196.397C220.079 196.397 220.315 195.848 220.627 196.02C221.123 196.286 222.056 195.207 221.756 193.789C221.725 193.647 221.686 193.506 221.64 193.369C221.744 193.416 221.856 193.443 221.97 193.448C222.253 193.448 222.681 192.723 222.739 192.48C222.797 192.237 222.739 191.437 222.345 191.2C221.952 190.964 221.367 191.235 221.341 191.245C221.534 190.974 222.195 191.028 222.316 191.042C220.773 190.721 220.454 191.704 220.427 191.801C219.446 190.913 217.949 192.448 217.579 192.859C217.554 192.88 217.529 192.903 217.505 192.928C217.398 192.994 217.304 193.078 217.227 193.177C217.048 193.414 216.958 193.707 216.973 194.004C216.981 194.34 217.046 194.672 217.168 194.985C217.257 195.844 217.498 196.909 217.901 196.94C217.901 196.94 218.042 196.94 218.253 196.923C218.253 196.933 218.253 196.942 218.253 196.952C218.253 197.096 218.265 197.258 218.266 197.42V197.518C218.266 197.95 218.241 198.36 218.144 198.411H218.058C218.018 198.411 217.944 198.423 217.944 198.423C217.6 198.468 217.356 198.502 217.182 198.532C216.839 198.59 216.753 198.631 216.669 198.698C216.648 198.717 216.628 198.738 216.609 198.761C216.127 199.154 215.745 199.657 215.494 200.227C216.581 201.149 217.947 201.675 219.371 201.72C220.794 201.765 222.191 201.325 223.333 200.473C223.198 199.959 223.014 199.458 222.785 198.977Z" fill="#F99746"/>
<path d="M213.258 68.4823C213.256 69.8763 213.717 71.2316 214.567 72.3351C214.84 72.6888 215.149 73.0127 215.489 73.3016C216.585 74.231 217.964 74.7576 219.4 74.7945C220.835 74.8314 222.24 74.3763 223.382 73.5045C224.524 72.6327 225.335 71.3965 225.68 70.0004C226.025 68.6043 225.884 67.1321 225.28 65.8272C224.676 64.5223 223.645 63.4631 222.359 62.8248C221.072 62.1865 219.606 62.0074 218.204 62.317C216.802 62.6267 215.548 63.4066 214.648 64.5278C213.749 65.6489 213.259 67.044 213.258 68.4823Z" fill="white"/>
<path d="M222.785 72.0604C222.776 72.0433 222.766 72.0272 222.753 72.0124C222.725 71.9729 222.691 71.9378 222.653 71.9082C222.557 71.8371 222.453 71.7787 222.342 71.7344H222.329C221.922 71.5753 221.497 71.4685 221.063 71.4166C220.858 71.3835 220.697 71.3637 220.621 71.3554C220.553 71.2974 220.497 71.2272 220.455 71.1485C220.28 70.8407 220.108 70.2614 220.074 69.472C220.074 69.472 220.31 68.9242 220.622 69.0947C221.118 69.3611 222.051 68.2837 221.751 66.8654C221.72 66.7226 221.681 66.5817 221.635 66.4433C221.739 66.4913 221.851 66.5183 221.965 66.5228C222.248 66.5228 222.676 65.7979 222.734 65.5563C222.791 65.3146 222.734 64.512 222.34 64.2753C221.947 64.0386 221.362 64.31 221.336 64.3216C221.529 64.0502 222.192 64.1048 222.311 64.1164C220.768 63.7953 220.449 64.7883 220.422 64.8761C219.441 63.989 217.944 65.5248 217.574 65.9336C217.549 65.9546 217.524 65.9777 217.5 66.0031C217.393 66.0696 217.299 66.1542 217.222 66.253C217.044 66.4879 216.954 66.7778 216.968 67.0722C216.975 67.4082 217.041 67.7403 217.163 68.0537C217.252 68.9143 217.493 69.9768 217.896 70.0082C217.896 70.0082 218.037 70.0082 218.248 69.9933C218.248 70.0016 218.248 70.0099 218.248 70.0198C218.248 70.1638 218.26 70.326 218.261 70.4898V70.5875C218.261 71.0194 218.236 71.4282 218.139 71.4812H218.053L217.939 71.4928C217.595 71.5374 217.351 71.5722 217.177 71.602C216.834 71.6616 216.748 71.7013 216.664 71.7675L216.604 71.8304C216.122 72.2245 215.74 72.7276 215.489 73.2984C215.548 73.3491 215.609 73.3988 215.672 73.4473L215.704 73.4721C215.75 73.5085 215.796 73.5433 215.844 73.5764C215.892 73.6095 215.91 73.6277 215.945 73.6509C215.98 73.674 216.014 73.6989 216.049 73.7204C216.084 73.7419 216.15 73.7899 216.203 73.8213L216.308 73.8875L216.441 73.9653L216.589 74.0481H216.602H216.611L216.632 74.0597L216.751 74.1209L216.787 74.1391L216.855 74.1722L216.921 74.2036L217.075 74.2715L217.23 74.3344L217.301 74.3625L217.372 74.389L217.518 74.4403L217.67 74.49L217.799 74.5297H217.812L217.894 74.5528C218.045 74.5942 218.198 74.6306 218.354 74.6604C218.421 74.6737 218.489 74.6869 218.557 74.6968H218.61H218.628L218.76 74.7134H218.788H218.808C218.849 74.7134 218.891 74.7233 218.93 74.7266H218.952H218.99C219.064 74.7266 219.137 74.7382 219.211 74.7415H219.223H219.292H219.335H219.553C220.91 74.7438 222.232 74.3047 223.319 73.4903C223.184 72.9986 223.005 72.52 222.785 72.0604Z" fill="#F99746"/>
<path d="M298.806 319.225L276.101 331H260.985C257.34 328.552 238.411 315.618 230.585 305.976C228.933 303.933 222.854 286.323 218.193 272.026C218.813 273.924 231.834 301.703 235.541 304.861C239.249 308.019 258.715 326.402 264.091 326.21C269.299 326.032 297.022 319.64 298.74 319.245L298.806 319.225Z" fill="#EFA26F"/>
<path d="M344.492 331H262.634C266.739 329.386 282.447 323.375 298.729 319.25L298.806 319.231C312.79 315.688 327.186 313.54 335.004 316.762L335.06 316.846L344.492 331Z" fill="#E7EEEB"/>
<path d="M212.617 222.692C213.995 222.185 215.933 221.851 216.875 223.428C218.342 225.881 212.893 247.522 212.213 250.239L212.617 222.692Z" fill="#EFA26F"/>
<path d="M213.037 211.056L212.569 224.145C212.569 224.145 215.317 224.593 216.878 223.425C218.44 222.257 217.614 210.902 213.037 211.056Z" fill="#FFC197"/>
<path d="M158.046 286.855C150.18 288.471 133.227 282.282 133.227 282.282L135.957 255.825L116.791 277.802C107.044 274.161 91.794 264.684 82.7351 258.782C105.951 256.247 123.284 233.295 123.284 233.295C139.378 242.027 157.544 247.128 157.544 247.128C157.549 262.854 158.046 286.855 158.046 286.855Z" fill="#E7EEEB"/>
<path d="M104.07 262.824C104.076 262.192 104.268 261.576 104.624 261.054C104.979 260.533 105.481 260.128 106.065 259.892C106.65 259.655 107.292 259.598 107.909 259.727C108.527 259.856 109.092 260.166 109.534 260.616C109.976 261.067 110.274 261.639 110.391 262.26C110.509 262.881 110.439 263.522 110.193 264.104C109.946 264.685 109.533 265.18 109.005 265.526C108.477 265.872 107.859 266.054 107.229 266.048C106.81 266.044 106.396 265.957 106.011 265.793C105.625 265.629 105.276 265.391 104.982 265.091C104.689 264.792 104.458 264.438 104.301 264.049C104.144 263.659 104.066 263.243 104.07 262.824Z" fill="#F99746"/>
</g>
<defs>
<clipPath id="clip0_33_468">
<rect width="380" height="331" fill="white" transform="translate(-2)"/>
</clipPath>
</defs>
</svg>
