<svg width="318" height="291" viewBox="0 0 318 291" fill="none" xmlns="http://www.w3.org/2000/svg">
<path d="M193.136 124.161C193.136 124.161 177.319 155.861 161.249 177.742C154.856 186.452 148.424 193.603 142.932 196.587C137.557 199.507 133.007 204.035 129.242 209.068C119.494 222.081 114.992 238.373 114.992 238.373L73.9023 176.103C73.9023 176.103 75.305 115.236 80.2384 105.054C87.4287 90.2154 90.9016 60.2367 93.664 54.2688C95.7143 49.8417 101.566 26.9712 102.126 25.2897C102.371 24.5665 104.317 23.456 106.847 23.4576C108.876 23.4576 112.322 25.4221 113.189 29.4603C117.584 49.8665 112.296 63.3283 112.363 63.9257C113.913 79.6101 109.254 91.2531 112.529 94.3363C112.649 94.4489 112.875 94.3959 113.189 94.1907C118.855 90.5497 154.011 39.205 158.342 38.0961C162.905 36.9277 193.136 124.161 193.136 124.161Z" fill="#FFB27D"/>
<path d="M127.353 226.05C127.353 226.05 126.793 253.72 125.191 290.988H21.5565C45.2388 240.382 65.8348 197.789 65.8348 197.789C65.8348 197.789 124.849 199.594 127.353 226.05Z" fill="#F99746"/>
<path d="M229.07 16.8773L216.348 35.5623L203.862 53.8997C203.101 54.8198 202.22 55.1393 201.267 55.0482C198.27 54.7636 194.564 50.4341 191.674 48.0377L191.382 47.796C189.551 46.2705 188.397 44.0809 188.172 41.7057C187.948 39.3306 188.671 36.963 190.184 35.1204L209.268 12.0116L214.929 5.15825C216.452 3.32462 218.638 2.16939 221.009 1.94489C223.38 1.72038 225.743 2.44484 227.583 3.96004L227.877 4.20166C229.706 5.72843 230.859 7.91827 231.082 10.2931C231.306 12.668 230.582 15.0349 229.07 16.8773Z" fill="#FFB27D"/>
<path d="M216.336 35.5623L203.851 53.8997C203.089 54.8199 202.209 55.1393 201.255 55.0483L209.257 12.0183C209.275 12.2533 210.635 31.5622 216.336 35.5623Z" fill="#EFA26F"/>
<path d="M161.25 177.742C154.856 186.452 148.424 193.603 142.932 196.587C137.557 199.507 133.007 204.035 129.242 209.068C124.912 207.045 119.975 204.674 115.151 202.323C109.275 199.464 109.049 191.106 114.805 188.009C114.861 187.98 114.916 187.948 114.97 187.917C120.363 184.827 125.888 173.912 125.888 173.912L161.25 177.742Z" fill="#EFA26F"/>
<path d="M101.841 26.2365L98.5115 39.7015C98.5115 39.7015 101.423 40.8931 103.291 39.968C105.16 39.0428 106.685 26.9613 101.841 26.2365Z" fill="#FFC197"/>
<path d="M197.584 0.828857H125.994C118.923 0.828857 113.191 6.57062 113.191 13.6535V171.281C113.191 178.363 118.923 184.105 125.994 184.105H197.584C204.655 184.105 210.387 178.363 210.387 171.281V13.6535C210.387 6.57062 204.655 0.828857 197.584 0.828857Z" fill="#0C5137"/>
<path d="M222.727 87.435L220.83 88.1566L208.07 93.014C207.774 93.1277 207.472 93.2239 207.165 93.302C205.093 93.8342 202.899 93.5849 200.999 92.6017C199.099 91.6185 197.626 89.9699 196.86 87.9696L196.674 87.4731C195.862 85.3144 195.936 82.9216 196.879 80.8174C197.823 78.7131 199.559 77.0683 201.71 76.2423L213.605 71.7158L214.469 71.3848L216.368 70.6616C218.525 69.8472 220.916 69.9222 223.018 70.8701C225.12 71.8181 226.761 73.5617 227.583 75.7193L227.771 76.2158C228.579 78.3741 228.502 80.7649 227.557 82.8666C226.612 84.9683 224.876 86.6105 222.727 87.435Z" fill="#FFB27D"/>
<path d="M212.364 87.7329C210.236 88.5422 206.38 89.9754 204.318 90.2733C203.735 90.3561 202.666 90.0383 201.657 88.9394C201.055 88.2774 200.48 87.3407 200.052 86.0398C199.845 85.4395 199.699 84.8195 199.616 84.1895C199.536 83.4562 199.56 82.715 199.687 81.9884C199.752 81.6492 199.896 81.3302 200.108 81.0573C200.319 80.7844 200.592 80.5653 200.903 80.4178C200.903 80.4178 200.903 80.4178 200.913 80.4178C203.106 79.3702 206.061 78.0909 208.652 77.3792C210.443 76.8827 212.255 77.6755 212.822 79.2461L213.09 79.9792L214.459 83.7361C215.026 85.2918 214.104 87.0759 212.364 87.7329Z" fill="#FFD3B6"/>
<path d="M212.364 87.733C210.236 88.5422 206.38 89.9755 204.318 90.2734C203.735 90.3561 202.666 90.0384 201.657 88.9395C201.551 88.6879 201.452 88.4247 201.359 88.1417C201.15 87.5419 201.004 86.9218 200.923 86.2915C200.843 85.5581 200.866 84.8171 200.993 84.0903C201.058 83.7514 201.203 83.4328 201.414 83.1602C201.626 82.8877 201.899 82.6688 202.21 82.5214C202.21 82.5214 202.21 82.5214 202.22 82.5214C204.413 81.4721 207.367 80.1944 209.959 79.4811C210.486 79.3224 211.042 79.2846 211.585 79.3706C212.128 79.4565 212.646 79.664 213.098 79.9776L214.468 83.7345C215.026 85.2918 214.104 87.0759 212.364 87.733Z" fill="#FFC197"/>
<path d="M216.938 105.41L207.096 108.093C205.654 108.481 204.118 108.283 202.822 107.54C201.526 106.798 200.576 105.572 200.18 104.131L199.876 103.015C199.488 101.57 199.688 100.029 200.431 98.731C201.174 97.4326 202.4 96.4815 203.841 96.0857L213.681 93.4029C215.124 93.0147 216.662 93.2146 217.958 93.9589C219.254 94.7033 220.203 95.9315 220.597 97.3749L220.9 98.4904C221.285 99.9341 221.085 101.472 220.342 102.768C219.6 104.064 218.376 105.014 216.938 105.41Z" fill="#FFB27D"/>
<path d="M211.616 104.927C209.809 105.41 206.542 106.262 204.829 106.357C204.206 106.391 202.959 105.86 202.146 104.223C201.72 103.334 201.474 102.369 201.422 101.383C201.41 100.813 201.484 100.245 201.642 99.6968C201.726 99.4348 201.87 99.1963 202.063 99.0008C202.257 98.8052 202.493 98.6581 202.754 98.5714H202.764C204.639 97.9094 207.157 97.1167 209.336 96.7344C210.84 96.4712 212.267 97.1961 212.619 98.439L212.873 99.3261L213.632 101.992C213.982 103.22 213.093 104.533 211.616 104.927Z" fill="#FFD3B6"/>
<path d="M211.616 104.927C209.809 105.41 206.542 106.262 204.829 106.357C204.206 106.391 202.959 105.86 202.146 104.223C202.03 103.779 201.962 103.322 201.946 102.863C201.934 102.293 202.008 101.724 202.166 101.176C202.25 100.914 202.394 100.675 202.588 100.48C202.781 100.284 203.018 100.136 203.279 100.049C205.154 99.3874 207.674 98.593 209.852 98.214C211.097 97.9955 212.292 98.4556 212.865 99.3245L213.623 101.991C213.982 103.22 213.093 104.533 211.616 104.927Z" fill="#FFC197"/>
<path d="M55.7466 218.782C55.7466 218.782 75.9989 238.214 89.6525 245.716L99.9901 238.371V249.206C99.9901 249.206 120.312 252.808 126.732 249.206V219.66L69.6348 190.985L55.7466 218.782Z" fill="#ED7D2B"/>
<path d="M131.046 246.855C123.18 248.471 106.227 242.282 106.227 242.282L108.957 215.825L89.7913 237.802C80.0435 234.161 64.7939 224.684 55.735 218.782C51.2246 215.843 48.2474 213.793 48.2474 213.793C61.0319 193.185 73.8908 173.907 73.8908 173.907C77.666 181.472 86.5993 188.039 96.2843 193.294C112.378 202.026 130.544 207.126 130.544 207.126C130.549 222.854 131.046 246.855 131.046 246.855Z" fill="#F5F5DC"/>
<path d="M222.416 68.5498L222.205 68.6226L209.305 71.9326C203.633 73.394 197.766 70.319 196.269 65.1025L195.502 62.4445C194.063 57.4348 197.154 52.1968 202.427 50.4987L206.686 49.4031L215.327 47.1805C220.999 45.7208 226.864 48.7957 228.361 54.0123L229.129 56.6851C230.547 61.617 227.556 66.779 222.416 68.5498Z" fill="#FFB27D"/>
<path d="M216.513 64.9419L210.235 67.7719H210.195C209.946 67.8415 209.693 67.8968 209.437 67.9374C209.333 67.954 209.225 67.9656 209.12 67.9772C209.076 67.9813 209.031 67.9813 208.987 67.9772C208.824 67.9716 208.664 67.9256 208.523 67.8432C208.381 67.7608 208.262 67.6446 208.177 67.5049C208.091 67.3653 208.041 67.2066 208.031 67.0429C208.022 66.8793 208.053 66.7158 208.122 66.5671C208.736 65.2342 208.862 63.727 208.477 62.3104L208.327 61.7626C208.328 61.7572 208.328 61.7515 208.327 61.7461L207.841 59.962C207.471 58.5915 206.675 57.3744 205.569 56.4865C205.44 56.3822 205.308 56.2829 205.173 56.1902C203.933 55.3296 204.249 53.3767 205.7 52.9795L205.739 52.968L212.617 51.9253C214.317 51.4636 215.955 52.7743 216.417 54.4773L216.969 56.508L218.145 60.8375C218.608 62.5521 218.205 64.4801 216.513 64.9419Z" fill="#FFD3B6"/>
<path d="M216.513 64.9419L210.235 67.7719H210.195C210.048 67.8001 209.589 67.8779 208.987 67.9706C208.824 67.965 208.664 67.919 208.523 67.8366C208.381 67.7542 208.262 67.638 208.177 67.4983C208.091 67.3587 208.041 67.2 208.031 67.0363C208.022 66.8727 208.053 66.7092 208.122 66.5605C208.736 65.2276 208.862 63.7204 208.477 62.3038L208.327 61.756C208.328 61.7506 208.328 61.7449 208.327 61.7395L207.841 59.962C207.471 58.5915 206.675 57.3744 205.569 56.4865C205.805 56.141 206.157 55.8915 206.56 55.7831L206.6 55.7715L213.478 54.7306C214.91 54.34 216.295 55.2088 216.976 56.508L218.152 60.8375C218.608 62.5521 218.205 64.4802 216.513 64.9419Z" fill="#FFC197"/>
<path d="M113.189 135.761C113.189 135.761 110.381 111.153 107.78 106.355C105.18 101.557 102.989 91.9448 106.98 84.8052C110.972 77.6655 112.355 63.934 112.355 63.934C113.905 79.6184 109.246 91.2613 112.52 94.3446C112.641 94.4571 112.867 94.4042 113.181 94.1989L113.189 135.761Z" fill="#EFA26F"/>
<path d="M309.995 291H233.985C230.34 288.552 211.411 275.618 203.585 265.976C201.933 263.932 195.854 246.323 191.193 232.026C188.281 223.089 185.907 215.453 185.515 213.7C185.376 213.089 185.284 211.879 185.227 210.241V210.224C185.029 204.377 185.3 193.102 185.579 184.145V184.104V183.986C185.593 183.592 185.604 183.205 185.617 182.828V182.814C185.617 182.776 185.617 182.736 185.617 182.698C185.669 181.143 185.718 179.676 185.764 178.342C185.882 175.009 185.981 172.502 186.022 171.521L186.039 171.064C186.159 170.996 189.816 169.041 194.703 172.568C195.882 173.42 196.973 175.479 197.967 178.165C198.603 179.88 199.2 181.849 199.755 183.925C201.89 191.907 203.421 201.45 204.239 204.005C205.561 208.142 221.091 226.293 222.069 227.421C222.084 227.441 222.101 227.46 222.116 227.478V198.793L210.385 167.348L205.569 154.439L203.149 147.952C200.586 143.62 198.306 139.127 196.322 134.502C194.959 131.287 193.71 127.837 192.937 124.557C192.751 123.775 192.594 123.003 192.469 122.24C192.011 119.467 191.973 116.896 192.616 114.802C193.751 111.073 196.309 110.372 198.273 110.448C198.476 110.448 198.673 110.473 198.863 110.494C199.054 110.517 199.242 110.553 199.428 110.603C199.77 110.694 200.099 110.831 200.404 111.01C200.913 111.309 201.349 111.717 201.68 112.205C201.68 112.205 203.332 114.375 205.564 117.291C207.028 119.211 208.738 121.453 210.38 123.615C213.305 127.466 216.021 131.062 216.767 132.112C220.804 137.803 231.672 156.351 231.672 156.351L244.393 156.885C246.409 156.97 248.327 157.774 249.801 159.153C254.325 163.385 264.077 172.542 265.274 173.904C265.274 174.351 272.852 178.002 278.707 181.252C282.896 183.024 290.851 189.307 290.851 189.307C292.503 190.765 293.755 192.216 294.392 193.61C297.119 199.556 304.518 251.273 308.055 276.84C309.2 285.059 309.937 290.575 309.995 291Z" fill="#FFB27D"/>
<path d="M231.677 156.357C231.677 156.357 243.462 175.628 245.021 176.495C246.581 177.363 252.648 178.579 253.342 176.495C254.036 174.412 231.677 156.357 231.677 156.357Z" fill="#EFA26F"/>
<path d="M290.915 189.366L290.856 189.313C290.856 189.313 282.901 183.024 278.712 181.259C273.336 178.28 266.509 174.953 265.427 174.083C266.675 175.512 275.451 185.462 278.83 186.207C281.795 186.862 288.531 188.708 290.915 189.366Z" fill="#EFA26F"/>
<path d="M222.117 227.47V198.793C222.117 198.793 228.918 210.188 229.438 216.439C229.958 222.69 226.613 232.805 222.117 227.47Z" fill="#EFA26F"/>
<path d="M197.442 122.238C196.451 120.53 194.666 117.438 194.053 115.701C193.888 115.204 193.903 114.231 194.504 113.187C194.949 112.439 195.559 111.804 196.289 111.332C196.677 111.056 197.098 110.829 197.541 110.655C198.055 110.467 198.597 110.367 199.144 110.358C199.419 110.37 199.688 110.449 199.927 110.588C200.165 110.727 200.367 110.922 200.513 111.156C201.693 112.879 203.187 115.224 204.203 117.347C204.905 118.814 204.683 120.507 203.659 121.25L203.18 121.601L200.731 123.392C199.719 124.141 198.252 123.635 197.442 122.238Z" fill="#FFD3B6"/>
<path d="M197.442 122.238C196.451 120.53 194.666 117.439 194.053 115.701C193.888 115.204 193.903 114.231 194.504 113.187C195.039 112.747 195.635 112.388 196.274 112.123C196.788 111.935 197.33 111.835 197.877 111.826C198.152 111.838 198.421 111.917 198.66 112.056C198.898 112.195 199.099 112.39 199.246 112.624C200.427 114.347 201.921 116.692 202.935 118.814C203.387 119.754 203.458 120.785 203.18 121.599L200.731 123.39C199.719 124.141 198.252 123.635 197.442 122.238Z" fill="#FFC197"/>
<path d="M263.82 20.3214H247.886C243.677 20.3214 240.265 23.7395 240.265 27.9559V41.1032C240.265 45.3197 243.677 48.7378 247.886 48.7378H263.82C268.029 48.7378 271.441 45.3197 271.441 41.1032V27.9559C271.441 23.7395 268.029 20.3214 263.82 20.3214Z" fill="#E7EEEB"/>
<path d="M247.574 34.2963C248.44 36.5819 255.863 42.5862 255.863 42.5862C255.863 42.5862 258.283 40.6168 260.524 38.4951C262.201 36.9261 263.769 35.2728 264.14 34.2963C265.019 32.024 264.084 28.7736 260.836 28.2225C257.588 27.6714 255.858 31.0592 255.858 31.0592C255.858 31.0592 254.113 27.6714 250.868 28.2225C250.346 28.3066 249.842 28.4837 249.381 28.7455C247.361 29.8758 246.852 32.4229 247.574 34.2963Z" fill="#F99746"/>
<path d="M7.58738 122.743H55.3203C57.1536 122.748 58.9102 123.48 60.2067 124.778C61.5031 126.076 62.234 127.836 62.2396 129.672V150.656C62.2348 152.343 61.5638 153.959 60.3732 155.152C59.1826 156.344 57.5692 157.016 55.8854 157.021H54.6578L56.9576 166.753L42.5193 157.021H7.18259C5.35166 157.014 3.59768 156.283 2.30285 154.986C1.00802 153.689 0.277295 151.932 0.269897 150.098V130.079C0.275555 128.137 1.04811 126.275 2.41899 124.9C3.78987 123.526 5.6478 122.75 7.58738 122.743Z" fill="#E7EEEB"/>
<path d="M6.30698 137.969H56.087C56.4135 137.967 56.7262 137.837 56.9571 137.606C57.1879 137.374 57.3182 137.061 57.3195 136.734C57.3182 136.407 57.1879 136.094 56.9571 135.863C56.7262 135.631 56.4135 135.501 56.087 135.5H6.30698C5.98037 135.5 5.66738 135.631 5.43642 135.862C5.20547 136.093 5.07534 136.407 5.07446 136.734C5.07534 137.061 5.20547 137.375 5.43642 137.606C5.66738 137.838 5.98037 137.968 6.30698 137.969Z" fill="#E7EEEB"/>
<path d="M6.30698 143.495H56.087C56.4136 143.494 56.7266 143.364 56.9575 143.132C57.1885 142.901 57.3186 142.587 57.3195 142.26C57.3182 141.933 57.1879 141.62 56.9571 141.389C56.7262 141.157 56.4135 141.027 56.087 141.026H6.30698C5.98037 141.027 5.66738 141.157 5.43642 141.388C5.20547 141.62 5.07534 141.933 5.07446 142.26C5.0749 142.588 5.20489 142.901 5.43594 143.133C5.66699 143.364 5.98023 143.494 6.30698 143.495Z" fill="#E7EEEB"/>
<path d="M6.30698 149.022H56.087C56.4135 149.021 56.7262 148.891 56.9571 148.659C57.1879 148.428 57.3182 148.115 57.3195 147.788C57.3186 147.461 57.1885 147.147 56.9575 146.916C56.7266 146.684 56.4136 146.554 56.087 146.553H6.30698C5.98023 146.554 5.66699 146.684 5.43594 146.915C5.20489 147.147 5.0749 147.461 5.07446 147.788C5.07534 148.115 5.20547 148.429 5.43642 148.66C5.66738 148.891 5.98037 149.022 6.30698 149.022Z" fill="#E7EEEB"/>
<path d="M33.4225 129.384H54.5521C54.9409 129.383 55.3136 129.228 55.5886 128.953C55.8635 128.678 56.0184 128.304 56.0192 127.915C56.0179 127.525 55.8629 127.152 55.5881 126.877C55.3132 126.602 54.9408 126.446 54.5521 126.445H33.4225C33.0337 126.446 32.6613 126.602 32.3865 126.877C32.1116 127.152 31.9566 127.525 31.9553 127.915C31.9562 128.304 32.111 128.678 32.386 128.953C32.6609 129.228 33.0336 129.383 33.4225 129.384Z" fill="#E7EEEB"/>
<path d="M15.2651 129.386H27.9785C28.6191 129.386 29.1384 128.866 29.1384 128.224V127.609C29.1384 126.967 28.6191 126.447 27.9785 126.447H15.2651C14.6245 126.447 14.1052 126.967 14.1052 127.609V128.224C14.1052 128.866 14.6245 129.386 15.2651 129.386Z" fill="#E7EEEB"/>
<path d="M247.432 133.381L277.455 143.213L259.471 125.656L257.646 129.945L249.917 129.983L247.432 133.381Z" fill="#B4C9C1"/>
<path d="M277.455 143.213L254.154 125.459L229.26 119.762L277.455 143.213Z" fill="white"/>
<path d="M259.471 125.656L277.455 143.213L265.469 118.615L259.471 125.656Z" fill="white"/>
<path d="M70.3948 21.3426L42.3326 25.3526L60.9543 12.6389L61.9026 16.7152L68.7261 17.9531L70.3948 21.3426Z" fill="#B4C9C1"/>
<path d="M42.3326 25.3527L65.6845 13.2927L88.5737 12.1392L42.3326 25.3527Z" fill="white"/>
<path d="M60.9543 12.639L42.3326 25.3527L56.7479 5.48108L60.9543 12.639Z" fill="white"/>
<path d="M271.806 279.225L249.101 291H233.985C230.34 288.552 211.411 275.618 203.585 265.976C201.933 263.933 195.854 246.323 191.193 232.026C191.813 233.924 204.834 261.703 208.541 264.861C212.249 268.019 231.715 286.402 237.091 286.21C242.299 286.032 270.022 279.64 271.74 279.245L271.806 279.225Z" fill="#EFA26F"/>
<path d="M317.492 291H235.634C239.739 289.386 255.447 283.375 271.729 279.25L271.806 279.231C285.79 275.688 300.186 273.54 308.004 276.762L308.06 276.846L317.492 291Z" fill="#E7EEEB"/>
<path d="M185.617 182.692C186.995 182.185 188.933 181.851 189.875 183.428C191.342 185.881 185.893 207.522 185.213 210.239L185.617 182.692Z" fill="#EFA26F"/>
<path d="M186.037 171.056L185.569 184.145C185.569 184.145 188.317 184.593 189.878 183.425C191.44 182.257 190.614 170.902 186.037 171.056Z" fill="#FFC197"/>
<path d="M131.046 246.855C123.18 248.471 106.227 242.282 106.227 242.282L108.957 215.825L89.7913 237.802C80.0435 234.161 64.7939 224.684 55.735 218.782C78.9514 216.247 96.2843 193.295 96.2843 193.295C112.378 202.027 130.544 207.128 130.544 207.128C130.549 222.854 131.046 246.855 131.046 246.855Z" fill="#E7EEEB"/>
<path d="M77.0695 222.824C77.0754 222.192 77.2682 221.576 77.6235 221.054C77.9787 220.533 78.4805 220.128 79.0654 219.892C79.6503 219.655 80.292 219.598 80.9093 219.727C81.5267 219.856 82.092 220.166 82.5338 220.616C82.9755 221.067 83.2739 221.639 83.3912 222.26C83.5084 222.881 83.4393 223.522 83.1926 224.104C82.9458 224.685 82.5325 225.18 82.0049 225.526C81.4773 225.872 80.8591 226.054 80.2285 226.048C79.8097 226.044 79.3959 225.957 79.0105 225.793C78.6251 225.629 78.2758 225.391 77.9824 225.091C77.6891 224.792 77.4575 224.438 77.3008 224.049C77.1442 223.659 77.0656 223.243 77.0695 222.824Z" fill="#F99746"/>
<path d="M205.569 14.8665V168.839C205.569 174.063 201.333 178.336 196.152 178.336H127.418C122.243 178.336 118 174.063 118 168.839V14.8665C118 9.64332 122.235 5.37012 127.418 5.37012H196.158C201.333 5.37012 205.569 9.64994 205.569 14.8665Z" fill="#E7EEEB" fill-opacity="0.1"/>
<path d="M196.158 5.37012L128.269 178.336H127.418C122.243 178.336 118 174.063 118 168.839V14.8665C118 9.64332 122.235 5.37012 127.418 5.37012H196.158Z" fill="#E7EEEB" fill-opacity="0.1"/>
<path d="M188.663 28.8724H135.043C132.163 28.9075 129.414 30.0506 127.391 32.0539C125.367 34.0573 124.232 36.7596 124.232 39.5753C124.232 42.391 125.367 45.0933 127.391 47.0966C129.414 49.1 132.163 50.243 135.043 50.2781H188.663C191.542 50.243 194.292 49.1 196.315 47.0966C198.339 45.0933 199.474 42.391 199.474 39.5753C199.474 36.7596 198.339 34.0573 196.315 32.0539C194.292 30.0506 191.542 28.9075 188.663 28.8724Z" fill="#FFC75A"/>
<path d="M188.663 63.0568H135.043C132.163 63.0918 129.414 64.2349 127.391 66.2383C125.367 68.2416 124.232 70.9439 124.232 73.7596C124.232 76.5753 125.367 79.2776 127.391 81.2809C129.414 83.2843 132.163 84.4274 135.043 84.4624H188.663C191.542 84.4274 194.292 83.2843 196.315 81.2809C198.339 79.2776 199.474 76.5753 199.474 73.7596C199.474 70.9439 198.339 68.2416 196.315 66.2383C194.292 64.2349 191.542 63.0918 188.663 63.0568Z" fill="#FFC75A"/>
<path d="M144.18 73.7671C144.181 75.924 143.347 78.0012 141.846 79.5816L141.785 79.6448L141.718 79.7129C140.442 81.0024 138.784 81.8676 136.978 82.1865C135.172 82.5054 133.309 82.2619 131.652 81.4904C130.585 80.9901 129.632 80.285 128.85 79.4172C128.669 79.2156 128.499 79.0063 128.34 78.7892C127.529 77.6957 126.994 76.43 126.779 75.0956C126.563 73.7612 126.674 72.396 127.102 71.1115C127.529 69.8269 128.262 68.6595 129.239 67.7047C130.216 66.7499 131.411 66.0348 132.725 65.6177C134.039 65.2007 135.436 65.0936 136.8 65.3051C138.165 65.5167 139.459 66.041 140.576 66.8351C141.694 67.6292 142.604 68.6707 143.231 69.8743C143.858 71.0779 144.185 72.4096 144.185 73.7605L144.18 73.7671Z" fill="#FFFFFD"/>
<path d="M133.646 77.7542L133.464 78.0865C133.422 78.1645 133.373 78.2526 133.32 78.3573C133.133 78.7045 132.88 79.1779 132.591 79.7212L132.515 79.864C132.246 80.3624 131.951 80.9206 131.652 81.4854C130.585 80.9851 129.632 80.28 128.85 79.4122C128.669 79.2106 128.499 79.0013 128.34 78.7842C128.446 78.6816 128.566 78.5928 128.695 78.5201C129.988 77.804 132.433 77.7409 133.315 77.7426C133.52 77.7542 133.646 77.7542 133.646 77.7542Z" fill="#F43E31"/>
<path d="M128.85 79.4155C129.261 78.8324 129.771 78.4287 130.398 78.344C131.088 78.251 132.183 78.1679 133.305 78.0998L133.464 78.0898C135.058 77.9951 136.66 77.9237 137.17 77.9137H137.34L137.379 77.9237C137.517 77.9586 137.975 78.0699 137.795 77.9885C139.598 78.3008 140.879 78.9337 141.79 79.6498L141.724 79.7179C140.447 81.0073 138.789 81.8726 136.983 82.1915C135.177 82.5104 133.314 82.2669 131.657 81.4954C130.588 80.9937 129.633 80.2863 128.85 79.4155Z" fill="#F43E31"/>
<path d="M135.553 81.3175C135.624 81.3175 135.695 81.3308 135.77 81.3358C135.78 81.3365 135.79 81.3352 135.8 81.332C135.809 81.3289 135.818 81.3239 135.826 81.3175C135.833 81.311 135.839 81.3031 135.844 81.2943C135.848 81.2855 135.851 81.2759 135.852 81.266C135.852 81.2562 135.851 81.2464 135.848 81.237C135.845 81.2277 135.839 81.2191 135.833 81.2117C135.826 81.2043 135.818 81.1983 135.809 81.1939C135.8 81.1895 135.79 81.187 135.78 81.1863C132.601 80.9687 132.012 78.6944 132.007 78.6711C132.004 78.6515 131.993 78.6339 131.976 78.6222C131.96 78.6106 131.939 78.6057 131.919 78.6088C131.899 78.6119 131.881 78.6226 131.869 78.6387C131.857 78.6547 131.852 78.6748 131.856 78.6944C131.859 78.7176 132.445 81.0036 135.553 81.3175Z" fill="#0D060E"/>
<path d="M137.36 77.824C139.447 78.1098 140.877 78.8208 141.846 79.58L141.785 79.6431L141.718 79.7112C140.781 78.9786 139.399 78.2942 137.388 78.0101L137.248 77.9918C137.228 77.9893 137.209 77.9802 137.195 77.9661C137.181 77.9519 137.172 77.9334 137.17 77.9137C137.169 77.906 137.169 77.8982 137.17 77.8905C137.172 77.8786 137.176 77.8671 137.182 77.8567C137.188 77.8464 137.196 77.8373 137.206 77.8301C137.216 77.8228 137.227 77.8175 137.239 77.8145C137.251 77.8115 137.263 77.8107 137.275 77.8124L137.36 77.824Z" fill="#0D060E"/>
<path d="M138.094 71.1389L138.198 75.0662C138.198 75.0662 138.286 76.3271 137.16 76.5132L137.416 78.1927C137.463 78.4955 137.4 78.8048 137.239 79.0674C137.078 79.3299 136.828 79.5294 136.533 79.6314C136.191 79.7475 135.833 79.8108 135.471 79.8191C134.18 79.8523 133.456 78.9237 133.335 78.4519C133.215 77.9801 133.478 75.7124 133.478 75.7124L133.408 74.601L133.442 70.2916L138.094 71.1389Z" fill="#FC8759"/>
<path d="M134.511 75.5082C134.511 75.5082 134.642 77.618 137.347 77.7526L137.158 76.5133C137.158 76.5133 135.418 76.902 134.511 75.5082Z" fill="#FB554B"/>
<path d="M135.031 73.277C135.024 73.2773 135.017 73.2763 135.011 73.2741C135.004 73.2718 134.999 73.2682 134.994 73.2637C134.983 73.2537 134.978 73.2403 134.978 73.2263C134.978 73.2123 134.983 73.1989 134.994 73.1889C134.994 73.1889 135.721 72.4231 136.412 72.9381C136.422 72.9482 136.427 72.9616 136.427 72.9755C136.427 72.9893 136.422 73.0027 136.412 73.0128C136.407 73.0177 136.401 73.0215 136.395 73.0241C136.389 73.0267 136.382 73.0281 136.375 73.0281C136.368 73.0281 136.361 73.0267 136.355 73.0241C136.348 73.0215 136.342 73.0177 136.337 73.0128C135.726 72.5576 135.092 73.2238 135.065 73.2521C135.061 73.2584 135.057 73.264 135.051 73.2683C135.045 73.2726 135.038 73.2756 135.031 73.277Z" fill="#2D0F28"/>
<path d="M133.162 72.7703L134.329 72.978L134.545 73.1857C134.545 73.1857 134.394 71.2835 134.166 70.9163C133.938 70.5492 133.162 72.7703 133.162 72.7703Z" fill="#35282A"/>
<path d="M137.241 72.9049C137.233 72.9055 137.225 72.9043 137.218 72.9014C137.211 72.8985 137.204 72.894 137.199 72.8883C137.189 72.878 137.184 72.8647 137.184 72.8509C137.184 72.8372 137.189 72.8239 137.199 72.8136C137.221 72.7953 137.722 72.3534 138.048 72.6175C138.054 72.6217 138.058 72.627 138.062 72.633C138.065 72.639 138.067 72.6455 138.068 72.6523C138.069 72.6592 138.068 72.666 138.066 72.6726C138.065 72.6792 138.061 72.6853 138.057 72.6906C138.047 72.7005 138.033 72.706 138.019 72.706C138.004 72.706 137.991 72.7005 137.98 72.6906C137.722 72.483 137.272 72.88 137.267 72.8833C137.261 72.893 137.252 72.9006 137.241 72.9049Z" fill="#2D0F28"/>
<path d="M136.125 73.4631C136.128 73.4963 136.12 73.5295 136.102 73.5583C136.085 73.5871 136.06 73.6102 136.029 73.6246C135.998 73.639 135.964 73.644 135.93 73.6389C135.896 73.6339 135.865 73.6191 135.84 73.5964C135.815 73.5737 135.798 73.5441 135.79 73.5116C135.782 73.4791 135.785 73.4451 135.797 73.4141C135.81 73.3831 135.832 73.3564 135.86 73.3376C135.888 73.3188 135.921 73.3087 135.955 73.3086C135.977 73.3075 135.998 73.3106 136.019 73.3178C136.039 73.325 136.058 73.3362 136.074 73.3506C136.09 73.365 136.102 73.3824 136.111 73.4017C136.12 73.4211 136.125 73.4419 136.125 73.4631Z" fill="#010103"/>
<path d="M137.836 73.2688C137.837 73.2898 137.834 73.3109 137.827 73.3308C137.82 73.3507 137.809 73.369 137.794 73.3845C137.78 73.4 137.762 73.4125 137.742 73.4212C137.722 73.4298 137.701 73.4345 137.68 73.4349C137.654 73.4437 137.627 73.4466 137.601 73.4432C137.574 73.4398 137.549 73.4303 137.526 73.4155C137.504 73.4006 137.486 73.3809 137.473 73.3578C137.46 73.3348 137.453 73.309 137.453 73.2828C137.452 73.2566 137.458 73.2305 137.469 73.2069C137.481 73.1832 137.498 73.1625 137.519 73.1465C137.541 73.1306 137.565 73.1198 137.592 73.115C137.618 73.1103 137.645 73.1117 137.671 73.1193C137.713 73.1203 137.752 73.136 137.782 73.1635C137.813 73.1911 137.832 73.2285 137.836 73.2688Z" fill="#010103"/>
<path d="M134.791 73.4348C134.796 73.622 134.745 73.8064 134.642 73.9647C134.54 74.1231 134.392 74.2483 134.217 74.3244C134.042 74.4006 133.848 74.4243 133.659 74.3926C133.471 74.3609 133.296 74.2752 133.157 74.1463C133.018 74.0174 132.921 73.8512 132.879 73.6685C132.836 73.4859 132.85 73.2951 132.919 73.1203C132.988 72.9454 133.108 72.7944 133.264 72.6863C133.42 72.5781 133.606 72.5177 133.798 72.5127C134.054 72.5065 134.303 72.6001 134.489 72.7729C134.676 72.9457 134.784 73.1837 134.791 73.4348Z" fill="#FC8759"/>
<path d="M133.662 73.9963C133.574 73.9961 133.489 73.9681 133.419 73.9166C133.349 73.8651 133.298 73.7928 133.274 73.7106C133.244 73.6329 133.241 73.5474 133.267 73.4681C133.292 73.3888 133.345 73.3203 133.415 73.2737C133.49 73.2239 133.579 73.1974 133.67 73.1974C133.761 73.1974 133.85 73.2239 133.925 73.2737C133.888 73.1759 133.816 73.0945 133.723 73.0444C133.586 72.9882 133.432 72.9823 133.291 73.0278C133.285 73.03 133.277 73.0297 133.271 73.0269C133.265 73.0241 133.26 73.0191 133.257 73.0128C133.255 73.0062 133.256 72.999 133.259 72.9928C133.262 72.9866 133.267 72.9819 133.274 72.9796C133.428 72.9268 133.597 72.9333 133.747 72.9979C133.811 73.0326 133.867 73.0801 133.911 73.1373C133.955 73.1946 133.987 73.2603 134.003 73.3301L134.029 73.4215L133.959 73.3567C133.891 73.2948 133.805 73.2562 133.713 73.2469C133.621 73.2376 133.528 73.2581 133.449 73.3052C133.391 73.3474 133.348 73.4068 133.326 73.4746C133.305 73.5425 133.306 73.6153 133.33 73.6823C133.35 73.7554 133.394 73.8199 133.455 73.8652C133.517 73.9105 133.593 73.9339 133.67 73.9315C133.674 73.9313 133.677 73.9318 133.681 73.9329C133.684 73.934 133.687 73.9358 133.69 73.9381C133.692 73.9404 133.695 73.9432 133.696 73.9464C133.698 73.9495 133.699 73.9529 133.699 73.9564C133.699 73.9637 133.696 73.9706 133.691 73.9758C133.686 73.9811 133.679 73.9843 133.672 73.9847L133.662 73.9963Z" fill="#FB554B"/>
<path d="M136.72 74.513C136.714 74.5131 136.708 74.5113 136.703 74.5081C136.698 74.5048 136.695 74.5001 136.693 74.4948C136.69 74.4881 136.691 74.481 136.694 74.4748C136.697 74.4685 136.703 74.4638 136.71 74.4615L137.245 74.2738L137.041 73.0361C137.04 73.0293 137.042 73.0224 137.046 73.0168C137.05 73.0113 137.056 73.0075 137.063 73.0062C137.07 73.0053 137.077 73.007 137.083 73.011C137.088 73.015 137.092 73.0211 137.094 73.0278L137.304 74.3087L136.728 74.5114L136.72 74.513Z" fill="#FB554B"/>
<path d="M136.319 75.0346C136.336 75.0346 137.382 74.9814 137.382 74.9814C137.382 74.9814 137.262 75.4084 136.873 75.4283C136.484 75.4483 136.319 75.0346 136.319 75.0346Z" fill="#FBFDFA"/>
<path d="M133.162 72.7704C133.162 72.7704 132.786 70.943 133.345 70.2336C133.904 69.5242 137.187 68.2401 137.593 68.5723C137.999 68.9046 137.613 69.3332 137.613 69.3332C137.613 69.3332 138.934 68.8813 139.265 70.0276C139.596 71.1739 136.749 71.7371 135.028 71.2404C134.251 71.5372 133.596 72.0746 133.162 72.7704Z" fill="#35282A"/>
<path d="M188.663 97.2411H135.043C132.14 97.2411 129.356 98.3686 127.303 100.376C125.251 102.383 124.098 105.105 124.098 107.943C124.098 110.781 125.251 113.504 127.303 115.511C129.356 117.518 132.14 118.645 135.043 118.645H188.663C191.566 118.645 194.35 117.518 196.402 115.511C198.455 113.504 199.608 110.781 199.608 107.943C199.608 105.105 198.455 102.383 196.402 100.376C194.35 98.3686 191.566 97.2411 188.663 97.2411Z" fill="#FFC75A"/>
<path d="M188.663 131.547H135.043C132.163 131.582 129.414 132.725 127.391 134.728C125.367 136.731 124.232 139.434 124.232 142.249C124.232 145.065 125.367 147.767 127.391 149.771C129.414 151.774 132.163 152.917 135.043 152.952H188.663C191.542 152.917 194.292 151.774 196.315 149.771C198.339 147.767 199.474 145.065 199.474 142.249C199.474 139.434 198.339 136.731 196.315 134.728C194.292 132.725 191.542 131.582 188.663 131.547Z" fill="#FFC75A"/>
<g opacity="0.3">
<g style="mix-blend-mode:multiply">
<path d="M193.767 34.8082H147.147V35.6787H193.767V34.8082Z" fill="#223749"/>
</g>
<g style="mix-blend-mode:multiply">
<path d="M193.767 37.6174H147.147V38.4879H193.767V37.6174Z" fill="#223749"/>
</g>
<path d="M193.767 40.4268H147.147V41.2973H193.767V40.4268Z" fill="#223749"/>
<path d="M193.767 43.236H147.147V44.1065H193.767V43.236Z" fill="#223749"/>
<g style="mix-blend-mode:multiply">
<path d="M193.767 68.9926H147.147V69.8631H193.767V68.9926Z" fill="#223749"/>
</g>
<g style="mix-blend-mode:multiply">
<path d="M193.767 71.8018H147.147V72.6723H193.767V71.8018Z" fill="#223749"/>
</g>
<g style="mix-blend-mode:multiply">
<path d="M193.767 74.611H147.147V75.4815H193.767V74.611Z" fill="#223749"/>
</g>
<g style="mix-blend-mode:multiply">
<path d="M193.767 77.4203H147.147V78.2908H193.767V77.4203Z" fill="#223749"/>
</g>
<g style="mix-blend-mode:multiply">
<path d="M193.767 103.175H147.147V104.046H193.767V103.175Z" fill="#223749"/>
</g>
<g style="mix-blend-mode:multiply">
<path d="M193.767 105.986H147.147V106.857H193.767V105.986Z" fill="#223749"/>
</g>
<g style="mix-blend-mode:multiply">
<path d="M193.767 108.795H147.147V109.666H193.767V108.795Z" fill="#223749"/>
</g>
<g style="mix-blend-mode:multiply">
<path d="M193.767 111.604H147.147V112.475H193.767V111.604Z" fill="#223749"/>
</g>
<g style="mix-blend-mode:multiply">
<path d="M193.767 137.482H147.147V138.353H193.767V137.482Z" fill="#223749"/>
</g>
<g style="mix-blend-mode:multiply">
<path d="M193.767 140.292H147.147V141.162H193.767V140.292Z" fill="#223749"/>
</g>
<g style="mix-blend-mode:multiply">
<path d="M193.767 143.101H147.147V143.971H193.767V143.101Z" fill="#223749"/>
</g>
<g style="mix-blend-mode:multiply">
<path d="M193.767 145.91H147.147V146.781H193.767V145.91Z" fill="#223749"/>
</g>
</g>
<path d="M143.732 107.845C143.732 109.921 142.96 111.926 141.561 113.487C140.162 115.049 138.23 116.06 136.125 116.332C135.744 116.381 135.361 116.406 134.977 116.406H134.909C134.559 116.402 134.21 116.38 133.864 116.337L133.588 116.299C131.937 116.04 130.396 115.324 129.147 114.236C127.899 113.147 126.995 111.732 126.543 110.157C126.092 108.583 126.111 106.914 126.598 105.35C127.086 103.785 128.021 102.39 129.294 101.329C130.567 100.268 132.124 99.5856 133.781 99.3626C135.438 99.1397 137.126 99.3855 138.645 100.071C140.164 100.756 141.45 101.853 142.351 103.23C143.253 104.608 143.732 106.209 143.732 107.845Z" fill="#FFFFFD"/>
<path d="M133.322 107.006C133.322 107.006 133.697 110.296 134.2 110.329C134.703 110.362 133.86 114.216 132.521 112.322C132.054 111.658 132.075 107.338 133.189 106.406C134.304 105.474 133.322 107.006 133.322 107.006Z" fill="#35282A"/>
<path d="M133.142 106.18C133.142 106.18 132.679 109.289 133.096 109.835C133.181 109.935 133.288 110.015 133.409 110.069C133.531 110.122 133.663 110.148 133.796 110.144L133.757 111.972L136.003 111.721L136.078 106.524C136.078 106.524 135.437 105.24 135.437 105.293C135.437 105.347 133.142 106.18 133.142 106.18Z" fill="#FCA085"/>
<path d="M133.831 108.774C133.831 108.774 133.843 108.774 133.845 108.759C133.846 108.754 133.846 108.749 133.844 108.745C133.842 108.74 133.839 108.736 133.835 108.734C133.741 108.706 133.685 108.548 133.665 108.496C133.793 108.408 133.881 108.275 133.91 108.124C133.935 107.961 133.911 107.793 133.842 107.642C133.842 107.632 133.828 107.631 133.821 107.642C133.818 107.646 133.817 107.651 133.817 107.656C133.817 107.66 133.818 107.665 133.821 107.669C133.885 107.81 133.906 107.966 133.884 108.119C133.87 108.191 133.842 108.259 133.801 108.32C133.759 108.381 133.705 108.433 133.643 108.473H133.631V108.49C133.631 108.5 133.696 108.731 133.821 108.77L133.831 108.774Z" fill="#FB554B"/>
<path d="M133.787 110.772L133.796 110.151C133.796 110.151 134.871 110.104 135.536 109.707C135.531 109.707 134.628 110.536 133.787 110.772Z" fill="#FB554B"/>
<path d="M135.311 107.744C135.317 107.744 135.322 107.743 135.327 107.741C135.332 107.739 135.336 107.736 135.34 107.732C135.348 107.724 135.352 107.714 135.352 107.704C135.352 107.693 135.348 107.683 135.34 107.676C135.34 107.676 134.831 107.142 134.341 107.509C134.337 107.513 134.333 107.517 134.33 107.521C134.327 107.526 134.326 107.531 134.325 107.536C134.324 107.541 134.324 107.547 134.326 107.552C134.327 107.557 134.329 107.562 134.333 107.566C134.341 107.573 134.351 107.577 134.362 107.577C134.372 107.577 134.383 107.573 134.39 107.566C134.814 107.234 135.262 107.702 135.281 107.722C135.284 107.728 135.288 107.733 135.293 107.736C135.299 107.74 135.305 107.743 135.311 107.744Z" fill="#F32527"/>
<path d="M133.641 107.637C133.653 107.637 133.664 107.632 133.672 107.624C133.675 107.62 133.678 107.616 133.681 107.611C133.683 107.606 133.684 107.601 133.684 107.596C133.684 107.591 133.683 107.585 133.681 107.581C133.678 107.576 133.675 107.571 133.672 107.568C133.656 107.554 133.3 107.247 133.067 107.436C133.058 107.443 133.053 107.453 133.052 107.464C133.051 107.474 133.055 107.485 133.062 107.493C133.069 107.501 133.079 107.506 133.09 107.507C133.1 107.508 133.111 107.505 133.119 107.498C133.298 107.352 133.614 107.624 133.617 107.627C133.624 107.633 133.632 107.637 133.641 107.637Z" fill="#F32527"/>
<path d="M134.496 107.953C134.496 107.982 134.507 108.011 134.528 108.032C134.549 108.053 134.578 108.065 134.608 108.066C134.638 108.066 134.667 108.054 134.688 108.033C134.71 108.013 134.722 107.984 134.722 107.955C134.722 107.925 134.71 107.897 134.688 107.876C134.667 107.855 134.638 107.843 134.608 107.843C134.578 107.844 134.55 107.856 134.53 107.876C134.509 107.897 134.497 107.924 134.496 107.953Z" fill="#010103"/>
<path d="M133.171 107.938C133.171 107.968 133.182 107.996 133.204 108.017C133.225 108.038 133.254 108.049 133.284 108.049C133.315 108.049 133.343 108.038 133.365 108.017C133.386 107.996 133.398 107.968 133.398 107.938C133.398 107.909 133.386 107.88 133.365 107.859C133.343 107.838 133.315 107.827 133.284 107.827C133.254 107.827 133.225 107.838 133.204 107.859C133.182 107.88 133.171 107.909 133.171 107.938Z" fill="#010103"/>
<path d="M134.384 108.958L133.583 109.043C133.621 109.125 133.682 109.194 133.759 109.243C133.836 109.292 133.926 109.317 134.018 109.317C134.311 109.285 134.384 108.958 134.384 108.958Z" fill="#FBFDFA"/>
<path d="M134.115 106.24L134.661 105.501C134.661 105.501 133.784 106.036 133.857 106.059C133.95 106.109 134.037 106.17 134.115 106.24Z" fill="#FC8759"/>
<path d="M135.751 105.89C135.751 105.89 135.595 107.053 132.756 107.284C132.756 107.284 132.097 105.567 134.158 104.994C136.219 104.421 136.407 105.968 136.366 105.953C136.326 105.938 135.751 105.89 135.751 105.89Z" fill="#35282A"/>
<path d="M135.323 106.539C135.323 106.539 135.777 107.303 136.022 107.853C136.022 107.853 135.143 112.708 137.055 112.435H137.394C139.093 112.414 137.914 108.835 137.885 106.935C137.867 105.745 136.39 104.539 135.43 105.263C134.47 105.988 135.323 106.539 135.323 106.539Z" fill="#35282A"/>
<path d="M135.605 108.446C135.604 108.569 135.639 108.69 135.708 108.793C135.776 108.896 135.874 108.977 135.99 109.026C136.105 109.074 136.233 109.088 136.356 109.066C136.48 109.043 136.594 108.986 136.684 108.9C136.774 108.814 136.836 108.704 136.862 108.584C136.888 108.464 136.877 108.339 136.831 108.225C136.784 108.111 136.704 108.012 136.601 107.943C136.497 107.873 136.375 107.835 136.249 107.833C136.166 107.832 136.083 107.847 136.005 107.877C135.928 107.907 135.857 107.952 135.797 108.009C135.737 108.066 135.689 108.134 135.656 108.209C135.624 108.284 135.606 108.365 135.605 108.446Z" fill="#FCA085"/>
<path d="M136.281 108.839C136.34 108.838 136.396 108.818 136.442 108.784C136.488 108.749 136.521 108.701 136.536 108.646C136.555 108.594 136.556 108.538 136.538 108.486C136.521 108.434 136.486 108.389 136.44 108.358C136.39 108.327 136.333 108.311 136.275 108.311C136.216 108.311 136.159 108.327 136.11 108.358C136.133 108.298 136.178 108.248 136.236 108.217C136.324 108.18 136.424 108.174 136.516 108.202C136.518 108.203 136.521 108.204 136.524 108.204C136.526 108.204 136.529 108.203 136.531 108.202C136.534 108.201 136.536 108.199 136.538 108.197C136.539 108.195 136.541 108.193 136.541 108.191C136.542 108.188 136.542 108.185 136.542 108.183C136.542 108.18 136.541 108.178 136.54 108.175C136.539 108.173 136.537 108.171 136.535 108.169C136.533 108.168 136.53 108.166 136.528 108.166C136.426 108.132 136.315 108.138 136.217 108.182C136.174 108.205 136.136 108.237 136.107 108.276C136.077 108.315 136.057 108.359 136.047 108.407L136.028 108.476L136.081 108.427C136.125 108.383 136.182 108.356 136.244 108.349C136.306 108.343 136.368 108.357 136.421 108.39C136.46 108.416 136.488 108.454 136.503 108.498C136.517 108.542 136.517 108.589 136.501 108.633C136.488 108.68 136.46 108.722 136.421 108.752C136.382 108.782 136.333 108.798 136.283 108.799C136.28 108.798 136.278 108.799 136.275 108.8C136.273 108.8 136.27 108.802 136.268 108.803C136.266 108.805 136.264 108.807 136.263 108.809C136.262 108.812 136.261 108.814 136.261 108.817C136.261 108.822 136.263 108.828 136.267 108.832C136.271 108.836 136.276 108.838 136.281 108.839Z" fill="#FB554B"/>
<path d="M133.014 105.654C133.014 105.654 132.031 106.671 132.256 109.593L132.936 106.71L133.014 105.654Z" fill="#F32527"/>
<path d="M136.125 116.333C135.744 116.381 135.361 116.406 134.977 116.406H134.909C134.559 116.402 134.21 116.38 133.864 116.338L133.913 116.128L134.696 112.915L134.909 112.045L134.956 111.844L135.043 111.493H138.771C139.106 111.524 139.433 111.614 139.736 111.759C140.476 112.167 141.173 112.645 141.819 113.186C140.408 114.916 138.368 116.043 136.125 116.333Z" fill="#F43E31"/>
<path d="M134.909 111.493V116.406C134.559 116.402 134.21 116.38 133.864 116.338L133.588 116.299C131.388 115.954 129.406 114.801 128.044 113.076C128.738 112.592 129.464 112.152 130.216 111.759C130.518 111.614 130.844 111.524 131.179 111.493H134.909Z" fill="#F43E31"/>
<path d="M133.864 116.338L133.589 116.299L133.913 116.133C134.365 115.899 134.664 115.748 134.691 115.748C134.766 115.769 134.838 115.796 134.909 115.828C135.157 115.926 135.598 116.112 136.125 116.338C135.744 116.386 135.361 116.411 134.977 116.411H134.909C134.559 116.406 134.21 116.381 133.864 116.338Z" fill="#FFFFFD"/>
<path d="M132.749 111.493H137.466C137.466 111.493 136.616 112.937 134.984 112.93C134.236 112.927 133.436 112.66 132.749 111.493Z" fill="#FCA085"/>
<path d="M129.502 113.326C129.514 113.326 129.525 113.323 129.535 113.318C129.545 113.313 129.553 113.306 129.56 113.297C130.09 112.551 130.542 112.55 130.542 112.55C130.561 112.55 130.579 112.543 130.592 112.53C130.605 112.517 130.613 112.5 130.614 112.482C130.614 112.473 130.612 112.464 130.608 112.455C130.604 112.447 130.599 112.439 130.592 112.433C130.586 112.427 130.578 112.422 130.569 112.418C130.561 112.415 130.551 112.413 130.542 112.414C130.517 112.414 130.01 112.424 129.445 113.218C129.437 113.228 129.433 113.24 129.432 113.253C129.431 113.265 129.433 113.278 129.439 113.289C129.445 113.3 129.454 113.31 129.466 113.316C129.477 113.323 129.489 113.326 129.502 113.326Z" fill="#0D060E"/>
<path d="M129.654 114.025C129.667 114.025 129.679 114.021 129.69 114.015C129.702 114.008 129.711 113.998 129.716 113.987C130.122 113.189 130.566 113.11 130.576 113.108C130.585 113.107 130.594 113.104 130.602 113.099C130.61 113.095 130.617 113.088 130.623 113.081C130.628 113.074 130.632 113.066 130.634 113.057C130.637 113.048 130.637 113.039 130.636 113.03C130.633 113.012 130.623 112.996 130.608 112.985C130.593 112.974 130.574 112.969 130.556 112.972C130.535 112.972 130.032 113.055 129.591 113.925C129.586 113.933 129.584 113.942 129.583 113.951C129.582 113.96 129.583 113.97 129.586 113.978C129.589 113.987 129.593 113.995 129.599 114.002C129.605 114.009 129.613 114.014 129.621 114.018C129.631 114.023 129.642 114.025 129.654 114.025Z" fill="#0D060E"/>
<path d="M126.792 39.8419C126.791 40.9562 127.012 42.06 127.443 43.0914L127.474 43.1612C127.473 43.1662 127.473 43.1712 127.474 43.1762C127.87 44.0938 128.426 44.937 129.118 45.6681L129.18 45.7312L129.246 45.7993C130.522 47.0888 132.18 47.954 133.986 48.2729C135.793 48.5919 137.656 48.3484 139.313 47.5769C139.527 47.4756 139.736 47.3676 139.94 47.2446C139.974 47.2247 140.009 47.2064 140.043 47.1848C140.137 47.1317 140.227 47.0752 140.318 47.0187L140.41 46.9589C141.038 46.5455 141.609 46.0547 142.109 45.4986C142.291 45.2976 142.463 45.0866 142.619 44.869C142.972 44.395 143.274 43.886 143.519 43.3506C144.055 42.186 144.317 40.919 144.287 39.6425C144.257 38.366 143.935 37.1123 143.345 35.9731C142.755 34.8339 141.912 33.8382 140.878 33.0587C139.844 32.2793 138.644 31.7359 137.367 31.4683C136.09 31.2007 134.768 31.2158 133.498 31.5124C132.228 31.8089 131.042 32.3795 130.027 33.1823C129.011 33.9851 128.192 34.9998 127.63 36.1521C127.067 37.3044 126.775 38.5651 126.775 39.8419H126.792Z" fill="#FFFFFD"/>
<path d="M138.325 35.8898C138.325 35.8898 138.995 34.383 137.23 33.1354C135.464 31.8878 135.191 34.0275 134.511 34.2319C133.831 34.4362 132.601 34.2036 132.154 35.4496C131.708 36.6955 131.974 37.6093 131.259 37.8086C130.544 38.008 128.211 39.8022 128.843 42.1379C129.475 44.4737 131.798 44.3125 131.798 44.3125C131.798 44.3125 140.923 44.5883 141.513 42.2625C142.102 39.9367 141.207 38.9399 140.04 38.1724C139.326 37.7056 137.892 37.3219 138.325 35.8898Z" fill="#35282A"/>
<path d="M137.389 36.634C137.389 36.634 138.195 39.7905 137.714 40.5613C137.614 40.7008 137.483 40.8162 137.331 40.8988C137.179 40.9814 137.009 41.029 136.835 41.0381L137.034 43.0466L134.136 43.3207L133.492 36.7304L137.389 36.634Z" fill="#FC8759"/>
<path d="M136.691 39.2439C136.685 39.2443 136.679 39.2427 136.673 39.2394C136.668 39.2361 136.664 39.2313 136.662 39.2256C136.66 39.2188 136.661 39.2116 136.665 39.2055C136.668 39.1993 136.674 39.1947 136.681 39.1924C136.851 39.1409 136.934 38.9266 136.958 38.8601C136.848 38.8244 136.748 38.7659 136.665 38.6888C136.581 38.6116 136.515 38.5176 136.472 38.4132C136.41 38.1992 136.437 37.9702 136.546 37.7753C136.548 37.7722 136.551 37.7695 136.553 37.7673C136.556 37.7652 136.559 37.7636 136.563 37.7627C136.566 37.7617 136.57 37.7615 136.574 37.7619C136.577 37.7624 136.581 37.7635 136.584 37.7653C136.587 37.767 136.589 37.7693 136.591 37.772C136.593 37.7747 136.595 37.7778 136.596 37.781C136.596 37.7843 136.597 37.7876 136.596 37.7909C136.595 37.7942 136.594 37.7974 136.592 37.8002C136.491 37.9828 136.466 38.1962 136.521 38.3966C136.564 38.4973 136.629 38.5875 136.712 38.6607C136.795 38.7339 136.893 38.7884 137 38.8202L137.022 38.8302V38.8518C137.022 38.8651 136.929 39.1841 136.703 39.2455L136.691 39.2439Z" fill="#FB554B"/>
<path d="M136.915 41.8471L136.835 41.0381C136.835 41.0381 135.432 41.0896 134.521 40.6427C134.521 40.6427 135.794 41.6262 136.915 41.8471Z" fill="#FB554B"/>
<path d="M134.937 38.0344C134.931 38.0353 134.924 38.0349 134.918 38.0332C134.911 38.0315 134.905 38.0285 134.9 38.0245C134.889 38.016 134.882 38.0036 134.88 37.9899C134.878 37.9763 134.882 37.9625 134.89 37.9514C134.89 37.9514 135.507 37.2021 136.174 37.6324C136.186 37.6402 136.194 37.6519 136.197 37.6652C136.199 37.6785 136.197 37.6923 136.19 37.7039C136.181 37.7151 136.169 37.7229 136.155 37.7257C136.141 37.7285 136.127 37.726 136.115 37.7188C135.53 37.3417 134.997 37.9879 134.973 38.0162C134.964 38.0264 134.951 38.0329 134.937 38.0344Z" fill="#2F0E1B"/>
<path d="M136.762 37.7488C136.751 37.7504 136.74 37.7485 136.73 37.7434C136.72 37.7383 136.712 37.7303 136.707 37.7205C136.703 37.7107 136.701 37.6997 136.703 37.6889C136.705 37.6782 136.71 37.6683 136.718 37.6607C136.737 37.6425 137.168 37.2055 137.491 37.4265C137.497 37.4304 137.502 37.4354 137.505 37.4412C137.509 37.4469 137.512 37.4533 137.513 37.4601C137.514 37.4668 137.514 37.4736 137.512 37.4803C137.511 37.4869 137.508 37.4932 137.504 37.4988C137.5 37.5043 137.495 37.5091 137.489 37.5127C137.483 37.5163 137.477 37.5188 137.47 37.52C137.463 37.5211 137.456 37.5209 137.449 37.5194C137.442 37.5179 137.436 37.5152 137.43 37.5112C137.182 37.3451 136.8 37.7289 136.796 37.7322C136.787 37.7412 136.775 37.747 136.762 37.7488Z" fill="#2F0E1B"/>
<path d="M137.399 38.0927C137.403 38.1122 137.402 38.1321 137.396 38.1512C137.391 38.1703 137.382 38.1882 137.37 38.2038C137.358 38.2193 137.342 38.2322 137.324 38.2417C137.307 38.2512 137.287 38.257 137.267 38.2588C137.247 38.2616 137.226 38.2604 137.207 38.2552C137.187 38.25 137.169 38.241 137.153 38.2288C137.137 38.2165 137.124 38.2012 137.114 38.1838C137.105 38.1664 137.099 38.1473 137.097 38.1276C137.093 38.0894 137.105 38.0514 137.13 38.0218C137.155 37.9923 137.191 37.9735 137.23 37.9697C137.269 37.964 137.309 37.9738 137.34 37.9968C137.372 38.0199 137.394 38.0543 137.399 38.0927Z" fill="#010103"/>
<path d="M135.942 38.2155C135.945 38.2537 135.932 38.2915 135.907 38.3209C135.882 38.3503 135.846 38.3691 135.807 38.3733C135.768 38.3768 135.729 38.365 135.699 38.3404C135.669 38.3158 135.65 38.2804 135.646 38.2421C135.642 38.2037 135.655 38.1656 135.68 38.136C135.705 38.1064 135.741 38.0878 135.78 38.0843C135.819 38.081 135.858 38.093 135.888 38.1175C135.919 38.1421 135.938 38.1773 135.942 38.2155Z" fill="#010103"/>
<path d="M134.292 39.008C134.308 39.1677 134.275 39.3283 134.197 39.4695C134.119 39.6108 134.001 39.7264 133.856 39.8017C133.711 39.8769 133.546 39.9085 133.383 39.8924C133.22 39.8762 133.065 39.8131 132.939 39.7111C132.812 39.609 132.72 39.4725 132.672 39.3189C132.625 39.1653 132.626 39.0015 132.674 38.8481C132.722 38.6948 132.815 38.5588 132.943 38.4575C133.07 38.3561 133.225 38.2939 133.388 38.2787C133.496 38.2684 133.606 38.2791 133.71 38.3102C133.814 38.3413 133.911 38.3922 133.995 38.4599C134.079 38.5277 134.148 38.611 134.199 38.705C134.25 38.7991 134.282 38.902 134.292 39.008Z" fill="#FC8759"/>
<path d="M133.456 39.5894C133.38 39.596 133.304 39.5774 133.24 39.5368C133.177 39.4961 133.129 39.4356 133.104 39.3651C133.073 39.3002 133.066 39.227 133.083 39.1573C133.1 39.0877 133.14 39.0256 133.198 38.9814C133.258 38.9351 133.331 38.9074 133.408 38.9017C133.484 38.8961 133.561 38.9129 133.628 38.9498C133.589 38.8755 133.526 38.8168 133.448 38.7837C133.328 38.7442 133.199 38.7483 133.082 38.7953C133.076 38.7981 133.068 38.7983 133.062 38.7958C133.055 38.7933 133.049 38.7884 133.047 38.782C133.045 38.779 133.044 38.7757 133.044 38.7724C133.044 38.769 133.045 38.7657 133.046 38.7626C133.047 38.7595 133.049 38.7567 133.052 38.7543C133.054 38.7519 133.057 38.7501 133.06 38.7488C133.19 38.694 133.335 38.6898 133.468 38.7372C133.526 38.7636 133.578 38.8018 133.619 38.8494C133.661 38.897 133.692 38.9528 133.709 39.0129L133.741 39.0993L133.668 39.0412C133.607 38.9924 133.531 38.9646 133.451 38.9622C133.372 38.9598 133.295 38.9829 133.23 39.0279C133.181 39.0666 133.146 39.1205 133.132 39.1809C133.118 39.2413 133.126 39.3045 133.154 39.3602C133.175 39.42 133.216 39.4712 133.271 39.5055C133.325 39.5398 133.39 39.5553 133.454 39.5495C133.461 39.549 133.469 39.5511 133.474 39.5554C133.48 39.5597 133.484 39.5659 133.485 39.5728C133.485 39.5796 133.483 39.5863 133.479 39.5916C133.474 39.5968 133.468 39.6002 133.461 39.601L133.456 39.5894Z" fill="#FB554B"/>
<path d="M137.389 36.634C137.389 36.634 137.016 35.4163 135.303 35.4395C133.59 35.4628 133.485 36.7304 133.485 36.7304L135.461 36.9314L137.264 36.6373L137.389 36.634Z" fill="#FC8759"/>
<path d="M137.286 35.5824C137.286 35.5824 136.327 36.6938 134.934 36.5941C134.934 36.5941 134.639 38.2737 133.639 38.292C132.64 38.3102 132.96 35.9911 132.96 35.9911C132.96 35.9911 134.742 35.0774 134.859 35.0657C134.977 35.0541 136.934 34.7534 136.934 34.7534L137.286 35.5824Z" fill="#35282A"/>
<path d="M136.986 39.5761C136.971 39.5761 135.981 39.4731 135.981 39.4731C135.981 39.4731 136.072 39.8835 136.439 39.9217C136.806 39.9599 136.986 39.5761 136.986 39.5761Z" fill="#FBFDFA"/>
<path d="M128.797 42.6694C128.332 42.7665 127.885 42.9347 127.474 43.1678C127.473 43.1728 127.473 43.1778 127.474 43.1828C127.87 44.1004 128.426 44.9437 129.118 45.6747L129.179 45.7378L129.246 45.806C130.522 47.0955 132.18 47.9607 133.986 48.2796C135.793 48.5985 137.655 48.355 139.313 47.5835C139.527 47.4822 139.736 47.3742 139.939 47.2513C139.973 47.2313 140.009 47.2131 140.043 47.1915C140.137 47.1383 140.227 47.0818 140.318 47.0253L140.41 46.9655C141.038 46.5521 141.609 46.0613 142.109 45.5053C142.291 45.3042 142.463 45.0933 142.619 44.8756C142.972 44.4016 143.274 43.8927 143.519 43.3572C143.088 43.0748 142.238 42.8588 141.27 42.7093C140.519 42.5897 139.695 42.5017 138.937 42.4385C138.149 42.3721 137.432 42.3339 136.944 42.3123C136.541 42.294 136.295 42.2874 136.295 42.2874C136.295 42.2874 135.305 42.2873 134.018 42.3239C133.439 42.3388 132.798 42.3588 132.161 42.3854C131.672 42.407 131.188 42.4319 130.732 42.4618C130.053 42.5083 129.451 42.5648 129.004 42.6362L128.903 42.6545H128.904L128.826 42.6678L128.797 42.6694Z" fill="#F43E31"/>
<path d="M127.443 43.0914L127.474 43.1612C127.473 43.1661 127.473 43.1712 127.474 43.1761C127.634 43.0926 127.801 43.0226 127.973 42.9668C128.325 42.8594 128.685 42.7751 129.049 42.7143C129.521 42.6323 130.07 42.5648 130.695 42.5116C130.707 42.5099 130.719 42.5037 130.727 42.4941C130.735 42.4845 130.738 42.4724 130.737 42.4601C130.735 42.4491 130.728 42.4395 130.719 42.4328C130.709 42.4261 130.698 42.4228 130.686 42.4236C130.049 42.48 129.489 42.5498 129.01 42.6345L128.908 42.6528H128.904L128.799 42.6728C128.511 42.7259 128.228 42.7964 127.949 42.8837C127.775 42.9389 127.605 43.0084 127.443 43.0914Z" fill="#010103"/>
<path d="M138.954 42.432C138.954 42.432 135.624 45.6798 132.173 42.3788C132.173 42.3788 136.117 41.9452 138.954 42.432Z" fill="#FC8759"/>
<path d="M144.301 142.563C144.302 144.72 143.468 146.797 141.966 148.377L141.905 148.442L141.839 148.508C140.999 149.359 139.987 150.03 138.868 150.479C137.75 150.928 136.548 151.146 135.339 151.118C134.13 151.091 132.94 150.818 131.844 150.319C130.747 149.819 129.769 149.102 128.97 148.214C128.789 148.012 128.619 147.802 128.461 147.585C127.649 146.491 127.114 145.225 126.899 143.891C126.684 142.557 126.795 141.191 127.222 139.907C127.65 138.622 128.383 137.455 129.36 136.5C130.338 135.545 131.532 134.83 132.846 134.413C134.161 133.996 135.557 133.889 136.922 134.101C138.286 134.313 139.58 134.837 140.698 135.631C141.815 136.426 142.725 137.467 143.352 138.671C143.979 139.875 144.306 141.207 144.306 142.558L144.301 142.563Z" fill="#FFFFFD"/>
<path d="M133.765 146.555L133.585 146.887L133.439 147.158L132.712 148.522L132.635 148.663L131.772 150.284C130.705 149.785 129.752 149.08 128.97 148.213C128.789 148.01 128.619 147.8 128.461 147.583C128.567 147.481 128.686 147.393 128.816 147.321C130.109 146.605 132.554 146.541 133.435 146.543C133.641 146.55 133.765 146.555 133.765 146.555Z" fill="#35282A"/>
<path d="M128.97 148.219C129.382 147.636 129.891 147.232 130.518 147.146C131.208 147.053 132.304 146.97 133.425 146.903L133.585 146.894C135.179 146.799 136.781 146.727 137.289 146.717H137.459L137.498 146.727C137.636 146.762 138.094 146.874 137.913 146.792C139.717 147.103 140.998 147.737 141.909 148.453L141.842 148.52C141.002 149.37 139.991 150.041 138.872 150.491C137.753 150.94 136.551 151.158 135.342 151.13C134.133 151.102 132.943 150.83 131.847 150.33C130.751 149.83 129.773 149.114 128.974 148.226L128.97 148.219Z" fill="#35282A"/>
<path d="M135.672 150.121L135.891 150.14C135.901 150.14 135.911 150.139 135.92 150.136C135.93 150.133 135.939 150.128 135.946 150.121C135.954 150.115 135.96 150.107 135.965 150.098C135.969 150.089 135.972 150.08 135.972 150.07C135.973 150.06 135.972 150.05 135.969 150.041C135.966 150.031 135.961 150.023 135.954 150.015C135.947 150.008 135.939 150.002 135.93 149.997C135.921 149.993 135.911 149.991 135.901 149.99C132.722 149.773 132.132 147.498 132.127 147.473C132.124 147.454 132.112 147.437 132.096 147.426C132.079 147.415 132.059 147.41 132.039 147.414C132.019 147.416 132.002 147.427 131.99 147.442C131.978 147.458 131.973 147.477 131.976 147.497C131.98 147.528 132.566 149.808 135.672 150.121Z" fill="#0D060E"/>
<path d="M137.479 146.628C139.567 146.914 140.998 147.625 141.966 148.382L141.905 148.447L141.839 148.513C140.901 147.782 139.52 147.098 137.508 146.814L137.369 146.794C137.349 146.792 137.33 146.783 137.316 146.769C137.301 146.755 137.292 146.737 137.289 146.718V146.698C137.293 146.674 137.306 146.653 137.325 146.639C137.344 146.625 137.369 146.618 137.393 146.621L137.479 146.628Z" fill="#0D060E"/>
<path d="M135.488 148.917C134.321 148.93 133.38 147.658 133.424 146.126L133.541 143.941L137.228 143.923L137.398 146.143C137.51 147.694 136.679 148.904 135.488 148.917Z" fill="#FC8759"/>
<path d="M133.492 145.462C134.153 147.028 137.031 146.885 137.323 145.339L137.224 143.923L133.538 143.941L133.492 145.462Z" fill="#FB554B"/>
<path d="M137.614 141.599C137.614 141.797 137.674 141.99 137.786 142.154C137.899 142.318 138.058 142.446 138.245 142.521C138.432 142.596 138.638 142.615 138.836 142.576C139.034 142.537 139.215 142.441 139.357 142.3C139.5 142.16 139.596 141.981 139.634 141.787C139.672 141.593 139.651 141.393 139.572 141.211C139.493 141.029 139.361 140.874 139.192 140.765C139.023 140.657 138.825 140.6 138.623 140.602C138.354 140.605 138.097 140.711 137.908 140.898C137.72 141.084 137.614 141.336 137.614 141.599Z" fill="#FC8759"/>
<path d="M138.706 142.212C138.799 142.21 138.888 142.178 138.961 142.121C139.033 142.064 139.084 141.986 139.107 141.898C139.136 141.814 139.135 141.724 139.104 141.641C139.073 141.558 139.014 141.487 138.937 141.441C138.858 141.393 138.765 141.368 138.672 141.37C138.578 141.373 138.487 141.402 138.41 141.454C138.447 141.357 138.517 141.275 138.609 141.224C138.749 141.16 138.907 141.149 139.054 141.194C139.062 141.196 139.071 141.196 139.079 141.192C139.087 141.188 139.092 141.182 139.095 141.174C139.098 141.166 139.097 141.157 139.094 141.149C139.09 141.141 139.083 141.135 139.075 141.132C138.91 141.083 138.733 141.096 138.577 141.167C138.51 141.207 138.452 141.26 138.407 141.323C138.363 141.386 138.332 141.457 138.317 141.533L138.29 141.644L138.373 141.562C138.441 141.496 138.53 141.453 138.626 141.44C138.722 141.428 138.819 141.447 138.903 141.494C138.966 141.535 139.014 141.594 139.039 141.664C139.063 141.734 139.063 141.81 139.039 141.88C139.021 141.955 138.978 142.022 138.916 142.071C138.855 142.12 138.778 142.147 138.699 142.149C138.691 142.149 138.683 142.153 138.677 142.159C138.671 142.164 138.667 142.172 138.667 142.18C138.667 142.185 138.667 142.189 138.669 142.193C138.67 142.197 138.673 142.2 138.676 142.203C138.679 142.206 138.683 142.209 138.687 142.21C138.691 142.212 138.695 142.212 138.699 142.212H138.706Z" fill="#FB554B"/>
<path d="M138.361 140.903C138.788 135.587 130.314 133.371 132.423 142.596C133.507 146.583 138.553 146.086 138.361 140.903Z" fill="#FC8759"/>
<path d="M132.841 141.624C132.841 141.821 132.781 142.014 132.669 142.178C132.557 142.342 132.398 142.469 132.212 142.545C132.025 142.62 131.82 142.64 131.623 142.602C131.425 142.563 131.243 142.468 131.101 142.329C130.958 142.189 130.861 142.012 130.822 141.818C130.782 141.625 130.803 141.425 130.88 141.243C130.957 141.06 131.088 140.905 131.255 140.795C131.423 140.686 131.62 140.627 131.822 140.627C132.092 140.627 132.351 140.732 132.542 140.919C132.734 141.106 132.841 141.36 132.841 141.624Z" fill="#FC8759"/>
<path d="M131.754 142.24C131.661 142.238 131.572 142.207 131.499 142.151C131.426 142.095 131.374 142.017 131.351 141.93C131.32 141.847 131.32 141.756 131.349 141.673C131.378 141.59 131.435 141.519 131.511 141.471C131.589 141.421 131.68 141.395 131.773 141.395C131.866 141.395 131.957 141.421 132.036 141.471C131.998 141.374 131.928 141.293 131.837 141.242C131.696 141.18 131.537 141.171 131.39 141.217C131.382 141.22 131.373 141.219 131.365 141.215C131.358 141.211 131.352 141.205 131.349 141.197C131.348 141.193 131.347 141.189 131.347 141.185C131.347 141.18 131.348 141.176 131.35 141.173C131.352 141.169 131.355 141.165 131.358 141.163C131.362 141.16 131.365 141.158 131.37 141.157C131.533 141.105 131.711 141.116 131.867 141.187C131.935 141.226 131.994 141.278 132.039 141.34C132.084 141.403 132.116 141.474 132.131 141.549L132.16 141.66L132.076 141.579C132.007 141.513 131.917 141.471 131.821 141.46C131.725 141.449 131.628 141.469 131.545 141.518C131.482 141.558 131.435 141.618 131.411 141.688C131.387 141.758 131.387 141.833 131.412 141.903C131.431 141.977 131.475 142.044 131.536 142.092C131.598 142.14 131.673 142.167 131.752 142.169C131.76 142.169 131.769 142.173 131.775 142.178C131.781 142.184 131.785 142.192 131.786 142.2C131.785 142.209 131.782 142.216 131.776 142.222C131.77 142.228 131.762 142.232 131.754 142.232V142.24Z" fill="#FB554B"/>
<path d="M134.331 140.984C134.331 141.025 134.319 141.064 134.297 141.098C134.274 141.131 134.242 141.157 134.204 141.173C134.166 141.188 134.125 141.193 134.084 141.185C134.044 141.177 134.007 141.158 133.978 141.13C133.949 141.102 133.929 141.066 133.92 141.026C133.912 140.987 133.916 140.946 133.932 140.909C133.948 140.872 133.974 140.84 134.008 140.818C134.042 140.795 134.083 140.783 134.124 140.783C134.151 140.783 134.178 140.788 134.203 140.798C134.228 140.808 134.251 140.823 134.27 140.842C134.289 140.86 134.305 140.883 134.315 140.907C134.326 140.932 134.331 140.958 134.331 140.984Z" fill="#010103"/>
<path d="M136.468 141.013C136.468 141.066 136.49 141.118 136.529 141.156C136.568 141.194 136.621 141.215 136.676 141.215C136.731 141.215 136.783 141.194 136.822 141.156C136.861 141.118 136.883 141.066 136.883 141.013C136.883 140.959 136.861 140.907 136.822 140.869C136.783 140.831 136.731 140.81 136.676 140.81C136.621 140.81 136.568 140.831 136.529 140.869C136.49 140.907 136.468 140.959 136.468 141.013Z" fill="#010103"/>
<path d="M137.53 140.657C137.49 140.657 137.451 140.643 137.42 140.617C136.934 140.219 136.23 140.451 136.23 140.451C136.19 140.46 136.147 140.455 136.11 140.435C136.073 140.415 136.045 140.382 136.031 140.344C136.018 140.305 136.019 140.262 136.035 140.225C136.052 140.187 136.082 140.156 136.12 140.139C136.156 140.126 137.007 139.848 137.649 140.368C137.683 140.396 137.704 140.437 137.708 140.48C137.712 140.524 137.698 140.567 137.67 140.601C137.652 140.62 137.631 140.635 137.607 140.645C137.582 140.655 137.556 140.659 137.53 140.657Z" fill="#2D0F28"/>
<path d="M133.307 140.662C133.272 140.662 133.238 140.651 133.21 140.632C133.182 140.612 133.16 140.585 133.149 140.553C133.137 140.521 133.135 140.486 133.144 140.454C133.153 140.421 133.172 140.392 133.198 140.37C133.84 139.856 134.688 140.147 134.727 140.16C134.751 140.165 134.774 140.175 134.794 140.189C134.813 140.203 134.83 140.221 134.842 140.241C134.854 140.262 134.861 140.285 134.863 140.309C134.866 140.333 134.862 140.357 134.854 140.38C134.846 140.402 134.833 140.423 134.815 140.44C134.798 140.457 134.778 140.47 134.755 140.479C134.732 140.487 134.707 140.491 134.683 140.489C134.658 140.488 134.635 140.481 134.613 140.469C134.613 140.469 133.908 140.232 133.424 140.624C133.391 140.651 133.349 140.664 133.307 140.662Z" fill="#2D0F28"/>
<path d="M134.815 143.127C134.834 143.127 136.069 143.091 136.069 143.091C136.069 143.091 135.916 143.589 135.457 143.604C134.999 143.619 134.815 143.127 134.815 143.127Z" fill="#FBFDFA"/>
<path d="M138.375 136.941C137.67 135.687 132.99 135.102 131.98 136.896C131.762 137.281 131.796 140.423 131.961 140.68C132.094 140.854 132.28 140.982 132.493 141.046C132.493 141.046 132.523 138.494 132.676 138.159C132.829 137.823 133.721 137.142 134.384 137.703C134.723 137.999 134.98 138.036 135.141 138.019C135.298 138.066 135.568 138.056 135.964 137.725C136.632 137.168 137.517 137.86 137.663 138.197C137.809 138.534 137.816 141.086 137.816 141.086C138.029 141.024 138.217 140.897 138.353 140.725C138.523 140.468 138.589 137.326 138.375 136.941Z" fill="#35282A"/>
<path d="M135.855 142.196C135.862 142.195 135.868 142.193 135.873 142.188C135.878 142.184 135.882 142.179 135.884 142.172C135.885 142.168 135.885 142.164 135.884 142.16C135.884 142.156 135.882 142.152 135.88 142.149C135.878 142.146 135.875 142.143 135.871 142.14C135.868 142.138 135.864 142.137 135.86 142.136L135.221 141.983L135.301 140.533C135.301 140.529 135.301 140.524 135.299 140.521C135.298 140.517 135.296 140.513 135.293 140.51C135.29 140.507 135.286 140.505 135.283 140.503C135.279 140.502 135.275 140.501 135.271 140.501C135.267 140.501 135.263 140.501 135.259 140.503C135.255 140.504 135.251 140.506 135.248 140.509C135.245 140.511 135.243 140.514 135.241 140.518C135.239 140.522 135.239 140.525 135.238 140.529L135.157 142.024L135.847 142.191L135.855 142.196Z" fill="#FB554B"/>
<path d="M136.866 143.179C136.862 142.991 136.797 142.808 136.679 142.659C136.562 142.51 136.399 142.401 136.214 142.348C135.823 142.267 135.421 142.25 135.024 142.297C133.41 142.224 133.986 145.354 135.145 145.495C136.898 145.716 136.89 144.304 136.866 143.179ZM134.567 142.948C134.684 142.719 135.682 142.647 136.191 142.813C136.264 142.837 136.327 142.881 136.373 142.941C136.42 143 136.447 143.071 136.451 143.146C136.487 143.742 136.112 144.918 135.636 143.848L135.318 143.858C134.888 145.3 134.314 143.315 134.567 142.948Z" fill="#2D0F28"/>
<path d="M124.774 13.1965C124.773 13.432 124.702 13.6621 124.568 13.8578C124.434 14.0534 124.243 14.2059 124.021 14.2958C123.798 14.3857 123.553 14.409 123.317 14.3629C123.081 14.3167 122.864 14.2031 122.694 14.0365C122.523 13.8698 122.408 13.6576 122.361 13.4266C122.314 13.1956 122.338 12.9562 122.43 12.7386C122.523 12.521 122.679 12.3351 122.879 12.2043C123.079 12.0735 123.315 12.0037 123.556 12.0037C123.716 12.0037 123.874 12.0345 124.022 12.0945C124.17 12.1545 124.304 12.2424 124.418 12.3531C124.531 12.4639 124.62 12.5954 124.682 12.7401C124.743 12.8848 124.774 13.0399 124.774 13.1965Z" fill="#FFFFFD"/>
<path d="M128.544 13.1965C128.544 13.432 128.472 13.6621 128.338 13.8578C128.204 14.0534 128.014 14.2059 127.791 14.2958C127.568 14.3857 127.323 14.409 127.087 14.3629C126.851 14.3167 126.634 14.2031 126.464 14.0365C126.294 13.8698 126.178 13.6576 126.131 13.4266C126.084 13.1956 126.108 12.9562 126.201 12.7386C126.293 12.521 126.449 12.3351 126.649 12.2043C126.85 12.0735 127.085 12.0037 127.326 12.0037C127.486 12.0037 127.645 12.0345 127.792 12.0945C127.94 12.1545 128.075 12.2424 128.188 12.3531C128.301 12.4639 128.391 12.5954 128.452 12.7401C128.513 12.8848 128.544 13.0399 128.544 13.1965Z" fill="#FFFFFD"/>
<path d="M132.316 13.1965C132.316 13.4324 132.244 13.663 132.11 13.8592C131.976 14.0553 131.786 14.2082 131.563 14.2985C131.34 14.3888 131.095 14.4124 130.858 14.3664C130.621 14.3203 130.404 14.2067 130.233 14.0399C130.063 13.8731 129.947 13.6606 129.9 13.4292C129.852 13.1978 129.877 12.958 129.969 12.74C130.061 12.522 130.218 12.3358 130.418 12.2047C130.619 12.0736 130.855 12.0037 131.096 12.0037C131.42 12.0037 131.73 12.1293 131.959 12.353C132.187 12.5767 132.316 12.8801 132.316 13.1965Z" fill="#FFFFFD"/>
<path d="M190.015 11.0518V11.9007H189.523V13.3609H190.015V14.3876H199.596V11.0518H190.015ZM199.268 14.1152H190.343V11.3242H199.268V14.1152Z" fill="#FFFFFD"/>
<path d="M198.725 11.7579H197.778V13.6651H198.725V11.7579Z" fill="#FFFFFD"/>
<path d="M197.138 11.7579H196.191V13.6651H197.138V11.7579Z" fill="#FFFFFD"/>
<path d="M195.507 11.7579H194.56V13.6651H195.507V11.7579Z" fill="#FFFFFD"/>
<path opacity="0.5" d="M194.224 165.003H129.49C128.672 165.022 127.894 165.353 127.322 165.925C126.751 166.497 126.43 167.266 126.43 168.066C126.43 168.866 126.751 169.634 127.322 170.207C127.894 170.779 128.672 171.11 129.49 171.128H194.224C194.641 171.138 195.057 171.066 195.445 170.916C195.834 170.766 196.188 170.542 196.486 170.257C196.785 169.972 197.022 169.631 197.184 169.255C197.347 168.878 197.43 168.474 197.43 168.066C197.43 167.658 197.347 167.253 197.184 166.877C197.022 166.501 196.785 166.16 196.486 165.875C196.188 165.589 195.834 165.365 195.445 165.216C195.057 165.066 194.641 164.994 194.224 165.003Z" fill="white"/>
<path d="M166.611 157.627C166.617 157.641 166.624 157.655 166.633 157.668C166.633 157.654 166.616 157.642 166.609 157.629L166.611 157.627Z" fill="#F07162"/>
<path d="M176.155 1.90295H147.424C145.074 1.90295 143.17 3.81095 143.17 6.16458V6.83651C143.17 9.19014 145.074 11.0981 147.424 11.0981H176.155C178.505 11.0981 180.41 9.19014 180.41 6.83651V6.16458C180.41 3.81095 178.505 1.90295 176.155 1.90295Z" fill="#0C5137"/>
</svg>
