<svg width="343" height="355" viewBox="0 0 343 355" fill="none" xmlns="http://www.w3.org/2000/svg">
<g opacity="0.7">
<path d="M342.688 91.8567L342.341 236.558L214.323 162.37L214.67 17.6741L342.688 91.8567Z" fill="white"/>
</g>
<g opacity="0.9">
<path d="M294.24 80.8238V102.602L225.044 62.6048V40.8319L294.24 80.8238Z" fill="white"/>
</g>
<g opacity="0.5">
<path d="M267.947 70.9147V73.7787L228.094 50.7201V47.8561L267.947 70.9147Z" fill="#565656"/>
</g>
<g opacity="0.5">
<path d="M281.876 87.0484V89.9124L228.094 58.8262V55.9622L281.876 87.0484Z" fill="#565656"/>
</g>
<g opacity="0.9">
<path d="M294.24 122.54V135.627L225.044 95.6353V82.5433L294.24 122.54Z" fill="white"/>
</g>
<g opacity="0.5">
<path d="M267.947 112.046V114.91L228.094 91.8514V88.9926L267.947 112.046Z" fill="#565656"/>
</g>
<g opacity="0.9">
<path d="M276.747 136.918V154.641L225.044 124.6V106.882L276.747 136.918Z" fill="white"/>
</g>
<g opacity="0.5">
<path d="M256.775 135.789V138.653L228.094 121.981V119.117L256.775 135.789Z" fill="#565656"/>
</g>
<g opacity="0.5">
<path d="M266.273 134.781V137.645L228.094 115.464V112.6L266.273 134.781Z" fill="#565656"/>
</g>
<g opacity="0.9">
<path d="M290.801 175.703V193.42L225.044 155.247V137.524L290.801 175.703Z" fill="white"/>
</g>
<g opacity="0.5">
<path d="M256.775 166.431V169.295L228.094 152.623V149.764L256.775 166.431Z" fill="#565656"/>
</g>
<g opacity="0.5">
<path d="M278.505 172.468V175.332L228.094 146.106V143.242L278.505 172.468Z" fill="#565656"/>
</g>
<g opacity="0.11">
<path d="M324.302 114.863C325.179 115.359 325.184 116.269 324.218 116.828L316.563 121.229C316.018 121.504 315.414 121.648 314.802 121.648C314.19 121.648 313.586 121.504 313.04 121.229L306.52 117.424C305.543 116.859 305.543 115.95 306.52 115.391L314.175 110.99C314.738 110.709 315.361 110.568 315.991 110.579C316.621 110.59 317.239 110.752 317.792 111.053L324.302 114.863Z" fill="#241E20"/>
</g>
<path d="M326.05 91.0048L317.682 86.1652C317.737 86.1313 317.8 86.1099 317.865 86.1025C317.919 86.0966 317.974 86.1056 318.023 86.1286L326.391 90.9734C326.343 90.9472 326.288 90.9362 326.234 90.942C326.169 90.9494 326.106 90.9708 326.05 91.0048Z" fill="#91B75F"/>
<path d="M325.604 91.6005L317.256 86.761C317.33 86.5161 317.488 86.3051 317.703 86.1652L326.071 91.0048C325.856 91.1447 325.698 91.3557 325.625 91.6005H325.604Z" fill="#91B75F"/>
<path d="M314.978 99.0638L314.138 98.583C313.989 98.4683 313.833 98.3636 313.671 98.2694L314.511 98.7555C314.673 98.8478 314.827 98.9527 314.973 99.069L314.978 99.0638Z" fill="#6A6A6A"/>
<path d="M310.573 105.267L309.738 104.787C309.843 104.849 309.956 104.896 310.074 104.928L310.914 105.409C310.794 105.378 310.679 105.33 310.573 105.267Z" fill="#6A6A6A"/>
<path d="M311.602 98.6091L310.767 98.123C311.257 97.8378 311.814 97.6875 312.382 97.6875C312.949 97.6875 313.506 97.8378 313.996 98.123L314.831 98.6091C314.341 98.3228 313.784 98.1719 313.216 98.1719C312.649 98.1719 312.091 98.3228 311.602 98.6091Z" fill="#6A6A6A"/>
<path d="M310.431 105.513L309.596 105.032C308.473 104.384 307.885 102.095 309.008 100.046C309.413 99.2458 310.03 98.5714 310.794 98.0969L311.628 98.583C310.865 99.0565 310.249 99.7313 309.849 100.532C308.725 102.581 309.323 104.87 310.431 105.513Z" fill="#6A6A6A"/>
<path d="M311.602 98.609C312.156 98.2882 312.794 98.1406 313.434 98.1853C314.073 98.2301 314.684 98.4651 315.188 98.8599C315.235 98.8965 315.125 99.0324 315.041 99.0794C315.03 99.0854 315.019 99.0885 315.007 99.0885C314.995 99.0885 314.983 99.0854 314.973 99.0794C314.634 98.7841 314.231 98.5718 313.795 98.4592C313.359 98.3467 312.903 98.3372 312.463 98.4313C312.182 98.5022 311.914 98.6131 311.665 98.7606C311.167 99.0515 310.732 99.4385 310.386 99.8989C310.039 100.359 309.789 100.884 309.649 101.442C309.208 103.281 309.722 105.1 310.914 105.424C310.993 105.424 310.867 105.607 310.783 105.654H310.731C309.413 105.299 308.594 102.774 309.822 100.532C310.227 99.7408 310.843 99.0754 311.602 98.609Z" fill="#525252"/>
<path d="M321.913 105.722L313.545 100.877C313.839 99.1265 314.306 96.4088 314.595 95.2433C314.883 93.9681 317.146 87.1216 317.262 86.761L325.63 91.6006C325.515 91.9612 323.252 98.8077 322.963 100.083C322.695 101.254 322.233 103.966 321.913 105.722Z" fill="#91B75F"/>
<path d="M326.05 91.0047C326.106 90.9708 326.169 90.9494 326.234 90.942C326.481 90.9159 326.596 91.172 326.496 91.5117C326.397 91.8514 324.885 97.8774 323.94 100.041C323.567 101.776 323.089 106.527 323.063 106.778C322.906 107.137 322.647 107.442 322.317 107.656C322.281 107.676 322.242 107.692 322.202 107.703C321.945 107.776 321.54 107.666 321.603 107.337C321.556 107.337 321.603 107.253 321.603 107.18C321.734 106.684 321.803 106.173 321.808 105.659C322.286 103.919 322.648 101.254 322.916 100.083C323.205 98.8077 325.467 91.9612 325.583 91.6005C325.662 91.3525 325.828 91.141 326.05 91.0047Z" fill="#597231"/>
<path d="M320.123 106.773C320.112 106.771 320.101 106.768 320.091 106.762C320.082 106.757 320.073 106.75 320.066 106.741C320.059 106.732 320.054 106.722 320.052 106.711C320.049 106.701 320.048 106.69 320.049 106.679V106.569C320.086 106.175 320.058 105.778 319.965 105.393C319.965 105.33 319.965 105.273 319.965 105.226V105.199C320.532 101.818 320.758 101.018 321.215 99.7798C321.551 98.8495 322.942 94.381 323.609 92.2382C323.835 91.5065 323.987 91.0257 324.013 90.942C324.054 90.7892 324.125 90.6461 324.222 90.5213C324.32 90.3965 324.441 90.2925 324.58 90.2156C324.72 90.1528 324.874 90.1293 325.026 90.1476L325.315 90.179C325.337 90.1775 325.358 90.1843 325.374 90.1979C325.391 90.2115 325.402 90.2309 325.404 90.2522C325.406 90.2632 325.405 90.2743 325.402 90.285C325.399 90.2958 325.394 90.3058 325.387 90.3145C325.381 90.3233 325.372 90.3306 325.362 90.336C325.353 90.3415 325.342 90.345 325.331 90.3462L325.021 90.3201C324.899 90.3038 324.774 90.3181 324.659 90.3619C324.54 90.429 324.436 90.519 324.354 90.6267C324.271 90.7345 324.21 90.8577 324.176 90.9891C324.144 91.0779 323.987 91.5849 323.772 92.2852C323.052 94.6005 321.714 98.907 321.372 99.8373C320.921 101.076 320.695 101.86 320.133 105.21C320.133 105.257 320.133 105.309 320.133 105.362C320.23 105.767 320.257 106.186 320.212 106.6V106.699C320.209 106.721 320.199 106.74 320.182 106.754C320.166 106.767 320.144 106.774 320.123 106.773Z" fill="#597231"/>
<path d="M321.666 106.255V106.224L321.425 106.114C321.75 104.165 322.296 101.525 322.554 100.365C322.837 99.1212 325.011 92.6458 325.257 91.9089C325.341 91.6214 325.74 90.6232 326.397 90.9473C326.427 90.9687 326.453 90.9959 326.473 91.0273C326.493 91.0587 326.506 91.0936 326.512 91.1302H326.202C326.166 91.1302 326.05 91.1929 325.851 91.5169C325.745 91.7135 325.659 91.9201 325.594 92.1336C325.347 92.881 323.304 99.3982 323.021 100.626C322.737 101.855 322.296 104.008 321.829 105.612C321.861 105.926 321.703 106.48 321.666 106.255Z" fill="#597231"/>
<path d="M315.104 103.558C315.093 103.557 315.082 103.554 315.072 103.548C315.063 103.543 315.054 103.535 315.047 103.527C315.04 103.518 315.035 103.508 315.033 103.497C315.03 103.486 315.029 103.475 315.03 103.464V103.355C315.057 103.229 315.093 103.083 315.135 102.926C315.247 102.608 315.308 102.275 315.314 101.938V101.907C315.619 100.437 315.834 98.9499 315.96 97.454L315.991 97.1247C316.038 96.7171 317.214 92.9437 317.566 91.935C317.918 90.9263 318.48 89.2069 318.779 88.2766L318.947 87.7539C319.027 87.4914 319.199 87.2656 319.43 87.1163C319.498 87.0765 319.573 87.0499 319.65 87.0379C319.673 87.0364 319.696 87.0437 319.713 87.0583C319.731 87.0729 319.742 87.0937 319.745 87.1163C319.746 87.1273 319.744 87.1383 319.741 87.1487C319.737 87.1591 319.731 87.1688 319.724 87.177C319.717 87.1853 319.708 87.192 319.698 87.1968C319.688 87.2017 319.677 87.2045 319.666 87.2052C319.613 87.2168 319.562 87.2362 319.514 87.2627C319.323 87.3856 319.18 87.5701 319.11 87.7853C319.083 87.8689 319.026 88.0571 318.942 88.3079C318.637 89.2643 318.075 91.0361 317.729 91.9977C317.382 92.9594 316.154 96.7589 316.154 97.1509L316.122 97.4801C315.995 98.9772 315.781 100.466 315.482 101.938C315.475 102.294 315.413 102.647 315.298 102.983C315.256 103.135 315.214 103.276 315.193 103.391V103.496C315.188 103.515 315.176 103.532 315.16 103.543C315.144 103.555 315.124 103.56 315.104 103.558Z" fill="#597231"/>
<path d="M313.056 112.344L312.337 111.921C312.337 111.921 312.337 111.921 312.337 111.894C312.351 111.795 312.337 111.694 312.297 111.602C312.258 111.51 312.193 111.43 312.111 111.372L312.83 111.795C312.912 111.854 312.976 111.933 313.016 112.025C313.056 112.117 313.07 112.218 313.056 112.318C313.054 112.322 313.053 112.326 313.053 112.331C313.053 112.335 313.054 112.34 313.056 112.344Z" fill="#464646"/>
<mask id="mask0_24_1502" style="mask-type:luminance" maskUnits="userSpaceOnUse" x="312" y="111" width="2" height="2">
<path d="M313.056 112.344L312.337 111.921C312.337 111.921 312.337 111.921 312.337 111.894C312.351 111.795 312.337 111.694 312.297 111.602C312.258 111.51 312.193 111.43 312.111 111.372L312.83 111.795C312.912 111.854 312.976 111.933 313.016 112.025C313.056 112.117 313.07 112.218 313.056 112.318C313.054 112.322 313.053 112.326 313.053 112.331C313.053 112.335 313.054 112.34 313.056 112.344Z" fill="white"/>
</mask>
<g mask="url(#mask0_24_1502)">
<path d="M313.056 112.344L312.337 111.921C312.337 111.921 312.337 111.921 312.337 111.894C312.351 111.795 312.337 111.694 312.297 111.602C312.258 111.51 312.193 111.43 312.111 111.372L312.83 111.795C312.912 111.854 312.976 111.933 313.016 112.025C313.056 112.117 313.07 112.218 313.056 112.318C313.053 112.323 313.052 112.328 313.052 112.333C313.052 112.339 313.053 112.344 313.056 112.349V112.344Z" fill="#464646"/>
</g>
<path d="M312.316 111.988L311.597 111.565C311.667 111.514 311.75 111.483 311.837 111.475C311.924 111.466 312.011 111.481 312.09 111.518L312.81 111.941C312.731 111.902 312.643 111.886 312.556 111.894C312.469 111.903 312.386 111.935 312.316 111.988Z" fill="#5B5B5B"/>
<path d="M311.828 113.64L311.103 113.217C311.034 113.166 310.979 113.099 310.944 113.021C310.909 112.943 310.895 112.857 310.904 112.772C310.918 112.532 310.988 112.298 311.108 112.088C311.229 111.879 311.396 111.7 311.597 111.565L312.316 111.989C312.114 112.121 311.945 112.298 311.825 112.507C311.705 112.716 311.635 112.95 311.623 113.191C311.614 113.277 311.629 113.364 311.665 113.443C311.701 113.522 311.757 113.59 311.828 113.64Z" fill="#5B5B5B"/>
<path d="M312.316 111.988C312.699 111.764 313.009 111.947 313.009 112.386C312.999 112.626 312.931 112.861 312.811 113.07C312.692 113.279 312.524 113.456 312.321 113.588C311.938 113.812 311.623 113.635 311.623 113.191C311.635 112.95 311.705 112.716 311.825 112.507C311.945 112.298 312.114 112.12 312.316 111.988Z" fill="#464646"/>
<path d="M312.127 111.278C312.028 111.231 311.918 111.212 311.809 111.223C311.699 111.234 311.595 111.275 311.507 111.34C311.252 111.506 311.039 111.73 310.888 111.993C310.736 112.257 310.65 112.553 310.636 112.856C310.636 112.856 310.636 112.882 310.636 112.887L311.355 113.306C311.351 113.295 311.351 113.284 311.355 113.274C311.372 112.971 311.459 112.677 311.61 112.413C311.762 112.15 311.973 111.926 312.227 111.759C312.316 111.694 312.421 111.654 312.531 111.643C312.64 111.632 312.751 111.65 312.852 111.696L312.127 111.278Z" fill="#5B5B5B"/>
<path d="M312.227 111.759C312.71 111.476 313.104 111.706 313.104 112.281C313.103 112.297 313.099 112.312 313.091 112.325C313.084 112.339 313.074 112.35 313.062 112.36H313.014C313.027 112.26 313.012 112.158 312.972 112.066C312.931 111.974 312.866 111.895 312.783 111.837C312.694 111.797 312.595 111.782 312.497 111.792C312.4 111.802 312.306 111.837 312.227 111.894C311.997 112.043 311.807 112.243 311.671 112.48C311.535 112.716 311.457 112.981 311.444 113.253C311.444 113.269 311.44 113.285 311.432 113.299C311.423 113.313 311.412 113.324 311.397 113.332C311.397 113.332 311.355 113.332 311.355 113.306C311.367 112.997 311.452 112.696 311.603 112.427C311.755 112.158 311.969 111.929 312.227 111.759Z" fill="#464646"/>
<path d="M321.383 112.908L320.658 112.49C320.654 112.48 320.654 112.469 320.658 112.459C320.672 112.36 320.658 112.259 320.618 112.167C320.578 112.075 320.514 111.995 320.433 111.936L321.152 112.354C321.233 112.413 321.297 112.493 321.337 112.585C321.376 112.677 321.39 112.778 321.378 112.877C321.375 112.882 321.374 112.888 321.375 112.894C321.376 112.899 321.379 112.904 321.383 112.908Z" fill="#464646"/>
<mask id="mask1_24_1502" style="mask-type:luminance" maskUnits="userSpaceOnUse" x="320" y="111" width="2" height="2">
<path d="M321.383 112.908L320.658 112.49C320.654 112.48 320.654 112.469 320.658 112.459C320.672 112.36 320.658 112.259 320.618 112.167C320.578 112.075 320.514 111.995 320.433 111.936L321.152 112.354C321.233 112.413 321.297 112.493 321.337 112.585C321.376 112.677 321.39 112.778 321.378 112.877C321.375 112.882 321.374 112.888 321.375 112.894C321.376 112.899 321.379 112.904 321.383 112.908Z" fill="white"/>
</mask>
<g mask="url(#mask1_24_1502)">
<path d="M321.383 112.908L320.658 112.49C320.654 112.48 320.654 112.469 320.658 112.459C320.672 112.36 320.658 112.259 320.618 112.167C320.578 112.075 320.514 111.995 320.433 111.936L321.152 112.354C321.233 112.413 321.297 112.493 321.337 112.585C321.376 112.677 321.39 112.778 321.378 112.877C321.375 112.881 321.374 112.886 321.374 112.89C321.374 112.895 321.375 112.899 321.378 112.903L321.383 112.908Z" fill="#464646"/>
</g>
<path d="M320.669 112.553L319.95 112.135C320.019 112.082 320.102 112.05 320.189 112.041C320.276 112.032 320.364 112.046 320.443 112.083L321.162 112.506C321.083 112.469 320.996 112.454 320.909 112.462C320.822 112.471 320.739 112.502 320.669 112.553Z" fill="#5B5B5B"/>
<path d="M320.175 114.205L319.456 113.786C319.388 113.734 319.335 113.665 319.3 113.586C319.265 113.508 319.25 113.422 319.257 113.337C319.268 113.096 319.337 112.861 319.457 112.652C319.578 112.443 319.746 112.266 319.95 112.135L320.669 112.553C320.469 112.687 320.302 112.865 320.182 113.074C320.062 113.282 319.991 113.515 319.976 113.755C319.97 113.841 319.985 113.926 320.019 114.005C320.054 114.083 320.108 114.152 320.175 114.205Z" fill="#5B5B5B"/>
<path d="M320.669 112.553C321.052 112.333 321.362 112.511 321.362 112.955C321.35 113.195 321.282 113.43 321.163 113.638C321.043 113.847 320.876 114.025 320.674 114.157C320.291 114.377 319.976 114.199 319.976 113.755C319.991 113.515 320.062 113.282 320.182 113.074C320.302 112.865 320.469 112.687 320.669 112.553Z" fill="#464646"/>
<path d="M320.485 111.842C320.385 111.797 320.274 111.779 320.164 111.79C320.055 111.801 319.95 111.84 319.86 111.905C319.606 112.071 319.394 112.295 319.242 112.559C319.091 112.822 319.004 113.117 318.989 113.42C318.985 113.43 318.985 113.442 318.989 113.452L319.708 113.87C319.705 113.861 319.705 113.852 319.708 113.844C319.723 113.54 319.81 113.244 319.961 112.98C320.112 112.715 320.324 112.49 320.58 112.323C320.669 112.258 320.774 112.218 320.884 112.208C320.994 112.198 321.105 112.218 321.204 112.265L320.485 111.842Z" fill="#5B5B5B"/>
<path d="M320.58 112.323C321.063 112.046 321.456 112.271 321.456 112.846C321.456 112.86 321.451 112.874 321.444 112.887C321.437 112.9 321.427 112.911 321.414 112.919H321.367C321.385 112.821 321.373 112.72 321.331 112.63C321.29 112.54 321.221 112.464 321.135 112.415C321.048 112.365 320.949 112.343 320.849 112.352C320.75 112.36 320.656 112.4 320.58 112.464C320.347 112.611 320.156 112.814 320.023 113.055C319.885 113.29 319.808 113.556 319.797 113.828C319.796 113.843 319.792 113.858 319.784 113.872C319.777 113.885 319.767 113.897 319.755 113.907C319.755 113.907 319.708 113.907 319.708 113.88C319.717 113.57 319.801 113.267 319.953 112.996C320.105 112.725 320.32 112.494 320.58 112.323Z" fill="#464646"/>
<path d="M315.477 119.18L314.757 118.757C314.755 118.753 314.754 118.748 314.754 118.743C314.754 118.739 314.755 118.734 314.757 118.73C314.771 118.631 314.758 118.53 314.718 118.438C314.678 118.346 314.614 118.266 314.532 118.208L315.251 118.631C315.335 118.687 315.401 118.766 315.441 118.859C315.481 118.952 315.494 119.054 315.477 119.154C315.475 119.158 315.474 119.162 315.474 119.167C315.474 119.171 315.475 119.176 315.477 119.18Z" fill="#464646"/>
<mask id="mask2_24_1502" style="mask-type:luminance" maskUnits="userSpaceOnUse" x="314" y="118" width="2" height="2">
<path d="M315.477 119.18L314.757 118.757C314.755 118.753 314.754 118.748 314.754 118.743C314.754 118.739 314.755 118.734 314.757 118.73C314.771 118.631 314.758 118.53 314.718 118.438C314.678 118.346 314.614 118.266 314.532 118.208L315.251 118.631C315.335 118.687 315.401 118.766 315.441 118.859C315.481 118.952 315.494 119.054 315.477 119.154C315.475 119.158 315.474 119.162 315.474 119.167C315.474 119.171 315.475 119.176 315.477 119.18Z" fill="white"/>
</mask>
<g mask="url(#mask2_24_1502)">
<path d="M315.477 119.18L314.757 118.757C314.755 118.753 314.754 118.748 314.754 118.743C314.754 118.739 314.755 118.734 314.757 118.73C314.771 118.631 314.758 118.53 314.718 118.438C314.678 118.346 314.614 118.266 314.532 118.208L315.251 118.631C315.335 118.687 315.401 118.766 315.441 118.859C315.481 118.952 315.494 119.054 315.477 119.154C315.474 119.158 315.472 119.164 315.472 119.169C315.472 119.175 315.474 119.18 315.477 119.185V119.18Z" fill="#464646"/>
</g>
<path d="M314.763 118.825L314.043 118.401C314.114 118.35 314.197 118.319 314.284 118.311C314.37 118.302 314.458 118.317 314.537 118.354L315.256 118.772C315.177 118.736 315.089 118.721 315.002 118.73C314.915 118.74 314.832 118.772 314.763 118.825Z" fill="#5B5B5B"/>
<path d="M314.274 120.476L313.581 120.037C313.51 119.988 313.454 119.921 313.418 119.843C313.382 119.765 313.368 119.678 313.376 119.593C313.391 119.352 313.461 119.118 313.581 118.908C313.701 118.699 313.868 118.52 314.069 118.385L314.789 118.809C314.586 118.941 314.418 119.118 314.298 119.327C314.177 119.536 314.108 119.77 314.096 120.011C314.087 120.097 314.101 120.184 314.137 120.263C314.173 120.342 314.23 120.41 314.3 120.46L314.274 120.476Z" fill="#5B5B5B"/>
<path d="M314.763 118.824C315.146 118.6 315.461 118.777 315.461 119.222C315.448 119.462 315.379 119.696 315.259 119.905C315.138 120.114 314.97 120.292 314.768 120.424C314.385 120.648 314.075 120.471 314.07 120.027C314.082 119.786 314.151 119.552 314.272 119.343C314.392 119.134 314.56 118.956 314.763 118.824Z" fill="#464646"/>
<path d="M314.579 118.114C314.479 118.067 314.368 118.049 314.258 118.06C314.148 118.071 314.043 118.111 313.954 118.176C313.699 118.343 313.488 118.567 313.336 118.83C313.185 119.094 313.098 119.389 313.083 119.692V119.718L313.802 120.142C313.799 120.137 313.798 120.131 313.798 120.126C313.798 120.12 313.799 120.115 313.802 120.11C313.818 119.807 313.906 119.513 314.057 119.249C314.208 118.986 314.419 118.762 314.673 118.595C314.762 118.529 314.867 118.489 314.977 118.478C315.087 118.467 315.198 118.485 315.298 118.532L314.579 118.114Z" fill="#5B5B5B"/>
<path d="M314.673 118.595C315.162 118.312 315.55 118.537 315.555 119.117C315.554 119.133 315.549 119.148 315.541 119.162C315.533 119.175 315.521 119.187 315.508 119.196C315.508 119.196 315.461 119.196 315.461 119.169C315.48 119.072 315.468 118.972 315.426 118.882C315.385 118.792 315.317 118.717 315.231 118.667C315.144 118.618 315.045 118.596 314.946 118.606C314.847 118.615 314.754 118.655 314.679 118.72C314.445 118.864 314.253 119.065 314.122 119.305C313.98 119.539 313.903 119.806 313.896 120.079C313.895 120.095 313.89 120.11 313.882 120.124C313.874 120.137 313.863 120.149 313.849 120.157C313.849 120.157 313.802 120.157 313.802 120.131C313.815 119.825 313.901 119.526 314.052 119.259C314.204 118.992 314.417 118.764 314.673 118.595Z" fill="#464646"/>
<path d="M307.743 116.426L308.468 116.002C308.454 115.903 308.467 115.802 308.507 115.71C308.547 115.617 308.611 115.538 308.693 115.48L307.974 115.898C307.893 115.956 307.829 116.036 307.789 116.128C307.749 116.22 307.735 116.321 307.748 116.42C307.747 116.422 307.745 116.424 307.743 116.426Z" fill="#464646"/>
<mask id="mask3_24_1502" style="mask-type:luminance" maskUnits="userSpaceOnUse" x="307" y="115" width="2" height="2">
<path d="M307.743 116.426L308.468 116.002C308.454 115.903 308.467 115.802 308.507 115.71C308.547 115.617 308.611 115.538 308.693 115.48L307.974 115.898C307.893 115.956 307.829 116.036 307.789 116.128C307.749 116.22 307.735 116.321 307.748 116.42C307.747 116.422 307.745 116.424 307.743 116.426Z" fill="white"/>
</mask>
<g mask="url(#mask3_24_1502)">
<path d="M307.743 116.426L308.468 116.002C308.454 115.903 308.467 115.802 308.507 115.71C308.547 115.617 308.611 115.538 308.693 115.48L307.974 115.898C307.893 115.956 307.829 116.036 307.789 116.128C307.749 116.22 307.735 116.321 307.748 116.42C307.751 116.425 307.753 116.431 307.753 116.436C307.753 116.442 307.751 116.447 307.748 116.452L307.743 116.426Z" fill="#464646"/>
</g>
<path d="M308.457 116.07L309.176 115.647C309.106 115.596 309.023 115.565 308.936 115.556C308.849 115.548 308.762 115.563 308.683 115.6L307.964 116.018C308.043 115.981 308.131 115.967 308.218 115.976C308.305 115.985 308.387 116.018 308.457 116.07Z" fill="#5B5B5B"/>
<path d="M308.945 117.717L309.67 117.298C309.739 117.248 309.794 117.181 309.829 117.103C309.864 117.025 309.878 116.939 309.869 116.854C309.855 116.614 309.785 116.379 309.665 116.17C309.545 115.961 309.377 115.782 309.176 115.647L308.457 116.07C308.659 116.202 308.828 116.38 308.948 116.589C309.069 116.798 309.138 117.032 309.15 117.272C309.16 117.358 309.146 117.444 309.11 117.523C309.073 117.601 309.017 117.668 308.945 117.717Z" fill="#5B5B5B"/>
<path d="M308.457 116.07C308.074 115.845 307.764 116.023 307.764 116.467C307.774 116.708 307.842 116.942 307.962 117.151C308.081 117.361 308.249 117.538 308.452 117.669C308.835 117.894 309.15 117.717 309.15 117.272C309.138 117.032 309.069 116.798 308.948 116.589C308.828 116.38 308.66 116.202 308.457 116.07Z" fill="#464646"/>
<path d="M308.641 115.359C308.741 115.313 308.851 115.294 308.961 115.305C309.071 115.315 309.176 115.353 309.266 115.417C309.521 115.584 309.733 115.809 309.884 116.074C310.036 116.338 310.122 116.634 310.137 116.938C310.139 116.942 310.14 116.946 310.14 116.951C310.14 116.955 310.139 116.96 310.137 116.964L309.418 117.387C309.422 117.377 309.422 117.366 309.418 117.356C309.403 117.053 309.316 116.758 309.164 116.494C309.013 116.231 308.801 116.007 308.546 115.84C308.458 115.775 308.353 115.735 308.243 115.723C308.133 115.712 308.022 115.731 307.922 115.778L308.641 115.359Z" fill="#5B5B5B"/>
<path d="M308.546 115.856C308.063 115.574 307.67 115.798 307.67 116.379C307.671 116.394 307.676 116.409 307.683 116.422C307.69 116.435 307.7 116.447 307.712 116.457C307.712 116.457 307.759 116.457 307.759 116.431C307.739 116.333 307.75 116.231 307.791 116.139C307.833 116.048 307.902 115.972 307.989 115.922C308.077 115.872 308.177 115.851 308.277 115.862C308.378 115.873 308.472 115.914 308.546 115.981C308.776 116.13 308.967 116.33 309.103 116.567C309.239 116.803 309.316 117.068 309.329 117.34C309.33 117.356 309.335 117.372 309.343 117.385C309.351 117.399 309.362 117.41 309.376 117.419C309.376 117.419 309.418 117.419 309.418 117.392C309.406 117.086 309.321 116.786 309.169 116.519C309.018 116.252 308.804 116.025 308.546 115.856Z" fill="#464646"/>
<path d="M319.881 117.492L320.601 117.074C320.603 117.07 320.604 117.065 320.604 117.061C320.604 117.056 320.603 117.052 320.601 117.048C320.587 116.948 320.6 116.847 320.64 116.755C320.68 116.663 320.744 116.583 320.826 116.525L320.107 116.943C320.026 117.002 319.961 117.081 319.922 117.173C319.882 117.265 319.868 117.366 319.881 117.466V117.492Z" fill="#464646"/>
<mask id="mask4_24_1502" style="mask-type:luminance" maskUnits="userSpaceOnUse" x="319" y="116" width="2" height="2">
<path d="M319.881 117.492L320.601 117.074C320.603 117.07 320.604 117.065 320.604 117.061C320.604 117.056 320.603 117.052 320.601 117.048C320.587 116.948 320.6 116.847 320.64 116.755C320.68 116.663 320.744 116.583 320.826 116.525L320.107 116.943C320.026 117.002 319.961 117.081 319.922 117.173C319.882 117.265 319.868 117.366 319.881 117.466V117.492Z" fill="white"/>
</mask>
<g mask="url(#mask4_24_1502)">
<path d="M319.881 117.492L320.601 117.074C320.603 117.07 320.604 117.065 320.604 117.061C320.604 117.056 320.603 117.052 320.601 117.048C320.587 116.948 320.6 116.847 320.64 116.755C320.68 116.663 320.744 116.583 320.826 116.525L320.107 116.943C320.026 117.002 319.961 117.081 319.922 117.173C319.882 117.265 319.868 117.366 319.881 117.466V117.492Z" fill="#464646"/>
</g>
<path d="M320.601 117.136L321.32 116.718C321.249 116.667 321.166 116.636 321.08 116.628C320.993 116.62 320.905 116.635 320.826 116.671L320.107 117.089C320.186 117.053 320.274 117.038 320.36 117.046C320.447 117.054 320.53 117.085 320.601 117.136Z" fill="#5B5B5B"/>
<path d="M321.089 118.793L321.808 118.37C321.879 118.32 321.936 118.252 321.972 118.173C322.008 118.094 322.022 118.007 322.013 117.92C321.998 117.681 321.927 117.447 321.807 117.239C321.687 117.031 321.52 116.852 321.32 116.718L320.601 117.137C320.802 117.271 320.969 117.45 321.089 117.659C321.209 117.869 321.279 118.103 321.294 118.344C321.299 118.43 321.284 118.516 321.248 118.594C321.212 118.672 321.158 118.741 321.089 118.793Z" fill="#5B5B5B"/>
<path d="M320.601 117.136C320.217 116.917 319.902 117.095 319.902 117.539C319.915 117.779 319.985 118.013 320.105 118.222C320.225 118.431 320.393 118.609 320.595 118.741C320.979 118.966 321.288 118.783 321.294 118.344C321.279 118.103 321.209 117.869 321.089 117.659C320.969 117.45 320.802 117.271 320.601 117.136Z" fill="#464646"/>
<path d="M320.784 116.431C320.884 116.384 320.995 116.364 321.105 116.374C321.215 116.384 321.32 116.424 321.409 116.488C321.664 116.656 321.875 116.881 322.027 117.146C322.178 117.41 322.265 117.705 322.281 118.009C322.283 118.013 322.284 118.018 322.284 118.022C322.284 118.027 322.283 118.031 322.281 118.035L321.561 118.459C321.564 118.454 321.566 118.448 321.566 118.443C321.566 118.437 321.564 118.432 321.561 118.427C321.546 118.124 321.459 117.829 321.308 117.566C321.156 117.302 320.945 117.078 320.69 116.912C320.601 116.846 320.496 116.806 320.386 116.795C320.276 116.784 320.165 116.802 320.065 116.849L320.784 116.431Z" fill="#5B5B5B"/>
<path d="M320.69 116.901C320.207 116.619 319.813 116.844 319.808 117.424C319.809 117.44 319.814 117.455 319.822 117.468C319.831 117.482 319.842 117.494 319.855 117.502C319.855 117.502 319.897 117.502 319.902 117.476C319.886 117.376 319.899 117.273 319.94 117.181C319.981 117.088 320.048 117.009 320.133 116.954C320.222 116.91 320.321 116.892 320.42 116.902C320.518 116.912 320.612 116.95 320.69 117.011C320.92 117.156 321.11 117.358 321.241 117.596C321.383 117.83 321.461 118.097 321.467 118.37C321.468 118.386 321.473 118.401 321.481 118.415C321.489 118.428 321.501 118.44 321.514 118.448C321.514 118.448 321.561 118.448 321.561 118.422C321.547 118.118 321.46 117.822 321.309 117.558C321.158 117.293 320.945 117.068 320.69 116.901Z" fill="#464646"/>
<path d="M311.896 110.818V111.779C311.878 111.762 311.863 111.741 311.853 111.717C311.843 111.694 311.838 111.669 311.838 111.644V110.682C311.837 110.707 311.841 110.732 311.85 110.755C311.859 110.779 311.873 110.8 311.891 110.818H311.896Z" fill="#6A6A6A"/>
<path d="M320.128 111.346V112.313C320.124 112.356 320.108 112.398 320.082 112.434C320.056 112.47 320.021 112.498 319.981 112.516V111.555C320.022 111.536 320.057 111.506 320.083 111.47C320.108 111.433 320.124 111.39 320.128 111.346Z" fill="#6A6A6A"/>
<path d="M314.437 113.671L314.432 114.638L311.891 111.779L311.896 110.818L314.437 113.671Z" fill="#353535"/>
<path d="M319.981 111.555L319.976 112.516L316.059 114.785L316.065 113.818L319.981 111.555Z" fill="#525252"/>
<path d="M314.6 114.251L314.595 115.213L309.108 115.715L309.113 114.753L314.6 114.251Z" fill="#4D4D4D"/>
<path d="M309.113 114.753V115.715C308.985 115.73 308.855 115.712 308.735 115.663L308.678 115.636C308.611 115.601 308.559 115.544 308.531 115.474C308.529 115.459 308.529 115.443 308.531 115.427V114.461C308.528 114.476 308.528 114.492 308.531 114.508C308.542 114.543 308.561 114.575 308.585 114.603C308.61 114.631 308.639 114.653 308.672 114.67L308.735 114.701C308.856 114.746 308.985 114.764 309.113 114.753Z" fill="#6A6A6A"/>
<path d="M321.304 115.537V116.499C321.302 116.549 321.283 116.596 321.252 116.635V115.668C321.286 115.633 321.307 115.586 321.309 115.537H321.304Z" fill="#6A6A6A"/>
<path d="M320.564 115.799L320.559 116.76L315.603 115.307V114.346L320.564 115.799Z" fill="#404040"/>
<path d="M321.246 115.668V116.635C321.22 116.661 321.19 116.684 321.157 116.703C321.093 116.742 321.022 116.767 320.947 116.776C320.82 116.807 320.686 116.807 320.559 116.776V115.814C320.686 115.846 320.82 115.846 320.947 115.814C321.02 115.8 321.091 115.776 321.157 115.741C321.189 115.721 321.217 115.696 321.241 115.668H321.246Z" fill="#6A6A6A"/>
<path d="M315.603 114.346V115.307L314.752 118.469V117.508L315.603 114.346Z" fill="#434343"/>
<path d="M314.752 117.507V118.469C314.741 118.505 314.722 118.538 314.698 118.567C314.674 118.596 314.644 118.619 314.61 118.636L314.553 118.663C314.432 118.709 314.303 118.727 314.175 118.715C314.075 118.708 313.978 118.679 313.891 118.631L313.844 118.6C313.814 118.58 313.79 118.554 313.773 118.523C313.755 118.492 313.745 118.457 313.744 118.422V117.46C313.746 117.495 313.756 117.528 313.774 117.558C313.791 117.588 313.815 117.614 313.844 117.633L313.896 117.669C313.982 117.716 314.077 117.744 314.175 117.753C314.305 117.763 314.435 117.745 314.558 117.701L314.616 117.669C314.649 117.653 314.678 117.631 314.703 117.603C314.727 117.575 314.746 117.543 314.757 117.507H314.752Z" fill="#6A6A6A"/>
<path d="M321.246 115.668C321.222 115.696 321.194 115.721 321.162 115.741C321.096 115.775 321.026 115.8 320.952 115.814C320.825 115.846 320.691 115.846 320.564 115.814L315.603 114.361L314.752 117.523C314.74 117.558 314.722 117.591 314.698 117.618C314.673 117.646 314.644 117.669 314.61 117.685L314.553 117.717C314.43 117.761 314.299 117.779 314.169 117.769C314.072 117.76 313.977 117.731 313.891 117.685L313.839 117.649C313.804 117.626 313.776 117.594 313.76 117.555C313.744 117.517 313.741 117.475 313.749 117.434L314.6 114.267L309.113 114.79C308.985 114.8 308.856 114.783 308.735 114.738L308.672 114.706C308.639 114.69 308.609 114.667 308.585 114.639C308.561 114.612 308.542 114.579 308.531 114.544C308.522 114.503 308.525 114.46 308.541 114.421C308.557 114.381 308.585 114.348 308.62 114.325L308.667 114.293C308.754 114.245 308.851 114.216 308.951 114.21L314.437 113.687L311.896 110.833C311.791 110.713 311.838 110.577 311.991 110.489C312.031 110.467 312.073 110.45 312.117 110.436C312.313 110.379 312.523 110.4 312.705 110.494C312.743 110.511 312.777 110.536 312.804 110.567L315.34 113.421L319.257 111.158C319.368 111.099 319.491 111.069 319.616 111.069C319.742 111.069 319.865 111.099 319.976 111.158C320.018 111.174 320.054 111.202 320.081 111.238C320.108 111.274 320.124 111.317 320.128 111.361C320.124 111.406 320.108 111.449 320.083 111.485C320.057 111.522 320.022 111.551 319.981 111.57L316.065 113.833L321.021 115.292C321.066 115.305 321.11 115.322 321.152 115.344C321.205 115.371 321.248 115.413 321.278 115.464C321.295 115.497 321.301 115.534 321.295 115.571C321.289 115.607 321.272 115.641 321.246 115.668Z" fill="#5B5B5B"/>
<path d="M316.206 111.529V113.332C316.199 113.415 316.169 113.495 316.12 113.563C316.071 113.631 316.005 113.684 315.928 113.718C315.72 113.824 315.49 113.879 315.256 113.879C315.022 113.879 314.792 113.824 314.584 113.718C314.506 113.684 314.439 113.629 314.389 113.56C314.339 113.492 314.309 113.411 314.301 113.326V111.523C314.309 111.608 314.339 111.688 314.389 111.757C314.439 111.826 314.506 111.881 314.584 111.915C314.792 112.021 315.022 112.076 315.256 112.076C315.49 112.076 315.72 112.021 315.928 111.915C316.005 111.882 316.072 111.828 316.121 111.76C316.17 111.692 316.199 111.612 316.206 111.529Z" fill="#4E4E4E"/>
<path d="M315.918 111.152C315.999 111.181 316.069 111.233 316.118 111.303C316.168 111.373 316.194 111.456 316.194 111.542C316.194 111.627 316.168 111.71 316.118 111.78C316.069 111.85 315.999 111.903 315.918 111.931C315.709 112.036 315.479 112.092 315.246 112.092C315.012 112.092 314.782 112.036 314.574 111.931C314.493 111.903 314.423 111.85 314.373 111.78C314.323 111.71 314.297 111.627 314.297 111.542C314.297 111.456 314.323 111.373 314.373 111.303C314.423 111.233 314.493 111.181 314.574 111.152C314.782 111.047 315.012 110.993 315.246 110.993C315.479 110.993 315.709 111.047 315.918 111.152Z" fill="#3D3B3B"/>
<path d="M315.849 109.192V111.252C315.844 111.305 315.825 111.355 315.794 111.399C315.762 111.442 315.72 111.476 315.671 111.497C315.538 111.564 315.392 111.599 315.243 111.599C315.094 111.599 314.948 111.564 314.815 111.497C314.765 111.475 314.722 111.441 314.691 111.396C314.659 111.352 314.641 111.3 314.637 111.246V109.187C314.641 109.241 314.66 109.293 314.691 109.337C314.723 109.381 314.766 109.416 314.815 109.438C314.949 109.505 315.096 109.54 315.246 109.54C315.395 109.54 315.543 109.505 315.676 109.438C315.724 109.416 315.766 109.382 315.796 109.338C315.826 109.295 315.845 109.245 315.849 109.192Z" fill="#5B5B5B"/>
<path d="M315.681 108.942C315.751 108.942 315.818 108.969 315.867 109.018C315.916 109.067 315.944 109.134 315.944 109.203C315.944 109.272 315.916 109.339 315.867 109.388C315.818 109.437 315.751 109.464 315.681 109.464C315.548 109.531 315.4 109.566 315.251 109.566C315.101 109.566 314.954 109.531 314.82 109.464C314.751 109.464 314.684 109.437 314.635 109.388C314.585 109.339 314.558 109.272 314.558 109.203C314.558 109.134 314.585 109.067 314.635 109.018C314.684 108.969 314.751 108.942 314.82 108.942C314.954 108.874 315.101 108.838 315.251 108.838C315.401 108.838 315.548 108.874 315.681 108.942Z" fill="#4E4E4E"/>
<path d="M314.416 111.9C312.564 111.287 310.784 110.476 309.108 109.48C306.751 108.1 306.11 106.961 306.11 106.961C305.947 106.758 305.829 106.524 305.764 106.272C305.698 106.021 305.688 105.758 305.732 105.503C305.771 105.244 305.862 104.995 305.999 104.771C306.136 104.548 306.317 104.354 306.53 104.201C306.95 103.914 307.386 103.647 307.832 103.396L316.143 108.335C315.697 108.586 315.261 108.858 314.841 109.135C314.411 109.448 314.122 109.917 314.038 110.441C313.994 110.697 314.006 110.959 314.071 111.211C314.136 111.462 314.254 111.697 314.416 111.9Z" fill="#91B75F"/>
<path d="M316.08 108.325C317.923 107.28 319.955 106.48 321.693 105.612C321.829 105.544 321.897 105.612 321.918 105.738C321.897 106.242 321.814 106.743 321.672 107.227C321.657 107.295 321.647 107.363 321.64 107.431C321.628 107.593 321.578 107.751 321.495 107.891C321.412 108.031 321.299 108.151 321.162 108.241L314.778 111.853L314.526 111.915C314.259 112.056 313.886 111.042 314.001 110.457C314.039 110.197 314.128 109.946 314.263 109.72C314.398 109.494 314.577 109.297 314.789 109.14C315.204 108.853 315.639 108.581 316.08 108.325Z" fill="#597231"/>
<path d="M316.112 108.32L307.743 103.48C309.581 102.435 311.618 101.635 313.356 100.767C313.379 100.754 313.405 100.747 313.432 100.747C313.458 100.747 313.485 100.754 313.508 100.767L321.876 105.607C321.853 105.595 321.827 105.588 321.8 105.588C321.774 105.588 321.748 105.595 321.724 105.607C319.986 106.475 317.949 107.264 316.112 108.32Z" fill="#91B75F"/>
<path d="M326.491 91.0832C326.376 91.0048 326.187 91.0832 326.113 91.1355C325.881 91.2867 325.71 91.5143 325.63 91.7783C325.389 92.5152 323.241 99.0272 322.963 100.271C322.701 101.405 321.997 104.975 321.698 105.461L321.813 105.706C321.813 105.628 321.861 105.706 321.861 105.665C322.317 104.358 322.858 101.484 323.126 100.308C323.394 99.1318 325.546 92.5675 325.793 91.8253C325.865 91.5964 326.001 91.3931 326.187 91.24C326.29 91.1866 326.407 91.1631 326.523 91.1721C326.53 91.1561 326.531 91.1379 326.525 91.1213C326.519 91.1048 326.507 91.0911 326.491 91.0832Z" fill="#AAA199"/>
<path d="M322.848 94.8148C322.094 94.5503 321.361 94.2324 320.653 93.8636C319.628 93.3397 318.634 92.7568 317.676 92.118C317.621 92.0456 317.572 91.9687 317.529 91.888C317.442 91.6821 317.309 91.4987 317.14 91.3519C316.971 91.2051 316.77 91.0989 316.553 91.0414C316.531 91.0352 316.511 91.0212 316.499 91.002C316.486 90.9827 316.481 90.9596 316.485 90.9368C316.491 90.915 316.505 90.8964 316.525 90.8847C316.544 90.8731 316.567 90.8693 316.59 90.8741C316.83 90.9374 317.053 91.0539 317.242 91.215C317.432 91.3761 317.582 91.5776 317.682 91.8044C317.717 91.8752 317.757 91.9433 317.802 92.0082C318.748 92.6379 319.73 93.212 320.742 93.7277C321.421 94.0844 322.122 94.3953 322.842 94.658C323.032 94.5106 323.254 94.4085 323.489 94.3596C323.725 94.3107 323.969 94.3162 324.202 94.3758C324.224 94.3819 324.243 94.3961 324.255 94.4156C324.266 94.435 324.27 94.4582 324.265 94.4803C324.263 94.4915 324.258 94.502 324.251 94.5113C324.245 94.5206 324.236 94.5284 324.226 94.5343C324.217 94.5401 324.206 94.5439 324.194 94.5454C324.183 94.547 324.171 94.5461 324.16 94.543C323.949 94.4879 323.727 94.4833 323.514 94.5296C323.3 94.5759 323.101 94.6719 322.932 94.8096C322.919 94.8177 322.905 94.8225 322.89 94.8234C322.876 94.8243 322.861 94.8213 322.848 94.8148Z" fill="#597231"/>
<path d="M321.299 100.025H321.273C320.52 99.7577 319.786 99.4381 319.078 99.0689C318.066 98.5501 317.085 97.9706 316.143 97.3338C315.825 96.8832 315.353 96.5636 314.815 96.4348C314.803 96.4336 314.792 96.4299 314.782 96.424C314.771 96.418 314.762 96.41 314.756 96.4004C314.749 96.3908 314.744 96.3799 314.742 96.3683C314.739 96.3567 314.739 96.3448 314.742 96.3333C314.745 96.3218 314.75 96.3109 314.757 96.3015C314.764 96.292 314.773 96.2842 314.783 96.2785C314.794 96.2728 314.805 96.2693 314.817 96.2684C314.829 96.2674 314.841 96.2689 314.852 96.2728C315.425 96.4041 315.93 96.7408 316.269 97.2188C317.201 97.8509 318.17 98.4251 319.173 98.9383C319.852 99.2925 320.554 99.6032 321.273 99.8686C321.463 99.7212 321.684 99.6191 321.92 99.5702C322.155 99.5212 322.399 99.5268 322.632 99.5863C322.644 99.5876 322.656 99.5913 322.666 99.5972C322.676 99.6031 322.685 99.6112 322.692 99.6208C322.699 99.6304 322.704 99.6413 322.706 99.6529C322.708 99.6645 322.708 99.6764 322.706 99.6879C322.703 99.6994 322.698 99.7103 322.691 99.7197C322.684 99.7291 322.675 99.737 322.664 99.7427C322.654 99.7484 322.642 99.7519 322.631 99.7528C322.619 99.7538 322.607 99.7523 322.596 99.7483C322.383 99.6939 322.161 99.6902 321.946 99.7374C321.732 99.7846 321.532 99.8815 321.362 100.02C321.342 100.029 321.32 100.031 321.299 100.025Z" fill="#597231"/>
<path d="M315.912 108.121C317.75 107.076 319.787 106.276 321.525 105.409C321.661 105.341 321.724 105.409 321.745 105.534C321.803 105.858 321.745 105.837 321.651 106.234C321.651 106.323 315.314 109.124 314.936 109.825C314.636 110.455 314.578 111.172 314.773 111.842L314.521 111.9C314.253 112.041 313.712 110.854 313.838 110.253C313.875 109.994 313.963 109.745 314.098 109.519C314.232 109.294 314.41 109.098 314.621 108.942C315.035 108.649 315.471 108.377 315.912 108.121Z" fill="#597231"/>
<path d="M314.631 111.9C314.631 111.9 314.516 111.9 314.532 111.9C314.591 111.851 314.643 111.792 314.684 111.727C314.726 111.67 314.684 111.523 314.658 111.351C314.596 111.108 314.569 110.859 314.579 110.609C314.587 110.353 314.66 110.104 314.793 109.886C314.925 109.667 315.112 109.486 315.335 109.36L315.403 109.313C315.716 109.094 316.04 108.892 316.374 108.706L316.542 108.612C317.692 107.948 318.921 107.394 320.102 106.861L321.294 106.339C321.445 106.283 321.571 106.176 321.65 106.036C321.729 105.896 321.755 105.733 321.724 105.576C321.724 105.529 321.724 105.45 321.756 105.445C321.787 105.44 321.84 105.529 321.871 105.597C321.88 105.624 321.88 105.653 321.871 105.68C321.882 105.854 321.837 106.027 321.742 106.173C321.648 106.32 321.509 106.433 321.346 106.496L320.16 107.018C318.978 107.541 317.755 108.105 316.611 108.764L316.448 108.858C316.117 109.039 315.796 109.238 315.487 109.454L315.419 109.501C315.216 109.613 315.046 109.775 314.926 109.972C314.805 110.169 314.738 110.394 314.731 110.624C314.724 110.857 314.751 111.089 314.81 111.314C314.862 111.544 314.915 111.727 314.81 111.837C314.759 111.877 314.696 111.899 314.631 111.9Z" fill="#AAA199"/>
<path d="M316.275 107.891C314.916 107.497 313.625 106.903 312.442 106.13L311.843 105.769C309.518 104.363 308.693 103.156 308.693 103.119C308.678 103.103 308.67 103.082 308.67 103.059C308.67 103.037 308.678 103.016 308.693 102.999C308.703 102.993 308.714 102.988 308.725 102.986C308.736 102.983 308.748 102.983 308.76 102.986C308.771 102.988 308.782 102.993 308.791 103C308.8 103.007 308.808 103.015 308.814 103.025C308.814 103.025 309.644 104.243 311.933 105.639L312.531 106.004C313.701 106.772 314.981 107.359 316.327 107.745C316.348 107.753 316.365 107.769 316.375 107.789C316.385 107.81 316.386 107.833 316.38 107.854C316.37 107.872 316.353 107.886 316.334 107.893C316.315 107.899 316.294 107.899 316.275 107.891Z" fill="#597231"/>
<path d="M320.301 105.957C318.944 105.568 317.653 104.976 316.474 104.201L315.876 103.841C313.544 102.435 312.725 101.227 312.699 101.191C312.693 101.181 312.688 101.171 312.686 101.159C312.683 101.148 312.683 101.136 312.686 101.125C312.688 101.114 312.693 101.103 312.7 101.094C312.707 101.084 312.715 101.076 312.725 101.071C312.735 101.064 312.745 101.059 312.756 101.057C312.767 101.055 312.778 101.055 312.789 101.058C312.8 101.06 312.81 101.065 312.819 101.072C312.828 101.078 312.836 101.087 312.841 101.097C312.841 101.097 313.671 102.314 315.991 103.71L316.59 104.071C317.757 104.84 319.035 105.429 320.38 105.816C320.401 105.823 320.419 105.838 320.429 105.857C320.44 105.877 320.443 105.899 320.438 105.921C320.433 105.933 320.425 105.944 320.414 105.953C320.404 105.962 320.392 105.969 320.379 105.972C320.365 105.976 320.352 105.976 320.338 105.974C320.325 105.971 320.312 105.965 320.301 105.957Z" fill="#597231"/>
<path d="M323.85 103.344L323.016 102.858C322.869 102.742 322.715 102.635 322.554 102.539L323.388 103.025C323.552 103.12 323.708 103.226 323.856 103.344H323.85Z" fill="#6A6A6A"/>
<path d="M319.451 109.548L318.611 109.062C318.718 109.124 318.832 109.171 318.952 109.203L319.787 109.689C319.67 109.655 319.557 109.608 319.451 109.548Z" fill="#6A6A6A"/>
<path d="M320.48 102.858L319.64 102.377C320.13 102.091 320.688 101.94 321.257 101.94C321.825 101.94 322.384 102.091 322.874 102.377L323.709 102.863C323.219 102.578 322.662 102.428 322.094 102.428C321.527 102.428 320.97 102.578 320.48 102.863V102.858Z" fill="#6A6A6A"/>
<path d="M319.283 109.793L318.443 109.307C317.325 108.659 316.737 106.375 317.86 104.327C318.261 103.525 318.877 102.851 319.64 102.377L320.48 102.858C319.716 103.332 319.099 104.007 318.695 104.807C317.571 106.856 318.17 109.145 319.283 109.793Z" fill="#6A6A6A"/>
<path d="M320.48 102.858C321.034 102.539 321.672 102.392 322.311 102.437C322.95 102.481 323.561 102.715 324.066 103.109C324.113 103.146 324.003 103.281 323.919 103.328C323.835 103.376 323.866 103.355 323.85 103.328C323.513 103.031 323.11 102.818 322.674 102.705C322.238 102.593 321.781 102.584 321.341 102.68C321.061 102.749 320.792 102.858 320.543 103.004C320.046 103.297 319.611 103.685 319.264 104.145C318.918 104.605 318.665 105.128 318.522 105.686C318.081 107.525 318.595 109.344 319.787 109.673C319.866 109.673 319.745 109.851 319.661 109.898C319.653 109.902 319.644 109.904 319.635 109.904C319.626 109.904 319.616 109.902 319.608 109.898C318.285 109.543 317.466 107.018 318.695 104.776C319.104 103.987 319.721 103.324 320.48 102.858Z" fill="#525252"/>
<path d="M324.16 90.5238L319.96 88.104C319.887 88.0622 319.855 87.9682 319.876 87.8375C319.913 87.6023 319.913 87.2469 319.813 87.1842L324.013 89.6092C324.113 89.6667 324.113 90.0221 324.076 90.2573C324.076 90.3879 324.076 90.482 324.16 90.5238Z" fill="#91B75F"/>
<path d="M323.856 88.956L319.656 86.5362C319.734 86.4744 319.826 86.4337 319.925 86.4181C320.023 86.4026 320.124 86.4126 320.217 86.4473L324.417 88.8671C324.324 88.8324 324.223 88.8224 324.125 88.8379C324.026 88.8535 323.934 88.8942 323.856 88.956Z" fill="#7D9B4E"/>
<path d="M321.792 93.5656L317.844 91.3862C317.771 91.3444 317.739 91.2451 317.766 91.1092C317.923 90.2887 318.506 87.5553 319.341 86.8288C319.457 86.7223 319.583 86.6278 319.719 86.5466L323.919 88.9664C323.784 89.0476 323.657 89.1421 323.541 89.2486C322.727 89.9751 322.139 92.7085 321.966 93.529L321.792 93.5656Z" fill="#7D9B4E"/>
<path d="M323.856 88.956C323.934 88.8942 324.026 88.8535 324.125 88.8379C324.223 88.8224 324.324 88.8324 324.418 88.8671C324.759 89.0396 324.701 89.7138 324.67 89.9751C324.523 89.8863 324.113 89.6563 324.008 89.604C323.903 89.5518 323.824 89.604 323.635 89.8079C323.31 90.1894 322.79 91.6214 322.512 93.1736C322.509 93.2389 322.493 93.3029 322.465 93.362C322.437 93.421 322.397 93.4738 322.348 93.5172C322.299 93.5606 322.242 93.5938 322.18 93.6147C322.118 93.6355 322.052 93.6437 321.987 93.6388C321.77 93.6366 321.557 93.5752 321.372 93.4611C321.294 93.414 321.897 93.4872 321.981 93.1788C322.186 92.1336 322.748 89.8863 323.467 89.2382C323.588 89.1325 323.718 89.038 323.856 88.956Z" fill="#597231"/>
<path d="M321.635 93.5448C321.534 93.5392 321.436 93.5067 321.351 93.4507C320.107 92.7033 317.965 91.5587 317.944 91.5483C317.836 91.4367 317.758 91.2993 317.718 91.1492C317.679 90.999 317.679 90.8413 317.718 90.6912C318.175 88.3027 318.448 87.1582 319.251 86.5781C319.476 86.3945 319.75 86.2801 320.039 86.2488C320.06 86.2454 320.082 86.2499 320.101 86.2614C320.119 86.2729 320.132 86.2908 320.139 86.3115C320.144 86.333 320.141 86.3555 320.13 86.3749C320.119 86.3942 320.102 86.4089 320.081 86.416L319.918 86.4422C319.719 86.5134 319.527 86.6044 319.346 86.7139C318.579 87.2366 318.333 88.3811 317.886 90.7225C317.857 90.8391 317.855 90.9607 317.879 91.0784C317.904 91.196 317.955 91.3066 318.028 91.402C318.028 91.402 320.191 92.5518 321.441 93.3096C321.479 93.3396 321.523 93.3596 321.571 93.3678C321.619 93.376 321.668 93.3722 321.714 93.3566C321.775 93.3107 321.826 93.2517 321.863 93.184C321.899 93.1162 321.92 93.0413 321.924 92.9646C322.123 91.9194 322.711 89.9281 323.446 89.1494C323.556 89.0292 324.06 88.6268 324.417 88.7731C324.68 88.8881 324.769 89.3951 324.722 90.0065L324.559 89.9072C324.596 89.3846 324.528 89.0031 324.354 88.9247C324.181 88.8463 323.703 89.1233 323.572 89.2644C322.858 90.017 322.286 91.9507 322.092 92.996C322.085 93.1013 322.054 93.2035 322 93.2943C321.946 93.3851 321.871 93.462 321.782 93.5186C321.735 93.5377 321.685 93.5466 321.635 93.5448Z" fill="#597231"/>
<path d="M321.509 93.1058L317.918 91.2086C317.856 91.0857 317.838 90.9459 317.865 90.8114C318.002 90.1006 318.432 87.7174 319.041 86.991C319.173 86.814 319.342 86.6673 319.536 86.5609C319.73 86.4545 319.944 86.3908 320.165 86.3743L324.034 88.6425C323.675 88.7321 323.359 88.945 323.142 89.2435C322.512 89.9491 321.934 92.2069 321.766 92.902C321.698 93.179 321.509 93.1058 321.509 93.1058Z" fill="#91B75F"/>
<g style="mix-blend-mode:multiply" opacity="0.15">
<path d="M307.386 143.556C307.336 143.527 307.294 143.486 307.265 143.437C307.236 143.387 307.221 143.331 307.221 143.273C307.221 143.216 307.236 143.16 307.265 143.11C307.294 143.06 307.336 143.019 307.386 142.991L316.096 137.974C316.246 137.887 316.416 137.841 316.59 137.841C316.763 137.841 316.933 137.887 317.083 137.974L324.848 142.38C324.898 142.408 324.94 142.449 324.969 142.498C324.998 142.548 325.014 142.604 325.014 142.662C325.014 142.719 324.998 142.776 324.969 142.825C324.94 142.875 324.898 142.916 324.848 142.944L316.138 147.961C315.989 148.049 315.82 148.095 315.647 148.095C315.475 148.095 315.305 148.049 315.156 147.961L307.386 143.556Z" fill="#1C1C1C"/>
</g>
<path d="M315.666 126.073L315.655 131.425L315.261 131.195L315.272 125.844L315.666 126.073Z" fill="#3D2321"/>
<path d="M323.74 128.012L323.556 133.416C323.562 133.005 323.451 132.6 323.236 132.248C323.022 131.896 322.713 131.611 322.344 131.425C321.309 130.899 320.164 130.625 319.002 130.625C317.84 130.625 316.695 130.899 315.66 131.425V126.073C316.695 125.548 317.84 125.274 319.002 125.274C320.164 125.274 321.309 125.548 322.344 126.073C323.273 126.596 323.735 127.312 323.735 128.012H323.74Z" fill="#F05E2F"/>
<path d="M322.764 130.15L322.753 135.502L322.359 135.277L322.37 129.925L322.764 130.15Z" fill="#3D2321"/>
<path d="M324.297 128.012L323.63 132.58C323.63 133.354 323.772 134.901 322.753 135.491V130.14C323.772 129.549 324.281 128.775 324.286 128.002L324.297 128.012Z" fill="#CC4723"/>
<path d="M322.737 125.843C324.806 127.03 324.838 128.979 322.737 130.15L322.344 129.925C324.181 128.88 324.171 127.134 322.344 126.073C321.309 125.548 320.164 125.274 319.002 125.274C317.84 125.274 316.695 125.548 315.66 126.073L315.267 125.843C316.424 125.258 317.704 124.953 319.002 124.953C320.3 124.953 321.58 125.258 322.737 125.843Z" fill="#FF7D5A"/>
<path d="M322.911 126.465C322.737 126.317 322.548 126.186 322.349 126.073C321.314 125.548 320.169 125.274 319.007 125.274C317.845 125.274 316.7 125.548 315.666 126.073L315.823 131.342C316.352 131.058 316.922 130.861 317.514 130.756C318.48 129.188 320.448 126.528 322.911 126.465Z" fill="#CC4A27"/>
<path d="M317.372 138.611L315.839 139.045L315.419 134.19L315.813 134.42L317.372 138.611Z" fill="#6D423E"/>
<path d="M315.813 134.42L315.419 134.19C315.419 134.078 315.391 133.968 315.338 133.87C315.284 133.771 315.208 133.687 315.114 133.625L315.508 133.85C315.602 133.913 315.679 133.998 315.732 134.097C315.785 134.196 315.813 134.307 315.813 134.42Z" fill="#6D423E"/>
<path d="M314.558 133.27L314.164 133.04C314.401 132.892 314.594 132.683 314.721 132.434L315.114 132.664C314.986 132.912 314.794 133.121 314.558 133.27Z" fill="#6D423E"/>
<path d="M314.558 133.27L314.164 133.04C314.401 132.892 314.594 132.683 314.721 132.434L315.114 132.664C314.986 132.912 314.794 133.121 314.558 133.27Z" fill="#6D423E"/>
<path d="M315.114 132.664L314.721 132.434C314.856 132.199 314.921 131.931 314.91 131.66L315.303 131.89C315.318 132.161 315.252 132.43 315.114 132.664Z" fill="#6D423E"/>
<path d="M314.558 133.27L314.164 133.04C314.401 132.892 314.594 132.683 314.721 132.434L315.114 132.664C314.986 132.912 314.794 133.121 314.558 133.27Z" fill="#6D423E"/>
<path d="M315.114 132.664L314.721 132.434C314.856 132.199 314.921 131.931 314.91 131.66L315.303 131.89C315.318 132.161 315.252 132.43 315.114 132.664Z" fill="#6D423E"/>
<path d="M314.558 133.27L314.164 133.04C314.401 132.892 314.594 132.683 314.721 132.434L315.114 132.664C314.986 132.912 314.794 133.121 314.558 133.27Z" fill="#6D423E"/>
<path d="M315.114 132.664L314.721 132.434C314.856 132.199 314.921 131.931 314.91 131.66L315.303 131.89C315.318 132.161 315.252 132.43 315.114 132.664Z" fill="#6D423E"/>
<path d="M315.114 132.664L314.721 132.434C314.856 132.199 314.921 131.931 314.91 131.66L315.303 131.89C315.318 132.161 315.252 132.43 315.114 132.664Z" fill="#6D423E"/>
<path d="M314.558 133.27L314.164 133.04C314.401 132.892 314.594 132.683 314.721 132.434L315.114 132.664C314.986 132.912 314.794 133.121 314.558 133.27Z" fill="#6D423E"/>
<path d="M314.558 133.207L314.164 132.977C314.385 132.84 314.566 132.647 314.689 132.418L315.083 132.643C314.961 132.874 314.78 133.069 314.558 133.207Z" fill="#71413E"/>
<path d="M315.114 132.664L314.721 132.434C314.856 132.199 314.921 131.931 314.91 131.66L315.303 131.89C315.318 132.161 315.252 132.43 315.114 132.664Z" fill="#6D423E"/>
<path d="M315.303 131.89L314.91 131.66L314.552 127.976L314.946 128.206L315.303 131.89Z" fill="#382220"/>
<path d="M314.946 128.206L314.553 127.976C314.551 127.888 314.528 127.802 314.486 127.725C314.444 127.648 314.384 127.581 314.311 127.532L314.705 127.762C314.779 127.809 314.841 127.875 314.883 127.953C314.925 128.03 314.947 128.117 314.946 128.206Z" fill="#6D423E"/>
<path d="M314.889 128.248C314.887 128.165 314.865 128.084 314.826 128.012C314.787 127.939 314.731 127.876 314.663 127.829L314.269 127.599C314.337 127.646 314.393 127.709 314.432 127.782C314.472 127.854 314.493 127.935 314.495 128.018L314.852 131.676C314.864 131.928 314.804 132.178 314.679 132.397L315.072 132.622C315.198 132.405 315.258 132.156 315.246 131.906L314.889 128.248Z" fill="#F05E2F"/>
<path d="M310.205 135.758L309.812 135.533L314.164 133.04L314.558 133.27L310.205 135.758Z" fill="#5E3935"/>
<path d="M314.033 127.877L313.634 127.647L313.707 127.6C313.794 127.538 313.896 127.501 314.001 127.491C314.107 127.481 314.214 127.498 314.311 127.542L314.705 127.772C314.609 127.727 314.503 127.709 314.398 127.719C314.292 127.729 314.192 127.767 314.106 127.83L314.033 127.877Z" fill="#71413E"/>
<path d="M310.205 135.695L309.812 135.465L314.164 132.977L314.558 133.207L310.205 135.695Z" fill="#71413E"/>
<path d="M309.617 135.815L309.218 135.591C309.314 135.633 309.419 135.65 309.523 135.64C309.627 135.63 309.726 135.593 309.812 135.533L310.205 135.758C310.122 135.82 310.023 135.858 309.919 135.868C309.816 135.878 309.711 135.86 309.617 135.815Z" fill="#6D423E"/>
<path d="M309.617 135.815L309.218 135.591C309.314 135.633 309.419 135.65 309.523 135.64C309.627 135.63 309.726 135.593 309.812 135.533L310.205 135.758C310.122 135.82 310.023 135.858 309.919 135.868C309.816 135.878 309.711 135.86 309.617 135.815Z" fill="#6D423E"/>
<path d="M309.617 135.815L309.218 135.591C309.314 135.633 309.419 135.65 309.523 135.64C309.627 135.63 309.726 135.593 309.812 135.533L310.205 135.758C310.122 135.82 310.023 135.858 309.919 135.868C309.816 135.878 309.711 135.86 309.617 135.815Z" fill="#6D423E"/>
<path d="M309.617 135.815L309.218 135.591C309.314 135.633 309.419 135.65 309.523 135.64C309.627 135.63 309.726 135.593 309.812 135.533L310.205 135.758C310.122 135.82 310.023 135.858 309.919 135.868C309.816 135.878 309.711 135.86 309.617 135.815Z" fill="#6D423E"/>
<path d="M309.654 135.747L309.26 135.517C309.348 135.561 309.446 135.579 309.544 135.57C309.641 135.56 309.734 135.524 309.812 135.465L310.205 135.695C310.128 135.754 310.035 135.79 309.937 135.8C309.84 135.809 309.742 135.791 309.654 135.747Z" fill="#71413E"/>
<path d="M309.617 135.815L309.218 135.591C309.314 135.633 309.419 135.65 309.523 135.64C309.627 135.63 309.726 135.593 309.812 135.533L310.205 135.758C310.122 135.82 310.023 135.858 309.919 135.868C309.816 135.878 309.711 135.86 309.617 135.815Z" fill="#6D423E"/>
<path d="M309.617 135.815L309.218 135.591C309.137 135.531 309.072 135.452 309.029 135.361C308.987 135.269 308.969 135.168 308.977 135.068L309.371 135.298C309.361 135.399 309.378 135.501 309.422 135.593C309.465 135.685 309.533 135.764 309.617 135.821V135.815Z" fill="#71413E"/>
<path d="M309.371 135.287L308.977 135.058L308.966 132.565L309.365 132.795L309.371 135.287Z" fill="#3C2321"/>
<path d="M309.896 131.488L309.502 131.263L313.634 127.636L314.033 127.866L309.896 131.488Z" fill="#613835"/>
<path d="M315.303 131.89C315.318 132.161 315.252 132.43 315.114 132.664C314.986 132.912 314.794 133.121 314.558 133.27L310.205 135.758C309.749 136.024 309.376 135.81 309.371 135.288V132.795V132.659C309.329 132.434 309.357 132.201 309.451 131.992C309.545 131.783 309.7 131.608 309.896 131.488L314.033 127.866L314.106 127.819C314.537 127.568 314.899 127.735 314.946 128.206L315.303 131.89ZM315.072 132.643C315.198 132.426 315.258 132.177 315.246 131.927L314.889 128.269C314.847 127.83 314.511 127.673 314.106 127.908L314.033 127.95L309.906 131.535C309.727 131.645 309.585 131.806 309.499 131.997C309.413 132.188 309.387 132.4 309.423 132.606V132.748V135.235C309.423 135.727 309.775 135.925 310.2 135.679L314.553 133.192C314.775 133.054 314.956 132.859 315.078 132.627L315.072 132.643Z" fill="#CC4A27"/>
<path d="M309.381 132.794L308.987 132.565V132.429C308.947 132.204 308.975 131.973 309.068 131.765C309.162 131.557 309.317 131.382 309.512 131.263L309.906 131.488C309.71 131.608 309.555 131.783 309.462 131.992C309.368 132.201 309.34 132.434 309.381 132.659V132.794Z" fill="#71413E"/>
<path d="M308.762 143.561L308.368 143.331L308.331 132.193L308.725 132.423L308.762 143.561Z" fill="#F05E2F"/>
<path d="M315.681 126.068L316.857 138.92L316.233 139.275L315.813 134.42C315.76 133.824 315.288 133.61 314.763 133.923L309.738 136.803C309.621 136.878 309.523 136.98 309.453 137.1C309.382 137.22 309.342 137.354 309.334 137.493V143.242L308.751 143.582L308.714 132.444C308.731 132.159 308.812 131.88 308.951 131.63C309.09 131.379 309.284 131.163 309.518 130.997L315.681 126.068ZM315.114 132.664C315.252 132.43 315.318 132.161 315.303 131.89L314.946 128.206C314.899 127.735 314.537 127.568 314.106 127.819L314.033 127.866L309.906 131.488C309.71 131.608 309.555 131.783 309.462 131.992C309.368 132.201 309.34 132.434 309.381 132.659V132.795V135.287C309.381 135.81 309.759 136.024 310.216 135.758L314.568 133.27C314.805 133.121 314.997 132.912 315.125 132.664H315.114Z" fill="#CC4A27"/>

<path d="M321.225 135.538C321.866 135.909 321.871 136.505 321.225 136.871L316.206 139.766C315.849 139.949 315.453 140.045 315.051 140.045C314.65 140.045 314.254 139.949 313.896 139.766C312.975 139.414 312.079 139 311.213 138.528C310.382 138.026 309.578 137.482 308.804 136.897C308.189 136.401 308.216 135.909 308.851 135.538L313.854 132.643C314.175 132.423 314.555 132.306 314.944 132.306C315.333 132.306 315.713 132.423 316.033 132.643C316.728 133.192 317.455 133.698 318.212 134.159C318.952 134.545 321.225 135.538 321.225 135.538Z" fill="#F05E2F"/>
<path d="M322.832 130.103L324.003 142.955L323.383 143.31L322.958 138.455C322.911 137.859 322.433 137.645 321.908 137.958L316.884 140.838C316.767 140.913 316.669 141.015 316.6 141.135C316.531 141.255 316.491 141.389 316.485 141.528V147.277L315.897 147.616L315.865 136.479C315.88 136.194 315.959 135.915 316.098 135.664C316.236 135.414 316.429 135.197 316.663 135.031L322.832 130.103ZM322.265 136.699C322.4 136.464 322.466 136.196 322.454 135.925L322.092 132.267C322.044 131.796 321.687 131.629 321.252 131.88L321.178 131.927L317.041 135.549C316.845 135.668 316.689 135.844 316.595 136.053C316.502 136.262 316.474 136.494 316.516 136.72V136.855V139.348C316.516 139.871 316.889 140.085 317.346 139.819L321.698 137.331C321.936 137.182 322.13 136.973 322.26 136.725L322.265 136.699Z" fill="#CC4723"/>
<path opacity="0.2" d="M333.248 173.163C332.909 172.977 332.52 172.9 332.135 172.943L330.439 173.178L311.691 162.423C311.633 162.394 311.569 162.38 311.505 162.38C311.44 162.38 311.377 162.394 311.318 162.423L300.125 168.898L296.844 169.165C296.503 169.191 296.319 169.4 296.319 169.687C296.63 169.89 296.997 169.99 297.369 169.975L300.556 169.719L318.763 180.171L319.603 182.973C319.703 183.297 319.719 183.135 320.018 183.354C320.291 183.286 320.569 183.286 320.469 182.962L319.729 180.459L330.954 173.973L332.697 173.727C333.106 173.659 333.29 173.44 333.248 173.163Z" fill="#050505"/>



<path d="M335.847 165.219L322.023 173.215C321.954 173.248 321.877 173.265 321.8 173.265C321.723 173.265 321.647 173.248 321.577 173.215L297.169 159.188C297.144 159.176 297.121 159.158 297.105 159.135C297.088 159.112 297.078 159.085 297.075 159.057V159.506C297.078 159.534 297.088 159.561 297.105 159.584C297.121 159.607 297.144 159.625 297.169 159.637L321.577 173.664C321.646 173.701 321.723 173.72 321.8 173.72C321.878 173.72 321.955 173.701 322.023 173.664L335.847 165.673C335.872 165.662 335.894 165.644 335.91 165.621C335.926 165.598 335.935 165.571 335.936 165.543V165.093C335.934 165.12 335.925 165.146 335.909 165.169C335.894 165.191 335.872 165.208 335.847 165.219Z" fill="#16AFBE"/>
<g opacity="0.8">
<path d="M335.847 164.984C335.973 165.057 335.973 165.172 335.847 165.24L322.023 173.236C321.954 173.269 321.877 173.285 321.8 173.285C321.723 173.285 321.647 173.269 321.577 173.236L297.169 159.208C297.141 159.2 297.116 159.183 297.098 159.16C297.08 159.136 297.07 159.107 297.07 159.078C297.07 159.048 297.08 159.02 297.098 158.996C297.116 158.972 297.141 158.955 297.169 158.947L310.993 150.956C311.062 150.92 311.138 150.901 311.216 150.901C311.294 150.901 311.37 150.92 311.439 150.956L335.847 164.984Z" fill="#38BFC3"/>
</g>
<path opacity="0.15" d="M327.883 203.078C327.969 203.122 328.041 203.189 328.091 203.271C328.141 203.353 328.168 203.447 328.168 203.543C328.168 203.64 328.141 203.734 328.091 203.816C328.041 203.898 327.969 203.965 327.883 204.009L312.531 213.191C312.336 213.307 312.113 213.368 311.885 213.368C311.658 213.368 311.435 213.307 311.24 213.191C311.168 213.148 311.108 213.088 311.064 213.016C311.021 212.945 310.995 212.864 310.989 212.78C310.984 212.697 310.998 212.613 311.032 212.536C311.065 212.46 311.117 212.392 311.182 212.339L311.465 212.109C311.504 212.079 311.534 212.039 311.553 211.994C311.573 211.949 311.581 211.9 311.577 211.852C311.574 211.803 311.558 211.756 311.533 211.714C311.507 211.672 311.471 211.638 311.429 211.613L306.782 208.885C306.669 208.818 306.539 208.783 306.407 208.783C306.275 208.783 306.145 208.818 306.032 208.885L305.801 209.031C305.584 209.172 305.332 209.247 305.073 209.247C304.815 209.247 304.562 209.172 304.346 209.031C304.263 208.984 304.194 208.915 304.148 208.832C304.101 208.749 304.078 208.654 304.081 208.559C304.084 208.464 304.114 208.371 304.166 208.291C304.218 208.211 304.292 208.147 304.378 208.106L320.17 198.955C320.397 198.824 320.657 198.759 320.919 198.766C321.181 198.774 321.436 198.853 321.656 198.996L327.883 203.078Z" fill="black"/>
<path d="M326.47 202.723C326.89 202.483 327.226 202.676 327.226 203.151C327.214 203.412 327.139 203.666 327.008 203.892C326.878 204.119 326.695 204.311 326.476 204.453C326.061 204.693 325.719 204.5 325.714 204.024C325.729 203.764 325.805 203.51 325.937 203.284C326.068 203.058 326.251 202.866 326.47 202.723ZM326.47 204.087C326.595 204.005 326.698 203.895 326.773 203.766C326.848 203.638 326.892 203.493 326.901 203.345C326.901 203.073 326.706 202.963 326.465 203.099C326.34 203.181 326.236 203.29 326.161 203.419C326.086 203.548 326.043 203.693 326.034 203.841C326.034 204.113 326.229 204.223 326.47 204.087Z" fill="#273846"/>
<path d="M305.496 206.737C305.412 206.699 305.319 206.683 305.227 206.692C305.134 206.702 305.046 206.735 304.971 206.789C304.752 206.932 304.569 207.124 304.437 207.35C304.306 207.576 304.23 207.83 304.215 208.09C304.206 208.183 304.221 208.276 304.26 208.361C304.299 208.445 304.359 208.518 304.436 208.571L305.071 208.942C304.994 208.888 304.932 208.815 304.894 208.729C304.855 208.644 304.84 208.549 304.85 208.456C304.864 208.196 304.939 207.944 305.069 207.718C305.2 207.493 305.382 207.302 305.601 207.16C305.676 207.106 305.764 207.073 305.857 207.063C305.949 207.054 306.042 207.07 306.126 207.108L305.496 206.737Z" fill="#010000"/>
<path d="M312.421 210.709C312.337 210.671 312.244 210.655 312.151 210.664C312.059 210.674 311.971 210.707 311.896 210.761C311.678 210.904 311.496 211.095 311.366 211.32C311.235 211.545 311.16 211.798 311.145 212.057C311.135 212.15 311.15 212.245 311.189 212.33C311.227 212.416 311.289 212.489 311.366 212.543L311.996 212.909C311.919 212.856 311.859 212.783 311.82 212.698C311.781 212.614 311.766 212.521 311.775 212.428C311.789 212.167 311.864 211.913 311.996 211.687C312.127 211.461 312.311 211.269 312.531 211.127C312.606 211.073 312.694 211.039 312.787 211.03C312.879 211.021 312.972 211.036 313.056 211.075L312.421 210.709Z" fill="#010000"/>
<path d="M305.249 204.411V205.059L312.993 209.543L312.988 208.89L305.249 204.411Z" fill="#D69F56"/>
<path d="M312.988 208.89L312.993 209.543L328.077 200.868V200.219L312.988 208.89Z" fill="#C49051"/>
<path d="M305.249 204.411L312.988 208.89L328.077 200.219L320.333 195.74L305.249 204.411Z" fill="#E2A760"/>
<path d="M312.694 204.939L312.725 208.242C312.728 208.27 312.739 208.297 312.755 208.32C312.772 208.343 312.794 208.361 312.82 208.373C312.89 208.409 312.967 208.428 313.046 208.428C313.124 208.428 313.202 208.409 313.271 208.373C313.297 208.361 313.32 208.343 313.336 208.32C313.353 208.297 313.363 208.27 313.366 208.242L313.334 204.939C313.332 204.967 313.321 204.994 313.305 205.017C313.288 205.04 313.266 205.058 313.24 205.07C313.17 205.106 313.093 205.125 313.014 205.125C312.936 205.125 312.858 205.106 312.788 205.07C312.763 205.058 312.74 205.04 312.724 205.017C312.707 204.994 312.697 204.967 312.694 204.939Z" fill="#898989"/>
<path d="M312.788 204.808C312.76 204.816 312.735 204.833 312.717 204.857C312.699 204.881 312.689 204.909 312.689 204.939C312.689 204.968 312.699 204.997 312.717 205.021C312.735 205.044 312.76 205.061 312.788 205.07C312.858 205.106 312.936 205.125 313.014 205.125C313.093 205.125 313.17 205.106 313.24 205.07C313.268 205.061 313.294 205.044 313.311 205.021C313.329 204.997 313.339 204.968 313.339 204.939C313.339 204.909 313.329 204.881 313.311 204.857C313.294 204.833 313.268 204.816 313.24 204.808C313.17 204.772 313.093 204.753 313.014 204.753C312.936 204.753 312.858 204.772 312.788 204.808Z" fill="#A3A3A3"/>
<path d="M305.249 196.791L312.988 201.27L328.077 192.599L320.333 188.12L305.249 196.791Z" fill="#EFBD6F"/>
<path d="M312.788 197.178C312.762 197.187 312.739 197.204 312.723 197.227C312.706 197.25 312.698 197.278 312.698 197.306C312.698 197.334 312.706 197.361 312.723 197.384C312.739 197.407 312.762 197.424 312.788 197.434C312.858 197.47 312.936 197.489 313.014 197.489C313.093 197.489 313.17 197.47 313.24 197.434C313.267 197.424 313.29 197.407 313.306 197.384C313.322 197.361 313.331 197.334 313.331 197.306C313.331 197.278 313.322 197.25 313.306 197.227C313.29 197.204 313.267 197.187 313.24 197.178C313.17 197.142 313.093 197.123 313.014 197.123C312.936 197.123 312.858 197.142 312.788 197.178Z" fill="#A3A3A3"/>
<path d="M305.864 194.131L305.895 196.801C305.898 196.829 305.908 196.856 305.925 196.879C305.942 196.902 305.964 196.92 305.99 196.932C306.059 196.968 306.137 196.987 306.215 196.987C306.294 196.987 306.371 196.968 306.441 196.932C306.467 196.92 306.489 196.902 306.506 196.879C306.522 196.856 306.533 196.829 306.536 196.801L306.504 194.125C306.501 194.154 306.491 194.18 306.474 194.203C306.458 194.226 306.436 194.244 306.41 194.256C306.34 194.292 306.263 194.311 306.184 194.311C306.105 194.311 306.028 194.292 305.958 194.256C305.895 194.218 305.864 194.176 305.864 194.131Z" fill="#898989"/>
<path d="M305.958 193.995C305.93 194.003 305.905 194.02 305.887 194.044C305.869 194.067 305.859 194.096 305.859 194.126C305.859 194.155 305.869 194.184 305.887 194.207C305.905 194.231 305.93 194.248 305.958 194.256C306.028 194.292 306.105 194.311 306.184 194.311C306.262 194.311 306.34 194.292 306.41 194.256C306.438 194.248 306.463 194.231 306.481 194.207C306.499 194.184 306.509 194.155 306.509 194.126C306.509 194.096 306.499 194.067 306.481 194.044C306.463 194.02 306.438 194.003 306.41 193.995C306.339 193.961 306.262 193.944 306.184 193.944C306.106 193.944 306.029 193.961 305.958 193.995Z" fill="#A3A3A3"/>


<g opacity="0.7">
<path d="M70.6648 0.171021C70.6648 1.82254 70.2605 142.181 70.25 145.667L263.894 256.967C263.894 251.453 264.293 117.424 264.309 111.471L70.6648 0.171021Z" fill="white"/>
</g>
<mask id="mask22_24_1502" style="mask-type:luminance" maskUnits="userSpaceOnUse" x="78" y="14" width="179" height="230">
<path d="M256.208 116.107L255.846 243.034L78.3562 141.026L78.7184 14.0992L256.208 116.107Z" fill="white"/>
</mask>
<g mask="url(#mask22_24_1502)">
<path d="M276.883 169.201L255.5 245.213L183.164 222.708L47.9109 144.726L141.636 91.2139L276.883 169.201Z" fill="#8E888B"/>
<path d="M277.072 95.3531L276.862 169.206L141.609 91.2243L141.819 17.371L277.072 95.3531Z" fill="#C2C76C"/>
<path d="M141.819 17.371L141.609 91.2243L47.8794 144.732L48.0947 70.8834L81.0442 5.00024L141.819 17.371Z" fill="#A8A74A"/>
<path d="M73.9881 67.4968L74.2821 116.389L110.954 95.9542V47.2917L73.9881 67.4968Z" fill="#87CCCB"/>
<path d="M91.8647 108.487L92.6732 108.915V55.7793H91.8647V108.487Z" fill="#D1D1D1"/>
<path d="M110.03 48.3684L107.547 49.5182L107.646 95.787L109.993 96.3514L110.03 48.3684Z" fill="#D1D1D1"/>
<path d="M112.629 99.9054L74.0669 121.793V65.8715L112.629 43.994V99.9054ZM76.4977 115.187L109.993 96.3724V50.1716L76.3927 69.1797L76.4924 115.208L76.4977 115.187Z" fill="#E8E8E8"/>
<path opacity="0.2" d="M169.881 110.17C170.061 110.275 170.21 110.425 170.313 110.605C170.417 110.785 170.471 110.989 170.471 111.197C170.471 111.404 170.417 111.608 170.313 111.788C170.21 111.968 170.061 112.118 169.881 112.224L166.306 114.288C165.776 114.599 165.172 114.763 164.557 114.763C163.943 114.763 163.339 114.599 162.809 114.288L138.449 99.7537C138.271 99.6487 138.125 99.499 138.024 99.3197C137.923 99.1404 137.871 98.9378 137.874 98.7322C137.876 98.5267 137.933 98.3255 138.039 98.1488C138.144 97.9722 138.295 97.8263 138.475 97.7259L141.825 95.813C142.362 95.513 142.969 95.3597 143.585 95.3689C144.201 95.3781 144.804 95.5493 145.332 95.8653L169.881 110.17Z" fill="#333333"/>
<path d="M149.159 95.0029C149.14 94.8127 149.172 94.6208 149.252 94.4471C149.332 94.2734 149.458 94.1242 149.616 94.0151L153.732 91.6267C153.576 91.7372 153.452 91.8867 153.373 92.0602C153.293 92.2336 153.261 92.4248 153.28 92.6145V100.203C153.309 100.737 153.464 101.256 153.732 101.719C154 102.183 154.374 102.576 154.824 102.869L159.796 105.727C159.954 105.841 160.139 105.91 160.333 105.928C160.526 105.947 160.722 105.913 160.898 105.832L156.782 108.215C156.604 108.297 156.408 108.33 156.213 108.31C156.018 108.291 155.832 108.22 155.674 108.105L150.702 105.247C150.253 104.955 149.88 104.562 149.611 104.1C149.343 103.638 149.188 103.119 149.159 102.586V95.0029Z" fill="#8C5043"/>
<path d="M161.386 106.611L168.012 110.421C168.17 110.534 168.355 110.604 168.548 110.623C168.742 110.643 168.937 110.611 169.114 110.53L165.004 112.908C164.827 112.99 164.632 113.023 164.438 113.005C164.244 112.986 164.059 112.917 163.901 112.804L157.276 108.994L161.386 106.611Z" fill="#8C5043"/>
<path d="M153.264 90.8271C153.517 90.7118 153.796 90.6651 154.073 90.6917C154.349 90.7183 154.614 90.8173 154.84 90.9787L159.811 93.8375C160.453 94.254 160.987 94.815 161.37 95.4751C161.753 96.1352 161.974 96.8759 162.016 97.6371V105.226C162.04 105.489 161.997 105.754 161.891 105.996C161.784 106.238 161.618 106.45 161.407 106.611L157.291 108.994C157.502 108.832 157.667 108.619 157.773 108.376C157.879 108.133 157.921 107.867 157.895 107.604V100.02C157.854 99.2588 157.633 98.5177 157.25 97.8574C156.867 97.1971 156.332 96.6363 155.69 96.2207L150.718 93.3828C150.493 93.2206 150.229 93.1207 149.952 93.0931C149.675 93.0656 149.396 93.1115 149.143 93.226L153.264 90.8271Z" fill="#A75B45"/>
<path d="M166.111 112.302L166.143 102.184L170.259 99.8059L170.254 109.919C170.282 110.197 170.235 110.477 170.117 110.73C170 110.984 169.817 111.202 169.587 111.361L165.45 113.765C165.682 113.603 165.867 113.382 165.983 113.124C166.099 112.867 166.144 112.583 166.111 112.302Z" fill="#A75B45"/>
<path d="M155.69 96.2207C156.332 96.6363 156.867 97.1971 157.25 97.8574C157.633 98.5177 157.854 99.2588 157.895 100.02V107.604C157.921 107.867 157.879 108.133 157.773 108.376C157.667 108.619 157.502 108.832 157.291 108.994L163.917 112.804C164.773 113.295 165.466 112.898 165.492 111.921V101.808L166.159 102.184L166.127 112.302C166.127 113.698 165.13 114.299 163.912 113.604L155.669 108.863L150.697 106.01C150.055 105.593 149.52 105.032 149.137 104.37C148.753 103.709 148.533 102.967 148.492 102.205V94.6162C148.492 93.226 149.49 92.6564 150.713 93.3619L155.69 96.2207ZM149.138 102.586C149.167 103.119 149.322 103.638 149.59 104.1C149.858 104.562 150.232 104.955 150.681 105.247L155.653 108.105C156.509 108.602 157.228 108.199 157.228 107.227V99.6387C157.199 99.1058 157.044 98.5872 156.776 98.125C156.508 97.6628 156.134 97.2701 155.685 96.9785L150.713 94.1197C149.857 93.6285 149.138 94.0204 149.138 95.003V102.586Z" fill="#CA6754"/>
<path d="M140.948 75.0175L145.053 72.6343V82.7472C145.086 83.2838 145.245 83.8051 145.519 84.2684C145.793 84.7317 146.173 85.1238 146.628 85.4127L153.207 89.2018L149.091 91.5797L142.46 87.7697C142.009 87.4798 141.634 87.0874 141.366 86.6248C141.098 86.1623 140.943 85.643 140.916 85.1095L140.948 75.0175Z" fill="#8D8D8D"/>
<path d="M149.175 82.3187C149.155 82.129 149.187 81.9376 149.266 81.7641C149.346 81.5905 149.47 81.4411 149.626 81.331L153.748 78.9478C153.591 79.0579 153.467 79.2073 153.388 79.3809C153.308 79.5544 153.277 79.7458 153.296 79.9355L153.27 87.5242C153.303 88.0597 153.464 88.5798 153.737 89.0421C154.011 89.5043 154.39 89.8957 154.845 90.1844L159.817 93.0432C159.974 93.1582 160.159 93.2291 160.353 93.2484C160.547 93.2677 160.742 93.2348 160.919 93.1529L156.798 95.5309C156.623 95.6175 156.426 95.6536 156.232 95.6351C156.037 95.6167 155.851 95.5444 155.695 95.4264L150.723 92.5676C150.273 92.2762 149.898 91.8827 149.63 91.4194C149.362 90.9561 149.208 90.4362 149.18 89.9022L149.175 82.3187Z" fill="#8D8D8D"/>
<path d="M140.916 85.1305C140.943 85.6639 141.098 86.1833 141.366 86.6458C141.634 87.1083 142.009 87.5007 142.46 87.7907L149.091 91.6007C148.717 90.965 148.51 90.2463 148.487 89.5102V81.9216C148.487 80.5261 149.484 79.9617 150.702 80.662L155.68 83.5208C156.322 83.9375 156.856 84.4993 157.24 85.1605C157.623 85.8216 157.844 86.5634 157.885 87.3256V94.909C157.885 96.3044 156.882 96.8689 155.664 96.1685L150.687 93.3097L142.449 88.5747C141.806 88.1503 141.271 87.5819 140.888 86.9148C140.505 86.2477 140.285 85.5006 140.244 84.7333V74.6204L140.916 75.0019V85.1305ZM149.154 89.9022C149.181 90.4362 149.336 90.9562 149.604 91.4194C149.872 91.8827 150.247 92.2762 150.697 92.5676L155.669 95.4264C156.525 95.9177 157.244 95.5205 157.244 94.5432V86.9597C157.216 86.4263 157.062 85.907 156.795 85.4439C156.528 84.9808 156.155 84.5869 155.706 84.2943L150.729 81.4355C149.873 80.9442 149.18 81.3414 149.154 82.3187V89.9022Z" fill="#C5C5C5"/>
<path d="M153.275 78.1429C153.528 78.0276 153.806 77.9809 154.083 78.0075C154.36 78.0341 154.624 78.1331 154.85 78.2945L159.822 81.1533C160.464 81.5707 160.999 82.1325 161.383 82.7934C161.767 83.4543 161.989 84.1958 162.032 84.9581V92.5415C162.06 92.8126 162.015 93.0864 161.902 93.3344C161.788 93.5825 161.61 93.7959 161.386 93.9526L157.27 96.3358C157.492 96.1765 157.668 95.9627 157.781 95.7153C157.894 95.4679 157.941 95.1955 157.916 94.9247V87.3413C157.875 86.5791 157.654 85.8373 157.271 85.1761C156.888 84.515 156.353 83.9532 155.711 83.5365L150.734 80.6777C150.508 80.5164 150.244 80.4173 149.967 80.3907C149.69 80.3641 149.412 80.4108 149.159 80.5261L153.275 78.1429Z" fill="#A9A9A9"/>
<path d="M149.159 69.6343C149.14 69.4433 149.172 69.2507 149.252 69.0762C149.332 68.9017 149.458 68.7516 149.616 68.6413L153.732 66.2581C153.575 66.3694 153.451 66.5198 153.372 66.6942C153.293 66.8685 153.261 67.0606 153.28 67.2511V74.8345C153.309 75.3682 153.464 75.8877 153.732 76.3508C154 76.8139 154.374 77.2075 154.824 77.4999L159.796 80.3587C159.954 80.4719 160.139 80.5412 160.333 80.5596C160.526 80.578 160.722 80.5447 160.898 80.4632L156.782 82.8464C156.604 82.9282 156.408 82.9611 156.213 82.9418C156.018 82.9225 155.832 82.8517 155.674 82.7367L150.702 79.8831C150.253 79.5901 149.88 79.1963 149.612 78.7334C149.344 78.2704 149.189 77.7512 149.159 77.2177V69.6343Z" fill="#8C5043"/>
<path d="M161.386 81.2419L168.012 85.0519C168.17 85.1655 168.355 85.2354 168.548 85.2547C168.742 85.274 168.937 85.2419 169.114 85.1617L165.004 87.5397C164.827 87.6223 164.632 87.6561 164.438 87.6377C164.244 87.6193 164.059 87.5494 163.901 87.4352L157.276 83.6252L161.386 81.2419Z" fill="#8C5043"/>
<path d="M153.264 65.4585C153.517 65.3432 153.796 65.2965 154.073 65.3231C154.349 65.3497 154.614 65.4487 154.84 65.61L159.811 68.4688C160.453 68.8854 160.987 69.4464 161.37 70.1065C161.753 70.7666 161.974 71.5072 162.016 72.2684V79.857C162.04 80.1203 161.997 80.3853 161.891 80.6274C161.784 80.8696 161.618 81.081 161.407 81.242L157.291 83.6252C157.501 83.4636 157.666 83.2519 157.772 83.0098C157.877 82.7677 157.92 82.503 157.895 82.2402V74.6516C157.854 73.8901 157.633 73.149 157.25 72.4888C156.867 71.8285 156.332 71.2677 155.69 70.8521L150.718 67.9933C150.492 67.8319 150.228 67.7329 149.951 67.7063C149.675 67.6797 149.396 67.7264 149.143 67.8417L153.264 65.4585Z" fill="#A75B45"/>
<path d="M166.111 86.9335L166.143 76.8154L170.259 74.4374L170.254 84.5503C170.282 84.8281 170.235 85.1082 170.117 85.3618C170 85.6154 169.817 85.8332 169.587 85.9928L165.471 88.376C165.696 88.2134 165.874 87.9942 165.987 87.7408C166.099 87.4874 166.142 87.2089 166.111 86.9335Z" fill="#A75B45"/>
<path d="M166.143 76.8153L170.259 74.4373L169.598 74.0558L165.476 76.439L166.143 76.8153Z" fill="#CA6754"/>
<path d="M140.948 49.6488L145.064 47.2604L145.053 57.3786C145.086 57.9151 145.245 58.4364 145.519 58.8997C145.793 59.363 146.173 59.7552 146.628 60.044L153.254 63.854L149.138 66.232L142.507 62.4272C142.057 62.1352 141.683 61.7416 141.415 61.2784C141.147 60.8152 140.992 60.2956 140.964 59.7618L140.948 49.6488Z" fill="#8D8D8D"/>
<path d="M149.175 56.9501C149.155 56.7604 149.187 56.569 149.266 56.3954C149.346 56.2219 149.47 56.0724 149.626 55.9623L153.748 53.5791C153.591 53.6892 153.467 53.8387 153.388 54.0122C153.308 54.1858 153.277 54.3772 153.296 54.5669L153.27 62.1555C153.303 62.6911 153.464 63.2111 153.737 63.6734C154.011 64.1357 154.39 64.5271 154.845 64.8157L159.817 67.6745C159.974 67.7887 160.16 67.8587 160.354 67.8771C160.547 67.8955 160.743 67.8616 160.919 67.7791L156.798 70.1623C156.622 70.2448 156.426 70.2787 156.232 70.2603C156.038 70.2419 155.853 70.1719 155.695 70.0577L150.723 67.1989C150.273 66.9086 149.898 66.5162 149.63 66.0537C149.362 65.5913 149.208 65.0721 149.18 64.5387L149.175 56.9501Z" fill="#8D8D8D"/>
<path d="M153.275 52.7742C153.528 52.6588 153.806 52.6121 154.083 52.6387C154.36 52.6654 154.624 52.7644 154.85 52.9257L159.822 55.7845C160.464 56.2022 160.998 56.7641 161.382 57.4249C161.766 58.0858 161.989 58.8271 162.032 59.5893V67.1727C162.061 67.4439 162.016 67.7178 161.903 67.966C161.789 68.2142 161.611 68.4275 161.386 68.5838L157.27 70.967C157.492 70.8077 157.668 70.5939 157.781 70.3465C157.894 70.0991 157.941 69.8267 157.916 69.5559V61.9725C157.874 61.2105 157.653 60.469 157.27 59.808C156.887 59.147 156.353 58.5851 155.711 58.1677L150.734 55.3089C150.508 55.1476 150.244 55.0486 149.967 55.022C149.69 54.9953 149.412 55.0421 149.159 55.1574L153.275 52.7742Z" fill="#A9A9A9"/>

<path d="M277.865 108.806L277.602 154.73L175.142 96.8844V51.1697L277.865 108.806Z" fill="#87CCCB"/>
<path d="M173.682 48.2848L277.791 107.395V159.459L173.682 100.35V48.2848ZM275.66 153.674L275.781 110.264L175.987 53.6627V97.219L275.66 153.663V153.674Z" fill="#E8E8E8"/>
<path d="M243.183 139.103L242.626 139.223V87.8324H243.325L243.183 139.103Z" fill="#E8E8E8"/>
<path d="M204.747 117.131L204.185 117.257V65.861L204.889 66.4934L204.747 117.131Z" fill="#E8E8E8"/>
</g>

<path opacity="0.17" d="M70.6648 0.171021L264.309 111.466L263.894 256.962L96.7367 178.258L70.25 145.667L70.6648 0.171021Z" fill="#97D7EF"/>
<g opacity="0.7">
<path d="M82.53 113.258L82.3147 205.592L0.618042 158.252L0.838545 65.9183L82.53 113.258Z" fill="white"/>
</g>
<path d="M22.6999 83.9857L22.6422 103.114L5.92062 93.5029L5.97838 74.3745L22.6999 83.9857Z" fill="#E8CF78"/>
<path d="M50.0529 99.7066L49.9952 118.835L33.2789 109.224L33.3314 90.0953L50.0529 99.7066Z" fill="#C1D54B"/>
<path d="M77.4059 115.427L77.3534 134.556L60.6318 124.945L60.6843 105.816L77.4059 115.427Z" fill="#E36B5D"/>
<path d="M22.6107 115.276L22.5529 134.404L5.83139 124.793L5.88914 105.665L22.6107 115.276Z" fill="#16AFBE"/>
<path d="M49.9637 130.997L49.9111 150.125L33.1896 140.514L33.2421 121.385L49.9637 130.997Z" fill="#2E79B2"/>
<path d="M77.3166 146.717L77.2641 165.846L60.5426 156.235L60.5951 137.106L77.3166 146.717Z" fill="#FCCF11"/>
<path d="M22.5214 146.566L22.4637 165.694L5.74213 156.083L5.79988 136.955L22.5214 146.566Z" fill="#F26C36"/>
<path d="M49.8744 162.287L49.8167 181.415L33.1004 171.804L33.1529 152.676L49.8744 162.287Z" fill="#475059"/>
<path d="M77.2274 178.013L77.1749 197.136L60.4533 187.525L60.5058 168.396L77.2274 178.013Z" fill="#A7DCE5"/>
<path d="M82.3672 166.41C82.3672 166.41 86.3153 163.274 92.3424 164.581C93.1066 164.733 93.8273 165.053 94.452 165.516C95.0768 165.98 95.59 166.576 95.9545 167.262C96.742 169.05 98.4587 172.975 97.897 174.443C96.2957 178.624 88.8406 181.305 88.8406 181.305L82.3672 166.41Z" fill="#040E14"/>
<path d="M73.8253 206.988C73.8253 206.988 66.7744 222.599 66.3702 228.222C66.2442 229.994 66.5749 233.851 67.7405 235.194C70.6753 238.581 84.672 241.168 84.672 241.168C84.672 241.168 91.3291 232.178 91.3816 231.17C91.4341 230.161 73.8253 206.988 73.8253 206.988Z" fill="#A4B9BF"/>
<g style="mix-blend-mode:multiply" opacity="0.27">
<path d="M120.451 338.284C114.907 335.989 123.68 331.86 115.616 328.97C112.366 327.81 105.94 327.047 95.6184 327.047C84.1155 327.047 72.14 331.427 72.9695 340.468C73.7361 348.789 93.4712 355.18 113.311 354.125C128.946 353.299 135.729 347.064 131.687 342.444C130.379 340.897 122.935 339.313 120.451 338.284Z" fill="#231F20"/>
</g>
<path d="M91.0824 325.432C91.0824 325.432 91.2031 327.69 93.3609 328.045C94.6945 328.27 96.6212 328.49 96.6212 328.49C98.9523 328.254 101.819 328.537 102.207 330.277C102.302 330.617 102.343 330.97 102.328 331.322C102.102 332.561 102.633 331.552 100.785 332.937C100.785 332.937 97.3142 335.111 95.2142 335.89C92.5892 336.867 91.2609 336.799 90.4471 336.648C89.5925 336.402 88.711 336.26 87.8221 336.225C86.6723 336.272 86.8456 337.724 86.7721 338.838L83.1495 339.982C79.5059 340.625 76.9701 337.322 77.0436 336.46L78.3194 327.523L91.0824 325.432Z" fill="#8C633A"/>
<path d="M89.0768 335.994C90.0639 336.057 91.2136 335.994 94.2219 335.425C96.7367 334.949 100.554 332.744 100.554 332.744C101.467 332.179 102.234 331.458 102.291 330.716C102.314 330.957 102.323 331.2 102.318 331.442C102.318 332.592 101.241 333.136 100.365 333.637C100.365 333.637 97.3772 335.503 95.2037 336.015C92.3949 336.679 91.9854 336.538 90.7516 336.501L88.1266 336.402C87.6646 336.402 86.9978 336.601 86.9873 336.726C87.0346 336.663 87.2498 335.885 89.0768 335.994Z" fill="#141413"/>
<path d="M83.1915 339.02L86.7825 337.881C86.7825 338.247 86.7458 338.639 86.7195 339L83.1022 340.118C79.4587 340.761 76.9229 337.453 76.9964 336.595L77.0909 335.467C77.0174 336.329 79.5479 339.632 83.1915 339.02Z" fill="#141413"/>
<path d="M95.0934 255.436C94.4949 269.343 93.3977 296.201 93.2927 298.219C93.1719 300.534 92.4159 329.77 92.4159 329.77C92.4159 332.294 79.0807 335.555 78.0936 330.078C78.0936 330.078 77.4741 297.712 77.5319 295.198C77.5739 293.431 77.9939 269.202 78.5504 262.794C79.0019 257.594 95.2929 250.795 95.0934 255.436Z" fill="#0C5137"/>
<path d="M114.361 336.433C114.521 337.066 114.862 337.638 115.343 338.081C115.824 338.524 116.424 338.817 117.07 338.926C118.509 339.224 124.42 339.261 124.42 339.261C126.783 339.548 129.644 340.306 130.091 342.606C130.17 343.112 130.196 343.625 130.169 344.137C129.875 345.428 128.594 345.935 127.082 346.479C125.395 347.068 123.669 347.543 121.916 347.9C119.611 348.396 117.231 348.444 114.907 348.041C113.606 347.813 112.293 347.652 110.975 347.56C109.72 347.56 109.925 348.465 109.788 349.651L105.825 350.477C101.835 350.999 99.3198 347.994 99.43 347.095L99.682 337.526L114.361 336.433Z" fill="#A87843"/>
<path d="M112.372 347.383C113.422 347.492 116.572 348.052 119.722 347.686C122.725 347.341 127.55 345.595 127.55 345.595C128.904 345.114 130.059 344.289 130.175 343.505C130.202 343.758 130.202 344.014 130.175 344.268C129.881 345.559 128.6 346.066 127.088 346.609C125.399 347.199 123.674 347.676 121.921 348.036C119.615 348.523 117.236 348.569 114.913 348.172L111.573 347.696C110.833 347.587 110.103 347.78 110.088 347.916C110.093 347.853 110.403 347.179 112.372 347.383Z" fill="#383736"/>
<path d="M105.998 349.123L109.951 348.078C109.909 348.465 109.815 349.374 109.767 349.745L105.809 350.571C101.819 351.093 99.304 348.083 99.4143 347.189L99.4773 345.689C99.3775 346.614 102.003 349.635 105.998 349.123Z" fill="#383736"/>
<path opacity="0.95" d="M107.872 256.967L115.516 300.304V338.456C115.579 346.201 100.155 343.51 99.6505 341.623C97.0885 332.101 98.6005 306.978 97.6345 302.028C96.1015 294.304 84.714 258.493 84.714 258.493L107.872 256.967Z" fill="#0C5137"/>
<path d="M81.8842 210.003L79.6214 199.07L78.5714 186.49L90.6466 186.72L91.8016 198.824C92.1587 200.507 93.4502 200.721 94.6472 201.96L101.152 208.697C102.727 210.322 103.168 213.797 104.265 219.029L102.26 235.476L88.8563 235.837L82.0312 216.771C81.5442 214.546 81.4943 212.248 81.8842 210.003Z" fill="#FFE1CC"/>
<path d="M80.6242 195.254C79.1752 195.218 78.8759 195.526 78.7867 196.42C78.7435 197.023 78.6681 197.623 78.5609 198.218C78.4349 198.934 78.7552 198.913 78.7552 198.913C78.7552 198.913 86.0685 199.368 91.9434 201.782C96.1435 203.502 96.448 203.679 96.448 203.679L95.0042 201.066C93.8387 198.824 90.5784 197.047 86.079 196.101C84.2811 195.702 82.459 195.419 80.6242 195.254Z" fill="white"/>
<path d="M80.5402 166.656L87.9271 163.29L95.902 182.628C98.296 188.126 96.427 190.075 94.8519 190.906C91.4919 192.636 87.6961 193.619 85.2443 193.457C80.5192 193.143 76.4924 185.884 76.2036 185.392L68.7117 173.56L80.5402 166.656Z" fill="#FFE1CC"/>
<path d="M101.919 205.315C105.625 207.118 107.195 221.543 107.867 230.773C109.101 247.628 111.715 266.657 111.715 266.657C111.888 267.477 111.715 268.099 110.502 268.899C110.098 269.16 107.799 263.5 107.799 263.5C107.799 263.5 105.93 269.772 105.441 270.001C104.953 270.231 104.355 270.456 103.714 270.712C101.499 271.595 90.2056 274.961 77.5266 267.388C75.5631 266.212 75.4266 219.86 75.4266 219.86C74.0721 214.994 73.6258 208.482 73.8516 205.749C74.3766 199.556 78.6764 198.688 78.6764 198.688C78.6764 198.688 87.9113 199.775 93.2192 202.284C95.8232 203.522 96.6265 202.65 101.919 205.315Z" fill="#E6F5FA"/>
<path d="M130.511 197.387L136.391 189.354C136.391 189.354 136.622 182.716 137.136 180.574C137.824 177.71 142.911 171.908 144.124 171.062C144.649 170.68 145.011 172.154 144.072 173.628C143.368 174.731 142.108 178.123 142.108 178.123C142.108 178.123 145.699 182.115 145.715 183.939C145.715 184.833 144.318 186.249 144.318 186.249C144.243 187.7 144.02 189.14 143.652 190.546C143.31 191.549 140.575 193.54 140.575 193.54L135.85 202.796L130.511 197.387Z" fill="#FFE1CC"/>
<path d="M138.905 192.861C139.856 193.976 140.561 195.278 140.974 196.681C140.525 197.731 139.967 198.731 139.31 199.665C136.464 203.711 130.7 213.97 126.374 216.714C121.648 219.724 113.485 219.092 108.45 219.411C104.528 219.661 93.1562 219.714 91.6179 212.695C90.4996 207.604 92.8254 206.251 97.0465 205.326C102.89 204.04 113.936 207.442 120.394 206.794C122.221 206.611 133.802 190.07 133.802 190.07C133.802 190.07 136.312 189.877 138.905 192.861Z" fill="white"/>
<path d="M87.2078 178.353C86.716 178.686 86.3337 179.156 86.1087 179.705C85.8837 180.253 85.8259 180.855 85.9425 181.436C86.0414 181.925 86.2449 182.388 86.5393 182.792C86.8338 183.196 87.2122 183.532 87.6488 183.777C88.2139 184.045 88.8478 184.135 89.4653 184.034C89.4653 184.034 87.8431 181.143 87.5753 180.595C87.3659 179.864 87.2426 179.112 87.2078 178.353Z" fill="#EFCFBD"/>
<path d="M87.4493 177.767C87.4493 177.767 88.2788 177.244 88.3471 178.812C88.3381 179.87 88.5716 180.916 89.0296 181.87C89.3603 182.507 90.5469 184.305 90.5469 184.305C90.5469 184.305 90.4418 185.351 89.2921 184.514C88.4519 183.752 87.7736 182.829 87.2971 181.802C87.0083 181.243 86.373 178.002 87.4493 177.767Z" fill="#FFE8D9"/>
<path d="M86.7248 166.813C87.6831 166.612 88.6555 166.484 89.6334 166.431C94.0434 166.222 94.936 167.163 92.8779 170.435C92.1214 171.456 91.6866 172.679 91.6284 173.947C91.5549 176.199 93.5709 178.243 95.251 178.551C95.7685 178.638 96.3005 178.563 96.7735 178.337C97.2288 178.106 97.6324 177.786 97.96 177.396C97.6207 177.762 97.2098 178.056 96.7525 178.258C96.2934 178.446 95.7874 178.488 95.3035 178.379C93.7862 178.013 91.9854 176.016 92.1534 173.968C92.2269 173.022 93.5814 170.691 94.3007 169.536C97.2145 165.469 92.4474 164.492 88.0006 164.832C86.9506 164.832 86.1578 165.166 85.1025 165.328L86.7248 166.813Z" fill="#D9E1FF"/>
<path d="M92.1009 166.107C92.1009 166.107 94.2744 165.768 91.3029 171.997C89.6176 175.52 92.9672 179.027 95.1302 179.069C97.456 179.116 99.1938 176.278 99.283 175.212C99.451 173.21 98.5218 170.947 96.196 167.471C93.7442 163.808 92.1009 166.107 92.1009 166.107Z" fill="#040E14"/>
<path d="M89.4024 172.107C87.0241 170.016 77.8994 167.205 73.3056 165.867C63.5824 172.765 66.5382 181.117 72.9486 187.598C74.4291 189.093 78.5189 193.038 79.2907 193.268C80.8657 193.739 81.5482 192.95 81.5482 192.95C82.8397 192.092 84.5565 190.164 84.987 186.312L85.6328 182.251C85.953 180.213 87.0661 179.115 87.9061 179.471C88.7461 179.826 87.7906 179.774 88.9561 180.642C90.0061 181.415 90.6361 181.321 90.5679 180.537C90.5994 180.537 89.5231 172.603 89.4024 172.107Z" fill="#5B350C"/>
<path d="M91.6284 173.947C91.6651 172.901 92.0431 171.856 92.8779 170.435C94.2009 168.156 94.3112 167.058 92.7887 166.619C91.9289 166.227 91.2 165.598 90.6886 164.806C90.6886 164.806 92.8307 164.947 94.0434 165.637C95.2562 166.327 95.6185 167.597 94.2482 169.536C93.5289 170.691 92.1744 173.022 92.1009 173.968C91.9487 176.016 93.7494 178.013 95.251 178.379C95.7349 178.488 96.2409 178.446 96.7 178.258C97.1629 178.058 97.5793 177.764 97.9233 177.396C97.5957 177.786 97.192 178.106 96.7367 178.337C96.2637 178.563 95.7318 178.638 95.2142 178.551C93.5709 178.243 91.5549 176.199 91.6284 173.947Z" fill="#D9E1FF"/>
<path d="M91.9224 176.403C91.9224 176.403 85.764 185.042 80.0782 187.572C75.2533 189.725 73.0798 187.708 73.0798 187.708C73.0798 187.708 72.665 188.277 73.7413 188.993C74.1525 189.245 74.5408 189.531 74.9016 189.85C74.9016 189.85 76.0356 191.789 82.1415 188.387C87.5753 185.356 93.4554 178.17 93.4554 178.17L91.9224 176.403Z" fill="#040E14"/>
<path d="M92.1744 181.755L90.3264 182.063C90.4683 181.208 90.4035 180.332 90.1374 179.507L91.9906 179.199C92.2576 180.024 92.3207 180.901 92.1744 181.755Z" fill="#209674"/>
<path d="M91.9906 179.199L90.1373 179.507C90.0109 179.051 89.8349 178.609 89.6123 178.19L91.4656 177.882C91.6873 178.301 91.8633 178.743 91.9906 179.199Z" fill="#A6D5C7"/>
<path d="M91.9906 179.199L90.1373 179.507C90.0109 179.051 89.8349 178.609 89.6123 178.19L91.4656 177.882C91.6873 178.301 91.8633 178.743 91.9906 179.199Z" fill="#A6D5C7"/>
<path d="M91.4446 177.882L89.5913 178.19C89.4413 177.912 89.2655 177.648 89.0663 177.401C88.9091 177.164 88.6944 176.971 88.4421 176.838C88.1897 176.706 87.9078 176.639 87.6226 176.643L89.4706 176.335C89.7565 176.33 90.0391 176.397 90.2916 176.531C90.5442 176.664 90.7585 176.859 90.9144 177.098C91.1146 177.342 91.2904 177.604 91.4394 177.882H91.4446Z" fill="#209674"/>
<path d="M91.2451 182.931L89.3918 183.239C89.8276 183.166 90.1741 182.769 90.3263 182.063L92.1744 181.755C92.0221 182.46 91.6756 182.858 91.2451 182.931Z" fill="#209674"/>
<path d="M88.5308 177.527L86.6775 177.835C86.8298 177.129 87.1763 176.732 87.6068 176.659L89.4548 176.351C89.0243 176.424 88.6831 176.826 88.5308 177.527Z" fill="#F46D11"/>
<path d="M91.2451 182.931L89.3918 183.239C88.9666 183.312 88.4521 183.067 87.9533 182.486C87.7525 182.241 87.5766 181.977 87.4283 181.697L89.2763 181.389C89.4234 181.668 89.5993 181.931 89.8014 182.173C90.3001 182.758 90.8146 183.004 91.2451 182.931Z" fill="#F46D11"/>
<path d="M89.2606 181.389L87.4126 181.697C87.1811 181.28 86.9962 180.838 86.8613 180.38L88.7146 180.072C88.8401 180.529 89.0161 180.971 89.2396 181.389H89.2606Z" fill="#FBC5A0"/>
<path d="M88.7146 180.072L86.8613 180.38C86.5967 179.553 86.5337 178.675 86.6775 177.819L88.5308 177.511C88.3816 178.367 88.4447 179.246 88.7146 180.072Z" fill="#F46D11"/>
<path d="M88.5308 177.527C88.8301 176.126 89.8958 175.959 90.8986 177.114C91.4173 177.763 91.7978 178.511 92.0171 179.312C92.2364 180.112 92.2899 180.949 92.1744 181.77C91.8751 183.176 90.8094 183.338 89.8013 182.189C89.2832 181.538 88.9034 180.789 88.6849 179.988C88.4665 179.186 88.4141 178.349 88.5308 177.527Z" fill="#C1BFBD"/>
<path d="M87.8273 183.077C87.5724 182.773 87.3473 182.446 87.1553 182.1C86.8772 181.585 86.6521 181.044 86.4833 180.485C86.1563 179.464 86.0789 178.38 86.2575 177.323C86.4465 176.455 86.8718 175.969 87.4021 175.875L89.2553 175.567C88.7303 175.656 88.2946 176.152 88.1056 177.02C87.9321 178.068 88.0095 179.142 88.3313 180.155C88.4986 180.718 88.7257 181.261 89.0086 181.776C89.1988 182.123 89.4239 182.451 89.6806 182.753C90.3001 183.469 90.9301 183.798 91.4551 183.689L89.6071 183.997C89.0716 184.096 88.4416 183.798 87.8273 183.077Z" fill="#5B7484"/>
<path d="M88.1003 177.004C88.4783 175.269 89.7856 175.044 91.0298 176.481C92.2741 177.919 92.9724 180.5 92.6049 182.23C92.2374 183.96 90.9248 184.19 89.6806 182.753C88.4363 181.316 87.7275 178.75 88.1003 177.004ZM92.1744 181.739C92.2899 180.917 92.2364 180.081 92.0171 179.28C91.7978 178.48 91.4173 177.732 90.8986 177.082C89.8958 175.912 88.8301 176.095 88.5308 177.495C88.4141 178.318 88.4665 179.155 88.6849 179.956C88.9033 180.758 89.2832 181.506 89.8013 182.157C90.8093 183.328 91.8751 183.145 92.1744 181.739Z" fill="#040E14"/>
<path d="M85.071 176.549L85.4858 174.595L85.5908 174.579L85.1708 176.534L85.071 176.549Z" fill="#31A9F4"/>
<path d="M85.1708 176.534L85.5908 174.579L85.8428 174.532L85.428 176.487L85.1708 176.534Z" fill="#15634C"/>
<path d="M85.5278 176.471L86.9243 178.112L86.4676 178.19L85.071 176.549L85.1708 176.534L85.428 176.487L85.5278 176.471Z" fill="#314656"/>
<path d="M85.428 176.487L85.8428 174.532L85.9478 174.516L85.5278 176.471L85.428 176.487Z" fill="#31A9F4"/>
<path d="M85.5278 176.471L85.9478 174.516L87.3443 176.152L86.9243 178.112L85.5278 176.471Z" fill="#040E14"/>
<path d="M84.2048 175.049L84.6248 173.095L85.8428 174.532L85.428 176.487L84.2048 175.049Z" fill="#232323"/>
<path d="M84.2048 175.049L85.428 176.487L85.1708 176.534L83.9475 175.096L84.2048 175.049Z" fill="#565656"/>
<path d="M83.9475 175.096L84.3675 173.142L84.6248 173.095L84.2048 175.049L83.9475 175.096Z" fill="#15634C"/>
<path d="M75.1169 169.489C78.6082 169.071 81.0285 171.177 82.7663 173.22L84.3045 175.034H84.2048L83.9475 175.081H83.8478L82.4355 173.513C81.549 172.491 80.4372 171.686 79.1867 171.162C77.9363 170.638 76.5812 170.409 75.2271 170.492C73.6918 170.578 72.1858 170.947 70.7855 171.579C69.5079 172.101 68.3398 172.856 67.3415 173.806C67.2417 173.921 67.0475 173.356 67.0895 173.283C67.4045 172.677 70.2395 170.868 70.796 170.78L75.1169 169.489Z" fill="#5B7484"/>
<path d="M73.0798 168.642C73.0798 168.642 70.292 169.442 68.9795 170.487C68.4873 170.863 68.0871 171.346 67.8087 171.898L67.058 173.299C67.0107 173.168 70.6385 170.388 75.4213 170.048C77.5791 169.891 81.0284 171.192 82.7715 173.236L84.3098 175.049L84.7298 173.095L83.181 171.255C81.4432 169.227 77.1276 167.597 73.0798 168.642Z" fill="#040E14"/>
<path opacity="0.18" d="M86.184 164.68L86.4938 165.621L89.0821 169.227C89.5791 169.272 90.0471 169.48 90.4121 169.819C90.7772 170.158 91.0185 170.608 91.0981 171.098C91.3186 172.478 90.8146 173.973 91.0981 175.008C91.4394 176.346 92.8674 177.035 92.9146 175.483C92.9409 174.631 93.1194 174.009 93.8387 172.238C94.6734 170.184 96.6685 168.407 95.1669 166.29C94.0959 164.806 90.3683 163.609 86.184 164.68Z" fill="#F5FAFC"/>
<path d="M89.4024 172.081C89.3446 171.987 88.9036 170.283 89.2921 169.51C89.3498 169.405 89.8171 171.02 89.8854 170.847C90.4786 169.724 90.6361 165.553 90.4786 165.339C90.4786 165.339 90.3106 162.553 86.7143 162.234C83.7795 161.973 78.4349 162.757 75.6419 164.377C74.8399 164.834 74.0619 165.331 73.3108 165.867C75.7259 166.567 79.3957 168.773 82.6822 169.975C85.638 171.057 88.2788 171.124 89.4076 172.107C89.4078 172.098 89.406 172.089 89.4024 172.081Z" fill="#5B350C"/>
<path d="M91.4447 171.82C91.4447 171.82 91.4446 169.358 90.7096 170.037L91.4447 171.82Z" fill="#040E14"/>
</svg>
