<svg width="21" height="20" viewBox="0 0 21 20" fill="none" xmlns="http://www.w3.org/2000/svg">
<mask id="path-1-inside-1_328_4252" fill="white">
<path d="M7.16667 4.79175C6.825 4.79175 6.54167 4.50841 6.54167 4.16675V1.66675C6.54167 1.32508 6.825 1.04175 7.16667 1.04175C7.50833 1.04175 7.79167 1.32508 7.79167 1.66675V4.16675C7.79167 4.50841 7.50833 4.79175 7.16667 4.79175Z"/>
</mask>
<path d="M7.16667 4.79175C6.825 4.79175 6.54167 4.50841 6.54167 4.16675V1.66675C6.54167 1.32508 6.825 1.04175 7.16667 1.04175C7.50833 1.04175 7.79167 1.32508 7.79167 1.66675V4.16675C7.79167 4.50841 7.50833 4.79175 7.16667 4.79175Z" fill="#231F20"/>
<path d="M7.16667 3.29175C7.65343 3.29175 8.04167 3.67999 8.04167 4.16675H5.04167C5.04167 5.33684 5.99657 6.29175 7.16667 6.29175V3.29175ZM8.04167 4.16675V1.66675H5.04167V4.16675H8.04167ZM8.04167 1.66675C8.04167 2.15351 7.65343 2.54175 7.16667 2.54175V-0.458252C5.99657 -0.458252 5.04167 0.496654 5.04167 1.66675H8.04167ZM7.16667 2.54175C6.67991 2.54175 6.29167 2.15351 6.29167 1.66675H9.29167C9.29167 0.496654 8.33676 -0.458252 7.16667 -0.458252V2.54175ZM6.29167 1.66675V4.16675H9.29167V1.66675H6.29167ZM6.29167 4.16675C6.29167 3.67999 6.67991 3.29175 7.16667 3.29175V6.29175C8.33676 6.29175 9.29167 5.33684 9.29167 4.16675H6.29167Z" fill="#231F20" mask="url(#path-1-inside-1_328_4252)"/>
<mask id="path-3-inside-2_328_4252" fill="white">
<path d="M13.8333 4.79175C13.4917 4.79175 13.2083 4.50841 13.2083 4.16675V1.66675C13.2083 1.32508 13.4917 1.04175 13.8333 1.04175C14.175 1.04175 14.4583 1.32508 14.4583 1.66675V4.16675C14.4583 4.50841 14.175 4.79175 13.8333 4.79175Z"/>
</mask>
<path d="M13.8333 4.79175C13.4917 4.79175 13.2083 4.50841 13.2083 4.16675V1.66675C13.2083 1.32508 13.4917 1.04175 13.8333 1.04175C14.175 1.04175 14.4583 1.32508 14.4583 1.66675V4.16675C14.4583 4.50841 14.175 4.79175 13.8333 4.79175Z" fill="#231F20"/>
<path d="M13.8333 3.29175C14.3201 3.29175 14.7083 3.67999 14.7083 4.16675H11.7083C11.7083 5.33684 12.6632 6.29175 13.8333 6.29175V3.29175ZM14.7083 4.16675V1.66675H11.7083V4.16675H14.7083ZM14.7083 1.66675C14.7083 2.15351 14.3201 2.54175 13.8333 2.54175V-0.458252C12.6632 -0.458252 11.7083 0.496654 11.7083 1.66675H14.7083ZM13.8333 2.54175C13.3466 2.54175 12.9583 2.15351 12.9583 1.66675H15.9583C15.9583 0.496654 15.0034 -0.458252 13.8333 -0.458252V2.54175ZM12.9583 1.66675V4.16675H15.9583V1.66675H12.9583ZM12.9583 4.16675C12.9583 3.67999 13.3466 3.29175 13.8333 3.29175V6.29175C15.0034 6.29175 15.9583 5.33684 15.9583 4.16675H12.9583Z" fill="#231F20" mask="url(#path-3-inside-2_328_4252)"/>
<mask id="path-5-inside-3_328_4252" fill="white">
<path d="M13 11.4583H6.33333C5.99167 11.4583 5.70833 11.1749 5.70833 10.8333C5.70833 10.4916 5.99167 10.2083 6.33333 10.2083H13C13.3417 10.2083 13.625 10.4916 13.625 10.8333C13.625 11.1749 13.3417 11.4583 13 11.4583Z"/>
</mask>
<path d="M13 11.4583H6.33333C5.99167 11.4583 5.70833 11.1749 5.70833 10.8333C5.70833 10.4916 5.99167 10.2083 6.33333 10.2083H13C13.3417 10.2083 13.625 10.4916 13.625 10.8333C13.625 11.1749 13.3417 11.4583 13 11.4583Z" fill="#231F20"/>
<path d="M13 9.95825H6.33333V12.9583H13V9.95825ZM6.33333 9.95825C6.82009 9.95825 7.20833 10.3465 7.20833 10.8333H4.20833C4.20833 12.0033 5.16324 12.9583 6.33333 12.9583V9.95825ZM7.20833 10.8333C7.20833 11.32 6.82009 11.7083 6.33333 11.7083V8.70825C5.16324 8.70825 4.20833 9.66316 4.20833 10.8333H7.20833ZM6.33333 11.7083H13V8.70825H6.33333V11.7083ZM13 11.7083C12.5132 11.7083 12.125 11.32 12.125 10.8333H15.125C15.125 9.66316 14.1701 8.70825 13 8.70825V11.7083ZM12.125 10.8333C12.125 10.3465 12.5132 9.95825 13 9.95825V12.9583C14.1701 12.9583 15.125 12.0033 15.125 10.8333H12.125Z" fill="#231F20" mask="url(#path-5-inside-3_328_4252)"/>
<mask id="path-7-inside-4_328_4252" fill="white">
<path d="M10.5 14.7917H6.33333C5.99167 14.7917 5.70833 14.5084 5.70833 14.1667C5.70833 13.8251 5.99167 13.5417 6.33333 13.5417H10.5C10.8417 13.5417 11.125 13.8251 11.125 14.1667C11.125 14.5084 10.8417 14.7917 10.5 14.7917Z"/>
</mask>
<path d="M10.5 14.7917H6.33333C5.99167 14.7917 5.70833 14.5084 5.70833 14.1667C5.70833 13.8251 5.99167 13.5417 6.33333 13.5417H10.5C10.8417 13.5417 11.125 13.8251 11.125 14.1667C11.125 14.5084 10.8417 14.7917 10.5 14.7917Z" fill="#292D32"/>
<path d="M10.5 13.2917H6.33333V16.2917H10.5V13.2917ZM6.33333 13.2917C6.82009 13.2917 7.20833 13.68 7.20833 14.1667H4.20833C4.20833 15.3368 5.16324 16.2917 6.33333 16.2917V13.2917ZM7.20833 14.1667C7.20833 14.6535 6.82009 15.0417 6.33333 15.0417V12.0417C5.16324 12.0417 4.20833 12.9967 4.20833 14.1667H7.20833ZM6.33333 15.0417H10.5V12.0417H6.33333V15.0417ZM10.5 15.0417C10.0132 15.0417 9.625 14.6535 9.625 14.1667H12.625C12.625 12.9967 11.6701 12.0417 10.5 12.0417V15.0417ZM9.625 14.1667C9.625 13.68 10.0132 13.2917 10.5 13.2917V16.2917C11.6701 16.2917 12.625 15.3368 12.625 14.1667H9.625Z" fill="#231F20" mask="url(#path-7-inside-4_328_4252)"/>
<path d="M13 18.9584H8C3.31667 18.9584 2.375 16.7501 2.375 13.1834V8.04175C2.375 4.09175 3.70833 2.48341 7.13333 2.29175H13.8333C13.8417 2.29175 13.8583 2.29175 13.8667 2.29175C17.2917 2.48341 18.625 4.09175 18.625 8.04175V13.1834C18.625 16.7501 17.6833 18.9584 13 18.9584ZM7.16667 3.54175C4.83333 3.67508 3.625 4.40841 3.625 8.04175V13.1834C3.625 16.3751 4.23333 17.7084 8 17.7084H13C16.7667 17.7084 17.375 16.3751 17.375 13.1834V8.04175C17.375 4.41675 16.175 3.67508 13.8167 3.54175H7.16667Z" fill="#292D32"/>
</svg>
