<svg width="21" height="20" viewBox="0 0 21 20" fill="none" xmlns="http://www.w3.org/2000/svg">
<mask id="path-1-inside-1_328_4144" fill="white">
<path d="M7.4082 5.24175C7.0582 5.24175 6.7832 4.95842 6.7832 4.61675V2.29175C6.7832 1.95008 7.0582 1.66675 7.4082 1.66675C7.7582 1.66675 8.0332 1.95008 8.0332 2.29175V4.60842C8.0332 4.95842 7.7582 5.24175 7.4082 5.24175Z"/>
</mask>
<path d="M7.4082 5.24175C7.0582 5.24175 6.7832 4.95842 6.7832 4.61675V2.29175C6.7832 1.95008 7.0582 1.66675 7.4082 1.66675C7.7582 1.66675 8.0332 1.95008 8.0332 2.29175V4.60842C8.0332 4.95842 7.7582 5.24175 7.4082 5.24175Z" fill="#0C5137"/>
<path d="M6.7832 2.29175H5.2832H6.7832ZM7.4082 3.74175C7.89963 3.74175 8.2832 4.14305 8.2832 4.61675H5.2832C5.2832 5.77378 6.21677 6.74175 7.4082 6.74175V3.74175ZM8.2832 4.61675V2.29175H5.2832V4.61675H8.2832ZM8.2832 2.29175C8.2832 2.76544 7.89963 3.16675 7.4082 3.16675V0.166748C6.21677 0.166748 5.2832 1.13472 5.2832 2.29175H8.2832ZM7.4082 3.16675C6.91677 3.16675 6.5332 2.76544 6.5332 2.29175H9.5332C9.5332 1.13472 8.59963 0.166748 7.4082 0.166748V3.16675ZM6.5332 2.29175V4.60842H9.5332V2.29175H6.5332ZM6.5332 4.60842C6.5332 4.15605 6.90395 3.74175 7.4082 3.74175V6.74175C8.61246 6.74175 9.5332 5.76078 9.5332 4.60842H6.5332Z" fill="#0C5137" mask="url(#path-1-inside-1_328_4144)"/>
<mask id="path-3-inside-2_328_4144" fill="white">
<path d="M13.5918 5.24175C13.2418 5.24175 12.9668 4.95842 12.9668 4.61675V2.29175C12.9668 1.94175 13.2501 1.66675 13.5918 1.66675C13.9418 1.66675 14.2168 1.95008 14.2168 2.29175V4.60842C14.2168 4.95842 13.9418 5.24175 13.5918 5.24175Z"/>
</mask>
<path d="M13.5918 5.24175C13.2418 5.24175 12.9668 4.95842 12.9668 4.61675V2.29175C12.9668 1.94175 13.2501 1.66675 13.5918 1.66675C13.9418 1.66675 14.2168 1.95008 14.2168 2.29175V4.60842C14.2168 4.95842 13.9418 5.24175 13.5918 5.24175Z" fill="#0C5137"/>
<path d="M13.5918 3.74175C14.0832 3.74175 14.4668 4.14305 14.4668 4.61675H11.4668C11.4668 5.77378 12.4004 6.74175 13.5918 6.74175V3.74175ZM14.4668 4.61675V2.29175H11.4668V4.61675H14.4668ZM14.4668 2.29175C14.4668 2.78318 14.0655 3.16675 13.5918 3.16675V0.166748C12.4348 0.166748 11.4668 1.10032 11.4668 2.29175H14.4668ZM13.5918 3.16675C13.1004 3.16675 12.7168 2.76544 12.7168 2.29175H15.7168C15.7168 1.13472 14.7832 0.166748 13.5918 0.166748V3.16675ZM12.7168 2.29175V4.60842H15.7168V2.29175H12.7168ZM12.7168 4.60842C12.7168 4.15606 13.0875 3.74175 13.5918 3.74175V6.74175C14.7961 6.74175 15.7168 5.76077 15.7168 4.60842H12.7168Z" fill="#0C5137" mask="url(#path-3-inside-2_328_4144)"/>
<path d="M5.96239 6.7983L5.96905 6.80295L5.9758 6.80745C6.09053 6.88394 6.21043 6.9438 6.28665 6.98185C6.29058 6.98382 6.29439 6.98572 6.29808 6.98757C6.41382 7.04544 6.53352 7.09404 6.65701 7.13179C6.79675 7.17762 6.95681 7.21536 7.13468 7.22995C7.31703 7.25124 7.49996 7.25124 7.68231 7.22995C7.85647 7.21566 8.01355 7.17919 8.15119 7.13466C8.28186 7.09758 8.40951 7.04732 8.53128 6.98139C8.60559 6.94429 8.72087 6.88665 8.83244 6.81324C9.55858 6.35273 10.0335 5.53459 10.0335 4.61675V3.75008C10.0335 3.7295 10.0412 3.70925 10.0586 3.69187C10.076 3.67449 10.0962 3.66675 10.1168 3.66675H10.8835C10.9041 3.66675 10.9243 3.67449 10.9417 3.69187C10.9591 3.70925 10.9668 3.7295 10.9668 3.75008V4.61675C10.9668 6.1553 12.2954 7.39235 13.8687 7.22946C15.2834 7.08415 16.2168 5.8074 16.2168 4.50841V4.42508C16.2168 4.39946 16.223 4.38674 16.2282 4.37868C16.2352 4.36799 16.2478 4.3554 16.2668 4.3459C16.2859 4.33637 16.3042 4.33353 16.318 4.33443C16.3283 4.3351 16.3413 4.3379 16.3593 4.35068C17.1563 4.95918 17.6668 5.90028 17.6668 6.97508V14.2751C17.6668 16.1025 16.1859 17.5834 14.3585 17.5834H6.64183C4.81438 17.5834 3.3335 16.1025 3.3335 14.2751V6.97508C3.3335 6.8907 3.33945 6.80192 3.34794 6.68299C3.35618 6.5845 3.36212 6.52693 3.3714 6.47591L3.37457 6.45846L3.37692 6.44087C3.38942 6.34711 3.40759 6.25829 3.42964 6.18112L3.42975 6.18115L3.43317 6.16833C3.46811 6.03731 3.49086 5.95528 3.52152 5.87862L2.82516 5.60008L3.52152 5.87862C3.52783 5.86285 3.53322 5.84851 3.53717 5.8378L3.56519 5.79111L3.592 5.70398C3.60087 5.67515 3.61442 5.64308 3.64249 5.58508L3.64989 5.57768L3.70432 5.46882C3.75154 5.37438 3.79359 5.29692 3.83247 5.23677L3.85109 5.21815L3.89724 5.14315C3.95006 5.05732 3.9969 4.99234 4.0447 4.94021L4.06521 4.91783L4.08384 4.89387C4.21987 4.71898 4.38454 4.55367 4.57186 4.40649L4.60712 4.37878L4.60814 4.37776C4.61537 4.37243 4.6237 4.36618 4.63223 4.35954C4.63613 4.35651 4.64033 4.3532 4.64479 4.34963L4.67184 4.3361C4.6918 4.33282 4.71579 4.33612 4.74115 4.35118C4.75789 4.36112 4.76819 4.37272 4.77375 4.38206C4.77805 4.38928 4.7835 4.40126 4.7835 4.42508V4.50841C4.7835 5.42389 5.23282 6.28876 5.96239 6.7983ZM3.78883 5.28041L3.79117 5.27807C3.78789 5.28144 3.78678 5.28245 3.78883 5.28041ZM4.63401 4.35292C4.63321 4.35333 4.63246 4.3537 4.63193 4.35397L4.63194 4.35397L4.63401 4.35292ZM4.63169 4.35409C4.63115 4.35436 4.63096 4.35446 4.6314 4.35424L4.63169 4.35409ZM6.6335 15.2667H10.5002C11.2709 15.2667 11.8752 14.6411 11.8752 13.8917C11.8752 13.1406 11.2773 12.5084 10.5002 12.5084H6.6335C5.87117 12.5084 5.2585 13.134 5.2585 13.8917C5.2585 14.6476 5.87762 15.2667 6.6335 15.2667ZM6.6335 12.1751H12.8168C13.5746 12.1751 14.2002 11.5624 14.2002 10.8001C14.2002 10.0359 13.581 9.41675 12.8168 9.41675H6.6335C5.87117 9.41675 5.2585 10.0423 5.2585 10.8001C5.2585 11.556 5.87762 12.1751 6.6335 12.1751Z" fill="#0C5137" stroke="#0C5137" stroke-width="1.5"/>
</svg>
