<svg width="18" height="18" viewBox="0 0 18 18" fill="none" xmlns="http://www.w3.org/2000/svg">
<mask id="path-1-inside-1_886_4284" fill="white">
<path d="M9.00011 17.0621C9.18011 17.0621 9.36011 17.0396 9.53261 16.9871C13.4251 15.9146 16.2451 12.2771 16.2451 8.3321V5.03959C16.2451 4.19959 15.6376 3.29213 14.8576 2.96963L10.6801 1.25961C9.59261 0.817109 8.40012 0.817109 7.32012 1.25961L3.14262 2.96963C2.36262 3.29213 1.75511 4.19959 1.75511 5.03959V8.3321C1.75511 12.2696 4.58262 15.9071 8.46762 16.9871C8.64012 17.0396 8.82011 17.0621 9.00011 17.0621ZM9.00011 2.06211C9.42761 2.06211 9.84762 2.14463 10.2526 2.30963L14.4301 4.0196C14.7901 4.1696 15.1201 4.6571 15.1201 5.0471V8.33961C15.1201 11.7821 12.6451 14.9621 9.23261 15.9071C9.08261 15.9521 8.91762 15.9521 8.76762 15.9071C5.35512 14.9621 2.88011 11.7821 2.88011 8.33961V5.0471C2.88011 4.6571 3.21012 4.1696 3.57012 4.0196L7.7476 2.30963C8.1526 2.14463 8.57261 2.06211 9.00011 2.06211Z"/>
</mask>
<path d="M9.00011 17.0621C9.18011 17.0621 9.36011 17.0396 9.53261 16.9871C13.4251 15.9146 16.2451 12.2771 16.2451 8.3321V5.03959C16.2451 4.19959 15.6376 3.29213 14.8576 2.96963L10.6801 1.25961C9.59261 0.817109 8.40012 0.817109 7.32012 1.25961L3.14262 2.96963C2.36262 3.29213 1.75511 4.19959 1.75511 5.03959V8.3321C1.75511 12.2696 4.58262 15.9071 8.46762 16.9871C8.64012 17.0396 8.82011 17.0621 9.00011 17.0621ZM9.00011 2.06211C9.42761 2.06211 9.84762 2.14463 10.2526 2.30963L14.4301 4.0196C14.7901 4.1696 15.1201 4.6571 15.1201 5.0471V8.33961C15.1201 11.7821 12.6451 14.9621 9.23261 15.9071C9.08261 15.9521 8.91762 15.9521 8.76762 15.9071C5.35512 14.9621 2.88011 11.7821 2.88011 8.33961V5.0471C2.88011 4.6571 3.21012 4.1696 3.57012 4.0196L7.7476 2.30963C8.1526 2.14463 8.57261 2.06211 9.00011 2.06211Z" fill="#292D32"/>
<path d="M9.53261 16.9871L9.09587 15.5521L9.11494 15.5463L9.13416 15.541L9.53261 16.9871ZM14.8576 2.96963L15.4259 1.58142L15.4307 1.58344L14.8576 2.96963ZM10.6801 1.25961L11.2454 -0.12978L11.2484 -0.12859L10.6801 1.25961ZM7.32012 1.25961L7.88882 2.64762L7.88837 2.64781L7.32012 1.25961ZM3.14262 2.96963L2.56948 1.58344L2.57437 1.58143L3.14262 2.96963ZM8.46762 16.9871L8.86937 15.5419L8.88693 15.5468L8.90436 15.5521L8.46762 16.9871ZM10.2526 2.30963L10.8186 0.920487L10.8209 0.921424L10.2526 2.30963ZM14.4301 4.0196L14.9984 2.63137L15.007 2.63499L14.4301 4.0196ZM9.23261 15.9071L8.80159 14.4704L8.8169 14.4658L8.83229 14.4615L9.23261 15.9071ZM8.76762 15.9071L9.16793 14.4615L9.18333 14.4658L9.19864 14.4704L8.76762 15.9071ZM3.57012 4.0196L2.99319 2.63496L3.00189 2.6314L3.57012 4.0196ZM7.7476 2.30963L7.17937 0.921423L7.18166 0.920489L7.7476 2.30963ZM9.00011 15.5621C9.05687 15.5621 9.08681 15.5549 9.09587 15.5521L9.96935 18.4221C9.6334 18.5244 9.30336 18.5621 9.00011 18.5621V15.5621ZM9.13416 15.541C12.397 14.642 14.7451 11.5805 14.7451 8.3321H17.7451C17.7451 12.9737 14.4532 17.1873 9.93106 18.4332L9.13416 15.541ZM14.7451 8.3321V5.03959H17.7451V8.3321H14.7451ZM14.7451 5.03959C14.7451 4.80897 14.5056 4.44726 14.2845 4.35582L15.4307 1.58344C16.7696 2.137 17.7451 3.59022 17.7451 5.03959H14.7451ZM14.2894 4.35783L10.1119 2.64781L11.2484 -0.12859L15.4259 1.58143L14.2894 4.35783ZM10.1148 2.649C9.38847 2.35347 8.60314 2.35495 7.88882 2.64762L6.75142 -0.128404C8.19711 -0.720733 9.79674 -0.719248 11.2454 -0.129777L10.1148 2.649ZM7.88837 2.64781L3.71086 4.35783L2.57437 1.58143L6.75188 -0.12859L7.88837 2.64781ZM3.71575 4.35582C3.49458 4.44726 3.25511 4.80897 3.25511 5.03959H0.255112C0.255112 3.59022 1.23065 2.137 2.56948 1.58344L3.71575 4.35582ZM3.25511 5.03959V8.3321H0.255112V5.03959H3.25511ZM3.25511 8.3321C3.25511 11.5706 5.60871 14.6355 8.86937 15.5419L8.06587 18.4323C3.55653 17.1788 0.255112 12.9687 0.255112 8.3321H3.25511ZM8.90436 15.5521C8.91342 15.5549 8.94336 15.5621 9.00011 15.5621V18.5621C8.69687 18.5621 8.36683 18.5244 8.03088 18.4221L8.90436 15.5521ZM9.00011 0.562115C9.62446 0.562115 10.2365 0.683343 10.8186 0.920489L9.68668 3.69877C9.45876 3.60591 9.23076 3.56211 9.00011 3.56211V0.562115ZM10.8209 0.921424L14.9983 2.6314L13.8619 5.40781L9.68439 3.69783L10.8209 0.921424ZM15.007 2.63499C15.5348 2.8549 15.9162 3.25191 16.1544 3.60561C16.3919 3.95847 16.6201 4.46621 16.6201 5.0471H13.6201C13.6201 5.15523 13.6416 5.22309 13.6495 5.24539C13.6585 5.27072 13.6654 5.28044 13.6658 5.28109C13.6663 5.28181 13.672 5.29072 13.6903 5.30705C13.7061 5.32122 13.7576 5.3644 13.8532 5.40422L15.007 2.63499ZM16.6201 5.0471V8.33961H13.6201V5.0471H16.6201ZM16.6201 8.33961C16.6201 12.4836 13.6686 16.2352 9.63293 17.3527L8.83229 14.4615C11.6216 13.6891 13.6201 11.0806 13.6201 8.33961H16.6201ZM9.66363 17.3439C9.23248 17.4732 8.76775 17.4732 8.33659 17.3439L9.19864 14.4704C9.06748 14.431 8.93275 14.431 8.80159 14.4704L9.66363 17.3439ZM8.3673 17.3527C4.33162 16.2352 1.38011 12.4836 1.38011 8.33961H4.38011C4.38011 11.0806 6.37861 13.6891 9.16793 14.4615L8.3673 17.3527ZM1.38011 8.33961V5.0471H4.38011V8.33961H1.38011ZM1.38011 5.0471C1.38011 4.46621 1.60828 3.95847 1.84585 3.60561C2.08399 3.25191 2.46541 2.8549 2.9932 2.63499L4.14705 5.40422C4.24261 5.3644 4.2941 5.32122 4.30996 5.30705C4.32822 5.29072 4.3339 5.28181 4.33438 5.28109C4.33482 5.28044 4.34171 5.27072 4.35071 5.24539C4.35863 5.22309 4.38011 5.15523 4.38011 5.0471H1.38011ZM3.00189 2.6314L7.17937 0.921424L8.31584 3.69783L4.13836 5.40781L3.00189 2.6314ZM7.18166 0.920489C7.76374 0.683343 8.37576 0.562115 9.00011 0.562115V3.56211C8.76946 3.56211 8.54146 3.60591 8.31355 3.69877L7.18166 0.920489Z" fill="#0C5137" mask="url(#path-1-inside-1_886_4284)"/>
<mask id="path-3-inside-2_886_4284" fill="white">
<path d="M9 9.9375C10.14 9.9375 11.0625 9.015 11.0625 7.875C11.0625 6.735 10.14 5.8125 9 5.8125C7.86 5.8125 6.9375 6.735 6.9375 7.875C6.9375 9.015 7.86 9.9375 9 9.9375ZM9 6.9375C9.5175 6.9375 9.9375 7.3575 9.9375 7.875C9.9375 8.3925 9.5175 8.8125 9 8.8125C8.4825 8.8125 8.0625 8.3925 8.0625 7.875C8.0625 7.3575 8.4825 6.9375 9 6.9375Z"/>
</mask>
<path d="M9 9.9375C10.14 9.9375 11.0625 9.015 11.0625 7.875C11.0625 6.735 10.14 5.8125 9 5.8125C7.86 5.8125 6.9375 6.735 6.9375 7.875C6.9375 9.015 7.86 9.9375 9 9.9375ZM9 6.9375C9.5175 6.9375 9.9375 7.3575 9.9375 7.875C9.9375 8.3925 9.5175 8.8125 9 8.8125C8.4825 8.8125 8.0625 8.3925 8.0625 7.875C8.0625 7.3575 8.4825 6.9375 9 6.9375Z" fill="#292D32"/>
<path d="M9 8.4375C9.31157 8.4375 9.5625 8.18657 9.5625 7.875H12.5625C12.5625 9.84343 10.9684 11.4375 9 11.4375V8.4375ZM9.5625 7.875C9.5625 7.56343 9.31157 7.3125 9 7.3125V4.3125C10.9684 4.3125 12.5625 5.90657 12.5625 7.875H9.5625ZM9 7.3125C8.68843 7.3125 8.4375 7.56343 8.4375 7.875H5.4375C5.4375 5.90657 7.03157 4.3125 9 4.3125V7.3125ZM8.4375 7.875C8.4375 8.18657 8.68843 8.4375 9 8.4375V11.4375C7.03157 11.4375 5.4375 9.84343 5.4375 7.875H8.4375ZM9 5.4375C10.3459 5.4375 11.4375 6.52907 11.4375 7.875H8.4375C8.4375 8.18593 8.68907 8.4375 9 8.4375V5.4375ZM11.4375 7.875C11.4375 9.22093 10.3459 10.3125 9 10.3125V7.3125C8.68907 7.3125 8.4375 7.56407 8.4375 7.875H11.4375ZM9 10.3125C7.65407 10.3125 6.5625 9.22093 6.5625 7.875H9.5625C9.5625 7.56407 9.31093 7.3125 9 7.3125V10.3125ZM6.5625 7.875C6.5625 6.52907 7.65407 5.4375 9 5.4375V8.4375C9.31093 8.4375 9.5625 8.18593 9.5625 7.875H6.5625Z" fill="#0C5137" mask="url(#path-3-inside-2_886_4284)"/>
<mask id="path-5-inside-3_886_4284" fill="white">
<path d="M9 12.1875C9.3075 12.1875 9.5625 11.9325 9.5625 11.625V9.375C9.5625 9.0675 9.3075 8.8125 9 8.8125C8.6925 8.8125 8.4375 9.0675 8.4375 9.375V11.625C8.4375 11.9325 8.6925 12.1875 9 12.1875Z"/>
</mask>
<path d="M9 12.1875C9.3075 12.1875 9.5625 11.9325 9.5625 11.625V9.375C9.5625 9.0675 9.3075 8.8125 9 8.8125C8.6925 8.8125 8.4375 9.0675 8.4375 9.375V11.625C8.4375 11.9325 8.6925 12.1875 9 12.1875Z" fill="#292D32"/>
<path d="M9 10.6875C8.47907 10.6875 8.0625 11.1041 8.0625 11.625H11.0625C11.0625 12.7609 10.1359 13.6875 9 13.6875V10.6875ZM8.0625 11.625V9.375H11.0625V11.625H8.0625ZM8.0625 9.375C8.0625 9.89593 8.47907 10.3125 9 10.3125V7.3125C10.1359 7.3125 11.0625 8.23907 11.0625 9.375H8.0625ZM9 10.3125C9.52093 10.3125 9.9375 9.89593 9.9375 9.375H6.9375C6.9375 8.23907 7.86407 7.3125 9 7.3125V10.3125ZM9.9375 9.375V11.625H6.9375V9.375H9.9375ZM9.9375 11.625C9.9375 11.1041 9.52093 10.6875 9 10.6875V13.6875C7.86407 13.6875 6.9375 12.7609 6.9375 11.625H9.9375Z" fill="#0C5137" mask="url(#path-5-inside-3_886_4284)"/>
</svg>
