<svg width="16" height="16" viewBox="0 0 16 16" fill="none" xmlns="http://www.w3.org/2000/svg">
<mask id="path-1-inside-1_328_3529" fill="white">
<path d="M8.33317 14.4999C12.0998 14.4999 15.1665 11.4333 15.1665 7.66659C15.1665 3.89992 12.0998 0.833252 8.33317 0.833252C4.5665 0.833252 1.49984 3.89992 1.49984 7.66659C1.49984 11.4333 4.5665 14.4999 8.33317 14.4999ZM8.33317 1.83325C11.5532 1.83325 14.1665 4.45325 14.1665 7.66659C14.1665 10.8799 11.5532 13.4999 8.33317 13.4999C5.11317 13.4999 2.49984 10.8799 2.49984 7.66659C2.49984 4.45325 5.11317 1.83325 8.33317 1.83325Z"/>
</mask>
<path d="M8.33317 14.4999C12.0998 14.4999 15.1665 11.4333 15.1665 7.66659C15.1665 3.89992 12.0998 0.833252 8.33317 0.833252C4.5665 0.833252 1.49984 3.89992 1.49984 7.66659C1.49984 11.4333 4.5665 14.4999 8.33317 14.4999ZM8.33317 1.83325C11.5532 1.83325 14.1665 4.45325 14.1665 7.66659C14.1665 10.8799 11.5532 13.4999 8.33317 13.4999C5.11317 13.4999 2.49984 10.8799 2.49984 7.66659C2.49984 4.45325 5.11317 1.83325 8.33317 1.83325Z" fill="#292D32"/>
<path d="M8.33317 12.9999C11.2714 12.9999 13.6665 10.6048 13.6665 7.66659H16.6665C16.6665 12.2617 12.9283 15.9999 8.33317 15.9999V12.9999ZM13.6665 7.66659C13.6665 4.72835 11.2714 2.33325 8.33317 2.33325V-0.666748C12.9283 -0.666748 16.6665 3.07149 16.6665 7.66659H13.6665ZM8.33317 2.33325C5.39493 2.33325 2.99984 4.72835 2.99984 7.66659H-0.000163078C-0.000163078 3.07149 3.73808 -0.666748 8.33317 -0.666748V2.33325ZM2.99984 7.66659C2.99984 10.6048 5.39493 12.9999 8.33317 12.9999V15.9999C3.73808 15.9999 -0.000163078 12.2617 -0.000163078 7.66659H2.99984ZM8.33317 0.333252C12.3827 0.333252 15.6665 3.62594 15.6665 7.66659H12.6665C12.6665 5.28056 10.7236 3.33325 8.33317 3.33325V0.333252ZM15.6665 7.66659C15.6665 11.7072 12.3827 14.9999 8.33317 14.9999V11.9999C10.7236 11.9999 12.6665 10.0526 12.6665 7.66659H15.6665ZM8.33317 14.9999C4.28363 14.9999 0.999837 11.7072 0.999837 7.66659H3.99984C3.99984 10.0526 5.94271 11.9999 8.33317 11.9999V14.9999ZM0.999837 7.66659C0.999837 3.62594 4.28363 0.333252 8.33317 0.333252V3.33325C5.94271 3.33325 3.99984 5.28056 3.99984 7.66659H0.999837Z" fill="#0C5137" mask="url(#path-1-inside-1_328_3529)"/>
<mask id="path-3-inside-2_328_3529" fill="white">
<path d="M1.33337 15.1666C1.46004 15.1666 1.58671 15.12 1.68671 15.02L3.02004 13.6866C3.21337 13.4933 3.21337 13.1733 3.02004 12.98C2.82671 12.7866 2.5067 12.7866 2.31337 12.98L0.980038 14.3133C0.786705 14.5066 0.786705 14.8266 0.980038 15.02C1.08004 15.12 1.20671 15.1666 1.33337 15.1666Z"/>
</mask>
<path d="M1.33337 15.1666C1.46004 15.1666 1.58671 15.12 1.68671 15.02L3.02004 13.6866C3.21337 13.4933 3.21337 13.1733 3.02004 12.98C2.82671 12.7866 2.5067 12.7866 2.31337 12.98L0.980038 14.3133C0.786705 14.5066 0.786705 14.8266 0.980038 15.02C1.08004 15.12 1.20671 15.1666 1.33337 15.1666Z" fill="#292D32"/>
<path d="M1.68671 15.02L2.74737 16.0806L1.68671 15.02ZM3.02004 13.6866L1.95938 12.626L3.02004 13.6866ZM2.31337 12.98L3.37403 14.0406L2.31337 12.98ZM0.980038 14.3133L-0.080622 13.2526L0.980038 14.3133ZM1.33337 13.6666C1.08369 13.6666 0.822178 13.7632 0.626045 13.9593L2.74737 16.0806C2.35123 16.4768 1.83639 16.6666 1.33337 16.6666V13.6666ZM0.626045 13.9593L1.95938 12.626L4.0807 14.7473L2.74737 16.0806L0.626045 13.9593ZM1.95938 12.626C1.56693 13.0184 1.56693 13.6482 1.95938 14.0406L4.0807 11.9193C4.85982 12.6984 4.85982 13.9682 4.0807 14.7473L1.95938 12.626ZM1.95938 14.0406C2.35183 14.4331 2.98158 14.4331 3.37403 14.0406L1.25271 11.9193C2.03183 11.1402 3.30158 11.1402 4.0807 11.9193L1.95938 14.0406ZM3.37403 14.0406L2.0407 15.374L-0.080622 13.2526L1.25271 11.9193L3.37403 14.0406ZM2.0407 15.374C2.43315 14.9815 2.43315 14.3518 2.0407 13.9593L-0.080622 16.0806C-0.859742 15.3015 -0.859742 14.0318 -0.080622 13.2526L2.0407 15.374ZM2.0407 13.9593C1.84457 13.7632 1.58306 13.6666 1.33337 13.6666V16.6666C0.830352 16.6666 0.31551 16.4768 -0.080622 16.0806L2.0407 13.9593Z" fill="#0C5137" mask="url(#path-3-inside-2_328_3529)"/>
</svg>
