<svg width="20" height="20" viewBox="0 0 20 20" fill="none" xmlns="http://www.w3.org/2000/svg">
<path d="M18.0892 9.4109L11.4226 2.74423C11.306 2.62773 11.1576 2.54839 10.9959 2.51625C10.8343 2.48411 10.6668 2.50061 10.5145 2.56367C10.3623 2.62673 10.2322 2.73351 10.1406 2.87052C10.049 3.00753 10.0001 3.16861 10.0001 3.3334V6.28757C7.72366 6.49823 5.60777 7.55078 4.06649 9.23926C2.52521 10.9277 1.66947 13.1306 1.66675 15.4167V16.6667C1.66688 16.8397 1.72084 17.0084 1.82114 17.1493C1.92145 17.2902 2.06312 17.3965 2.22652 17.4533C2.38992 17.51 2.56693 17.5146 2.73302 17.4662C2.89911 17.4179 3.04603 17.319 3.15341 17.1834C3.96995 16.2127 4.9717 15.4143 6.10016 14.835C7.22863 14.2557 8.4612 13.907 9.72591 13.8092C9.76758 13.8042 9.87175 13.7959 10.0001 13.7876V16.6667C10.0001 16.8315 10.049 16.9926 10.1406 17.1296C10.2322 17.2666 10.3623 17.3734 10.5145 17.4365C10.6668 17.4995 10.8343 17.516 10.9959 17.4839C11.1576 17.4517 11.306 17.3724 11.4226 17.2559L18.0892 10.5892C18.2455 10.433 18.3332 10.221 18.3332 10.0001C18.3332 9.7791 18.2455 9.56717 18.0892 9.4109ZM11.6667 14.6551V12.9167C11.6667 12.6957 11.5789 12.4838 11.4227 12.3275C11.2664 12.1712 11.0544 12.0834 10.8334 12.0834C10.6209 12.0834 9.75341 12.1251 9.53175 12.1542C7.28574 12.3609 5.14781 13.2143 3.37675 14.6109C3.57778 12.7729 4.4497 11.0737 5.82554 9.83853C7.20139 8.60338 8.98448 7.91911 10.8334 7.91673C11.0544 7.91673 11.2664 7.82894 11.4227 7.67266C11.5789 7.51638 11.6667 7.30441 11.6667 7.0834V5.34507L16.3217 10.0001L11.6667 14.6551Z" fill="#0C5137"/>
</svg>
